%TF.GenerationSoftware,KiCad,Pcbnew,8.0.3*%
%TF.CreationDate,2024-07-07T23:54:37+03:00*%
%TF.ProjectId,STM32_Motor_Kit_v0.1,53544d33-325f-44d6-9f74-6f725f4b6974,rev?*%
%TF.SameCoordinates,Original*%
%TF.FileFunction,Copper,L2,Inr*%
%TF.FilePolarity,Positive*%
%FSLAX46Y46*%
G04 Gerber Fmt 4.6, Leading zero omitted, Abs format (unit mm)*
G04 Created by KiCad (PCBNEW 8.0.3) date 2024-07-07 23:54:37*
%MOMM*%
%LPD*%
G01*
G04 APERTURE LIST*
%TA.AperFunction,ComponentPad*%
%ADD10R,1.700000X1.700000*%
%TD*%
%TA.AperFunction,ComponentPad*%
%ADD11O,1.700000X1.700000*%
%TD*%
%TA.AperFunction,ComponentPad*%
%ADD12R,1.600000X1.600000*%
%TD*%
%TA.AperFunction,ComponentPad*%
%ADD13C,1.600000*%
%TD*%
%TA.AperFunction,ComponentPad*%
%ADD14C,0.800000*%
%TD*%
%TA.AperFunction,ComponentPad*%
%ADD15C,5.600000*%
%TD*%
%TA.AperFunction,ComponentPad*%
%ADD16R,2.000000X2.000000*%
%TD*%
%TA.AperFunction,ComponentPad*%
%ADD17C,2.000000*%
%TD*%
%TA.AperFunction,ComponentPad*%
%ADD18O,1.600000X1.600000*%
%TD*%
%TA.AperFunction,ComponentPad*%
%ADD19R,2.600000X2.600000*%
%TD*%
%TA.AperFunction,ComponentPad*%
%ADD20C,2.600000*%
%TD*%
%TA.AperFunction,ComponentPad*%
%ADD21O,2.500000X4.000000*%
%TD*%
%TA.AperFunction,ComponentPad*%
%ADD22O,3.000000X4.000000*%
%TD*%
%TA.AperFunction,ViaPad*%
%ADD23C,0.800000*%
%TD*%
%TA.AperFunction,ViaPad*%
%ADD24C,0.500000*%
%TD*%
G04 APERTURE END LIST*
D10*
%TO.N,Net-(JP13-A)*%
%TO.C,JP13*%
X100250000Y-120525000D03*
D11*
%TO.N,+5V*%
X100250000Y-117985000D03*
%TD*%
D12*
%TO.N,Net-(U9-VB)*%
%TO.C,C57*%
X142450000Y-103250000D03*
D13*
%TO.N,/Motor_Control/W_Phase_COM*%
X142450000Y-106250000D03*
%TD*%
D10*
%TO.N,+5V*%
%TO.C,JP4*%
X84025000Y-111945000D03*
D11*
%TO.N,Net-(JP4-B)*%
X81485000Y-111945000D03*
%TD*%
D12*
%TO.N,Net-(JP6-B)*%
%TO.C,C43*%
X121700000Y-83694888D03*
D13*
%TO.N,GND*%
X121700000Y-86194888D03*
%TD*%
D10*
%TO.N,GND*%
%TO.C,J2*%
X54460000Y-83860000D03*
D11*
%TO.N,Net-(J2-Pin_2)*%
X57000000Y-83860000D03*
%TO.N,GND*%
X54460000Y-86400000D03*
%TO.N,/MCU/RST*%
X57000000Y-86400000D03*
%TO.N,Net-(J2-Pin_5)*%
X54460000Y-88940000D03*
%TO.N,/MCU/SWDIO*%
X57000000Y-88940000D03*
%TO.N,Net-(J2-Pin_7)*%
X54460000Y-91480000D03*
%TO.N,/MCU/SWCLK*%
X57000000Y-91480000D03*
%TD*%
D14*
%TO.N,unconnected-(H2-Pad1)*%
%TO.C,H2*%
X192800000Y-55000000D03*
X193500000Y-53500000D03*
X193500000Y-56500000D03*
X195000000Y-52800000D03*
D15*
X195000000Y-55000000D03*
D14*
X195000000Y-57200000D03*
X196500000Y-53500000D03*
X196500000Y-56500000D03*
X197200000Y-55000000D03*
%TD*%
D10*
%TO.N,Net-(JP10-A)*%
%TO.C,JP10*%
X116575000Y-124000000D03*
D11*
%TO.N,+3.3V*%
X114035000Y-124000000D03*
%TD*%
D16*
%TO.N,+24V*%
%TO.C,C19*%
X144250000Y-67382323D03*
D17*
%TO.N,GND*%
X144250000Y-72382323D03*
%TD*%
D10*
%TO.N,+15V*%
%TO.C,JP6*%
X114025000Y-84900000D03*
D11*
%TO.N,Net-(JP6-B)*%
X116565000Y-84900000D03*
%TD*%
D12*
%TO.N,Net-(JP5-B)*%
%TO.C,C45*%
X121700000Y-104094888D03*
D13*
%TO.N,GND*%
X121700000Y-106594888D03*
%TD*%
D12*
%TO.N,/MCU/BOOT*%
%TO.C,SW1*%
X62300000Y-96750000D03*
D18*
%TO.N,+3.3V_MCU*%
X54680000Y-96750000D03*
%TD*%
D16*
%TO.N,Vbus*%
%TO.C,C58*%
X180750000Y-72117677D03*
D17*
%TO.N,GND*%
X180750000Y-67117677D03*
%TD*%
D12*
%TO.N,Net-(U7-VB)*%
%TO.C,C53*%
X142450000Y-83250000D03*
D13*
%TO.N,/Motor_Control/U_Phase_COM*%
X142450000Y-86250000D03*
%TD*%
D10*
%TO.N,Net-(JP12-A)*%
%TO.C,JP12*%
X133075000Y-129500000D03*
D11*
%TO.N,+5V*%
X135615000Y-129500000D03*
%TD*%
D16*
%TO.N,Vbus*%
%TO.C,C59*%
X191750000Y-72117677D03*
D17*
%TO.N,GND*%
X191750000Y-67117677D03*
%TD*%
D14*
%TO.N,unconnected-(H4-Pad1)*%
%TO.C,H4*%
X192800000Y-145000000D03*
X193500000Y-143500000D03*
X193500000Y-146500000D03*
X195000000Y-142800000D03*
D15*
X195000000Y-145000000D03*
D14*
X195000000Y-147200000D03*
X196500000Y-143500000D03*
X196500000Y-146500000D03*
X197200000Y-145000000D03*
%TD*%
D12*
%TO.N,+5V*%
%TO.C,C31*%
X106400000Y-54597349D03*
D13*
%TO.N,GND*%
X106400000Y-59597349D03*
%TD*%
D19*
%TO.N,/CanBus_Communication/CAN_L*%
%TO.C,J3*%
X81750000Y-144805000D03*
D20*
%TO.N,/CanBus_Communication/CAN_H*%
X86750000Y-144805000D03*
%TD*%
D10*
%TO.N,+15V*%
%TO.C,JP7*%
X114025000Y-95100000D03*
D11*
%TO.N,Net-(JP7-B)*%
X116565000Y-95100000D03*
%TD*%
D19*
%TO.N,GND(SHIELD)*%
%TO.C,J5*%
X131000000Y-145000000D03*
D20*
%TO.N,GND*%
X136000000Y-145000000D03*
%TO.N,Net-(J5-Pin_3)*%
X141000000Y-145000000D03*
%TO.N,Net-(J5-Pin_4)*%
X146000000Y-145000000D03*
%TO.N,Net-(J5-Pin_5)*%
X151000000Y-145000000D03*
%TD*%
D21*
%TO.N,Net-(J1-Pin_1)*%
%TO.C,F1*%
X166130000Y-56000000D03*
%TO.N,Vbus*%
X181370000Y-56000000D03*
%TD*%
D19*
%TO.N,Net-(J1-Pin_1)*%
%TO.C,J1*%
X156750000Y-55195000D03*
D20*
%TO.N,GND*%
X151750000Y-55195000D03*
%TD*%
D10*
%TO.N,Net-(JP15-A)*%
%TO.C,JP15*%
X84000000Y-70775000D03*
D11*
%TO.N,+3.3V*%
X84000000Y-68235000D03*
%TD*%
D19*
%TO.N,/Motor_Control/U_Phase_COM*%
%TO.C,J4*%
X171000000Y-145000000D03*
D20*
%TO.N,/Motor_Control/V_Phase_COM*%
X176000000Y-145000000D03*
%TO.N,/Motor_Control/W_Phase_COM*%
X181000000Y-145000000D03*
%TD*%
D12*
%TO.N,Net-(JP7-B)*%
%TO.C,C44*%
X121700000Y-93894888D03*
D13*
%TO.N,GND*%
X121700000Y-96394888D03*
%TD*%
D10*
%TO.N,Net-(JP3-A)*%
%TO.C,JP3*%
X116500000Y-75400000D03*
D11*
%TO.N,+3.3V*%
X113960000Y-75400000D03*
%TD*%
D14*
%TO.N,unconnected-(H3-Pad1)*%
%TO.C,H3*%
X52800000Y-145000000D03*
X53500000Y-143500000D03*
X53500000Y-146500000D03*
X55000000Y-142800000D03*
D15*
X55000000Y-145000000D03*
D14*
X55000000Y-147200000D03*
X56500000Y-143500000D03*
X56500000Y-146500000D03*
X57200000Y-145000000D03*
%TD*%
D10*
%TO.N,Net-(JP9-A)*%
%TO.C,JP9*%
X116575000Y-117600000D03*
D11*
%TO.N,+3.3V*%
X114035000Y-117600000D03*
%TD*%
D10*
%TO.N,unconnected-(J6-Pin_1-Pad1)*%
%TO.C,J6*%
X57075000Y-79675000D03*
D11*
%TO.N,unconnected-(J6-Pin_2-Pad2)*%
X54535000Y-79675000D03*
%TO.N,unconnected-(J6-Pin_3-Pad3)*%
X57075000Y-77135000D03*
%TO.N,unconnected-(J6-Pin_4-Pad4)*%
X54535000Y-77135000D03*
%TO.N,unconnected-(J6-Pin_5-Pad5)*%
X57075000Y-74595000D03*
%TO.N,unconnected-(J6-Pin_6-Pad6)*%
X54535000Y-74595000D03*
%TO.N,unconnected-(J6-Pin_7-Pad7)*%
X57075000Y-72055000D03*
%TO.N,unconnected-(J6-Pin_8-Pad8)*%
X54535000Y-72055000D03*
%TO.N,unconnected-(J6-Pin_9-Pad9)*%
X57075000Y-69515000D03*
%TO.N,unconnected-(J6-Pin_10-Pad10)*%
X54535000Y-69515000D03*
%TD*%
D14*
%TO.N,unconnected-(H1-Pad1)*%
%TO.C,H1*%
X52800000Y-55000000D03*
X53500000Y-53500000D03*
X53500000Y-56500000D03*
X55000000Y-52800000D03*
D15*
X55000000Y-55000000D03*
D14*
X55000000Y-57200000D03*
X56500000Y-53500000D03*
X56500000Y-56500000D03*
X57200000Y-55000000D03*
%TD*%
D10*
%TO.N,Net-(JP2-A)*%
%TO.C,JP2*%
X100100000Y-58775000D03*
D11*
%TO.N,+5V*%
X100100000Y-56235000D03*
%TD*%
D22*
%TO.N,+3.3V*%
%TO.C,RV1*%
X110000000Y-145000000D03*
%TO.N,Net-(R89-Pad1)*%
X115000000Y-145000000D03*
%TO.N,Net-(R88-Pad2)*%
X120000000Y-145000000D03*
%TD*%
D16*
%TO.N,Vbus*%
%TO.C,C103*%
X169800000Y-72117677D03*
D17*
%TO.N,GND*%
X169800000Y-67117677D03*
%TD*%
D10*
%TO.N,+3.3V*%
%TO.C,JP1*%
X94000000Y-78725000D03*
D11*
%TO.N,+3.3V_MCU*%
X94000000Y-81265000D03*
%TD*%
D10*
%TO.N,+15V*%
%TO.C,JP5*%
X114025000Y-105300000D03*
D11*
%TO.N,Net-(JP5-B)*%
X116565000Y-105300000D03*
%TD*%
D10*
%TO.N,Net-(JP14-A)*%
%TO.C,JP14*%
X69550000Y-120525000D03*
D11*
%TO.N,+5V*%
X69550000Y-117985000D03*
%TD*%
D19*
%TO.N,/RS485_Communication/RS485_0_P*%
%TO.C,J7*%
X93250000Y-144805000D03*
D20*
%TO.N,/RS485_Communication/RS485_0_N*%
X98250000Y-144805000D03*
%TD*%
D10*
%TO.N,Net-(JP8-A)*%
%TO.C,JP8*%
X116575000Y-111600000D03*
D11*
%TO.N,+3.3V*%
X114035000Y-111600000D03*
%TD*%
D12*
%TO.N,Net-(JP2-A)*%
%TO.C,C11*%
X95200000Y-60905113D03*
D13*
%TO.N,GND*%
X95200000Y-58405113D03*
%TD*%
D10*
%TO.N,Net-(JP11-A)*%
%TO.C,JP11*%
X127875000Y-129500000D03*
D11*
%TO.N,+3.3V*%
X125335000Y-129500000D03*
%TD*%
D12*
%TO.N,Net-(U8-VB)*%
%TO.C,C55*%
X142450000Y-93250000D03*
D13*
%TO.N,/Motor_Control/V_Phase_COM*%
X142450000Y-96250000D03*
%TD*%
D23*
%TO.N,+3.3V*%
X140800000Y-108600000D03*
X140800000Y-120600000D03*
X140800000Y-114600000D03*
%TO.N,GND*%
X120250000Y-90250000D03*
D24*
X65550000Y-132900000D03*
D23*
X91000000Y-126750000D03*
X123000000Y-53250000D03*
X122500000Y-90250000D03*
X121000000Y-109500000D03*
X122500000Y-100500000D03*
X124800000Y-123100000D03*
D24*
X69050000Y-134150000D03*
X83385000Y-116000000D03*
D23*
X124800000Y-110900000D03*
X67100000Y-61850000D03*
X124750000Y-100500000D03*
X121000000Y-115500000D03*
X99000000Y-128250000D03*
X136500000Y-115500000D03*
X136500000Y-121500000D03*
X120250000Y-100500000D03*
X121000000Y-121750000D03*
D24*
X82750000Y-135750000D03*
D23*
X124800000Y-116900000D03*
X91000000Y-128250000D03*
X124750000Y-90250000D03*
D24*
X86000000Y-116000000D03*
D23*
X82750000Y-128250000D03*
X136500000Y-109500000D03*
X99000000Y-126750000D03*
%TO.N,+5V*%
X142750000Y-133500000D03*
X141500000Y-133500000D03*
X145000000Y-138000000D03*
X140250000Y-133500000D03*
D24*
X88000000Y-118750000D03*
D23*
X152000000Y-138000000D03*
%TO.N,+15V*%
X110500000Y-78000000D03*
X113000000Y-79000000D03*
X111750000Y-78000000D03*
X114250000Y-79000000D03*
X110500000Y-79000000D03*
X114250000Y-78000000D03*
X111750000Y-79000000D03*
X113000000Y-78000000D03*
%TO.N,/Motor_Control/U_Phase_COM*%
X156500000Y-87750000D03*
X155250000Y-87750000D03*
%TO.N,/Motor_Control/V_Phase_COM*%
X171250000Y-88000000D03*
X170250000Y-88000000D03*
%TO.N,/Motor_Control/W_Phase_COM*%
X191750000Y-88500000D03*
X184500000Y-87750000D03*
X185500000Y-87750000D03*
X190750000Y-88500000D03*
%TO.N,Vbus*%
X156500000Y-77750000D03*
X184000000Y-59000000D03*
X178500000Y-59000000D03*
X178500000Y-57000000D03*
X184000000Y-55000000D03*
X178500000Y-53000000D03*
X176500000Y-57000000D03*
X186000000Y-57000000D03*
X176500000Y-59000000D03*
X155500000Y-77750000D03*
X176500000Y-53000000D03*
X178500000Y-55000000D03*
X186000000Y-55000000D03*
X184000000Y-53000000D03*
X176500000Y-55000000D03*
X186000000Y-59000000D03*
X184000000Y-57000000D03*
X186000000Y-53000000D03*
%TO.N,/Motor_Control/V_Shunt_High*%
X168500000Y-104300000D03*
X150800000Y-117100000D03*
%TO.N,/Motor_Control/W_Shunt_High*%
X183000000Y-104400000D03*
X150800000Y-123100000D03*
D24*
%TO.N,Net-(JP14-A)*%
X70300000Y-128900000D03*
X72300000Y-123150000D03*
D23*
%TO.N,Net-(D15-Pad2)*%
X150750000Y-83750000D03*
X160250000Y-85250000D03*
%TO.N,Net-(D16-Pad2)*%
X160500000Y-97250000D03*
X153250000Y-96750000D03*
%TO.N,Net-(D19-Pad2)*%
X150750000Y-91250000D03*
X175000000Y-85500000D03*
%TO.N,Net-(D20-Pad2)*%
X150500000Y-97000000D03*
X175000000Y-97250000D03*
%TO.N,Net-(D23-Pad2)*%
X189500000Y-85500000D03*
X152000000Y-94750000D03*
%TO.N,Net-(D24-Pad2)*%
X189500000Y-97250000D03*
X150750000Y-101500000D03*
D24*
%TO.N,Net-(U15-QA)*%
X60050000Y-123400000D03*
X63300000Y-123400000D03*
%TO.N,Net-(U15-QB)*%
X64800000Y-124150000D03*
X55300000Y-127650000D03*
%TO.N,Net-(U15-QC)*%
X61000000Y-128600000D03*
X64800000Y-125400000D03*
%TO.N,Net-(U15-QD)*%
X64800000Y-126650000D03*
X59700000Y-129500000D03*
%TO.N,Net-(U15-QE)*%
X55300000Y-133400000D03*
X64800000Y-128150000D03*
D23*
%TO.N,/Motor_Control/UVW_Phase_Total*%
X150800000Y-124600000D03*
X168500000Y-105500000D03*
X183000000Y-105400000D03*
X150800000Y-118600000D03*
%TD*%
M02*
