M48
; DRILL file {KiCad 8.0.4} date 2024-09-01T16:51:36+0300
; FORMAT={-:-/ absolute / inch / decimal}
; #@! TF.CreationDate,2024-09-01T16:51:36+03:00
; #@! TF.GenerationSoftware,Kicad,Pcbnew,8.0.4
; #@! TF.FileFunction,Plated,1,4,PTH
FMAT,2
INCH
; #@! TA.AperFunction,Plated,PTH,ViaDrill
T1C0.0118
; #@! TA.AperFunction,Plated,PTH,ViaDrill
T2C0.0157
; #@! TA.AperFunction,Plated,PTH,ComponentDrill
T3C0.0157
; #@! TA.AperFunction,Plated,PTH,ComponentDrill
T4C0.0315
; #@! TA.AperFunction,Plated,PTH,ComponentDrill
T5C0.0394
; #@! TA.AperFunction,Plated,PTH,ComponentDrill
T6C0.0512
; #@! TA.AperFunction,Plated,PTH,ComponentDrill
T7C0.0591
; #@! TA.AperFunction,Plated,PTH,ComponentDrill
T8C0.1260
%
G90
G05
T1
X-0.2835Y0.4075
X-0.2835Y0.1811
X-0.1102Y0.3346
X-0.0965Y0.5748
X-0.0591Y0.3701
X0.0315Y0.5748
X0.0906Y0.5453
X0.0906Y0.4961
X0.0906Y0.4469
X0.0906Y0.3878
X0.1201Y0.2008
X0.2579Y0.1516
X0.3071Y0.3583
X0.3858Y0.5846
X0.7972Y0.2264
T2
X-0.3937Y3.189
X-0.3543Y3.2185
X-0.3346Y1.7224
X-0.3346Y1.4862
X-0.3346Y1.3189
X-0.3346Y1.0039
X-0.2953Y3.2185
X-0.2559Y1.6634
X-0.2559Y1.5551
X-0.2559Y1.4862
X-0.2362Y3.2185
X-0.2165Y3.0807
X-0.2067Y1.3189
X-0.2067Y1.2402
X-0.2067Y1.0039
X-0.2067Y0.9252
X-0.1791Y2.1457
X-0.1575Y2.0571
X-0.1575Y1.8799
X-0.0984Y1.2402
X-0.0984Y0.9252
X-0.0394Y1.7028
X-0.0295Y3.3465
X-0.0197Y3.0906
X-0.0197Y3.0315
X-0.0197Y2.9724
X-0.0197Y2.9134
X-0.0197Y2.8543
X-0.0197Y2.7953
X-0.0197Y2.7362
X-0.0197Y2.6772
X-0.0197Y2.6181
X-0.0197Y2.5591
X-0.0197Y2.5
X-0.0197Y2.4409
X-0.0197Y2.3819
X-0.0197Y2.3228
X-0.0197Y2.2638
X-0.0098Y1.4862
X0.0275Y2.2149
X0.0295Y2.0571
X0.0295Y1.7618
X0.0295Y1.7028
X0.0394Y3.1398
X0.0492Y-0.0787
X0.0492Y-0.1378
X0.0492Y-0.1969
X0.0787Y3.4547
X0.0787Y1.5846
X0.0886Y3.0807
X0.0886Y3.002
X0.0886Y2.1654
X0.0984Y0.0591
X0.1132Y1.7058
X0.128Y2.9134
X0.128Y1.7618
X0.128Y1.25
X0.128Y0.935
X0.1378Y1.4764
X0.1673Y3.4547
X0.1673Y1.9193
X0.1772Y-0.0787
X0.1772Y-0.1969
X0.1811Y3.1358
X0.187Y1.4075
X0.187Y1.25
X0.187Y0.935
X0.2362Y2.7461
X0.2362Y1.9587
X0.2461Y2.9134
X0.2461Y2.0079
X0.2461Y1.7618
X0.2559Y3.4547
X0.2854Y1.8504
X0.2854Y1.7913
X0.2854Y1.7323
X0.2953Y2.0276
X0.2953Y-0.0787
X0.2953Y-0.1969
X0.315Y2.8248
X0.315Y2.7461
X0.315Y2.6772
X0.315Y1.4173
X0.315Y1.2598
X0.3248Y1.6732
X0.3346Y2.4606
X0.3346Y0.9941
X0.3346Y0.9055
X0.3445Y2.0374
X0.3543Y2.9134
X0.374Y3.3465
X0.374Y1.624
X0.3937Y2.8248
X0.3937Y2.7461
X0.3937Y2.6772
X0.3937Y0.8268
X0.3937Y0.748
X0.4035Y1.6732
X0.4134Y-0.0787
X0.4134Y-0.1969
X0.4232Y1.5748
X0.4429Y1.8504
X0.4429Y1.7913
X0.4528Y0.7283
X0.4528Y0.5709
X0.4528Y0.0591
X0.4724Y3.1791
X0.4823Y3.4941
X0.4921Y2.9724
X0.4921Y2.8937
X0.4921Y2.815
X0.4921Y2.7362
X0.4921Y2.6575
X0.4921Y2.4606
X0.4921Y2.3917
X0.4921Y1.5354
X0.4921Y1.4665
X0.4966Y1.2006
X0.4973Y1.4196
X0.502Y3.1299
X0.5118Y3.4547
X0.5315Y3.1791
X0.5315Y0.935
X0.5315Y0.0591
X0.5315Y-0.0787
X0.5315Y-0.1969
X0.5413Y3.4941
X0.5512Y2.2244
X0.561Y3.2283
X0.561Y3.1299
X0.561Y1.7913
X0.561Y1.5354
X0.5709Y3.4547
X0.5709Y2.9724
X0.5807Y0.8858
X0.5906Y3.1791
X0.6004Y3.4941
X0.6004Y2.8051
X0.6004Y1.565
X0.6004Y1.4665
X0.6083Y1.689
X0.6201Y3.1299
X0.6299Y3.4547
X0.6299Y1.3976
X0.6299Y1.2992
X0.6299Y1.2008
X0.6496Y3.1791
X0.6496Y2.8051
X0.6496Y2.1949
X0.6594Y3.4941
X0.6693Y1.7421
X0.6693Y1.6929
X0.6693Y0.9843
X0.6693Y0.7776
X0.6708Y0.6903
X0.6746Y0.5205
X0.6791Y3.2283
X0.6791Y3.1299
X0.689Y1.4862
X0.689Y0.2953
X0.689Y0.2165
X0.689Y0.1378
X0.689Y0.0591
X0.7087Y3.1791
X0.7185Y1.6535
X0.7382Y3.2283
X0.7382Y3.1299
X0.748Y2.2343
X0.748Y1.9488
X0.7722Y1.0039
X0.7776Y3.4941
X0.7776Y1.9882
X0.7874Y3.435
X0.7874Y2.4508
X0.7874Y1.5354
X0.7972Y3.1299
X0.7972Y0.5217
X0.8071Y3.376
X0.8071Y3.3071
X0.8118Y1.8613
X0.8169Y2.4902
X0.8222Y1.0039
X0.8465Y1.9882
X0.8465Y1.9193
X0.8563Y1.7717
X0.8661Y2.0276
X0.876Y2.4803
X0.8858Y2.0768
X0.8858Y0.0591
X0.8957Y3.376
X0.8957Y3.3071
X0.9006Y2.5246
X0.9134Y1.5551
X0.9252Y2.6772
X0.94Y2.0817
X0.9449Y2.9724
X0.9449Y2.8839
X0.9449Y2.8051
X0.9449Y2.7264
X0.9646Y1.1614
X0.9646Y0.935
X0.9646Y0.6496
X0.9646Y0.5315
X0.9646Y0.4134
X0.9646Y0.2953
X0.9646Y0.1772
X0.9646Y0.0591
X0.9695Y2.5049
X0.9843Y3.376
X0.9843Y3.3071
X0.9843Y2.5492
X0.9843Y1.8996
X0.9843Y1.6142
X0.9843Y1.4862
X0.9843Y0.9941
X0.9941Y2.0768
X1.0039Y3.435
X1.0039Y2.9724
X1.0039Y2.6378
X1.0138Y3.4941
X1.0138Y1.939
X1.0236Y1.8307
X1.0335Y2.9232
X1.0335Y2.8445
X1.0335Y2.7657
X1.0335Y2.687
X1.0335Y0.7776
X1.0433Y2.5394
X1.0433Y1.9882
X1.0433Y1.3681
X1.0433Y1.2598
X1.0433Y1.1614
X1.0433Y0.6496
X1.0433Y0.5315
X1.0433Y0.4134
X1.0433Y0.2953
X1.0433Y0.1772
X1.0433Y0.0591
X1.063Y0.9941
X1.063Y0.9154
X1.0728Y3.3858
X1.0728Y3.2874
X1.0728Y1.6437
X1.0827Y1.4173
X1.1024Y3.3366
X1.122Y2.3031
X1.122Y2.2441
X1.122Y2.185
X1.122Y2.126
X1.122Y0.7677
X1.122Y0.6496
X1.122Y0.5315
X1.122Y0.4134
X1.122Y0.2953
X1.122Y0.1772
X1.1319Y3.3858
X1.1319Y3.2874
X1.1417Y2.5394
X1.1417Y2.4508
X1.1417Y2.3622
X1.1417Y1.6634
X1.1417Y1.4567
X1.1417Y1.2598
X1.1614Y3.3366
X1.1614Y1.3386
X1.1811Y2.3031
X1.1811Y2.2441
X1.1811Y2.185
X1.1811Y2.126
X1.1909Y3.3858
X1.1909Y3.2874
X1.2008Y2.0177
X1.2205Y3.3366
X1.2402Y2.5394
X1.2402Y2.4508
X1.2402Y2.3622
X1.2402Y2.185
X1.2402Y2.126
X1.2402Y1.3386
X1.2598Y2.9724
X1.2598Y2.6378
X1.2697Y1.6831
X1.2795Y3.3366
X1.2894Y1.2795
X1.3091Y1.6437
X1.3386Y3.3366
X1.3386Y2.9232
X1.3386Y2.5394
X1.3386Y2.4508
X1.3386Y2.3917
X1.3386Y2.3327
X1.3386Y2.2146
X1.3386Y1.4764
X1.3386Y1.3583
X1.3484Y1.5354
X1.3583Y3.2874
X1.3583Y3.1594
X1.3681Y2.9724
X1.3681Y2.8839
X1.378Y1.4173
X1.378Y1.1516
X1.3878Y2.1457
X1.3878Y2.0276
X1.3878Y1.811
X1.3898Y1.9534
X1.3976Y2.7657
X1.3976Y2.6378
X1.3976Y1.5354
X1.4075Y3.0413
X1.4075Y2.3917
X1.4075Y2.3327
X1.4075Y2.2146
X1.4129Y1.3578
X1.4173Y3.1594
X1.4173Y1.5945
X1.437Y3.4941
X1.437Y3.435
X1.437Y0.6496
X1.437Y0.5315
X1.437Y0.4134
X1.437Y0.2953
X1.437Y0.1772
X1.4469Y1.7028
X1.4724Y1.954
X1.4764Y3.1594
X1.4862Y2.6083
X1.4862Y2.5492
X1.4862Y1.8602
X1.4961Y3.4941
X1.4961Y3.435
X1.5059Y2.1161
X1.5059Y2.0669
X1.5121Y1.2004
X1.5157Y0.6496
X1.5157Y0.5315
X1.5157Y0.4134
X1.5157Y0.2953
X1.5157Y0.1772
X1.5256Y2.9921
X1.5256Y2.9331
X1.5256Y2.874
X1.5256Y2.815
X1.5354Y2.6083
X1.5354Y2.5492
X1.5354Y1.811
X1.5551Y3.4941
X1.5551Y3.435
X1.5551Y3.376
X1.5551Y2.4311
X1.5551Y2.2638
X1.5551Y2.0472
X1.5748Y1.7717
X1.5748Y1.1319
X1.5846Y2.9921
X1.5846Y2.9331
X1.5846Y2.874
X1.5846Y2.815
X1.5846Y2.6083
X1.5846Y2.5492
X1.6043Y1.9193
X1.6043Y1.7323
X1.6142Y3.4941
X1.6142Y3.435
X1.6142Y3.376
X1.6142Y3.0413
X1.624Y1.2795
X1.6339Y1.8799
X1.6377Y1.6847
X1.6437Y0.2756
X1.6437Y0.187
X1.6437Y0.0886
X1.6437Y-0.0197
X1.6437Y-0.128
X1.6437Y-0.2362
X1.6492Y1.0621
X1.6732Y3.4941
X1.6732Y3.435
X1.6732Y3.376
X1.6732Y3.0906
X1.6732Y3.0413
X1.6831Y1.2205
X1.7028Y2.4311
X1.7028Y0.4331
X1.7126Y2.2638
X1.7126Y2.0276
X1.7323Y3.0906
X1.7323Y3.0413
X1.7323Y1.5551
X1.7323Y1.437
X1.7421Y3.4941
X1.7421Y1.1614
X1.752Y0.2756
X1.752Y0.187
X1.752Y0.0886
X1.752Y-0.0197
X1.752Y-0.128
X1.752Y-0.2362
X1.7913Y3.0906
X1.7913Y3.0413
X1.811Y1.1614
X1.811Y0.9449
X1.811Y0.7087
X1.8504Y3.0906
X1.8504Y3.0413
X1.8504Y2.2638
X1.8504Y1.9685
X1.8504Y1.8504
X1.8504Y1.5551
X1.8504Y1.437
X1.8602Y0.4035
X1.8602Y0.2756
X1.8602Y0.187
X1.8602Y0.0886
X1.8701Y1.1614
X1.8701Y0.9449
X1.8701Y0.7087
X1.8799Y2.8937
X1.8799Y2.8346
X1.8799Y2.7756
X1.8898Y2.5
X1.8898Y2.4606
X1.8996Y2.1555
X1.8996Y2.0571
X1.9094Y1.752
X1.9094Y1.6535
X1.9094Y1.3583
X1.9094Y1.2598
X1.939Y2.5
X1.939Y2.4606
X1.9488Y0.2756
X1.9685Y1.2106
X1.9685Y1.1516
X1.9685Y0.9744
X1.9685Y0.9154
X1.9685Y0.7382
X1.9685Y0.6791
X1.9783Y2.313
X1.9783Y2.2441
X1.9783Y1.9094
X1.9783Y1.8307
X1.9783Y1.5059
X1.9783Y1.4173
X1.9882Y2.5
X1.9882Y2.4606
X2.0374Y2.5
X2.0374Y2.4606
X2.0472Y2.313
X2.0472Y1.9094
X2.0472Y1.5059
X2.1358Y0.4035
X2.185Y0.2756
X2.2047Y0.187
X2.2047Y0.0886
X2.2047Y-0.0197
X2.2638Y1.2598
X2.2638Y1.0236
X2.2638Y0.7874
X2.2736Y2.7854
X2.2736Y2.7165
X2.2736Y2.6476
X2.2736Y2.4114
X2.2736Y2.0177
X2.2736Y1.6142
X2.2736Y0.5873
X2.313Y0.0886
X2.313Y-0.0197
X2.3524Y2.7854
X2.3524Y2.7165
X2.3524Y2.6476
X2.3622Y2.0177
X2.3622Y1.6142
X2.3917Y2.4902
X2.3917Y2.4114
X2.4016Y2.5492
X2.4016Y2.1752
X2.4016Y1.7717
X2.4016Y1.378
X2.4016Y0.187
X2.4311Y3.4843
X2.4409Y2.7854
X2.4409Y2.7165
X2.4409Y2.6476
X2.4409Y2.2244
X2.4409Y1.8307
X2.4409Y1.437
X2.4409Y1.2106
X2.4409Y1.0728
X2.4409Y0.9744
X2.4409Y0.8366
X2.4409Y0.7382
X2.4409Y0.6004
X2.4508Y2.0177
X2.4508Y1.6142
X2.4843Y1.3346
X2.4902Y2.4114
X2.5098Y3.5039
X2.5197Y0.187
X2.5295Y2.7854
X2.5295Y2.7165
X2.5295Y2.6476
X2.5492Y2.4114
X2.5492Y2.0177
X2.5492Y1.6142
X2.5591Y3.4744
X2.5591Y3.4154
X2.5984Y1.3366
X2.5984Y1.1061
X2.5984Y0.8699
X2.5984Y0.6337
X2.6083Y3.5039
X2.6083Y3.4449
X2.6083Y2.7461
X2.6575Y3.4744
X2.6575Y3.4154
X2.6772Y0.2854
X2.6772Y0.2264
X2.7067Y3.5039
X2.7067Y3.4449
X2.7067Y3.3858
X2.7067Y3.3268
X2.7067Y3.2717
X2.7067Y3.2185
X2.7362Y2.6476
X2.7362Y2.5689
X2.7362Y2.4902
X2.7362Y1.2598
X2.7362Y1.1122
X2.7362Y1.0138
X2.7362Y0.8661
X2.7362Y0.7874
X2.7362Y0.6299
X2.7559Y3.4744
X2.7559Y3.4154
X2.7559Y2.2047
X2.7559Y2.1358
X2.7559Y1.811
X2.7559Y1.7421
X2.7559Y1.4173
X2.7559Y1.3484
X2.8051Y3.5039
X2.8051Y3.4449
X2.815Y0.1476
X2.8543Y3.4744
X2.8642Y3.002
X2.8642Y2.9429
X2.8642Y0.2461
X2.8642Y0.187
X2.8642Y0.128
X2.8642Y0.0689
X2.8642Y0.0098
X2.9134Y1.2598
X2.9134Y1.0236
X2.9134Y0.7874
X2.9232Y3.1201
X2.9232Y3.061
X2.9232Y3.002
X2.9232Y2.9429
X2.9232Y2.7559
X2.9232Y2.6772
X2.9232Y2.5689
X2.9232Y2.5098
X2.9331Y0.0689
X2.9331Y0.0098
X2.9724Y2.0276
X2.9724Y1.6339
X2.9823Y2.4016
X2.9823Y0.4035
X3.0217Y2.8937
X3.0217Y0.5906
X3.0217Y0.5217
X3.0217Y0.4626
X3.0413Y3.4646
X3.0413Y3.4055
X3.0413Y2.2933
X3.0413Y2.0276
X3.0413Y1.8996
X3.0413Y1.6339
X3.0413Y1.5059
X3.0512Y2.8445
X3.0512Y1.0827
X3.0512Y0.8465
X3.061Y0.315
X3.0709Y2.4016
X3.0807Y2.8937
X3.0807Y2.6673
X3.0807Y2.5492
X3.0906Y2.2933
X3.0906Y1.8996
X3.0906Y1.5059
X3.0906Y0.5906
X3.0906Y0.5217
X3.0906Y0.4626
X3.1004Y3.4646
X3.1024Y1.2756
X3.1024Y1.0394
X3.1024Y0.8031
X3.1102Y2.8445
X3.1102Y2.0276
X3.1102Y1.6339
X3.1102Y0.315
X3.1398Y2.9528
X3.1398Y2.8937
X3.1594Y3.4646
X3.1594Y2.4016
X3.1594Y0.315
X3.1693Y2.8445
X3.1693Y0.5906
X3.1693Y0.5217
X3.1693Y0.4626
X3.1791Y2.0276
X3.1791Y1.6339
X3.2185Y3.4646
X3.2283Y2.8445
X3.2382Y0.0689
X3.2382Y0.0
X3.248Y0.5906
X3.248Y0.5217
X3.248Y0.4626
X3.248Y0.1378
X3.2579Y1.2697
X3.2579Y1.0531
X3.2579Y0.8169
X3.2776Y3.4646
X3.2776Y3.4055
X3.2776Y3.3465
X3.2874Y1.7028
X3.2972Y2.5295
X3.2972Y2.4409
X3.2972Y2.0276
X3.3071Y0.0689
X3.3071Y0.0
X3.3268Y1.3386
X3.3268Y0.3248
X3.3366Y1.2697
X3.3366Y1.0531
X3.3366Y0.8169
X3.3366Y0.5906
X3.3366Y0.5217
X3.3366Y0.4626
X3.3661Y3.4646
X3.3661Y3.4055
X3.3661Y3.3465
X3.3661Y3.2874
X3.3661Y3.2283
X3.3661Y3.1693
X3.3661Y3.1102
X3.376Y2.5295
X3.376Y2.4409
X3.4154Y1.2697
X3.4154Y1.0531
X3.4154Y0.8169
X3.4154Y0.5906
X3.4154Y0.5217
X3.4154Y0.4626
X3.4252Y3.4646
X3.4252Y3.4055
X3.4252Y3.3465
X3.4252Y3.2874
X3.4252Y3.2283
X3.4252Y3.1693
X3.4252Y3.1102
X3.4449Y1.4469
X3.4449Y1.3386
X3.4547Y2.5295
X3.4547Y2.4409
X3.4547Y0.0689
X3.4547Y0.0
X3.4646Y1.752
X3.4744Y2.2736
X3.4744Y1.9783
X3.4744Y1.5748
X3.4744Y0.5217
X3.4744Y0.4626
X3.4744Y0.4035
X3.4764Y0.9606
X3.4764Y0.9016
X3.4764Y0.7244
X3.4764Y0.6654
X3.4843Y3.2874
X3.4843Y3.2283
X3.4843Y3.1693
X3.4843Y3.1102
X3.5236Y1.8406
X3.5236Y1.122
X3.5236Y1.063
X3.5236Y1.0039
X3.5236Y0.8661
X3.5236Y0.8169
X3.5236Y0.7677
X3.5236Y0.6102
X3.5236Y0.5217
X3.5236Y0.4626
X3.5236Y0.4035
X3.5236Y0.1378
X3.5236Y0.0689
X3.5236Y0.0
X3.5335Y2.5295
X3.5335Y2.4409
X3.5335Y1.5748
X3.5335Y1.4665
X3.5433Y3.2874
X3.5433Y3.2283
X3.5433Y3.1693
X3.5433Y3.1102
X3.5728Y1.7421
X3.5728Y1.122
X3.5728Y1.063
X3.5728Y1.0039
X3.5728Y0.8661
X3.5728Y0.8169
X3.5728Y0.7677
X3.5728Y0.6102
X3.5728Y0.5217
X3.5728Y0.4626
X3.5728Y0.4035
X3.5728Y0.2657
X3.5728Y0.2067
X3.6122Y3.1102
X3.6614Y2.4803
X3.6614Y2.1063
X3.6614Y2.0472
X3.6713Y3.1299
X3.6713Y3.0709
X3.7205Y2.4803
X3.7205Y2.1063
X3.7205Y2.0472
X3.7402Y3.1299
X3.7402Y3.0709
X3.7795Y2.4803
X3.7795Y2.1063
X3.7795Y2.0472
X3.7992Y0.2362
X3.7992Y0.1575
X3.7992Y0.0787
X3.7992Y0.0
X3.7992Y-0.0787
X3.7992Y-0.1575
X3.7992Y-0.2362
X3.8091Y3.1299
X3.8091Y3.0709
X3.8386Y2.6575
X3.8386Y2.5984
X3.8386Y2.5394
X3.8386Y2.4803
X3.8386Y2.1063
X3.8386Y2.0472
X3.8386Y1.9882
X3.8484Y2.2146
X3.8583Y1.7421
X3.878Y3.1299
X3.878Y3.0709
X3.878Y0.2362
X3.878Y0.1575
X3.878Y0.0787
X3.878Y0.0
X3.878Y-0.0787
X3.878Y-0.1575
X3.878Y-0.2362
X3.8976Y2.6575
X3.8976Y2.5984
X3.8976Y2.5394
X3.8976Y2.4803
X3.8976Y2.4213
X3.8976Y2.3622
X3.8976Y2.1063
X3.8976Y2.0472
X3.8976Y1.9882
X3.9469Y3.1299
X3.9469Y3.0709
X3.9567Y2.7756
X3.9567Y2.7165
X3.9567Y2.6575
X3.9567Y2.5984
X3.9567Y2.5394
X3.9567Y2.3622
X3.9567Y2.1063
X3.9567Y0.2362
X3.9567Y0.1575
X3.9567Y0.0787
X3.9567Y0.0
X3.9567Y-0.0787
X3.9567Y-0.1575
X3.9567Y-0.2362
X4.0157Y3.1299
X4.0157Y3.0709
X4.0157Y3.0118
X4.0157Y2.9528
X4.0157Y2.8937
X4.0157Y2.8346
X4.0157Y2.7756
X4.0157Y2.7165
X4.0157Y2.6575
X4.0157Y2.5984
X4.0157Y2.5394
X4.0157Y2.3622
X4.0157Y2.1063
X4.0354Y0.0787
X4.0354Y0.0
X4.0354Y-0.0787
X4.0354Y-0.1575
X4.0354Y-0.2362
X4.0748Y3.1299
X4.0748Y3.0709
X4.0748Y3.0118
X4.0748Y2.9528
X4.0748Y2.8937
X4.0748Y2.8346
X4.0748Y2.7756
X4.0748Y2.7165
X4.0748Y2.6575
X4.0748Y2.5984
X4.0748Y2.5394
X4.0748Y2.3622
X4.0748Y2.1063
X4.1142Y0.0787
X4.1142Y0.0
X4.1142Y-0.0787
X4.1142Y-0.1575
X4.1142Y-0.2362
X4.1339Y3.0118
X4.1339Y2.9528
X4.1339Y2.8937
X4.1339Y2.8346
X4.1339Y2.7756
X4.1339Y2.7165
X4.1339Y2.6575
X4.1339Y2.5984
X4.1339Y2.5394
X4.1339Y2.4803
X4.1339Y2.4213
X4.1339Y2.3622
X4.1339Y2.1063
X4.1339Y2.0472
X4.1339Y1.9882
X4.1732Y1.4646
X4.1732Y1.4173
X4.1929Y3.0118
X4.1929Y2.8346
X4.1929Y2.6575
X4.1929Y2.5984
X4.1929Y2.5394
X4.1929Y2.4803
X4.1929Y2.4213
X4.1929Y2.3622
X4.2126Y2.1063
X4.2126Y2.0472
X4.2126Y1.9882
X4.252Y3.0118
X4.252Y2.8346
X4.252Y2.6575
X4.252Y2.5984
X4.252Y2.5394
X4.252Y2.4803
X4.2717Y2.1063
X4.2717Y2.0472
X4.311Y3.0118
X4.311Y2.9528
X4.311Y2.8937
X4.311Y2.8346
X4.311Y2.7756
X4.311Y2.7165
X4.311Y2.6575
X4.311Y2.5984
X4.311Y2.5394
X4.311Y2.4803
X4.3209Y0.1181
X4.3209Y0.0591
X4.3307Y2.1063
X4.3307Y2.0472
X4.3701Y2.7756
X4.3701Y2.7165
X4.3701Y2.6575
X4.3701Y2.5984
X4.3701Y2.5394
X4.3701Y2.4803
X4.3799Y0.1181
X4.3799Y0.0591
X4.3799Y0.0
X4.3898Y2.1063
X4.3898Y2.0472
X4.4291Y2.7756
X4.4291Y2.7165
X4.4291Y2.6575
X4.4291Y2.5984
X4.4291Y2.5394
X4.4291Y2.4803
X4.4291Y2.4213
X4.4291Y2.3622
X4.4291Y2.2047
X4.4291Y1.7421
X4.439Y0.1181
X4.439Y0.0591
X4.439Y0.0
X4.4488Y2.1063
X4.4488Y2.0472
X4.4488Y1.9882
X4.4488Y1.9291
X4.4587Y0.2559
X4.4587Y0.1969
X4.4783Y3.4843
X4.4783Y3.4055
X4.4783Y3.3268
X4.4783Y3.248
X4.4882Y2.7756
X4.4882Y2.7165
X4.4882Y2.6575
X4.4882Y2.5984
X4.4882Y2.5394
X4.4882Y2.4803
X4.4882Y2.4213
X4.4882Y2.3622
X4.498Y0.1181
X4.498Y0.0591
X4.498Y0.0
X4.5079Y2.1063
X4.5079Y2.0472
X4.5472Y2.7756
X4.5472Y2.7165
X4.5472Y2.6575
X4.5472Y2.5984
X4.5472Y2.5394
X4.5472Y2.3622
X4.5571Y3.4843
X4.5571Y3.4055
X4.5571Y3.3268
X4.5571Y3.248
X4.5571Y0.1181
X4.5571Y0.0591
X4.5571Y0.0
X4.5669Y2.1063
X4.6063Y2.6575
X4.6063Y2.5984
X4.6063Y2.5394
X4.6063Y2.3622
X4.6161Y0.1181
X4.6161Y0.0591
X4.626Y2.1063
X4.6358Y3.4843
X4.6358Y3.248
X4.6654Y2.6575
X4.6654Y2.5984
X4.6654Y2.5394
X4.6654Y2.3622
X4.685Y2.1063
X4.685Y2.0472
X4.685Y1.9882
X4.685Y1.9291
X4.7146Y3.4843
X4.7146Y3.248
X4.7244Y2.7756
X4.7244Y2.7165
X4.7244Y2.6575
X4.7244Y2.5984
X4.7244Y2.5394
X4.7244Y2.4803
X4.7244Y2.4213
X4.7244Y2.3622
X4.7441Y1.4606
X4.7441Y1.4213
X4.7835Y2.7756
X4.7835Y2.7165
X4.7835Y2.6575
X4.7835Y2.5984
X4.7835Y2.5394
X4.7835Y2.4803
X4.7835Y2.4213
X4.7835Y2.3622
X4.7933Y3.4843
X4.7933Y3.4055
X4.7933Y3.3268
X4.7933Y3.248
X4.8031Y2.1063
X4.8031Y2.0472
X4.8228Y0.0787
X4.8228Y0.0
X4.8228Y-0.0787
X4.8228Y-0.1575
X4.8228Y-0.2362
X4.8425Y2.7756
X4.8425Y2.7165
X4.8425Y2.6575
X4.8425Y2.5984
X4.8425Y2.5394
X4.8425Y2.4803
X4.8622Y2.1063
X4.8622Y2.0472
X4.872Y3.4843
X4.872Y3.4055
X4.872Y3.3268
X4.872Y3.248
X4.9016Y2.7756
X4.9016Y2.7165
X4.9016Y2.6575
X4.9016Y2.5984
X4.9016Y2.5394
X4.9016Y2.4803
X4.9016Y0.0787
X4.9016Y0.0
X4.9016Y-0.0787
X4.9016Y-0.1575
X4.9016Y-0.2362
X4.9213Y2.1063
X4.9213Y2.0472
X4.9606Y2.7756
X4.9606Y2.7165
X4.9606Y2.6575
X4.9606Y2.5984
X4.9606Y2.5394
X4.9606Y2.4803
X4.9803Y2.1063
X4.9803Y2.0472
X4.9803Y1.9882
X4.9803Y1.9291
X4.9803Y1.8701
X4.9803Y0.2362
X4.9803Y0.1575
X4.9803Y0.0787
X4.9803Y0.0
X4.9803Y-0.0787
X4.9803Y-0.1575
X4.9803Y-0.2362
X5.0Y2.2047
X5.0Y1.7421
X5.0197Y2.7756
X5.0197Y2.7165
X5.0197Y2.6575
X5.0197Y2.5984
X5.0197Y2.5394
X5.0197Y2.4803
X5.0197Y2.4213
X5.0197Y2.3622
X5.0394Y2.1063
X5.0394Y2.0472
X5.0394Y1.9882
X5.0394Y1.9291
X5.0394Y1.8701
X5.0591Y0.2362
X5.0591Y0.1575
X5.0591Y0.0787
X5.0787Y3.0118
X5.0787Y2.8346
X5.0787Y2.6575
X5.0787Y2.5984
X5.0787Y2.5394
X5.0787Y2.5394
X5.0787Y2.5394
X5.0787Y2.4803
X5.0787Y2.4213
X5.0787Y2.3622
X5.0984Y2.1063
X5.0984Y2.0472
X5.1378Y3.0709
X5.1378Y3.0118
X5.1378Y2.8346
X5.1378Y2.6575
X5.1378Y2.5984
X5.1378Y2.5394
X5.1378Y2.3622
X5.1378Y0.2362
X5.1378Y0.1575
X5.1378Y0.0787
X5.1575Y2.1063
X5.1969Y3.0709
X5.1969Y3.0118
X5.1969Y2.9528
X5.1969Y2.8937
X5.1969Y2.8346
X5.1969Y2.7756
X5.1969Y2.7165
X5.1969Y2.6575
X5.1969Y2.5984
X5.1969Y2.5394
X5.1969Y2.3622
X5.2165Y2.1063
X5.2165Y2.0472
X5.2165Y0.2362
X5.2165Y0.0787
X5.2559Y3.0709
X5.2559Y3.0118
X5.2559Y2.9528
X5.2559Y2.8937
X5.2559Y2.8346
X5.2559Y2.7756
X5.2559Y2.7165
X5.2559Y2.6575
X5.2559Y2.5984
X5.2559Y2.5394
X5.2559Y2.3622
X5.2559Y0.9744
X5.2559Y0.9154
X5.2559Y0.8563
X5.2559Y0.7972
X5.2559Y0.7382
X5.2756Y2.1063
X5.2756Y2.0472
X5.2756Y1.9882
X5.2756Y1.9291
X5.2756Y1.8701
T3
X-0.3819Y3.4055
X-0.3819Y-0.1378
X-0.3543Y3.4646
X-0.3543Y3.3465
X-0.3543Y-0.0787
X-0.3543Y-0.1969
X-0.2953Y3.4921
X-0.2953Y3.3189
X-0.2953Y-0.0512
X-0.2953Y-0.2244
X-0.2362Y3.4646
X-0.2362Y3.3465
X-0.2362Y-0.0787
X-0.2362Y-0.1969
X-0.2087Y3.4055
X-0.2087Y-0.1378
X5.1299Y3.4055
X5.1299Y-0.1378
X5.1575Y3.4646
X5.1575Y3.3465
X5.1575Y-0.0787
X5.1575Y-0.1969
X5.2165Y3.4921
X5.2165Y3.3189
X5.2165Y-0.0512
X5.2165Y-0.2244
X5.2756Y3.4646
X5.2756Y3.3465
X5.2756Y-0.0787
X5.2756Y-0.1969
X5.3031Y3.4055
X5.3031Y-0.1378
T4
X-0.3098Y1.6043
X-0.0098Y1.6043
X1.2874Y3.2715
X1.2874Y3.173
X1.7283Y3.4214
X1.7283Y3.2245
X2.3307Y2.2758
X2.3307Y2.1774
X2.3307Y1.8742
X2.3307Y1.7758
X2.3307Y1.4726
X2.3307Y1.3742
X3.1476Y2.2933
X3.1476Y2.1752
X3.1476Y1.8996
X3.1476Y1.7815
X3.1476Y1.5059
X3.1476Y1.3878
T5
X-0.3663Y2.1091
X-0.3663Y2.0091
X-0.3663Y1.9091
X-0.3663Y1.8091
X-0.3657Y3.1295
X-0.3657Y3.0295
X-0.3657Y2.9295
X-0.3657Y2.8295
X-0.3657Y2.7295
X-0.3657Y2.6295
X-0.3657Y2.5295
X-0.3657Y2.4295
X-0.3657Y2.3295
X-0.2663Y2.1091
X-0.2663Y2.0091
X-0.2663Y1.9091
X-0.2663Y1.8091
X-0.2657Y3.1295
X-0.2657Y3.0295
X-0.2657Y2.9295
X-0.2657Y2.8295
X-0.2657Y2.7295
X-0.2657Y2.6295
X-0.2657Y2.5295
X-0.2657Y2.4295
X-0.2657Y2.3295
X0.2756Y0.789
X0.2756Y0.689
X0.7474Y1.1516
X0.8465Y2.8844
X0.8465Y2.7844
X0.8474Y1.1516
X1.2593Y2.2638
X1.3593Y2.2638
X1.4803Y3.3569
X1.4803Y3.2569
X1.4862Y0.9258
X1.4862Y0.8258
X2.0467Y2.6024
X2.0467Y2.2441
X2.0467Y1.4173
X2.0467Y1.1811
X2.0467Y0.9449
X2.0467Y0.7087
X2.0476Y1.8307
X2.1467Y2.6024
X2.1467Y2.2441
X2.1467Y1.4173
X2.1467Y1.1811
X2.1467Y0.9449
X2.1467Y0.7087
X2.1476Y1.8307
X2.4695Y0.4724
X2.5695Y0.4724
X2.7785Y0.4724
X2.8785Y0.4724
X3.2185Y2.918
X3.2185Y2.7212
X4.2244Y2.9284
X4.2244Y2.7316
X4.6555Y2.9284
X4.6555Y2.7316
X5.0886Y2.9284
X5.0886Y2.7316
T6
X0.7579Y-0.1301
X0.9547Y-0.1301
X1.2106Y-0.1301
X1.4075Y-0.1301
X2.6969Y-0.1378
X2.8937Y-0.1378
X3.0906Y-0.1378
X3.2874Y-0.1378
X3.4843Y-0.1378
X3.5138Y3.3978
X3.7106Y3.3978
X4.2717Y-0.1378
X4.4685Y-0.1378
X4.6654Y-0.1378
T7
X1.8701Y-0.1378
X2.0669Y-0.1378
X2.2638Y-0.1378
X4.0799Y3.3661
X4.6799Y3.3661
T8
X-0.2953Y3.4055
X-0.2953Y-0.1378
X5.2165Y3.4055
X5.2165Y-0.1378
M30
