%TF.GenerationSoftware,KiCad,Pcbnew,8.0.3*%
%TF.CreationDate,2024-07-07T23:54:37+03:00*%
%TF.ProjectId,STM32_Motor_Kit_v0.1,53544d33-325f-44d6-9f74-6f725f4b6974,rev?*%
%TF.SameCoordinates,Original*%
%TF.FileFunction,Copper,L4,Bot*%
%TF.FilePolarity,Positive*%
%FSLAX46Y46*%
G04 Gerber Fmt 4.6, Leading zero omitted, Abs format (unit mm)*
G04 Created by KiCad (PCBNEW 8.0.3) date 2024-07-07 23:54:37*
%MOMM*%
%LPD*%
G01*
G04 APERTURE LIST*
%TA.AperFunction,ComponentPad*%
%ADD10R,1.700000X1.700000*%
%TD*%
%TA.AperFunction,ComponentPad*%
%ADD11O,1.700000X1.700000*%
%TD*%
%TA.AperFunction,ComponentPad*%
%ADD12R,1.600000X1.600000*%
%TD*%
%TA.AperFunction,ComponentPad*%
%ADD13C,1.600000*%
%TD*%
%TA.AperFunction,ComponentPad*%
%ADD14C,0.800000*%
%TD*%
%TA.AperFunction,ComponentPad*%
%ADD15C,5.600000*%
%TD*%
%TA.AperFunction,ComponentPad*%
%ADD16R,2.000000X2.000000*%
%TD*%
%TA.AperFunction,ComponentPad*%
%ADD17C,2.000000*%
%TD*%
%TA.AperFunction,ComponentPad*%
%ADD18O,1.600000X1.600000*%
%TD*%
%TA.AperFunction,ComponentPad*%
%ADD19R,2.600000X2.600000*%
%TD*%
%TA.AperFunction,ComponentPad*%
%ADD20C,2.600000*%
%TD*%
%TA.AperFunction,ComponentPad*%
%ADD21O,2.500000X4.000000*%
%TD*%
%TA.AperFunction,ComponentPad*%
%ADD22O,3.000000X4.000000*%
%TD*%
%TA.AperFunction,ViaPad*%
%ADD23C,0.800000*%
%TD*%
%TA.AperFunction,ViaPad*%
%ADD24C,0.500000*%
%TD*%
%TA.AperFunction,Conductor*%
%ADD25C,0.500000*%
%TD*%
%TA.AperFunction,Conductor*%
%ADD26C,0.250000*%
%TD*%
%TA.AperFunction,Conductor*%
%ADD27C,0.300000*%
%TD*%
G04 APERTURE END LIST*
D10*
%TO.P,JP13,1,A*%
%TO.N,Net-(JP13-A)*%
X100250000Y-120525000D03*
D11*
%TO.P,JP13,2,B*%
%TO.N,+5V*%
X100250000Y-117985000D03*
%TD*%
D12*
%TO.P,C57,1*%
%TO.N,Net-(U9-VB)*%
X142450000Y-103250000D03*
D13*
%TO.P,C57,2*%
%TO.N,/Motor_Control/W_Phase_COM*%
X142450000Y-106250000D03*
%TD*%
D10*
%TO.P,JP4,1,A*%
%TO.N,+5V*%
X84025000Y-111945000D03*
D11*
%TO.P,JP4,2,B*%
%TO.N,Net-(JP4-B)*%
X81485000Y-111945000D03*
%TD*%
D12*
%TO.P,C43,1*%
%TO.N,Net-(JP6-B)*%
X121700000Y-83694888D03*
D13*
%TO.P,C43,2*%
%TO.N,GND*%
X121700000Y-86194888D03*
%TD*%
D10*
%TO.P,J2,1,Pin_1*%
%TO.N,GND*%
X54460000Y-83860000D03*
D11*
%TO.P,J2,2,Pin_2*%
%TO.N,Net-(J2-Pin_2)*%
X57000000Y-83860000D03*
%TO.P,J2,3,Pin_3*%
%TO.N,GND*%
X54460000Y-86400000D03*
%TO.P,J2,4,Pin_4*%
%TO.N,/MCU/RST*%
X57000000Y-86400000D03*
%TO.P,J2,5,Pin_5*%
%TO.N,Net-(J2-Pin_5)*%
X54460000Y-88940000D03*
%TO.P,J2,6,Pin_6*%
%TO.N,/MCU/SWDIO*%
X57000000Y-88940000D03*
%TO.P,J2,7,Pin_7*%
%TO.N,Net-(J2-Pin_7)*%
X54460000Y-91480000D03*
%TO.P,J2,8,Pin_8*%
%TO.N,/MCU/SWCLK*%
X57000000Y-91480000D03*
%TD*%
D14*
%TO.P,H2,1,1*%
%TO.N,unconnected-(H2-Pad1)*%
X192800000Y-55000000D03*
X193500000Y-53500000D03*
X193500000Y-56500000D03*
X195000000Y-52800000D03*
D15*
X195000000Y-55000000D03*
D14*
X195000000Y-57200000D03*
X196500000Y-53500000D03*
X196500000Y-56500000D03*
X197200000Y-55000000D03*
%TD*%
D10*
%TO.P,JP10,1,A*%
%TO.N,Net-(JP10-A)*%
X116575000Y-124000000D03*
D11*
%TO.P,JP10,2,B*%
%TO.N,+3.3V*%
X114035000Y-124000000D03*
%TD*%
D16*
%TO.P,C19,1*%
%TO.N,+24V*%
X144250000Y-67382323D03*
D17*
%TO.P,C19,2*%
%TO.N,GND*%
X144250000Y-72382323D03*
%TD*%
D10*
%TO.P,JP6,1,A*%
%TO.N,+15V*%
X114025000Y-84900000D03*
D11*
%TO.P,JP6,2,B*%
%TO.N,Net-(JP6-B)*%
X116565000Y-84900000D03*
%TD*%
D12*
%TO.P,C45,1*%
%TO.N,Net-(JP5-B)*%
X121700000Y-104094888D03*
D13*
%TO.P,C45,2*%
%TO.N,GND*%
X121700000Y-106594888D03*
%TD*%
D12*
%TO.P,SW1,1*%
%TO.N,/MCU/BOOT*%
X62300000Y-96750000D03*
D18*
%TO.P,SW1,2*%
%TO.N,+3.3V_MCU*%
X54680000Y-96750000D03*
%TD*%
D16*
%TO.P,C58,1*%
%TO.N,Vbus*%
X180750000Y-72117677D03*
D17*
%TO.P,C58,2*%
%TO.N,GND*%
X180750000Y-67117677D03*
%TD*%
D12*
%TO.P,C53,1*%
%TO.N,Net-(U7-VB)*%
X142450000Y-83250000D03*
D13*
%TO.P,C53,2*%
%TO.N,/Motor_Control/U_Phase_COM*%
X142450000Y-86250000D03*
%TD*%
D10*
%TO.P,JP12,1,A*%
%TO.N,Net-(JP12-A)*%
X133075000Y-129500000D03*
D11*
%TO.P,JP12,2,B*%
%TO.N,+5V*%
X135615000Y-129500000D03*
%TD*%
D16*
%TO.P,C59,1*%
%TO.N,Vbus*%
X191750000Y-72117677D03*
D17*
%TO.P,C59,2*%
%TO.N,GND*%
X191750000Y-67117677D03*
%TD*%
D14*
%TO.P,H4,1,1*%
%TO.N,unconnected-(H4-Pad1)*%
X192800000Y-145000000D03*
X193500000Y-143500000D03*
X193500000Y-146500000D03*
X195000000Y-142800000D03*
D15*
X195000000Y-145000000D03*
D14*
X195000000Y-147200000D03*
X196500000Y-143500000D03*
X196500000Y-146500000D03*
X197200000Y-145000000D03*
%TD*%
D12*
%TO.P,C31,1*%
%TO.N,+5V*%
X106400000Y-54597349D03*
D13*
%TO.P,C31,2*%
%TO.N,GND*%
X106400000Y-59597349D03*
%TD*%
D19*
%TO.P,J3,1,Pin_1*%
%TO.N,/CanBus_Communication/CAN_L*%
X81750000Y-144805000D03*
D20*
%TO.P,J3,2,Pin_2*%
%TO.N,/CanBus_Communication/CAN_H*%
X86750000Y-144805000D03*
%TD*%
D10*
%TO.P,JP7,1,A*%
%TO.N,+15V*%
X114025000Y-95100000D03*
D11*
%TO.P,JP7,2,B*%
%TO.N,Net-(JP7-B)*%
X116565000Y-95100000D03*
%TD*%
D19*
%TO.P,J5,1,Pin_1*%
%TO.N,GND(SHIELD)*%
X131000000Y-145000000D03*
D20*
%TO.P,J5,2,Pin_2*%
%TO.N,GND*%
X136000000Y-145000000D03*
%TO.P,J5,3,Pin_3*%
%TO.N,Net-(J5-Pin_3)*%
X141000000Y-145000000D03*
%TO.P,J5,4,Pin_4*%
%TO.N,Net-(J5-Pin_4)*%
X146000000Y-145000000D03*
%TO.P,J5,5,Pin_5*%
%TO.N,Net-(J5-Pin_5)*%
X151000000Y-145000000D03*
%TD*%
D21*
%TO.P,F1,1*%
%TO.N,Net-(J1-Pin_1)*%
X166130000Y-56000000D03*
%TO.P,F1,2*%
%TO.N,Vbus*%
X181370000Y-56000000D03*
%TD*%
D19*
%TO.P,J1,1,Pin_1*%
%TO.N,Net-(J1-Pin_1)*%
X156750000Y-55195000D03*
D20*
%TO.P,J1,2,Pin_2*%
%TO.N,GND*%
X151750000Y-55195000D03*
%TD*%
D10*
%TO.P,JP15,1,A*%
%TO.N,Net-(JP15-A)*%
X84000000Y-70775000D03*
D11*
%TO.P,JP15,2,B*%
%TO.N,+3.3V*%
X84000000Y-68235000D03*
%TD*%
D19*
%TO.P,J4,1,Pin_1*%
%TO.N,/Motor_Control/U_Phase_COM*%
X171000000Y-145000000D03*
D20*
%TO.P,J4,2,Pin_2*%
%TO.N,/Motor_Control/V_Phase_COM*%
X176000000Y-145000000D03*
%TO.P,J4,3,Pin_3*%
%TO.N,/Motor_Control/W_Phase_COM*%
X181000000Y-145000000D03*
%TD*%
D12*
%TO.P,C44,1*%
%TO.N,Net-(JP7-B)*%
X121700000Y-93894888D03*
D13*
%TO.P,C44,2*%
%TO.N,GND*%
X121700000Y-96394888D03*
%TD*%
D10*
%TO.P,JP3,1,A*%
%TO.N,Net-(JP3-A)*%
X116500000Y-75400000D03*
D11*
%TO.P,JP3,2,B*%
%TO.N,+3.3V*%
X113960000Y-75400000D03*
%TD*%
D14*
%TO.P,H3,1,1*%
%TO.N,unconnected-(H3-Pad1)*%
X52800000Y-145000000D03*
X53500000Y-143500000D03*
X53500000Y-146500000D03*
X55000000Y-142800000D03*
D15*
X55000000Y-145000000D03*
D14*
X55000000Y-147200000D03*
X56500000Y-143500000D03*
X56500000Y-146500000D03*
X57200000Y-145000000D03*
%TD*%
D10*
%TO.P,JP9,1,A*%
%TO.N,Net-(JP9-A)*%
X116575000Y-117600000D03*
D11*
%TO.P,JP9,2,B*%
%TO.N,+3.3V*%
X114035000Y-117600000D03*
%TD*%
D10*
%TO.P,J6,1,Pin_1*%
%TO.N,unconnected-(J6-Pin_1-Pad1)*%
X57075000Y-79675000D03*
D11*
%TO.P,J6,2,Pin_2*%
%TO.N,unconnected-(J6-Pin_2-Pad2)*%
X54535000Y-79675000D03*
%TO.P,J6,3,Pin_3*%
%TO.N,unconnected-(J6-Pin_3-Pad3)*%
X57075000Y-77135000D03*
%TO.P,J6,4,Pin_4*%
%TO.N,unconnected-(J6-Pin_4-Pad4)*%
X54535000Y-77135000D03*
%TO.P,J6,5,Pin_5*%
%TO.N,unconnected-(J6-Pin_5-Pad5)*%
X57075000Y-74595000D03*
%TO.P,J6,6,Pin_6*%
%TO.N,unconnected-(J6-Pin_6-Pad6)*%
X54535000Y-74595000D03*
%TO.P,J6,7,Pin_7*%
%TO.N,unconnected-(J6-Pin_7-Pad7)*%
X57075000Y-72055000D03*
%TO.P,J6,8,Pin_8*%
%TO.N,unconnected-(J6-Pin_8-Pad8)*%
X54535000Y-72055000D03*
%TO.P,J6,9,Pin_9*%
%TO.N,unconnected-(J6-Pin_9-Pad9)*%
X57075000Y-69515000D03*
%TO.P,J6,10,Pin_10*%
%TO.N,unconnected-(J6-Pin_10-Pad10)*%
X54535000Y-69515000D03*
%TD*%
D14*
%TO.P,H1,1,1*%
%TO.N,unconnected-(H1-Pad1)*%
X52800000Y-55000000D03*
X53500000Y-53500000D03*
X53500000Y-56500000D03*
X55000000Y-52800000D03*
D15*
X55000000Y-55000000D03*
D14*
X55000000Y-57200000D03*
X56500000Y-53500000D03*
X56500000Y-56500000D03*
X57200000Y-55000000D03*
%TD*%
D10*
%TO.P,JP2,1,A*%
%TO.N,Net-(JP2-A)*%
X100100000Y-58775000D03*
D11*
%TO.P,JP2,2,B*%
%TO.N,+5V*%
X100100000Y-56235000D03*
%TD*%
D22*
%TO.P,RV1,1,1*%
%TO.N,+3.3V*%
X110000000Y-145000000D03*
%TO.P,RV1,2,2*%
%TO.N,Net-(R89-Pad1)*%
X115000000Y-145000000D03*
%TO.P,RV1,3,3*%
%TO.N,Net-(R88-Pad2)*%
X120000000Y-145000000D03*
%TD*%
D16*
%TO.P,C103,1*%
%TO.N,Vbus*%
X169800000Y-72117677D03*
D17*
%TO.P,C103,2*%
%TO.N,GND*%
X169800000Y-67117677D03*
%TD*%
D10*
%TO.P,JP1,1,A*%
%TO.N,+3.3V*%
X94000000Y-78725000D03*
D11*
%TO.P,JP1,2,B*%
%TO.N,+3.3V_MCU*%
X94000000Y-81265000D03*
%TD*%
D10*
%TO.P,JP5,1,A*%
%TO.N,+15V*%
X114025000Y-105300000D03*
D11*
%TO.P,JP5,2,B*%
%TO.N,Net-(JP5-B)*%
X116565000Y-105300000D03*
%TD*%
D10*
%TO.P,JP14,1,A*%
%TO.N,Net-(JP14-A)*%
X69550000Y-120525000D03*
D11*
%TO.P,JP14,2,B*%
%TO.N,+5V*%
X69550000Y-117985000D03*
%TD*%
D19*
%TO.P,J7,1,Pin_1*%
%TO.N,/RS485_Communication/RS485_0_P*%
X93250000Y-144805000D03*
D20*
%TO.P,J7,2,Pin_2*%
%TO.N,/RS485_Communication/RS485_0_N*%
X98250000Y-144805000D03*
%TD*%
D10*
%TO.P,JP8,1,A*%
%TO.N,Net-(JP8-A)*%
X116575000Y-111600000D03*
D11*
%TO.P,JP8,2,B*%
%TO.N,+3.3V*%
X114035000Y-111600000D03*
%TD*%
D12*
%TO.P,C11,1*%
%TO.N,Net-(JP2-A)*%
X95200000Y-60905113D03*
D13*
%TO.P,C11,2*%
%TO.N,GND*%
X95200000Y-58405113D03*
%TD*%
D10*
%TO.P,JP11,1,A*%
%TO.N,Net-(JP11-A)*%
X127875000Y-129500000D03*
D11*
%TO.P,JP11,2,B*%
%TO.N,+3.3V*%
X125335000Y-129500000D03*
%TD*%
D12*
%TO.P,C55,1*%
%TO.N,Net-(U8-VB)*%
X142450000Y-93250000D03*
D13*
%TO.P,C55,2*%
%TO.N,/Motor_Control/V_Phase_COM*%
X142450000Y-96250000D03*
%TD*%
D23*
%TO.N,+3.3V*%
X140800000Y-108600000D03*
X140800000Y-120600000D03*
X140800000Y-114600000D03*
%TO.N,GND*%
X120250000Y-90250000D03*
D24*
X65550000Y-132900000D03*
D23*
X91000000Y-126750000D03*
X123000000Y-53250000D03*
X122500000Y-90250000D03*
X121000000Y-109500000D03*
X122500000Y-100500000D03*
X124800000Y-123100000D03*
D24*
X69050000Y-134150000D03*
X83385000Y-116000000D03*
D23*
X124800000Y-110900000D03*
X67100000Y-61850000D03*
X124750000Y-100500000D03*
X121000000Y-115500000D03*
X99000000Y-128250000D03*
X136500000Y-115500000D03*
X136500000Y-121500000D03*
X120250000Y-100500000D03*
X121000000Y-121750000D03*
D24*
X82750000Y-135750000D03*
D23*
X124800000Y-116900000D03*
X91000000Y-128250000D03*
X124750000Y-90250000D03*
D24*
X86000000Y-116000000D03*
D23*
X82750000Y-128250000D03*
X136500000Y-109500000D03*
X99000000Y-126750000D03*
%TO.N,+5V*%
X142750000Y-133500000D03*
X141500000Y-133500000D03*
X145000000Y-138000000D03*
X140250000Y-133500000D03*
D24*
X88000000Y-118750000D03*
D23*
X152000000Y-138000000D03*
%TO.N,+15V*%
X110500000Y-78000000D03*
X113000000Y-79000000D03*
X111750000Y-78000000D03*
X114250000Y-79000000D03*
X110500000Y-79000000D03*
X114250000Y-78000000D03*
X111750000Y-79000000D03*
X113000000Y-78000000D03*
%TO.N,/Motor_Control/U_Phase_COM*%
X156500000Y-87750000D03*
X155250000Y-87750000D03*
%TO.N,/Motor_Control/V_Phase_COM*%
X171250000Y-88000000D03*
X170250000Y-88000000D03*
%TO.N,/Motor_Control/W_Phase_COM*%
X191750000Y-88500000D03*
X184500000Y-87750000D03*
X185500000Y-87750000D03*
X190750000Y-88500000D03*
%TO.N,Vbus*%
X156500000Y-77750000D03*
X184000000Y-59000000D03*
X178500000Y-59000000D03*
X178500000Y-57000000D03*
X184000000Y-55000000D03*
X178500000Y-53000000D03*
X176500000Y-57000000D03*
X186000000Y-57000000D03*
X176500000Y-59000000D03*
X155500000Y-77750000D03*
X176500000Y-53000000D03*
X178500000Y-55000000D03*
X186000000Y-55000000D03*
X184000000Y-53000000D03*
X176500000Y-55000000D03*
X186000000Y-59000000D03*
X184000000Y-57000000D03*
X186000000Y-53000000D03*
%TO.N,/Motor_Control/V_Shunt_High*%
X168500000Y-104300000D03*
X150800000Y-117100000D03*
%TO.N,/Motor_Control/W_Shunt_High*%
X183000000Y-104400000D03*
X150800000Y-123100000D03*
D24*
%TO.N,Net-(JP14-A)*%
X70300000Y-128900000D03*
X72300000Y-123150000D03*
D23*
%TO.N,Net-(D15-Pad2)*%
X150750000Y-83750000D03*
X160250000Y-85250000D03*
%TO.N,Net-(D16-Pad2)*%
X160500000Y-97250000D03*
X153250000Y-96750000D03*
%TO.N,Net-(D19-Pad2)*%
X150750000Y-91250000D03*
X175000000Y-85500000D03*
%TO.N,Net-(D20-Pad2)*%
X150500000Y-97000000D03*
X175000000Y-97250000D03*
%TO.N,Net-(D23-Pad2)*%
X189500000Y-85500000D03*
X152000000Y-94750000D03*
%TO.N,Net-(D24-Pad2)*%
X189500000Y-97250000D03*
X150750000Y-101500000D03*
D24*
%TO.N,Net-(U15-QA)*%
X60050000Y-123400000D03*
X63300000Y-123400000D03*
%TO.N,Net-(U15-QB)*%
X64800000Y-124150000D03*
X55300000Y-127650000D03*
%TO.N,Net-(U15-QC)*%
X61000000Y-128600000D03*
X64800000Y-125400000D03*
%TO.N,Net-(U15-QD)*%
X64800000Y-126650000D03*
X59700000Y-129500000D03*
%TO.N,Net-(U15-QE)*%
X55300000Y-133400000D03*
X64800000Y-128150000D03*
D23*
%TO.N,/Motor_Control/UVW_Phase_Total*%
X150800000Y-124600000D03*
X168500000Y-105500000D03*
X183000000Y-105400000D03*
X150800000Y-118600000D03*
%TD*%
D25*
%TO.N,+5V*%
X145000000Y-138000000D02*
X152000000Y-138000000D01*
X144500000Y-133500000D02*
X142750000Y-133500000D01*
X145000000Y-134000000D02*
X144500000Y-133500000D01*
X145000000Y-138000000D02*
X145000000Y-134000000D01*
%TO.N,/Motor_Control/U_Phase_COM*%
X142450000Y-86250000D02*
X143750000Y-86250000D01*
X154500000Y-92500000D02*
X156500000Y-90500000D01*
X156500000Y-90500000D02*
X156500000Y-87750000D01*
X150000000Y-92500000D02*
X154500000Y-92500000D01*
X143750000Y-86250000D02*
X150000000Y-92500000D01*
%TO.N,/Motor_Control/V_Phase_COM*%
X170250000Y-88000000D02*
X170000000Y-88250000D01*
X170000000Y-88250000D02*
X170000000Y-91750000D01*
X170000000Y-91750000D02*
X168250000Y-93500000D01*
X144500000Y-96250000D02*
X142450000Y-96250000D01*
X168250000Y-93500000D02*
X147250000Y-93500000D01*
X147250000Y-93500000D02*
X144500000Y-96250000D01*
D26*
%TO.N,/Motor_Control/W_Phase_COM*%
X148000000Y-106250000D02*
X142450000Y-106250000D01*
D25*
X149500000Y-95750000D02*
X148750000Y-96500000D01*
X148750000Y-96500000D02*
X148750000Y-105500000D01*
D26*
X148750000Y-105500000D02*
X148000000Y-106250000D01*
D25*
X189000000Y-95750000D02*
X149500000Y-95750000D01*
X190750000Y-94000000D02*
X189000000Y-95750000D01*
X190750000Y-88500000D02*
X190750000Y-94000000D01*
D26*
%TO.N,/Motor_Control/V_Shunt_High*%
X152200000Y-117500000D02*
X151800000Y-117100000D01*
X151800000Y-117100000D02*
X150800000Y-117100000D01*
X154000000Y-117500000D02*
X152200000Y-117500000D01*
X168500000Y-104300000D02*
X167900000Y-104300000D01*
X157600000Y-113900000D02*
X154000000Y-117500000D01*
X167900000Y-104300000D02*
X167500000Y-104700000D01*
X167500000Y-104700000D02*
X163500000Y-104700000D01*
X157600000Y-110600000D02*
X157600000Y-113900000D01*
X163500000Y-104700000D02*
X157600000Y-110600000D01*
%TO.N,/Motor_Control/W_Shunt_High*%
X163950000Y-108800000D02*
X161000000Y-111750000D01*
X151575000Y-123100000D02*
X150800000Y-123100000D01*
X174700000Y-108800000D02*
X163950000Y-108800000D01*
X154100000Y-123500000D02*
X151975000Y-123500000D01*
X151975000Y-123500000D02*
X151575000Y-123100000D01*
X179100000Y-104400000D02*
X174700000Y-108800000D01*
X161000000Y-111750000D02*
X161000000Y-116600000D01*
X161000000Y-116600000D02*
X154100000Y-123500000D01*
X183000000Y-104400000D02*
X179100000Y-104400000D01*
D25*
%TO.N,Net-(JP14-A)*%
X70300000Y-128900000D02*
X70300000Y-127650000D01*
X70300000Y-127650000D02*
X72300000Y-125650000D01*
X72300000Y-125650000D02*
X72300000Y-123150000D01*
%TO.N,Net-(D15-Pad2)*%
X160250000Y-85250000D02*
X153000000Y-85250000D01*
X151500000Y-83750000D02*
X150750000Y-83750000D01*
X153000000Y-85250000D02*
X151500000Y-83750000D01*
%TO.N,Net-(D16-Pad2)*%
X160000000Y-96750000D02*
X160500000Y-97250000D01*
X153250000Y-96750000D02*
X160000000Y-96750000D01*
%TO.N,Net-(D19-Pad2)*%
X161500000Y-86500000D02*
X162500000Y-85500000D01*
X162500000Y-85500000D02*
X175000000Y-85500000D01*
X150750000Y-88750000D02*
X153000000Y-86500000D01*
X153000000Y-86500000D02*
X161500000Y-86500000D01*
X150750000Y-91250000D02*
X150750000Y-88750000D01*
%TO.N,Net-(D20-Pad2)*%
X162500000Y-97250000D02*
X175000000Y-97250000D01*
X152000000Y-98500000D02*
X161250000Y-98500000D01*
X161250000Y-98500000D02*
X162500000Y-97250000D01*
X150500000Y-97000000D02*
X152000000Y-98500000D01*
%TO.N,Net-(D23-Pad2)*%
X183000000Y-86250000D02*
X183000000Y-94000000D01*
X189500000Y-85500000D02*
X183750000Y-85500000D01*
X183750000Y-85500000D02*
X183000000Y-86250000D01*
X183000000Y-94000000D02*
X182250000Y-94750000D01*
X182250000Y-94750000D02*
X152000000Y-94750000D01*
%TO.N,Net-(D24-Pad2)*%
X151500000Y-99750000D02*
X150750000Y-100500000D01*
X161750000Y-99500000D02*
X159000000Y-99500000D01*
X177000000Y-97250000D02*
X175750000Y-98500000D01*
X151750000Y-99500000D02*
X151500000Y-99750000D01*
X159000000Y-99500000D02*
X151750000Y-99500000D01*
X150750000Y-100500000D02*
X150750000Y-101500000D01*
X162250000Y-99000000D02*
X161750000Y-99500000D01*
X189500000Y-97250000D02*
X177000000Y-97250000D01*
X175250000Y-98500000D02*
X172500000Y-98500000D01*
X172500000Y-98500000D02*
X162750000Y-98500000D01*
X162750000Y-98500000D02*
X162250000Y-99000000D01*
X175750000Y-98500000D02*
X175250000Y-98500000D01*
D27*
%TO.N,Net-(U15-QA)*%
X63300000Y-123400000D02*
X60050000Y-123400000D01*
%TO.N,Net-(U15-QB)*%
X61300000Y-127650000D02*
X64800000Y-124150000D01*
X55300000Y-127650000D02*
X61300000Y-127650000D01*
%TO.N,Net-(U15-QC)*%
X61000000Y-128600000D02*
X61600000Y-128600000D01*
X61600000Y-128600000D02*
X64800000Y-125400000D01*
%TO.N,Net-(U15-QD)*%
X59700000Y-129500000D02*
X61950000Y-129500000D01*
X61950000Y-129500000D02*
X64800000Y-126650000D01*
%TO.N,Net-(U15-QE)*%
X56550000Y-133400000D02*
X58800000Y-131150000D01*
X61800000Y-131150000D02*
X64800000Y-128150000D01*
X55300000Y-133400000D02*
X56550000Y-133400000D01*
X58800000Y-131150000D02*
X61800000Y-131150000D01*
D26*
%TO.N,/Motor_Control/UVW_Phase_Total*%
X158300000Y-114300000D02*
X154500000Y-118100000D01*
X161500000Y-112250000D02*
X161500000Y-117000000D01*
X154250000Y-124250000D02*
X151750000Y-124250000D01*
X154500000Y-118100000D02*
X152200000Y-118100000D01*
X164450000Y-109300000D02*
X161500000Y-112250000D01*
X167900000Y-105500000D02*
X167700000Y-105300000D01*
X151700000Y-118600000D02*
X150800000Y-118600000D01*
X168500000Y-105500000D02*
X167900000Y-105500000D01*
X161500000Y-117000000D02*
X154250000Y-124250000D01*
X151400000Y-124600000D02*
X150800000Y-124600000D01*
X178900000Y-105400000D02*
X175000000Y-109300000D01*
X183000000Y-105400000D02*
X178900000Y-105400000D01*
X167700000Y-105300000D02*
X164000000Y-105300000D01*
X164000000Y-105300000D02*
X158300000Y-111000000D01*
X158300000Y-111000000D02*
X158300000Y-114300000D01*
X175000000Y-109300000D02*
X164450000Y-109300000D01*
X152200000Y-118100000D02*
X151700000Y-118600000D01*
X151750000Y-124250000D02*
X151400000Y-124600000D01*
%TD*%
%TA.AperFunction,Conductor*%
%TO.N,GND*%
G36*
X153006061Y-52000597D02*
G01*
X153182941Y-52018018D01*
X153206769Y-52022757D01*
X153371001Y-52072576D01*
X153393453Y-52081877D01*
X153544798Y-52162772D01*
X153565010Y-52176277D01*
X153697666Y-52285145D01*
X153714854Y-52302333D01*
X153823722Y-52434989D01*
X153837227Y-52455201D01*
X153918121Y-52606543D01*
X153927424Y-52629001D01*
X153977240Y-52793224D01*
X153981982Y-52817065D01*
X153999403Y-52993938D01*
X154000000Y-53006092D01*
X154000000Y-61000000D01*
X189499997Y-61000000D01*
X189500000Y-61000000D01*
X190500000Y-61000000D01*
X190500000Y-59506092D01*
X190500597Y-59493938D01*
X190518018Y-59317056D01*
X190522757Y-59293232D01*
X190572577Y-59128994D01*
X190581875Y-59106549D01*
X190662775Y-58955195D01*
X190676272Y-58934995D01*
X190785149Y-58802328D01*
X190802328Y-58785149D01*
X190934995Y-58676272D01*
X190955195Y-58662775D01*
X191106549Y-58581875D01*
X191128994Y-58572577D01*
X191293232Y-58522757D01*
X191317056Y-58518018D01*
X191493939Y-58500597D01*
X191506093Y-58500000D01*
X195993907Y-58500000D01*
X196006061Y-58500597D01*
X196182941Y-58518018D01*
X196206769Y-58522757D01*
X196371001Y-58572576D01*
X196393453Y-58581877D01*
X196544798Y-58662772D01*
X196565010Y-58676277D01*
X196697666Y-58785145D01*
X196714854Y-58802333D01*
X196823722Y-58934989D01*
X196837227Y-58955201D01*
X196918121Y-59106543D01*
X196927424Y-59129001D01*
X196977240Y-59293224D01*
X196981982Y-59317065D01*
X196999403Y-59493938D01*
X197000000Y-59506092D01*
X197000000Y-74993907D01*
X196999403Y-75006061D01*
X196981982Y-75182934D01*
X196977240Y-75206775D01*
X196927424Y-75370998D01*
X196918121Y-75393456D01*
X196837227Y-75544798D01*
X196823722Y-75565010D01*
X196714854Y-75697666D01*
X196697666Y-75714854D01*
X196565010Y-75823722D01*
X196544798Y-75837227D01*
X196393456Y-75918121D01*
X196370998Y-75927424D01*
X196206775Y-75977240D01*
X196182934Y-75981982D01*
X196006061Y-75999403D01*
X195993907Y-76000000D01*
X148256093Y-76000000D01*
X148243939Y-75999403D01*
X148067065Y-75981982D01*
X148043224Y-75977240D01*
X147879001Y-75927424D01*
X147856543Y-75918121D01*
X147705201Y-75837227D01*
X147684989Y-75823722D01*
X147552333Y-75714854D01*
X147535145Y-75697666D01*
X147426277Y-75565010D01*
X147412772Y-75544798D01*
X147331878Y-75393456D01*
X147322575Y-75370998D01*
X147272757Y-75206769D01*
X147268018Y-75182941D01*
X147250597Y-75006061D01*
X147250000Y-74993907D01*
X147250000Y-71069812D01*
X168299500Y-71069812D01*
X168299500Y-73165547D01*
X168299501Y-73165553D01*
X168305908Y-73225160D01*
X168356202Y-73360005D01*
X168356206Y-73360012D01*
X168442452Y-73475221D01*
X168442455Y-73475224D01*
X168557664Y-73561470D01*
X168557671Y-73561474D01*
X168692517Y-73611768D01*
X168692516Y-73611768D01*
X168699444Y-73612512D01*
X168752127Y-73618177D01*
X170847872Y-73618176D01*
X170907483Y-73611768D01*
X171042331Y-73561473D01*
X171157546Y-73475223D01*
X171243796Y-73360008D01*
X171294091Y-73225160D01*
X171300500Y-73165550D01*
X171300499Y-71069812D01*
X179249500Y-71069812D01*
X179249500Y-73165547D01*
X179249501Y-73165553D01*
X179255908Y-73225160D01*
X179306202Y-73360005D01*
X179306206Y-73360012D01*
X179392452Y-73475221D01*
X179392455Y-73475224D01*
X179507664Y-73561470D01*
X179507671Y-73561474D01*
X179642517Y-73611768D01*
X179642516Y-73611768D01*
X179649444Y-73612512D01*
X179702127Y-73618177D01*
X181797872Y-73618176D01*
X181857483Y-73611768D01*
X181992331Y-73561473D01*
X182107546Y-73475223D01*
X182193796Y-73360008D01*
X182244091Y-73225160D01*
X182250500Y-73165550D01*
X182250499Y-71069812D01*
X190249500Y-71069812D01*
X190249500Y-73165547D01*
X190249501Y-73165553D01*
X190255908Y-73225160D01*
X190306202Y-73360005D01*
X190306206Y-73360012D01*
X190392452Y-73475221D01*
X190392455Y-73475224D01*
X190507664Y-73561470D01*
X190507671Y-73561474D01*
X190642517Y-73611768D01*
X190642516Y-73611768D01*
X190649444Y-73612512D01*
X190702127Y-73618177D01*
X192797872Y-73618176D01*
X192857483Y-73611768D01*
X192992331Y-73561473D01*
X193107546Y-73475223D01*
X193193796Y-73360008D01*
X193244091Y-73225160D01*
X193250500Y-73165550D01*
X193250499Y-71069805D01*
X193244091Y-71010194D01*
X193193796Y-70875346D01*
X193193795Y-70875345D01*
X193193793Y-70875341D01*
X193107547Y-70760132D01*
X193107544Y-70760129D01*
X192992335Y-70673883D01*
X192992328Y-70673879D01*
X192857482Y-70623585D01*
X192857483Y-70623585D01*
X192797883Y-70617178D01*
X192797881Y-70617177D01*
X192797873Y-70617177D01*
X192797864Y-70617177D01*
X190702129Y-70617177D01*
X190702123Y-70617178D01*
X190642516Y-70623585D01*
X190507671Y-70673879D01*
X190507664Y-70673883D01*
X190392455Y-70760129D01*
X190392452Y-70760132D01*
X190306206Y-70875341D01*
X190306202Y-70875348D01*
X190255908Y-71010194D01*
X190249501Y-71069793D01*
X190249501Y-71069800D01*
X190249500Y-71069812D01*
X182250499Y-71069812D01*
X182250499Y-71069805D01*
X182244091Y-71010194D01*
X182193796Y-70875346D01*
X182193795Y-70875345D01*
X182193793Y-70875341D01*
X182107547Y-70760132D01*
X182107544Y-70760129D01*
X181992335Y-70673883D01*
X181992328Y-70673879D01*
X181857482Y-70623585D01*
X181857483Y-70623585D01*
X181797883Y-70617178D01*
X181797881Y-70617177D01*
X181797873Y-70617177D01*
X181797864Y-70617177D01*
X179702129Y-70617177D01*
X179702123Y-70617178D01*
X179642516Y-70623585D01*
X179507671Y-70673879D01*
X179507664Y-70673883D01*
X179392455Y-70760129D01*
X179392452Y-70760132D01*
X179306206Y-70875341D01*
X179306202Y-70875348D01*
X179255908Y-71010194D01*
X179249501Y-71069793D01*
X179249501Y-71069800D01*
X179249500Y-71069812D01*
X171300499Y-71069812D01*
X171300499Y-71069805D01*
X171294091Y-71010194D01*
X171243796Y-70875346D01*
X171243795Y-70875345D01*
X171243793Y-70875341D01*
X171157547Y-70760132D01*
X171157544Y-70760129D01*
X171042335Y-70673883D01*
X171042328Y-70673879D01*
X170907482Y-70623585D01*
X170907483Y-70623585D01*
X170847883Y-70617178D01*
X170847881Y-70617177D01*
X170847873Y-70617177D01*
X170847864Y-70617177D01*
X168752129Y-70617177D01*
X168752123Y-70617178D01*
X168692516Y-70623585D01*
X168557671Y-70673879D01*
X168557664Y-70673883D01*
X168442455Y-70760129D01*
X168442452Y-70760132D01*
X168356206Y-70875341D01*
X168356202Y-70875348D01*
X168305908Y-71010194D01*
X168299501Y-71069793D01*
X168299501Y-71069800D01*
X168299500Y-71069812D01*
X147250000Y-71069812D01*
X147250000Y-53006092D01*
X147250597Y-52993938D01*
X147268018Y-52817056D01*
X147272757Y-52793232D01*
X147322577Y-52628994D01*
X147331875Y-52606549D01*
X147412775Y-52455195D01*
X147426272Y-52434995D01*
X147535149Y-52302328D01*
X147552328Y-52285149D01*
X147684995Y-52176272D01*
X147705195Y-52162775D01*
X147856549Y-52081875D01*
X147878994Y-52072577D01*
X148043232Y-52022757D01*
X148067056Y-52018018D01*
X148243939Y-52000597D01*
X148256093Y-52000000D01*
X152993907Y-52000000D01*
X153006061Y-52000597D01*
G37*
%TD.AperFunction*%
%TD*%
%TA.AperFunction,Conductor*%
%TO.N,GND*%
G36*
X99042540Y-121019685D02*
G01*
X99088295Y-121072489D01*
X99099501Y-121124000D01*
X99099501Y-121419856D01*
X99099502Y-121419882D01*
X99102413Y-121444987D01*
X99102415Y-121444991D01*
X99147793Y-121547764D01*
X99147794Y-121547765D01*
X99227235Y-121627206D01*
X99330009Y-121672585D01*
X99355135Y-121675500D01*
X101144864Y-121675499D01*
X101144879Y-121675497D01*
X101144882Y-121675497D01*
X101169987Y-121672586D01*
X101169988Y-121672585D01*
X101169991Y-121672585D01*
X101272765Y-121627206D01*
X101352206Y-121547765D01*
X101397585Y-121444991D01*
X101400500Y-121419865D01*
X101400500Y-121128295D01*
X101420185Y-121061256D01*
X101472989Y-121015501D01*
X101540684Y-121005356D01*
X101613224Y-121014906D01*
X101644491Y-121023284D01*
X101734918Y-121060740D01*
X101762952Y-121076925D01*
X101840602Y-121136509D01*
X101863491Y-121159398D01*
X101923074Y-121237048D01*
X101939259Y-121265081D01*
X101976715Y-121355508D01*
X101985093Y-121386775D01*
X101998939Y-121491939D01*
X102000000Y-121508125D01*
X102000000Y-146991874D01*
X101998939Y-147008060D01*
X101985093Y-147113224D01*
X101976715Y-147144491D01*
X101939259Y-147234918D01*
X101923074Y-147262951D01*
X101863491Y-147340601D01*
X101840601Y-147363491D01*
X101762951Y-147423074D01*
X101734918Y-147439259D01*
X101644491Y-147476715D01*
X101613224Y-147485093D01*
X101519398Y-147497446D01*
X101508058Y-147498939D01*
X101491874Y-147500000D01*
X91008126Y-147500000D01*
X90991941Y-147498939D01*
X90978917Y-147497224D01*
X90886775Y-147485093D01*
X90855508Y-147476715D01*
X90765081Y-147439259D01*
X90737048Y-147423074D01*
X90659398Y-147363491D01*
X90636508Y-147340601D01*
X90576925Y-147262951D01*
X90560740Y-147234918D01*
X90523284Y-147144491D01*
X90514906Y-147113223D01*
X90501061Y-147008059D01*
X90500000Y-146991874D01*
X90500000Y-143460131D01*
X91649500Y-143460131D01*
X91649500Y-146149856D01*
X91649502Y-146149882D01*
X91652413Y-146174987D01*
X91652415Y-146174991D01*
X91697793Y-146277764D01*
X91697794Y-146277765D01*
X91777235Y-146357206D01*
X91880009Y-146402585D01*
X91905135Y-146405500D01*
X94594864Y-146405499D01*
X94594879Y-146405497D01*
X94594882Y-146405497D01*
X94619987Y-146402586D01*
X94619988Y-146402585D01*
X94619991Y-146402585D01*
X94722765Y-146357206D01*
X94802206Y-146277765D01*
X94847585Y-146174991D01*
X94850500Y-146149865D01*
X94850499Y-144805000D01*
X96644551Y-144805000D01*
X96664317Y-145056151D01*
X96723126Y-145301110D01*
X96819533Y-145533859D01*
X96951160Y-145748653D01*
X96951161Y-145748656D01*
X96951164Y-145748659D01*
X97114776Y-145940224D01*
X97263066Y-146066875D01*
X97306343Y-146103838D01*
X97306346Y-146103839D01*
X97521140Y-146235466D01*
X97623260Y-146277765D01*
X97753889Y-146331873D01*
X97998852Y-146390683D01*
X98250000Y-146410449D01*
X98501148Y-146390683D01*
X98746111Y-146331873D01*
X98978859Y-146235466D01*
X99193659Y-146103836D01*
X99385224Y-145940224D01*
X99548836Y-145748659D01*
X99680466Y-145533859D01*
X99776873Y-145301111D01*
X99835683Y-145056148D01*
X99855449Y-144805000D01*
X99835683Y-144553852D01*
X99776873Y-144308889D01*
X99680466Y-144076141D01*
X99680466Y-144076140D01*
X99548839Y-143861346D01*
X99548838Y-143861343D01*
X99511875Y-143818066D01*
X99385224Y-143669776D01*
X99258571Y-143561604D01*
X99193656Y-143506161D01*
X99193653Y-143506160D01*
X98978859Y-143374533D01*
X98746110Y-143278126D01*
X98501151Y-143219317D01*
X98250000Y-143199551D01*
X97998848Y-143219317D01*
X97753889Y-143278126D01*
X97521140Y-143374533D01*
X97306346Y-143506160D01*
X97306343Y-143506161D01*
X97114776Y-143669776D01*
X96951161Y-143861343D01*
X96951160Y-143861346D01*
X96819533Y-144076140D01*
X96723126Y-144308889D01*
X96664317Y-144553848D01*
X96644551Y-144805000D01*
X94850499Y-144805000D01*
X94850499Y-143460136D01*
X94850497Y-143460117D01*
X94847586Y-143435012D01*
X94847585Y-143435010D01*
X94847585Y-143435009D01*
X94802206Y-143332235D01*
X94722765Y-143252794D01*
X94646947Y-143219317D01*
X94619992Y-143207415D01*
X94594865Y-143204500D01*
X91905143Y-143204500D01*
X91905117Y-143204502D01*
X91880012Y-143207413D01*
X91880008Y-143207415D01*
X91777235Y-143252793D01*
X91697794Y-143332234D01*
X91652415Y-143435006D01*
X91652415Y-143435008D01*
X91649500Y-143460131D01*
X90500000Y-143460131D01*
X90500000Y-121508125D01*
X90501061Y-121491940D01*
X90507243Y-121444987D01*
X90514906Y-121386775D01*
X90523284Y-121355508D01*
X90560740Y-121265081D01*
X90576923Y-121237050D01*
X90636513Y-121159392D01*
X90659392Y-121136513D01*
X90737050Y-121076923D01*
X90765079Y-121060740D01*
X90855509Y-121023283D01*
X90886775Y-121014906D01*
X90991941Y-121001061D01*
X91008126Y-121000000D01*
X98975501Y-121000000D01*
X99042540Y-121019685D01*
G37*
%TD.AperFunction*%
%TD*%
%TA.AperFunction,Conductor*%
%TO.N,/Motor_Control/U_Phase_COM*%
G36*
X167793039Y-86270185D02*
G01*
X167838794Y-86322989D01*
X167850000Y-86374500D01*
X167850000Y-92625500D01*
X167830315Y-92692539D01*
X167777511Y-92738294D01*
X167726000Y-92749500D01*
X154624000Y-92749500D01*
X154556961Y-92729815D01*
X154511206Y-92677011D01*
X154500000Y-92625500D01*
X154500000Y-87374500D01*
X154519685Y-87307461D01*
X154572489Y-87261706D01*
X154624000Y-87250500D01*
X161573920Y-87250500D01*
X161671462Y-87231096D01*
X161718913Y-87221658D01*
X161855495Y-87165084D01*
X161904729Y-87132186D01*
X161978416Y-87082952D01*
X162774548Y-86286818D01*
X162835871Y-86253334D01*
X162862229Y-86250500D01*
X167726000Y-86250500D01*
X167793039Y-86270185D01*
G37*
%TD.AperFunction*%
%TD*%
%TA.AperFunction,Conductor*%
%TO.N,/Motor_Control/V_Phase_COM*%
G36*
X181506061Y-84500597D02*
G01*
X181682941Y-84518018D01*
X181706769Y-84522757D01*
X181871001Y-84572576D01*
X181893453Y-84581877D01*
X182044798Y-84662772D01*
X182065010Y-84676277D01*
X182197666Y-84785145D01*
X182214854Y-84802333D01*
X182323722Y-84934989D01*
X182337227Y-84955201D01*
X182418121Y-85106543D01*
X182427424Y-85129001D01*
X182477240Y-85293224D01*
X182481982Y-85317065D01*
X182499403Y-85493938D01*
X182500000Y-85506092D01*
X182500000Y-85637270D01*
X182480315Y-85704309D01*
X182463681Y-85724951D01*
X182417048Y-85771583D01*
X182398161Y-85799850D01*
X182379400Y-85827930D01*
X182334919Y-85894499D01*
X182334912Y-85894511D01*
X182278343Y-86031082D01*
X182278340Y-86031092D01*
X182249500Y-86176079D01*
X182249500Y-93637770D01*
X182229815Y-93704809D01*
X182213181Y-93725451D01*
X181975451Y-93963181D01*
X181914128Y-93996666D01*
X181887770Y-93999500D01*
X169212882Y-93999500D01*
X169145843Y-93979815D01*
X169103524Y-93933953D01*
X169081878Y-93893456D01*
X169072575Y-93870998D01*
X169022757Y-93706769D01*
X169018018Y-93682941D01*
X169000597Y-93506061D01*
X169000000Y-93493907D01*
X169000000Y-86374500D01*
X169019685Y-86307461D01*
X169072489Y-86261706D01*
X169124000Y-86250500D01*
X174460663Y-86250500D01*
X174527702Y-86270185D01*
X174533548Y-86274182D01*
X174547265Y-86284148D01*
X174547270Y-86284151D01*
X174720192Y-86361142D01*
X174720197Y-86361144D01*
X174905354Y-86400500D01*
X174905355Y-86400500D01*
X175094644Y-86400500D01*
X175094646Y-86400500D01*
X175279803Y-86361144D01*
X175452730Y-86284151D01*
X175605871Y-86172888D01*
X175732533Y-86032216D01*
X175827179Y-85868284D01*
X175885674Y-85688256D01*
X175905460Y-85500000D01*
X175885674Y-85311744D01*
X175827179Y-85131716D01*
X175732533Y-84967784D01*
X175605871Y-84827112D01*
X175571765Y-84802333D01*
X175464387Y-84724318D01*
X175421721Y-84668988D01*
X175415742Y-84599375D01*
X175448348Y-84537580D01*
X175509186Y-84503223D01*
X175537272Y-84500000D01*
X181493907Y-84500000D01*
X181506061Y-84500597D01*
G37*
%TD.AperFunction*%
%TD*%
%TA.AperFunction,Conductor*%
%TO.N,GND*%
G36*
X89008059Y-121001061D02*
G01*
X89113223Y-121014906D01*
X89144491Y-121023284D01*
X89234918Y-121060740D01*
X89262952Y-121076925D01*
X89340602Y-121136509D01*
X89363491Y-121159398D01*
X89423074Y-121237048D01*
X89439259Y-121265081D01*
X89476715Y-121355508D01*
X89485093Y-121386775D01*
X89498939Y-121491939D01*
X89500000Y-121508125D01*
X89500000Y-146991874D01*
X89498939Y-147008060D01*
X89485093Y-147113224D01*
X89476715Y-147144491D01*
X89439259Y-147234918D01*
X89423074Y-147262951D01*
X89363491Y-147340601D01*
X89340601Y-147363491D01*
X89262951Y-147423074D01*
X89234918Y-147439259D01*
X89144491Y-147476715D01*
X89113224Y-147485093D01*
X89019398Y-147497446D01*
X89008058Y-147498939D01*
X88991874Y-147500000D01*
X79008126Y-147500000D01*
X78991941Y-147498939D01*
X78978917Y-147497224D01*
X78886775Y-147485093D01*
X78855508Y-147476715D01*
X78765081Y-147439259D01*
X78737048Y-147423074D01*
X78659398Y-147363491D01*
X78636508Y-147340601D01*
X78576925Y-147262951D01*
X78560740Y-147234918D01*
X78523284Y-147144491D01*
X78514906Y-147113223D01*
X78501061Y-147008059D01*
X78500000Y-146991874D01*
X78500000Y-143460131D01*
X80149500Y-143460131D01*
X80149500Y-146149856D01*
X80149502Y-146149882D01*
X80152413Y-146174987D01*
X80152415Y-146174991D01*
X80197793Y-146277764D01*
X80197794Y-146277765D01*
X80277235Y-146357206D01*
X80380009Y-146402585D01*
X80405135Y-146405500D01*
X83094864Y-146405499D01*
X83094879Y-146405497D01*
X83094882Y-146405497D01*
X83119987Y-146402586D01*
X83119988Y-146402585D01*
X83119991Y-146402585D01*
X83222765Y-146357206D01*
X83302206Y-146277765D01*
X83347585Y-146174991D01*
X83350500Y-146149865D01*
X83350499Y-144805000D01*
X85144551Y-144805000D01*
X85164317Y-145056151D01*
X85223126Y-145301110D01*
X85319533Y-145533859D01*
X85451160Y-145748653D01*
X85451161Y-145748656D01*
X85451164Y-145748659D01*
X85614776Y-145940224D01*
X85763066Y-146066875D01*
X85806343Y-146103838D01*
X85806346Y-146103839D01*
X86021140Y-146235466D01*
X86123260Y-146277765D01*
X86253889Y-146331873D01*
X86498852Y-146390683D01*
X86750000Y-146410449D01*
X87001148Y-146390683D01*
X87246111Y-146331873D01*
X87478859Y-146235466D01*
X87693659Y-146103836D01*
X87885224Y-145940224D01*
X88048836Y-145748659D01*
X88180466Y-145533859D01*
X88276873Y-145301111D01*
X88335683Y-145056148D01*
X88355449Y-144805000D01*
X88335683Y-144553852D01*
X88276873Y-144308889D01*
X88180466Y-144076141D01*
X88180466Y-144076140D01*
X88048839Y-143861346D01*
X88048838Y-143861343D01*
X88011875Y-143818066D01*
X87885224Y-143669776D01*
X87758571Y-143561604D01*
X87693656Y-143506161D01*
X87693653Y-143506160D01*
X87478859Y-143374533D01*
X87246110Y-143278126D01*
X87001151Y-143219317D01*
X86750000Y-143199551D01*
X86498848Y-143219317D01*
X86253889Y-143278126D01*
X86021140Y-143374533D01*
X85806346Y-143506160D01*
X85806343Y-143506161D01*
X85614776Y-143669776D01*
X85451161Y-143861343D01*
X85451160Y-143861346D01*
X85319533Y-144076140D01*
X85223126Y-144308889D01*
X85164317Y-144553848D01*
X85144551Y-144805000D01*
X83350499Y-144805000D01*
X83350499Y-143460136D01*
X83350497Y-143460117D01*
X83347586Y-143435012D01*
X83347585Y-143435010D01*
X83347585Y-143435009D01*
X83302206Y-143332235D01*
X83222765Y-143252794D01*
X83146947Y-143219317D01*
X83119992Y-143207415D01*
X83094865Y-143204500D01*
X80405143Y-143204500D01*
X80405117Y-143204502D01*
X80380012Y-143207413D01*
X80380008Y-143207415D01*
X80277235Y-143252793D01*
X80197794Y-143332234D01*
X80152415Y-143435006D01*
X80152415Y-143435008D01*
X80149500Y-143460131D01*
X78500000Y-143460131D01*
X78500000Y-121508125D01*
X78501061Y-121491940D01*
X78514906Y-121386776D01*
X78523284Y-121355508D01*
X78560740Y-121265081D01*
X78576923Y-121237050D01*
X78636513Y-121159392D01*
X78659392Y-121136513D01*
X78737050Y-121076923D01*
X78765079Y-121060740D01*
X78855509Y-121023283D01*
X78886775Y-121014906D01*
X78991941Y-121001061D01*
X79008126Y-121000000D01*
X88991874Y-121000000D01*
X89008059Y-121001061D01*
G37*
%TD.AperFunction*%
%TD*%
%TA.AperFunction,Conductor*%
%TO.N,/Motor_Control/W_Phase_COM*%
G36*
X195906061Y-84500597D02*
G01*
X196082941Y-84518018D01*
X196106769Y-84522757D01*
X196271001Y-84572576D01*
X196293453Y-84581877D01*
X196444798Y-84662772D01*
X196465010Y-84676277D01*
X196597666Y-84785145D01*
X196614854Y-84802333D01*
X196723722Y-84934989D01*
X196737227Y-84955201D01*
X196818121Y-85106543D01*
X196827424Y-85129001D01*
X196877240Y-85293224D01*
X196881982Y-85317065D01*
X196899403Y-85493938D01*
X196900000Y-85506092D01*
X196900000Y-93493907D01*
X196899403Y-93506061D01*
X196881982Y-93682934D01*
X196877240Y-93706775D01*
X196827424Y-93870998D01*
X196818121Y-93893456D01*
X196737227Y-94044798D01*
X196723722Y-94065010D01*
X196614854Y-94197666D01*
X196597666Y-94214854D01*
X196465010Y-94323722D01*
X196444798Y-94337227D01*
X196293456Y-94418121D01*
X196270998Y-94427424D01*
X196106775Y-94477240D01*
X196082934Y-94481982D01*
X195906061Y-94499403D01*
X195893907Y-94500000D01*
X184506093Y-94500000D01*
X184493939Y-94499403D01*
X184317065Y-94481982D01*
X184293224Y-94477240D01*
X184129001Y-94427424D01*
X184106543Y-94418121D01*
X183955201Y-94337227D01*
X183934989Y-94323722D01*
X183802333Y-94214854D01*
X183785144Y-94197665D01*
X183774651Y-94184879D01*
X183747339Y-94120569D01*
X183748888Y-94082020D01*
X183750500Y-94073917D01*
X183750500Y-86612229D01*
X183770185Y-86545190D01*
X183786819Y-86524548D01*
X184024548Y-86286819D01*
X184085871Y-86253334D01*
X184112229Y-86250500D01*
X188960663Y-86250500D01*
X189027702Y-86270185D01*
X189033548Y-86274182D01*
X189047265Y-86284148D01*
X189047270Y-86284151D01*
X189220192Y-86361142D01*
X189220197Y-86361144D01*
X189405354Y-86400500D01*
X189405355Y-86400500D01*
X189594644Y-86400500D01*
X189594646Y-86400500D01*
X189779803Y-86361144D01*
X189952730Y-86284151D01*
X190105871Y-86172888D01*
X190232533Y-86032216D01*
X190327179Y-85868284D01*
X190385674Y-85688256D01*
X190405460Y-85500000D01*
X190385674Y-85311744D01*
X190327179Y-85131716D01*
X190232533Y-84967784D01*
X190105871Y-84827112D01*
X190071765Y-84802333D01*
X189964387Y-84724318D01*
X189921721Y-84668988D01*
X189915742Y-84599375D01*
X189948348Y-84537580D01*
X190009186Y-84503223D01*
X190037272Y-84500000D01*
X195893907Y-84500000D01*
X195906061Y-84500597D01*
G37*
%TD.AperFunction*%
%TD*%
%TA.AperFunction,Conductor*%
%TO.N,GND*%
G36*
X140089150Y-108769685D02*
G01*
X140134905Y-108822489D01*
X140138053Y-108830029D01*
X140175182Y-108927930D01*
X140175182Y-108927931D01*
X140215988Y-108987048D01*
X140271817Y-109067929D01*
X140377505Y-109161560D01*
X140399150Y-109180736D01*
X140515763Y-109241939D01*
X140549775Y-109259790D01*
X140714944Y-109300500D01*
X140885056Y-109300500D01*
X141050225Y-109259790D01*
X141129692Y-109218081D01*
X141200849Y-109180736D01*
X141200850Y-109180734D01*
X141200852Y-109180734D01*
X141328183Y-109067929D01*
X141424818Y-108927930D01*
X141449484Y-108862889D01*
X141461947Y-108830029D01*
X141504125Y-108774326D01*
X141569723Y-108750269D01*
X141577889Y-108750000D01*
X149991874Y-108750000D01*
X150008059Y-108751061D01*
X150113223Y-108764906D01*
X150144491Y-108773284D01*
X150234918Y-108810740D01*
X150262952Y-108826925D01*
X150340602Y-108886509D01*
X150363491Y-108909398D01*
X150423074Y-108987048D01*
X150439259Y-109015081D01*
X150476715Y-109105508D01*
X150485093Y-109136775D01*
X150498939Y-109241939D01*
X150500000Y-109258125D01*
X150500000Y-116391373D01*
X150480315Y-116458412D01*
X150433627Y-116501169D01*
X150399152Y-116519263D01*
X150399150Y-116519264D01*
X150271816Y-116632072D01*
X150175182Y-116772068D01*
X150114860Y-116931125D01*
X150114859Y-116931130D01*
X150094355Y-117100000D01*
X150114859Y-117268869D01*
X150114860Y-117268874D01*
X150175182Y-117427931D01*
X150183848Y-117440485D01*
X150271817Y-117567929D01*
X150399148Y-117680734D01*
X150433627Y-117698830D01*
X150483837Y-117747411D01*
X150500000Y-117808625D01*
X150500000Y-117891373D01*
X150480315Y-117958412D01*
X150433627Y-118001169D01*
X150399152Y-118019263D01*
X150399150Y-118019264D01*
X150271816Y-118132072D01*
X150175182Y-118272068D01*
X150114860Y-118431125D01*
X150114859Y-118431130D01*
X150094355Y-118600000D01*
X150114859Y-118768869D01*
X150114860Y-118768874D01*
X150175182Y-118927931D01*
X150183848Y-118940485D01*
X150271817Y-119067929D01*
X150399148Y-119180734D01*
X150433627Y-119198830D01*
X150483837Y-119247411D01*
X150500000Y-119308625D01*
X150500000Y-122391373D01*
X150480315Y-122458412D01*
X150433627Y-122501169D01*
X150399152Y-122519263D01*
X150399150Y-122519264D01*
X150271816Y-122632072D01*
X150175182Y-122772068D01*
X150114860Y-122931125D01*
X150114859Y-122931130D01*
X150094355Y-123100000D01*
X150114859Y-123268869D01*
X150114860Y-123268874D01*
X150175182Y-123427931D01*
X150183848Y-123440485D01*
X150271817Y-123567929D01*
X150399148Y-123680734D01*
X150433627Y-123698830D01*
X150483837Y-123747411D01*
X150500000Y-123808625D01*
X150500000Y-123891373D01*
X150480315Y-123958412D01*
X150433627Y-124001169D01*
X150399152Y-124019263D01*
X150399150Y-124019264D01*
X150271816Y-124132072D01*
X150175182Y-124272068D01*
X150114860Y-124431125D01*
X150114859Y-124431130D01*
X150094355Y-124600000D01*
X150114859Y-124768869D01*
X150114860Y-124768874D01*
X150175182Y-124927931D01*
X150183848Y-124940485D01*
X150271817Y-125067929D01*
X150399148Y-125180734D01*
X150433627Y-125198830D01*
X150483837Y-125247411D01*
X150500000Y-125308625D01*
X150500000Y-126491874D01*
X150498939Y-126508060D01*
X150485093Y-126613224D01*
X150476715Y-126644491D01*
X150439259Y-126734918D01*
X150423074Y-126762951D01*
X150363491Y-126840601D01*
X150340601Y-126863491D01*
X150262951Y-126923074D01*
X150234918Y-126939259D01*
X150144491Y-126976715D01*
X150113224Y-126985093D01*
X150019398Y-126997446D01*
X150008058Y-126998939D01*
X149991874Y-127000000D01*
X119508126Y-127000000D01*
X119491941Y-126998939D01*
X119478917Y-126997224D01*
X119386775Y-126985093D01*
X119355508Y-126976715D01*
X119265081Y-126939259D01*
X119237048Y-126923074D01*
X119159398Y-126863491D01*
X119136508Y-126840601D01*
X119076925Y-126762951D01*
X119060740Y-126734918D01*
X119023284Y-126644491D01*
X119014906Y-126613223D01*
X119001061Y-126508059D01*
X119000000Y-126491874D01*
X119000000Y-120600000D01*
X140094355Y-120600000D01*
X140114859Y-120768869D01*
X140114860Y-120768874D01*
X140175182Y-120927931D01*
X140237475Y-121018177D01*
X140271817Y-121067929D01*
X140377505Y-121161560D01*
X140399150Y-121180736D01*
X140549773Y-121259789D01*
X140549775Y-121259790D01*
X140714944Y-121300500D01*
X140885056Y-121300500D01*
X141050225Y-121259790D01*
X141129692Y-121218081D01*
X141200849Y-121180736D01*
X141200850Y-121180734D01*
X141200852Y-121180734D01*
X141328183Y-121067929D01*
X141424818Y-120927930D01*
X141485140Y-120768872D01*
X141505645Y-120600000D01*
X141485140Y-120431128D01*
X141424818Y-120272070D01*
X141328183Y-120132071D01*
X141200852Y-120019266D01*
X141200849Y-120019263D01*
X141050226Y-119940210D01*
X140885056Y-119899500D01*
X140714944Y-119899500D01*
X140549773Y-119940210D01*
X140399150Y-120019263D01*
X140271816Y-120132072D01*
X140175182Y-120272068D01*
X140114860Y-120431125D01*
X140114859Y-120431130D01*
X140094355Y-120600000D01*
X119000000Y-120600000D01*
X119000000Y-114600000D01*
X140094355Y-114600000D01*
X140114859Y-114768869D01*
X140114860Y-114768874D01*
X140175182Y-114927931D01*
X140237475Y-115018177D01*
X140271817Y-115067929D01*
X140377505Y-115161560D01*
X140399150Y-115180736D01*
X140549773Y-115259789D01*
X140549775Y-115259790D01*
X140714944Y-115300500D01*
X140885056Y-115300500D01*
X141050225Y-115259790D01*
X141129692Y-115218081D01*
X141200849Y-115180736D01*
X141200850Y-115180734D01*
X141200852Y-115180734D01*
X141328183Y-115067929D01*
X141424818Y-114927930D01*
X141485140Y-114768872D01*
X141505645Y-114600000D01*
X141485140Y-114431128D01*
X141424818Y-114272070D01*
X141328183Y-114132071D01*
X141200852Y-114019266D01*
X141200849Y-114019263D01*
X141050226Y-113940210D01*
X140885056Y-113899500D01*
X140714944Y-113899500D01*
X140549773Y-113940210D01*
X140399150Y-114019263D01*
X140271816Y-114132072D01*
X140175182Y-114272068D01*
X140114860Y-114431125D01*
X140114859Y-114431130D01*
X140094355Y-114600000D01*
X119000000Y-114600000D01*
X119000000Y-109258125D01*
X119001061Y-109241940D01*
X119014906Y-109136776D01*
X119023284Y-109105508D01*
X119060740Y-109015081D01*
X119076923Y-108987050D01*
X119136513Y-108909392D01*
X119159392Y-108886513D01*
X119237050Y-108826923D01*
X119265079Y-108810740D01*
X119355509Y-108773283D01*
X119386775Y-108764906D01*
X119491941Y-108751061D01*
X119508126Y-108750000D01*
X140022111Y-108750000D01*
X140089150Y-108769685D01*
G37*
%TD.AperFunction*%
%TD*%
%TA.AperFunction,Conductor*%
%TO.N,Net-(J1-Pin_1)*%
G36*
X167943039Y-52019685D02*
G01*
X167988794Y-52072489D01*
X168000000Y-52124000D01*
X168000000Y-59876000D01*
X167980315Y-59943039D01*
X167927511Y-59988794D01*
X167876000Y-60000000D01*
X155124000Y-60000000D01*
X155056961Y-59980315D01*
X155011206Y-59927511D01*
X155000000Y-59876000D01*
X155000000Y-52124000D01*
X155019685Y-52056961D01*
X155072489Y-52011206D01*
X155124000Y-52000000D01*
X167876000Y-52000000D01*
X167943039Y-52019685D01*
G37*
%TD.AperFunction*%
%TD*%
%TA.AperFunction,Conductor*%
%TO.N,GND*%
G36*
X141295319Y-82269685D02*
G01*
X141341074Y-82322489D01*
X141351454Y-82388290D01*
X141349500Y-82405128D01*
X141349500Y-84094856D01*
X141349502Y-84094882D01*
X141352413Y-84119987D01*
X141352415Y-84119991D01*
X141397793Y-84222764D01*
X141397794Y-84222765D01*
X141477235Y-84302206D01*
X141580009Y-84347585D01*
X141605135Y-84350500D01*
X143294864Y-84350499D01*
X143294879Y-84350497D01*
X143294882Y-84350497D01*
X143319987Y-84347586D01*
X143319988Y-84347585D01*
X143319991Y-84347585D01*
X143422765Y-84302206D01*
X143502206Y-84222765D01*
X143547585Y-84119991D01*
X143550500Y-84094865D01*
X143550499Y-82405136D01*
X143548545Y-82388286D01*
X143560374Y-82319425D01*
X143607555Y-82267891D01*
X143671719Y-82250000D01*
X149991874Y-82250000D01*
X150008059Y-82251061D01*
X150113223Y-82264906D01*
X150144491Y-82273284D01*
X150234918Y-82310740D01*
X150262952Y-82326925D01*
X150340602Y-82386509D01*
X150363491Y-82409398D01*
X150423074Y-82487048D01*
X150439259Y-82515081D01*
X150476715Y-82605508D01*
X150485093Y-82636775D01*
X150498939Y-82741939D01*
X150500000Y-82758125D01*
X150500000Y-83015131D01*
X150480315Y-83082170D01*
X150433627Y-83124927D01*
X150349149Y-83169265D01*
X150221816Y-83282072D01*
X150125182Y-83422068D01*
X150064860Y-83581125D01*
X150064859Y-83581130D01*
X150044355Y-83750000D01*
X150064859Y-83918869D01*
X150064860Y-83918874D01*
X150125182Y-84077931D01*
X150154216Y-84119993D01*
X150221817Y-84217929D01*
X150349148Y-84330734D01*
X150433628Y-84375073D01*
X150483838Y-84423656D01*
X150500000Y-84484868D01*
X150500000Y-88170113D01*
X150480315Y-88237152D01*
X150463681Y-88257794D01*
X150309491Y-88411983D01*
X150309489Y-88411986D01*
X150237016Y-88537514D01*
X150237016Y-88537515D01*
X150199500Y-88677525D01*
X150199500Y-88677527D01*
X150199500Y-90775761D01*
X150179815Y-90842800D01*
X150177550Y-90846201D01*
X150125183Y-90922068D01*
X150125182Y-90922068D01*
X150064860Y-91081125D01*
X150064859Y-91081130D01*
X150044355Y-91250000D01*
X150064859Y-91418869D01*
X150064861Y-91418877D01*
X150084525Y-91470726D01*
X150089892Y-91540389D01*
X150056744Y-91601895D01*
X149995606Y-91635716D01*
X149925888Y-91631114D01*
X149880902Y-91602377D01*
X144088016Y-85809491D01*
X144088015Y-85809490D01*
X143962485Y-85737016D01*
X143962486Y-85737016D01*
X143927482Y-85727637D01*
X143822475Y-85699500D01*
X143822472Y-85699500D01*
X143475070Y-85699500D01*
X143408031Y-85679815D01*
X143376116Y-85650227D01*
X143266762Y-85505418D01*
X143116041Y-85368019D01*
X143116039Y-85368017D01*
X142942642Y-85260655D01*
X142942635Y-85260651D01*
X142847546Y-85223814D01*
X142752456Y-85186976D01*
X142551976Y-85149500D01*
X142348024Y-85149500D01*
X142147544Y-85186976D01*
X142147541Y-85186976D01*
X142147541Y-85186977D01*
X141957364Y-85260651D01*
X141957357Y-85260655D01*
X141783960Y-85368017D01*
X141783958Y-85368019D01*
X141633237Y-85505418D01*
X141510327Y-85668178D01*
X141419422Y-85850739D01*
X141419417Y-85850752D01*
X141363602Y-86046917D01*
X141344785Y-86249999D01*
X141344785Y-86250000D01*
X141363602Y-86453082D01*
X141419417Y-86649247D01*
X141419422Y-86649260D01*
X141510327Y-86831821D01*
X141633237Y-86994581D01*
X141783958Y-87131980D01*
X141783960Y-87131982D01*
X141883141Y-87193392D01*
X141957363Y-87239348D01*
X142147544Y-87313024D01*
X142348024Y-87350500D01*
X142348026Y-87350500D01*
X142551974Y-87350500D01*
X142551976Y-87350500D01*
X142752456Y-87313024D01*
X142942637Y-87239348D01*
X143116041Y-87131981D01*
X143266764Y-86994579D01*
X143374198Y-86852312D01*
X143430306Y-86810676D01*
X143500018Y-86805984D01*
X143560833Y-86839358D01*
X149459294Y-92737819D01*
X149492779Y-92799142D01*
X149487795Y-92868834D01*
X149445923Y-92924767D01*
X149380459Y-92949184D01*
X149371613Y-92949500D01*
X147177525Y-92949500D01*
X147072517Y-92977637D01*
X147037514Y-92987016D01*
X146911986Y-93059489D01*
X146911983Y-93059491D01*
X144308294Y-95663181D01*
X144246971Y-95696666D01*
X144220613Y-95699500D01*
X143475070Y-95699500D01*
X143408031Y-95679815D01*
X143376116Y-95650227D01*
X143266762Y-95505418D01*
X143116041Y-95368019D01*
X143116039Y-95368017D01*
X142942642Y-95260655D01*
X142942635Y-95260651D01*
X142755858Y-95188294D01*
X142752456Y-95186976D01*
X142551976Y-95149500D01*
X142348024Y-95149500D01*
X142147544Y-95186976D01*
X142147541Y-95186976D01*
X142147541Y-95186977D01*
X141957364Y-95260651D01*
X141957357Y-95260655D01*
X141783960Y-95368017D01*
X141783958Y-95368019D01*
X141633237Y-95505418D01*
X141510327Y-95668178D01*
X141419422Y-95850739D01*
X141419417Y-95850752D01*
X141363602Y-96046917D01*
X141344785Y-96249999D01*
X141344785Y-96250000D01*
X141363602Y-96453082D01*
X141419417Y-96649247D01*
X141419422Y-96649260D01*
X141510327Y-96831821D01*
X141633237Y-96994581D01*
X141783958Y-97131980D01*
X141783960Y-97131982D01*
X141843535Y-97168869D01*
X141957363Y-97239348D01*
X142147544Y-97313024D01*
X142348024Y-97350500D01*
X142348026Y-97350500D01*
X142551974Y-97350500D01*
X142551976Y-97350500D01*
X142752456Y-97313024D01*
X142942637Y-97239348D01*
X143116041Y-97131981D01*
X143244122Y-97015219D01*
X143266762Y-96994581D01*
X143376116Y-96849773D01*
X143432225Y-96808137D01*
X143475070Y-96800500D01*
X144572472Y-96800500D01*
X144572474Y-96800500D01*
X144572475Y-96800500D01*
X144712485Y-96762984D01*
X144838015Y-96690510D01*
X147441706Y-94086819D01*
X147503029Y-94053334D01*
X147529387Y-94050500D01*
X150376000Y-94050500D01*
X150443039Y-94070185D01*
X150488794Y-94122989D01*
X150500000Y-94174500D01*
X150500000Y-95075500D01*
X150480315Y-95142539D01*
X150427511Y-95188294D01*
X150376000Y-95199500D01*
X149427525Y-95199500D01*
X149322517Y-95227637D01*
X149287514Y-95237016D01*
X149161986Y-95309489D01*
X149161983Y-95309491D01*
X148309489Y-96161985D01*
X148284082Y-96205992D01*
X148258675Y-96250000D01*
X148237016Y-96287515D01*
X148199500Y-96427525D01*
X148199500Y-96427527D01*
X148199500Y-105397390D01*
X148179815Y-105464429D01*
X148163181Y-105485071D01*
X147860071Y-105788181D01*
X147798748Y-105821666D01*
X147772390Y-105824500D01*
X143544288Y-105824500D01*
X143477249Y-105804815D01*
X143433289Y-105755774D01*
X143389673Y-105668179D01*
X143266764Y-105505421D01*
X143266762Y-105505418D01*
X143116041Y-105368019D01*
X143116039Y-105368017D01*
X142942642Y-105260655D01*
X142942635Y-105260651D01*
X142766645Y-105192473D01*
X142752456Y-105186976D01*
X142551976Y-105149500D01*
X142348024Y-105149500D01*
X142147544Y-105186976D01*
X142147541Y-105186976D01*
X142147541Y-105186977D01*
X141957364Y-105260651D01*
X141957357Y-105260655D01*
X141783960Y-105368017D01*
X141783958Y-105368019D01*
X141633237Y-105505418D01*
X141510327Y-105668178D01*
X141419422Y-105850739D01*
X141419417Y-105850752D01*
X141363602Y-106046917D01*
X141344785Y-106249999D01*
X141344785Y-106250000D01*
X141363602Y-106453082D01*
X141419417Y-106649247D01*
X141419422Y-106649260D01*
X141510327Y-106831821D01*
X141633237Y-106994581D01*
X141783958Y-107131980D01*
X141783960Y-107131982D01*
X141883141Y-107193392D01*
X141957363Y-107239348D01*
X142147544Y-107313024D01*
X142348024Y-107350500D01*
X142348026Y-107350500D01*
X142551974Y-107350500D01*
X142551976Y-107350500D01*
X142752456Y-107313024D01*
X142942637Y-107239348D01*
X143116041Y-107131981D01*
X143266764Y-106994579D01*
X143389673Y-106831821D01*
X143433289Y-106744225D01*
X143480790Y-106692992D01*
X143544288Y-106675500D01*
X148056016Y-106675500D01*
X148056018Y-106675500D01*
X148164237Y-106646503D01*
X148261263Y-106590485D01*
X148769986Y-106081761D01*
X148825568Y-106049671D01*
X148962485Y-106012984D01*
X149088015Y-105940509D01*
X149190509Y-105838015D01*
X149262984Y-105712485D01*
X149300500Y-105572475D01*
X149300500Y-96779387D01*
X149320185Y-96712348D01*
X149336819Y-96691706D01*
X149691706Y-96336819D01*
X149753029Y-96303334D01*
X149779387Y-96300500D01*
X149906246Y-96300500D01*
X149973285Y-96320185D01*
X150019040Y-96372989D01*
X150028984Y-96442147D01*
X149999959Y-96505703D01*
X149988472Y-96517316D01*
X149971817Y-96532070D01*
X149875182Y-96672068D01*
X149814860Y-96831125D01*
X149814859Y-96831130D01*
X149794355Y-97000000D01*
X149814859Y-97168869D01*
X149814860Y-97168874D01*
X149875182Y-97327931D01*
X149890761Y-97350500D01*
X149971817Y-97467929D01*
X150077505Y-97561560D01*
X150099150Y-97580736D01*
X150249774Y-97659790D01*
X150249773Y-97659790D01*
X150353689Y-97685402D01*
X150390711Y-97694527D01*
X150448718Y-97727243D01*
X150463681Y-97742206D01*
X150497166Y-97803529D01*
X150500000Y-97829887D01*
X150500000Y-99920113D01*
X150480315Y-99987152D01*
X150463681Y-100007794D01*
X150309491Y-100161983D01*
X150309489Y-100161986D01*
X150237016Y-100287514D01*
X150237016Y-100287515D01*
X150199500Y-100427525D01*
X150199500Y-100427527D01*
X150199500Y-101025761D01*
X150179815Y-101092800D01*
X150177550Y-101096201D01*
X150125183Y-101172068D01*
X150125182Y-101172068D01*
X150064860Y-101331125D01*
X150064859Y-101331130D01*
X150044355Y-101500000D01*
X150064859Y-101668869D01*
X150064860Y-101668874D01*
X150125182Y-101827931D01*
X150187475Y-101918177D01*
X150221817Y-101967929D01*
X150349148Y-102080734D01*
X150433628Y-102125073D01*
X150483838Y-102173656D01*
X150500000Y-102234868D01*
X150500000Y-107491874D01*
X150498939Y-107508060D01*
X150485093Y-107613224D01*
X150476715Y-107644491D01*
X150439259Y-107734918D01*
X150423074Y-107762951D01*
X150363491Y-107840601D01*
X150340601Y-107863491D01*
X150262951Y-107923074D01*
X150234918Y-107939259D01*
X150144491Y-107976715D01*
X150113224Y-107985093D01*
X150019398Y-107997446D01*
X150008058Y-107998939D01*
X149991874Y-108000000D01*
X141194707Y-108000000D01*
X141137081Y-107985796D01*
X141093062Y-107962692D01*
X141050224Y-107940209D01*
X140885056Y-107899500D01*
X140714944Y-107899500D01*
X140549775Y-107940209D01*
X140491414Y-107970840D01*
X140462918Y-107985796D01*
X140405293Y-108000000D01*
X119508126Y-108000000D01*
X119491941Y-107998939D01*
X119478917Y-107997224D01*
X119386775Y-107985093D01*
X119355508Y-107976715D01*
X119265081Y-107939259D01*
X119237048Y-107923074D01*
X119159398Y-107863491D01*
X119136508Y-107840601D01*
X119076925Y-107762951D01*
X119060740Y-107734918D01*
X119023284Y-107644491D01*
X119014906Y-107613223D01*
X119001061Y-107508059D01*
X119000000Y-107491874D01*
X119000000Y-103250019D01*
X120599500Y-103250019D01*
X120599500Y-104939744D01*
X120599502Y-104939770D01*
X120602413Y-104964875D01*
X120602415Y-104964879D01*
X120647793Y-105067652D01*
X120647794Y-105067653D01*
X120727235Y-105147094D01*
X120830009Y-105192473D01*
X120855135Y-105195388D01*
X122544864Y-105195387D01*
X122544879Y-105195385D01*
X122544882Y-105195385D01*
X122569987Y-105192474D01*
X122569988Y-105192473D01*
X122569991Y-105192473D01*
X122672765Y-105147094D01*
X122752206Y-105067653D01*
X122797585Y-104964879D01*
X122800500Y-104939753D01*
X122800499Y-103250024D01*
X122800497Y-103250005D01*
X122797586Y-103224900D01*
X122797585Y-103224898D01*
X122797585Y-103224897D01*
X122752206Y-103122123D01*
X122672765Y-103042682D01*
X122672763Y-103042681D01*
X122569992Y-102997303D01*
X122544865Y-102994388D01*
X120855143Y-102994388D01*
X120855117Y-102994390D01*
X120830012Y-102997301D01*
X120830008Y-102997303D01*
X120727235Y-103042681D01*
X120647794Y-103122122D01*
X120602415Y-103224894D01*
X120602415Y-103224896D01*
X120599500Y-103250019D01*
X119000000Y-103250019D01*
X119000000Y-102405131D01*
X141349500Y-102405131D01*
X141349500Y-104094856D01*
X141349502Y-104094882D01*
X141352413Y-104119987D01*
X141352415Y-104119991D01*
X141397793Y-104222764D01*
X141397794Y-104222765D01*
X141477235Y-104302206D01*
X141580009Y-104347585D01*
X141605135Y-104350500D01*
X143294864Y-104350499D01*
X143294879Y-104350497D01*
X143294882Y-104350497D01*
X143319987Y-104347586D01*
X143319988Y-104347585D01*
X143319991Y-104347585D01*
X143422765Y-104302206D01*
X143502206Y-104222765D01*
X143547585Y-104119991D01*
X143550500Y-104094865D01*
X143550499Y-102405136D01*
X143550497Y-102405117D01*
X143547586Y-102380012D01*
X143547585Y-102380010D01*
X143547585Y-102380009D01*
X143502206Y-102277235D01*
X143422765Y-102197794D01*
X143422763Y-102197793D01*
X143319992Y-102152415D01*
X143294865Y-102149500D01*
X141605143Y-102149500D01*
X141605117Y-102149502D01*
X141580012Y-102152413D01*
X141580008Y-102152415D01*
X141477235Y-102197793D01*
X141397794Y-102277234D01*
X141352415Y-102380006D01*
X141352415Y-102380008D01*
X141349500Y-102405131D01*
X119000000Y-102405131D01*
X119000000Y-93050019D01*
X120599500Y-93050019D01*
X120599500Y-94739744D01*
X120599502Y-94739770D01*
X120602413Y-94764875D01*
X120602415Y-94764879D01*
X120647793Y-94867652D01*
X120647794Y-94867653D01*
X120727235Y-94947094D01*
X120830009Y-94992473D01*
X120855135Y-94995388D01*
X122544864Y-94995387D01*
X122544879Y-94995385D01*
X122544882Y-94995385D01*
X122569987Y-94992474D01*
X122569988Y-94992473D01*
X122569991Y-94992473D01*
X122672765Y-94947094D01*
X122752206Y-94867653D01*
X122797585Y-94764879D01*
X122800500Y-94739753D01*
X122800499Y-93050024D01*
X122800497Y-93050005D01*
X122797586Y-93024900D01*
X122797585Y-93024898D01*
X122797585Y-93024897D01*
X122752206Y-92922123D01*
X122672765Y-92842682D01*
X122662195Y-92838015D01*
X122569992Y-92797303D01*
X122544865Y-92794388D01*
X120855143Y-92794388D01*
X120855117Y-92794390D01*
X120830012Y-92797301D01*
X120830008Y-92797303D01*
X120727235Y-92842681D01*
X120647794Y-92922122D01*
X120602415Y-93024894D01*
X120602415Y-93024896D01*
X120599500Y-93050019D01*
X119000000Y-93050019D01*
X119000000Y-92405131D01*
X141349500Y-92405131D01*
X141349500Y-94094856D01*
X141349502Y-94094882D01*
X141352413Y-94119987D01*
X141352415Y-94119991D01*
X141397793Y-94222764D01*
X141397794Y-94222765D01*
X141477235Y-94302206D01*
X141580009Y-94347585D01*
X141605135Y-94350500D01*
X143294864Y-94350499D01*
X143294879Y-94350497D01*
X143294882Y-94350497D01*
X143319987Y-94347586D01*
X143319988Y-94347585D01*
X143319991Y-94347585D01*
X143422765Y-94302206D01*
X143502206Y-94222765D01*
X143547585Y-94119991D01*
X143550500Y-94094865D01*
X143550499Y-92405136D01*
X143550497Y-92405117D01*
X143547586Y-92380012D01*
X143547585Y-92380010D01*
X143547585Y-92380009D01*
X143502206Y-92277235D01*
X143422765Y-92197794D01*
X143422763Y-92197793D01*
X143319992Y-92152415D01*
X143294865Y-92149500D01*
X141605143Y-92149500D01*
X141605117Y-92149502D01*
X141580012Y-92152413D01*
X141580008Y-92152415D01*
X141477235Y-92197793D01*
X141397794Y-92277234D01*
X141352415Y-92380006D01*
X141352415Y-92380008D01*
X141349500Y-92405131D01*
X119000000Y-92405131D01*
X119000000Y-82850019D01*
X120599500Y-82850019D01*
X120599500Y-84539744D01*
X120599502Y-84539770D01*
X120602413Y-84564875D01*
X120602415Y-84564879D01*
X120647793Y-84667652D01*
X120647794Y-84667653D01*
X120727235Y-84747094D01*
X120830009Y-84792473D01*
X120855135Y-84795388D01*
X122544864Y-84795387D01*
X122544879Y-84795385D01*
X122544882Y-84795385D01*
X122569987Y-84792474D01*
X122569988Y-84792473D01*
X122569991Y-84792473D01*
X122672765Y-84747094D01*
X122752206Y-84667653D01*
X122797585Y-84564879D01*
X122800500Y-84539753D01*
X122800499Y-82850024D01*
X122800497Y-82850005D01*
X122797586Y-82824900D01*
X122797585Y-82824898D01*
X122797585Y-82824897D01*
X122752206Y-82722123D01*
X122672765Y-82642682D01*
X122588574Y-82605508D01*
X122569992Y-82597303D01*
X122544865Y-82594388D01*
X120855143Y-82594388D01*
X120855117Y-82594390D01*
X120830012Y-82597301D01*
X120830008Y-82597303D01*
X120727235Y-82642681D01*
X120647794Y-82722122D01*
X120602415Y-82824894D01*
X120602415Y-82824896D01*
X120599500Y-82850019D01*
X119000000Y-82850019D01*
X119000000Y-82758125D01*
X119001061Y-82741940D01*
X119014129Y-82642682D01*
X119014906Y-82636775D01*
X119023284Y-82605508D01*
X119026683Y-82597303D01*
X119060740Y-82515079D01*
X119076923Y-82487050D01*
X119136513Y-82409392D01*
X119159392Y-82386513D01*
X119237050Y-82326923D01*
X119265079Y-82310740D01*
X119355509Y-82273283D01*
X119386775Y-82264906D01*
X119491941Y-82251061D01*
X119508126Y-82250000D01*
X141228280Y-82250000D01*
X141295319Y-82269685D01*
G37*
%TD.AperFunction*%
%TD*%
%TA.AperFunction,Conductor*%
%TO.N,Vbus*%
G36*
X196006061Y-77000597D02*
G01*
X196182941Y-77018018D01*
X196206769Y-77022757D01*
X196371001Y-77072576D01*
X196393453Y-77081877D01*
X196544798Y-77162772D01*
X196565010Y-77176277D01*
X196697666Y-77285145D01*
X196714854Y-77302333D01*
X196823722Y-77434989D01*
X196837227Y-77455201D01*
X196918121Y-77606543D01*
X196927424Y-77629001D01*
X196977240Y-77793224D01*
X196981982Y-77817065D01*
X196999403Y-77993938D01*
X197000000Y-78006092D01*
X197000000Y-81493907D01*
X196999403Y-81506061D01*
X196981982Y-81682934D01*
X196977240Y-81706775D01*
X196927424Y-81870998D01*
X196918121Y-81893456D01*
X196837227Y-82044798D01*
X196823722Y-82065010D01*
X196714854Y-82197666D01*
X196697666Y-82214854D01*
X196565010Y-82323722D01*
X196544798Y-82337227D01*
X196393456Y-82418121D01*
X196370998Y-82427424D01*
X196206775Y-82477240D01*
X196182934Y-82481982D01*
X196006061Y-82499403D01*
X195993907Y-82500000D01*
X155506093Y-82500000D01*
X155493939Y-82499403D01*
X155317065Y-82481982D01*
X155293224Y-82477240D01*
X155129001Y-82427424D01*
X155106543Y-82418121D01*
X154955201Y-82337227D01*
X154934989Y-82323722D01*
X154802333Y-82214854D01*
X154785145Y-82197666D01*
X154676277Y-82065010D01*
X154662772Y-82044798D01*
X154581878Y-81893456D01*
X154572575Y-81870998D01*
X154522757Y-81706769D01*
X154518018Y-81682941D01*
X154500597Y-81506061D01*
X154500000Y-81493907D01*
X154500000Y-78006092D01*
X154500597Y-77993938D01*
X154518018Y-77817056D01*
X154522757Y-77793232D01*
X154572577Y-77628994D01*
X154581875Y-77606549D01*
X154662775Y-77455195D01*
X154676272Y-77434995D01*
X154785149Y-77302328D01*
X154802328Y-77285149D01*
X154934995Y-77176272D01*
X154955195Y-77162775D01*
X155106549Y-77081875D01*
X155128994Y-77072577D01*
X155293232Y-77022757D01*
X155317056Y-77018018D01*
X155493939Y-77000597D01*
X155506093Y-77000000D01*
X195993907Y-77000000D01*
X196006061Y-77000597D01*
G37*
%TD.AperFunction*%
%TD*%
%TA.AperFunction,Conductor*%
%TO.N,+15V*%
G36*
X114508059Y-77501061D02*
G01*
X114613223Y-77514906D01*
X114644491Y-77523284D01*
X114734918Y-77560740D01*
X114762952Y-77576925D01*
X114840602Y-77636509D01*
X114863491Y-77659398D01*
X114923074Y-77737048D01*
X114939259Y-77765081D01*
X114976715Y-77855508D01*
X114985093Y-77886775D01*
X114998939Y-77991939D01*
X115000000Y-78008125D01*
X115000000Y-106491874D01*
X114998939Y-106508060D01*
X114985093Y-106613224D01*
X114976715Y-106644491D01*
X114939259Y-106734918D01*
X114923074Y-106762951D01*
X114863491Y-106840601D01*
X114840601Y-106863491D01*
X114762951Y-106923074D01*
X114734918Y-106939259D01*
X114644491Y-106976715D01*
X114613224Y-106985093D01*
X114519398Y-106997446D01*
X114508058Y-106998939D01*
X114491874Y-107000000D01*
X112508126Y-107000000D01*
X112491941Y-106998939D01*
X112478917Y-106997224D01*
X112386775Y-106985093D01*
X112355508Y-106976715D01*
X112265081Y-106939259D01*
X112237048Y-106923074D01*
X112159398Y-106863491D01*
X112136508Y-106840601D01*
X112076925Y-106762951D01*
X112060740Y-106734918D01*
X112023284Y-106644491D01*
X112014906Y-106613223D01*
X112001061Y-106508059D01*
X112000000Y-106491874D01*
X112000000Y-80000006D01*
X112000000Y-80000000D01*
X112000000Y-79500000D01*
X111500000Y-79500000D01*
X111499993Y-79500000D01*
X110258126Y-79500000D01*
X110241941Y-79498939D01*
X110228917Y-79497224D01*
X110136775Y-79485093D01*
X110105508Y-79476715D01*
X110015081Y-79439259D01*
X109987048Y-79423074D01*
X109909398Y-79363491D01*
X109886508Y-79340601D01*
X109826925Y-79262951D01*
X109810740Y-79234918D01*
X109773284Y-79144491D01*
X109764906Y-79113223D01*
X109751061Y-79008059D01*
X109750000Y-78991874D01*
X109750000Y-78008125D01*
X109751061Y-77991940D01*
X109764906Y-77886776D01*
X109773284Y-77855508D01*
X109810740Y-77765081D01*
X109826923Y-77737050D01*
X109886513Y-77659392D01*
X109909392Y-77636513D01*
X109987050Y-77576923D01*
X110015079Y-77560740D01*
X110105509Y-77523283D01*
X110136775Y-77514906D01*
X110241941Y-77501061D01*
X110258126Y-77500000D01*
X114491874Y-77500000D01*
X114508059Y-77501061D01*
G37*
%TD.AperFunction*%
%TD*%
%TA.AperFunction,Conductor*%
%TO.N,Vbus*%
G36*
X186943039Y-52019685D02*
G01*
X186988794Y-52072489D01*
X187000000Y-52124000D01*
X187000000Y-59876000D01*
X186980315Y-59943039D01*
X186927511Y-59988794D01*
X186876000Y-60000000D01*
X175624000Y-60000000D01*
X175556961Y-59980315D01*
X175511206Y-59927511D01*
X175500000Y-59876000D01*
X175500000Y-52124000D01*
X175519685Y-52056961D01*
X175572489Y-52011206D01*
X175624000Y-52000000D01*
X186876000Y-52000000D01*
X186943039Y-52019685D01*
G37*
%TD.AperFunction*%
%TD*%
M02*
