M48
; DRILL file {KiCad 8.0.3} date 2024-07-07T23:54:37+0300
; FORMAT={-:-/ absolute / inch / decimal}
; #@! TF.CreationDate,2024-07-07T23:54:37+03:00
; #@! TF.GenerationSoftware,Kicad,Pcbnew,8.0.3
; #@! TF.FileFunction,Plated,1,4,PTH
FMAT,2
INCH
; #@! TA.AperFunction,Plated,PTH,ViaDrill
T1C0.0118
; #@! TA.AperFunction,Plated,PTH,ViaDrill
T2C0.0157
; #@! TA.AperFunction,Plated,PTH,ComponentDrill
T3C0.0157
; #@! TA.AperFunction,Plated,PTH,ComponentDrill
T4C0.0315
; #@! TA.AperFunction,Plated,PTH,ComponentDrill
T5C0.0394
; #@! TA.AperFunction,Plated,PTH,ComponentDrill
T6C0.0512
; #@! TA.AperFunction,Plated,PTH,ComponentDrill
T7C0.0591
; #@! TA.AperFunction,Plated,PTH,ComponentDrill
T8C0.1260
%
G90
G05
T1
X2.1772Y-5.0256
X2.1772Y-5.252
X2.3504Y-5.0984
X2.3642Y-4.8583
X2.4016Y-5.063
X2.4921Y-4.8583
X2.5512Y-4.8878
X2.5512Y-4.937
X2.5512Y-4.9862
X2.5512Y-5.0453
X2.5807Y-5.2323
X2.7185Y-5.2815
X2.7677Y-5.0748
X2.8465Y-4.8484
X3.2579Y-5.3445
X3.2829Y-4.5669
X3.3858Y-4.5669
X3.4646Y-4.6752
T2
X2.6417Y-2.435
X3.2579Y-5.0492
X3.5827Y-4.9902
X3.5827Y-5.0492
X3.8976Y-4.9902
X3.8976Y-5.0492
X4.3504Y-3.0709
X4.3504Y-3.1102
X4.3996Y-3.0709
X4.3996Y-3.1102
X4.4488Y-3.0709
X4.4488Y-3.1102
X4.498Y-3.0709
X4.498Y-3.1102
X4.7343Y-3.5531
X4.7343Y-3.9567
X4.7638Y-4.311
X4.7638Y-4.5472
X4.7638Y-4.7933
X4.8228Y-3.5531
X4.8228Y-3.9567
X4.8425Y-2.0965
X4.9114Y-3.5531
X4.9114Y-3.9567
X4.9134Y-4.3661
X4.9134Y-4.6024
X4.9134Y-4.8465
X5.374Y-4.311
X5.374Y-4.5472
X5.374Y-4.7835
X5.5217Y-5.2559
X5.5433Y-4.2756
X5.5433Y-4.5118
X5.5433Y-4.748
X5.5709Y-5.2559
X5.6201Y-5.2559
X5.7087Y-5.4331
X5.9252Y-3.8189
X5.935Y-3.2972
X5.935Y-3.5925
X5.935Y-3.9961
X5.937Y-4.6102
X5.937Y-4.6693
X5.937Y-4.8465
X5.937Y-4.9055
X5.9843Y-3.7303
X5.9843Y-5.4331
X6.0335Y-3.8091
X6.1122Y-3.4547
X6.122Y-3.061
X6.1614Y-3.061
X6.1614Y-3.4547
X6.3091Y-3.3563
X6.3189Y-3.8287
X6.6339Y-4.1063
X6.6339Y-4.1535
X6.7028Y-3.4646
X6.7421Y-3.4646
X6.8898Y-3.3661
X6.8898Y-3.8287
X6.9488Y-2.0866
X6.9488Y-2.1654
X6.9488Y-2.2441
X6.9488Y-2.3228
X7.0276Y-2.0866
X7.0276Y-2.1654
X7.0276Y-2.2441
X7.0276Y-2.3228
X7.2047Y-4.1102
X7.2047Y-4.1496
X7.2441Y-2.0866
X7.2441Y-2.1654
X7.2441Y-2.2441
X7.2441Y-2.3228
X7.2638Y-3.4547
X7.3031Y-3.4547
X7.3228Y-2.0866
X7.3228Y-2.1654
X7.3228Y-2.2441
X7.3228Y-2.3228
X7.4606Y-3.3661
X7.4606Y-3.8287
X7.5098Y-3.4843
X7.5492Y-3.4843
T3
X2.0787Y-2.1654
X2.0787Y-5.7087
X2.1063Y-2.1063
X2.1063Y-2.2244
X2.1063Y-5.6496
X2.1063Y-5.7677
X2.1654Y-2.0787
X2.1654Y-2.252
X2.1654Y-5.622
X2.1654Y-5.7953
X2.2244Y-2.1063
X2.2244Y-2.2244
X2.2244Y-5.6496
X2.2244Y-5.7677
X2.252Y-2.1654
X2.252Y-5.7087
X7.5906Y-2.1654
X7.5906Y-5.7087
X7.6181Y-2.1063
X7.6181Y-2.2244
X7.6181Y-5.6496
X7.6181Y-5.7677
X7.6772Y-2.0787
X7.6772Y-2.252
X7.6772Y-5.622
X7.6772Y-5.7953
X7.7362Y-2.1063
X7.7362Y-2.2244
X7.7362Y-5.6496
X7.7362Y-5.7677
X7.7638Y-2.1654
X7.7638Y-5.7087
T4
X2.1528Y-3.8091
X2.4528Y-3.8091
X3.748Y-2.2994
X3.748Y-2.3978
X4.189Y-2.1495
X4.189Y-2.3464
X4.7913Y-3.2951
X4.7913Y-3.3935
X4.7913Y-3.6966
X4.7913Y-3.7951
X4.7913Y-4.0982
X4.7913Y-4.1966
X5.6083Y-3.2776
X5.6083Y-3.3957
X5.6083Y-3.6713
X5.6083Y-3.7894
X5.6083Y-4.065
X5.6083Y-4.1831
T5
X2.1441Y-3.3016
X2.1441Y-3.4016
X2.1441Y-3.5016
X2.1441Y-3.6016
X2.147Y-2.7368
X2.147Y-2.8368
X2.147Y-2.9368
X2.147Y-3.0368
X2.147Y-3.1368
X2.2441Y-3.3016
X2.2441Y-3.4016
X2.2441Y-3.5016
X2.2441Y-3.6016
X2.247Y-2.7368
X2.247Y-2.8368
X2.247Y-2.9368
X2.247Y-3.0368
X2.247Y-3.1368
X2.7382Y-4.6451
X2.7382Y-4.7451
X3.2081Y-4.4073
X3.3071Y-2.6864
X3.3071Y-2.7864
X3.3081Y-4.4073
X3.7008Y-3.0994
X3.7008Y-3.1994
X3.9409Y-2.214
X3.9409Y-2.314
X3.9469Y-4.6451
X3.9469Y-4.7451
X4.4866Y-2.9685
X4.4892Y-3.3425
X4.4892Y-3.7441
X4.4892Y-4.1457
X4.4896Y-4.3937
X4.4896Y-4.6299
X4.4896Y-4.8819
X4.5866Y-2.9685
X4.5892Y-3.3425
X4.5892Y-3.7441
X4.5892Y-4.1457
X4.5896Y-4.3937
X4.5896Y-4.6299
X4.5896Y-4.8819
X4.9344Y-5.0984
X5.0344Y-5.0984
X5.2392Y-5.0984
X5.3392Y-5.0984
X5.6791Y-2.6528
X5.6791Y-2.8497
X6.685Y-2.6424
X6.685Y-2.8393
X7.1161Y-2.6424
X7.1161Y-2.8393
X7.5492Y-2.6424
X7.5492Y-2.8393
T6
X3.2185Y-5.701
X3.4154Y-5.701
X3.6713Y-5.701
X3.8681Y-5.701
X5.1575Y-5.7087
X5.3543Y-5.7087
X5.5512Y-5.7087
X5.748Y-5.7087
X5.9449Y-5.7087
X5.9744Y-2.173
X6.1713Y-2.173
X6.7323Y-5.7087
X6.9291Y-5.7087
X7.126Y-5.7087
T7
X4.3307Y-5.7087
X4.5276Y-5.7087
X4.7244Y-5.7087
X6.5406Y-2.2047
X7.1406Y-2.2047
T8
X2.1654Y-2.1654
X2.1654Y-5.7087
X7.6772Y-2.1654
X7.6772Y-5.7087
M30
