%TF.GenerationSoftware,KiCad,Pcbnew,8.0.3*%
%TF.CreationDate,2024-07-07T23:54:37+03:00*%
%TF.ProjectId,STM32_Motor_Kit_v0.1,53544d33-325f-44d6-9f74-6f725f4b6974,rev?*%
%TF.SameCoordinates,Original*%
%TF.FileFunction,Soldermask,Top*%
%TF.FilePolarity,Negative*%
%FSLAX46Y46*%
G04 Gerber Fmt 4.6, Leading zero omitted, Abs format (unit mm)*
G04 Created by KiCad (PCBNEW 8.0.3) date 2024-07-07 23:54:37*
%MOMM*%
%LPD*%
G01*
G04 APERTURE LIST*
G04 Aperture macros list*
%AMRoundRect*
0 Rectangle with rounded corners*
0 $1 Rounding radius*
0 $2 $3 $4 $5 $6 $7 $8 $9 X,Y pos of 4 corners*
0 Add a 4 corners polygon primitive as box body*
4,1,4,$2,$3,$4,$5,$6,$7,$8,$9,$2,$3,0*
0 Add four circle primitives for the rounded corners*
1,1,$1+$1,$2,$3*
1,1,$1+$1,$4,$5*
1,1,$1+$1,$6,$7*
1,1,$1+$1,$8,$9*
0 Add four rect primitives between the rounded corners*
20,1,$1+$1,$2,$3,$4,$5,0*
20,1,$1+$1,$4,$5,$6,$7,0*
20,1,$1+$1,$6,$7,$8,$9,0*
20,1,$1+$1,$8,$9,$2,$3,0*%
%AMFreePoly0*
4,1,21,3.024497,2.399497,3.045000,2.350000,3.045000,-2.350000,3.024497,-2.399497,2.975000,-2.420000,1.425000,-2.420000,1.375503,-2.399497,1.355000,-2.350000,1.355000,-2.170000,-1.650000,-2.170000,-1.699497,-2.149497,-1.720000,-2.100000,-1.720000,2.100000,-1.699497,2.149497,-1.650000,2.170000,1.355000,2.170000,1.355000,2.350000,1.375503,2.399497,1.425000,2.420000,2.975000,2.420000,
3.024497,2.399497,3.024497,2.399497,$1*%
G04 Aperture macros list end*
%ADD10C,0.100000*%
%ADD11RoundRect,0.180000X-0.270000X-0.320000X0.270000X-0.320000X0.270000X0.320000X-0.270000X0.320000X0*%
%ADD12RoundRect,0.325000X-0.325000X0.325000X-0.325000X-0.325000X0.325000X-0.325000X0.325000X0.325000X0*%
%ADD13RoundRect,0.180000X-0.320000X0.270000X-0.320000X-0.270000X0.320000X-0.270000X0.320000X0.270000X0*%
%ADD14R,1.700000X1.700000*%
%ADD15O,1.700000X1.700000*%
%ADD16RoundRect,0.150000X0.825000X0.150000X-0.825000X0.150000X-0.825000X-0.150000X0.825000X-0.150000X0*%
%ADD17RoundRect,0.499500X-0.250500X-0.250500X0.250500X-0.250500X0.250500X0.250500X-0.250500X0.250500X0*%
%ADD18RoundRect,0.162500X-0.162500X0.487500X-0.162500X-0.487500X0.162500X-0.487500X0.162500X0.487500X0*%
%ADD19RoundRect,0.200000X0.200000X0.300000X-0.200000X0.300000X-0.200000X-0.300000X0.200000X-0.300000X0*%
%ADD20R,1.600000X1.600000*%
%ADD21C,1.600000*%
%ADD22RoundRect,0.180000X0.270000X0.320000X-0.270000X0.320000X-0.270000X-0.320000X0.270000X-0.320000X0*%
%ADD23RoundRect,0.180000X0.320000X-0.270000X0.320000X0.270000X-0.320000X0.270000X-0.320000X-0.270000X0*%
%ADD24RoundRect,0.325000X0.337500X0.325000X-0.337500X0.325000X-0.337500X-0.325000X0.337500X-0.325000X0*%
%ADD25RoundRect,0.210000X-0.210000X-0.485000X0.210000X-0.485000X0.210000X0.485000X-0.210000X0.485000X0*%
%ADD26FreePoly0,90.000000*%
%ADD27C,0.800000*%
%ADD28C,5.600000*%
%ADD29RoundRect,0.325000X-0.325000X-0.325000X0.325000X-0.325000X0.325000X0.325000X-0.325000X0.325000X0*%
%ADD30RoundRect,0.325000X-0.337500X-0.325000X0.337500X-0.325000X0.337500X0.325000X-0.337500X0.325000X0*%
%ADD31RoundRect,0.499500X-0.250500X0.250500X-0.250500X-0.250500X0.250500X-0.250500X0.250500X0.250500X0*%
%ADD32RoundRect,0.350000X1.150000X0.350000X-1.150000X0.350000X-1.150000X-0.350000X1.150000X-0.350000X0*%
%ADD33RoundRect,0.200000X-0.300000X-0.200000X0.300000X-0.200000X0.300000X0.200000X-0.300000X0.200000X0*%
%ADD34RoundRect,0.240000X-0.610000X0.360000X-0.610000X-0.360000X0.610000X-0.360000X0.610000X0.360000X0*%
%ADD35R,2.000000X2.000000*%
%ADD36C,2.000000*%
%ADD37RoundRect,0.750000X-1.250000X-0.750000X1.250000X-0.750000X1.250000X0.750000X-1.250000X0.750000X0*%
%ADD38RoundRect,0.150000X-0.825000X-0.150000X0.825000X-0.150000X0.825000X0.150000X-0.825000X0.150000X0*%
%ADD39O,1.600000X1.600000*%
%ADD40RoundRect,0.750000X0.750000X-1.250000X0.750000X1.250000X-0.750000X1.250000X-0.750000X-1.250000X0*%
%ADD41RoundRect,0.375000X0.625000X0.375000X-0.625000X0.375000X-0.625000X-0.375000X0.625000X-0.375000X0*%
%ADD42RoundRect,0.325000X0.325000X-0.325000X0.325000X0.325000X-0.325000X0.325000X-0.325000X-0.325000X0*%
%ADD43RoundRect,0.400000X-1.300000X0.600000X-1.300000X-0.600000X1.300000X-0.600000X1.300000X0.600000X0*%
%ADD44C,0.900000*%
%ADD45RoundRect,0.125000X0.125000X1.125000X-0.125000X1.125000X-0.125000X-1.125000X0.125000X-1.125000X0*%
%ADD46RoundRect,0.500000X0.500000X0.750000X-0.500000X0.750000X-0.500000X-0.750000X0.500000X-0.750000X0*%
%ADD47RoundRect,0.325000X0.325000X-0.337500X0.325000X0.337500X-0.325000X0.337500X-0.325000X-0.337500X0*%
%ADD48RoundRect,0.240000X-0.360000X-0.610000X0.360000X-0.610000X0.360000X0.610000X-0.360000X0.610000X0*%
%ADD49R,2.600000X2.600000*%
%ADD50C,2.600000*%
%ADD51R,1.000000X1.000000*%
%ADD52RoundRect,0.750000X0.750000X1.750000X-0.750000X1.750000X-0.750000X-1.750000X0.750000X-1.750000X0*%
%ADD53RoundRect,0.499500X0.250500X0.250500X-0.250500X0.250500X-0.250500X-0.250500X0.250500X-0.250500X0*%
%ADD54RoundRect,0.100000X-0.637500X-0.100000X0.637500X-0.100000X0.637500X0.100000X-0.637500X0.100000X0*%
%ADD55O,2.500000X4.000000*%
%ADD56RoundRect,0.500000X0.550000X0.500000X-0.550000X0.500000X-0.550000X-0.500000X0.550000X-0.500000X0*%
%ADD57RoundRect,0.499500X0.250500X-0.250500X0.250500X0.250500X-0.250500X0.250500X-0.250500X-0.250500X0*%
%ADD58RoundRect,0.200000X-0.200000X0.250000X-0.200000X-0.250000X0.200000X-0.250000X0.200000X0.250000X0*%
%ADD59RoundRect,0.150000X-0.150000X0.825000X-0.150000X-0.825000X0.150000X-0.825000X0.150000X0.825000X0*%
%ADD60RoundRect,0.150000X-0.725000X-0.150000X0.725000X-0.150000X0.725000X0.150000X-0.725000X0.150000X0*%
%ADD61RoundRect,0.500000X-0.550000X-0.500000X0.550000X-0.500000X0.550000X0.500000X-0.550000X0.500000X0*%
%ADD62RoundRect,0.375000X0.375000X-0.625000X0.375000X0.625000X-0.375000X0.625000X-0.375000X-0.625000X0*%
%ADD63RoundRect,0.500000X1.400000X-0.500000X1.400000X0.500000X-1.400000X0.500000X-1.400000X-0.500000X0*%
%ADD64RoundRect,0.350000X0.350000X-0.900000X0.350000X0.900000X-0.350000X0.900000X-0.350000X-0.900000X0*%
%ADD65RoundRect,0.620000X2.480000X-2.680000X2.480000X2.680000X-2.480000X2.680000X-2.480000X-2.680000X0*%
%ADD66RoundRect,0.075000X0.075000X-0.700000X0.075000X0.700000X-0.075000X0.700000X-0.075000X-0.700000X0*%
%ADD67RoundRect,0.075000X0.700000X-0.075000X0.700000X0.075000X-0.700000X0.075000X-0.700000X-0.075000X0*%
%ADD68RoundRect,0.750000X1.750000X-0.750000X1.750000X0.750000X-1.750000X0.750000X-1.750000X-0.750000X0*%
%ADD69O,3.000000X4.000000*%
%ADD70RoundRect,0.200000X0.800000X1.700000X-0.800000X1.700000X-0.800000X-1.700000X0.800000X-1.700000X0*%
%ADD71RoundRect,0.200000X-0.200000X0.300000X-0.200000X-0.300000X0.200000X-0.300000X0.200000X0.300000X0*%
%ADD72RoundRect,0.750000X1.250000X0.750000X-1.250000X0.750000X-1.250000X-0.750000X1.250000X-0.750000X0*%
%ADD73RoundRect,0.200000X0.250000X0.200000X-0.250000X0.200000X-0.250000X-0.200000X0.250000X-0.200000X0*%
%ADD74RoundRect,0.240000X0.610000X-0.360000X0.610000X0.360000X-0.610000X0.360000X-0.610000X-0.360000X0*%
G04 APERTURE END LIST*
D10*
%TO.C,FID4*%
X196000000Y-139000000D02*
X194000000Y-139000000D01*
X194000000Y-137000000D01*
X196000000Y-137000000D01*
X196000000Y-139000000D01*
G36*
X196000000Y-139000000D02*
G01*
X194000000Y-139000000D01*
X194000000Y-137000000D01*
X196000000Y-137000000D01*
X196000000Y-139000000D01*
G37*
%TO.C,FID2*%
X196000000Y-62000000D02*
X194000000Y-62000000D01*
X194000000Y-60000000D01*
X196000000Y-60000000D01*
X196000000Y-62000000D01*
G36*
X196000000Y-62000000D02*
G01*
X194000000Y-62000000D01*
X194000000Y-60000000D01*
X196000000Y-60000000D01*
X196000000Y-62000000D01*
G37*
%TO.C,FID1*%
X56000000Y-62250000D02*
X54000000Y-62250000D01*
X54000000Y-60250000D01*
X56000000Y-60250000D01*
X56000000Y-62250000D01*
G36*
X56000000Y-62250000D02*
G01*
X54000000Y-62250000D01*
X54000000Y-60250000D01*
X56000000Y-60250000D01*
X56000000Y-62250000D01*
G37*
%TO.C,FID3*%
X61250000Y-146250000D02*
X59250000Y-146250000D01*
X59250000Y-144250000D01*
X61250000Y-144250000D01*
X61250000Y-146250000D01*
G36*
X61250000Y-146250000D02*
G01*
X59250000Y-146250000D01*
X59250000Y-144250000D01*
X61250000Y-144250000D01*
X61250000Y-146250000D01*
G37*
%TD*%
D11*
%TO.C,R50*%
X147650000Y-96500000D03*
X149350000Y-96500000D03*
%TD*%
D12*
%TO.C,D9*%
X61235000Y-81910000D03*
X61235000Y-85410000D03*
%TD*%
D13*
%TO.C,R24*%
X84250000Y-129400000D03*
X84250000Y-131100000D03*
%TD*%
D14*
%TO.C,JP13*%
X100250000Y-120525000D03*
D15*
X100250000Y-117985000D03*
%TD*%
D16*
%TO.C,U3*%
X134975000Y-77405000D03*
X134975000Y-76135000D03*
X134975000Y-74865000D03*
X134975000Y-73595000D03*
X130025000Y-73595000D03*
X130025000Y-74865000D03*
X130025000Y-76135000D03*
X130025000Y-77405000D03*
%TD*%
D17*
%TO.C,TP6*%
X112000000Y-69000000D03*
%TD*%
D18*
%TO.C,U17*%
X68050000Y-63150000D03*
X67100000Y-63150000D03*
X66150000Y-63150000D03*
X66150000Y-65850000D03*
X67100000Y-65850000D03*
X68050000Y-65850000D03*
%TD*%
D11*
%TO.C,R63*%
X109650000Y-120750000D03*
X111350000Y-120750000D03*
%TD*%
D13*
%TO.C,C95*%
X97500000Y-128150000D03*
X97500000Y-129850000D03*
%TD*%
D19*
%TO.C,L3*%
X67700000Y-70400000D03*
X67700000Y-68600000D03*
X66500000Y-68600000D03*
X66500000Y-70400000D03*
%TD*%
D20*
%TO.C,C57*%
X142450000Y-103250000D03*
D21*
X142450000Y-106250000D03*
%TD*%
D22*
%TO.C,C2*%
X83100000Y-109000000D03*
X81400000Y-109000000D03*
%TD*%
D23*
%TO.C,R80*%
X95750000Y-114850000D03*
X95750000Y-113150000D03*
%TD*%
D24*
%TO.C,D38*%
X58500000Y-123000000D03*
X56500000Y-123000000D03*
%TD*%
D22*
%TO.C,C17*%
X131800000Y-71700000D03*
X130100000Y-71700000D03*
%TD*%
D23*
%TO.C,C111*%
X123750000Y-112600000D03*
X123750000Y-110900000D03*
%TD*%
D25*
%TO.C,Q6*%
X184590000Y-97170000D03*
X185860000Y-97170000D03*
X187140000Y-97170000D03*
X188410000Y-97170000D03*
D26*
X186500000Y-93900000D03*
%TD*%
D14*
%TO.C,JP4*%
X84025000Y-111945000D03*
D15*
X81485000Y-111945000D03*
%TD*%
D11*
%TO.C,R32*%
X148100000Y-124600000D03*
X149800000Y-124600000D03*
%TD*%
D20*
%TO.C,C43*%
X121700000Y-83694888D03*
D21*
X121700000Y-86194888D03*
%TD*%
D14*
%TO.C,J2*%
X54460000Y-83860000D03*
D15*
X57000000Y-83860000D03*
X54460000Y-86400000D03*
X57000000Y-86400000D03*
X54460000Y-88940000D03*
X57000000Y-88940000D03*
X54460000Y-91480000D03*
X57000000Y-91480000D03*
%TD*%
D13*
%TO.C,C28*%
X124250000Y-56400000D03*
X124250000Y-58100000D03*
%TD*%
D11*
%TO.C,C89*%
X150650000Y-134750000D03*
X152350000Y-134750000D03*
%TD*%
D13*
%TO.C,R9*%
X127250000Y-74400000D03*
X127250000Y-76100000D03*
%TD*%
%TO.C,C102*%
X65750000Y-111400000D03*
X65750000Y-113100000D03*
%TD*%
D27*
%TO.C,H2*%
X192800000Y-55000000D03*
X193500000Y-53500000D03*
X193500000Y-56500000D03*
X195000000Y-52800000D03*
D28*
X195000000Y-55000000D03*
D27*
X195000000Y-57200000D03*
X196500000Y-53500000D03*
X196500000Y-56500000D03*
X197200000Y-55000000D03*
%TD*%
D29*
%TO.C,D3*%
X74450000Y-58550000D03*
X77950000Y-58550000D03*
%TD*%
D22*
%TO.C,R12*%
X125850000Y-59750000D03*
X124150000Y-59750000D03*
%TD*%
D11*
%TO.C,C69*%
X142100000Y-116600000D03*
X143800000Y-116600000D03*
%TD*%
%TO.C,C87*%
X135500000Y-132250000D03*
X137200000Y-132250000D03*
%TD*%
D30*
%TO.C,D8*%
X90000000Y-67250000D03*
X92000000Y-67250000D03*
%TD*%
D31*
%TO.C,TP18*%
X95750000Y-102250000D03*
%TD*%
D11*
%TO.C,C107*%
X142100000Y-109100000D03*
X143800000Y-109100000D03*
%TD*%
D17*
%TO.C,TP33*%
X37250000Y-98500000D03*
%TD*%
D23*
%TO.C,R53*%
X137700000Y-114200000D03*
X137700000Y-112500000D03*
%TD*%
D22*
%TO.C,C35*%
X62085000Y-87830000D03*
X60385000Y-87830000D03*
%TD*%
D23*
%TO.C,C27*%
X111250000Y-72850000D03*
X111250000Y-71150000D03*
%TD*%
D22*
%TO.C,R68*%
X122350000Y-112500000D03*
X120650000Y-112500000D03*
%TD*%
D32*
%TO.C,SW3*%
X62500000Y-114500000D03*
X54500000Y-114500000D03*
X62500000Y-110000000D03*
X54500000Y-110000000D03*
%TD*%
D23*
%TO.C,R82*%
X94250000Y-114850000D03*
X94250000Y-113150000D03*
%TD*%
D33*
%TO.C,D15*%
X147450000Y-83750000D03*
X149550000Y-83750000D03*
%TD*%
D11*
%TO.C,R42*%
X139100000Y-123100000D03*
X140800000Y-123100000D03*
%TD*%
D23*
%TO.C,R55*%
X137700000Y-126200000D03*
X137700000Y-124500000D03*
%TD*%
D11*
%TO.C,R38*%
X139100000Y-111100000D03*
X140800000Y-111100000D03*
%TD*%
%TO.C,R15*%
X93650000Y-73250000D03*
X95350000Y-73250000D03*
%TD*%
D23*
%TO.C,R103*%
X67250000Y-113100000D03*
X67250000Y-111400000D03*
%TD*%
D11*
%TO.C,C68*%
X142100000Y-119100000D03*
X143800000Y-119100000D03*
%TD*%
D22*
%TO.C,R13*%
X125850000Y-54750000D03*
X124150000Y-54750000D03*
%TD*%
D23*
%TO.C,C12*%
X91450000Y-60550001D03*
X91450000Y-58850001D03*
%TD*%
D25*
%TO.C,Q4*%
X170090000Y-97170000D03*
X171360000Y-97170000D03*
X172640000Y-97170000D03*
X173910000Y-97170000D03*
D26*
X172000000Y-93900000D03*
%TD*%
D34*
%TO.C,C90*%
X139750000Y-135000000D03*
X139750000Y-138000000D03*
%TD*%
D14*
%TO.C,JP10*%
X116575000Y-124000000D03*
D15*
X114035000Y-124000000D03*
%TD*%
D13*
%TO.C,C49*%
X127200000Y-83250000D03*
X127200000Y-84950000D03*
%TD*%
D34*
%TO.C,C16*%
X80200000Y-55300000D03*
X80200000Y-58300000D03*
%TD*%
D35*
%TO.C,C19*%
X144250000Y-67382323D03*
D36*
X144250000Y-72382323D03*
%TD*%
D37*
%TO.C,D26*%
X193500000Y-91100000D03*
X193500000Y-97900000D03*
%TD*%
D14*
%TO.C,JP6*%
X114025000Y-84900000D03*
D15*
X116565000Y-84900000D03*
%TD*%
D23*
%TO.C,R93*%
X60500000Y-120250000D03*
X60500000Y-118550000D03*
%TD*%
D37*
%TO.C,D25*%
X193500000Y-79100000D03*
X193500000Y-85900000D03*
%TD*%
D17*
%TO.C,TP25*%
X75750000Y-132500000D03*
%TD*%
D38*
%TO.C,U8*%
X130025000Y-93595000D03*
X130025000Y-94865000D03*
X130025000Y-96135000D03*
X130025000Y-97405000D03*
X134975000Y-97405000D03*
X134975000Y-96135000D03*
X134975000Y-94865000D03*
X134975000Y-93595000D03*
%TD*%
D31*
%TO.C,TP13*%
X108750000Y-99250000D03*
%TD*%
D34*
%TO.C,C54*%
X138050000Y-93400000D03*
X138050000Y-96400000D03*
%TD*%
D11*
%TO.C,C8*%
X35900000Y-86500000D03*
X37600000Y-86500000D03*
%TD*%
D37*
%TO.C,D17*%
X164500000Y-79100000D03*
X164500000Y-85900000D03*
%TD*%
D20*
%TO.C,C45*%
X121700000Y-104094888D03*
D21*
X121700000Y-106594888D03*
%TD*%
D24*
%TO.C,D44*%
X58500000Y-136000000D03*
X56500000Y-136000000D03*
%TD*%
D23*
%TO.C,R48*%
X137700000Y-123200000D03*
X137700000Y-121500000D03*
%TD*%
D17*
%TO.C,TP23*%
X111400000Y-132417500D03*
%TD*%
D13*
%TO.C,C46*%
X125700000Y-83250000D03*
X125700000Y-84950000D03*
%TD*%
D36*
%TO.C,FID4*%
X195000000Y-138000000D03*
%TD*%
D11*
%TO.C,R29*%
X148100000Y-111100000D03*
X149800000Y-111100000D03*
%TD*%
%TO.C,R28*%
X148100000Y-112600000D03*
X149800000Y-112600000D03*
%TD*%
%TO.C,R30*%
X148100000Y-118600000D03*
X149800000Y-118600000D03*
%TD*%
D31*
%TO.C,TP11*%
X108750000Y-107500000D03*
%TD*%
D20*
%TO.C,SW1*%
X62300000Y-96750000D03*
D39*
X54680000Y-96750000D03*
%TD*%
D11*
%TO.C,C4*%
X35900000Y-88000000D03*
X37600000Y-88000000D03*
%TD*%
D13*
%TO.C,C39*%
X85000000Y-125150000D03*
X85000000Y-126850000D03*
%TD*%
%TO.C,C37*%
X87000000Y-114400000D03*
X87000000Y-116100000D03*
%TD*%
D32*
%TO.C,SW2*%
X62500000Y-106500000D03*
X54500000Y-106500000D03*
X62500000Y-102000000D03*
X54500000Y-102000000D03*
%TD*%
D35*
%TO.C,C58*%
X180750000Y-72117677D03*
D36*
X180750000Y-67117677D03*
%TD*%
D13*
%TO.C,FB2*%
X94250000Y-126400000D03*
X94250000Y-128100000D03*
%TD*%
D30*
%TO.C,D7*%
X90000000Y-69250000D03*
X92000000Y-69250000D03*
%TD*%
D36*
%TO.C,FID2*%
X195000000Y-61000000D03*
%TD*%
D40*
%TO.C,D29*%
X178100000Y-134750000D03*
X184900000Y-134750000D03*
%TD*%
D23*
%TO.C,R8*%
X74700000Y-56650000D03*
X74700000Y-54950000D03*
%TD*%
D41*
%TO.C,Y1*%
X85650000Y-104500000D03*
X81850000Y-104500000D03*
X81850000Y-107000000D03*
X85650000Y-107000000D03*
%TD*%
D17*
%TO.C,TP24*%
X118800000Y-132417500D03*
%TD*%
D13*
%TO.C,R25*%
X81250000Y-129400000D03*
X81250000Y-131100000D03*
%TD*%
D20*
%TO.C,C53*%
X142450000Y-83250000D03*
D21*
X142450000Y-86250000D03*
%TD*%
D13*
%TO.C,R22*%
X87000000Y-118650000D03*
X87000000Y-120350000D03*
%TD*%
D22*
%TO.C,R11*%
X138350000Y-55250000D03*
X136650000Y-55250000D03*
%TD*%
D14*
%TO.C,JP12*%
X133075000Y-129500000D03*
D15*
X135615000Y-129500000D03*
%TD*%
D42*
%TO.C,D33*%
X70300000Y-66250000D03*
X70300000Y-62750000D03*
%TD*%
D13*
%TO.C,C110*%
X125700000Y-77750000D03*
X125700000Y-79450000D03*
%TD*%
D11*
%TO.C,C70*%
X142100000Y-125100000D03*
X143800000Y-125100000D03*
%TD*%
D31*
%TO.C,TP10*%
X108750000Y-97250000D03*
%TD*%
D22*
%TO.C,C79*%
X123850000Y-115500000D03*
X122150000Y-115500000D03*
%TD*%
D33*
%TO.C,D16*%
X147450000Y-87750000D03*
X149550000Y-87750000D03*
%TD*%
D43*
%TO.C,R36*%
X161000000Y-102100000D03*
X161000000Y-107900000D03*
%TD*%
D11*
%TO.C,R20*%
X60385000Y-90830000D03*
X62085000Y-90830000D03*
%TD*%
%TO.C,R17*%
X93650000Y-69250000D03*
X95350000Y-69250000D03*
%TD*%
D16*
%TO.C,U10*%
X134975000Y-113405000D03*
X134975000Y-112135000D03*
X134975000Y-110865000D03*
X134975000Y-109595000D03*
X130025000Y-109595000D03*
X130025000Y-110865000D03*
X130025000Y-112135000D03*
X130025000Y-113405000D03*
%TD*%
D23*
%TO.C,R54*%
X137700000Y-120200000D03*
X137700000Y-118500000D03*
%TD*%
D44*
%TO.C,J8*%
X68900000Y-56500000D03*
X64500000Y-56500000D03*
D45*
X68300000Y-59100000D03*
X67500000Y-59100000D03*
X66700000Y-59100000D03*
X65900000Y-59100000D03*
X65100000Y-59100000D03*
D46*
X71100000Y-59100000D03*
X71100000Y-53600000D03*
X62300000Y-59100000D03*
X62300000Y-53600000D03*
%TD*%
D11*
%TO.C,R40*%
X139100000Y-117100000D03*
X140800000Y-117100000D03*
%TD*%
D47*
%TO.C,D45*%
X37250000Y-96750000D03*
X37250000Y-94750000D03*
%TD*%
D33*
%TO.C,D19*%
X147450000Y-91250000D03*
X149550000Y-91250000D03*
%TD*%
D22*
%TO.C,C13*%
X139550000Y-77700000D03*
X137850000Y-77700000D03*
%TD*%
D23*
%TO.C,C94*%
X92500000Y-126600000D03*
X92500000Y-124900000D03*
%TD*%
%TO.C,R89*%
X115000000Y-136267500D03*
X115000000Y-134567500D03*
%TD*%
D11*
%TO.C,R49*%
X147650000Y-93000000D03*
X149350000Y-93000000D03*
%TD*%
%TO.C,C24*%
X130400000Y-61500000D03*
X132100000Y-61500000D03*
%TD*%
D33*
%TO.C,D24*%
X147450000Y-101750000D03*
X149550000Y-101750000D03*
%TD*%
D31*
%TO.C,TP8*%
X89000000Y-112500000D03*
%TD*%
D13*
%TO.C,C32*%
X96700000Y-53550000D03*
X96700000Y-55250000D03*
%TD*%
D22*
%TO.C,C77*%
X127350000Y-125750000D03*
X125650000Y-125750000D03*
%TD*%
D48*
%TO.C,R3*%
X141400000Y-78300000D03*
X144400000Y-78300000D03*
%TD*%
D13*
%TO.C,R21*%
X88500000Y-114400000D03*
X88500000Y-116100000D03*
%TD*%
D11*
%TO.C,R41*%
X139100000Y-124600000D03*
X140800000Y-124600000D03*
%TD*%
D22*
%TO.C,R77*%
X152350000Y-136250000D03*
X150650000Y-136250000D03*
%TD*%
D13*
%TO.C,C20*%
X76200000Y-54950000D03*
X76200000Y-56650000D03*
%TD*%
D23*
%TO.C,R92*%
X56000000Y-120250000D03*
X56000000Y-118550000D03*
%TD*%
%TO.C,R97*%
X53000000Y-120250000D03*
X53000000Y-118550000D03*
%TD*%
D11*
%TO.C,R65*%
X120650000Y-117000000D03*
X122350000Y-117000000D03*
%TD*%
D35*
%TO.C,C59*%
X191750000Y-72117677D03*
D36*
X191750000Y-67117677D03*
%TD*%
D11*
%TO.C,R4*%
X137850000Y-76200000D03*
X139550000Y-76200000D03*
%TD*%
D37*
%TO.C,D21*%
X179000000Y-79100000D03*
X179000000Y-85900000D03*
%TD*%
D33*
%TO.C,D20*%
X147450000Y-94750000D03*
X149550000Y-94750000D03*
%TD*%
D27*
%TO.C,H4*%
X192800000Y-145000000D03*
X193500000Y-143500000D03*
X193500000Y-146500000D03*
X195000000Y-142800000D03*
D28*
X195000000Y-145000000D03*
D27*
X195000000Y-147200000D03*
X196500000Y-143500000D03*
X196500000Y-146500000D03*
X197200000Y-145000000D03*
%TD*%
D16*
%TO.C,U11*%
X134975000Y-119405000D03*
X134975000Y-118135000D03*
X134975000Y-116865000D03*
X134975000Y-115595000D03*
X130025000Y-115595000D03*
X130025000Y-116865000D03*
X130025000Y-118135000D03*
X130025000Y-119405000D03*
%TD*%
D20*
%TO.C,C31*%
X106400000Y-54597349D03*
D21*
X106400000Y-59597349D03*
%TD*%
D49*
%TO.C,J3*%
X81750000Y-144805000D03*
D50*
X86750000Y-144805000D03*
%TD*%
D34*
%TO.C,C52*%
X138200000Y-83400000D03*
X138200000Y-86400000D03*
%TD*%
D11*
%TO.C,R39*%
X139100000Y-118600000D03*
X140800000Y-118600000D03*
%TD*%
D51*
%TO.C,STM32_Motor_Kit_v1.1*%
X27750000Y-115000000D03*
%TD*%
D13*
%TO.C,TH3*%
X94000000Y-136145000D03*
X94000000Y-137845000D03*
%TD*%
D11*
%TO.C,C7*%
X35900000Y-85000000D03*
X37600000Y-85000000D03*
%TD*%
D52*
%TO.C,L1*%
X161200000Y-69750000D03*
X153200000Y-69750000D03*
%TD*%
D11*
%TO.C,R37*%
X139100000Y-112600000D03*
X140800000Y-112600000D03*
%TD*%
%TO.C,C5*%
X35900000Y-80500000D03*
X37600000Y-80500000D03*
%TD*%
D22*
%TO.C,R73*%
X129850000Y-137750000D03*
X128150000Y-137750000D03*
%TD*%
D30*
%TO.C,D6*%
X90000000Y-71250000D03*
X92000000Y-71250000D03*
%TD*%
D33*
%TO.C,D23*%
X147450000Y-98250000D03*
X149550000Y-98250000D03*
%TD*%
D53*
%TO.C,TP2*%
X104250000Y-76750000D03*
%TD*%
D23*
%TO.C,R74*%
X147750000Y-136350000D03*
X147750000Y-134650000D03*
%TD*%
D11*
%TO.C,C109*%
X142100000Y-121100000D03*
X143800000Y-121100000D03*
%TD*%
D22*
%TO.C,R100*%
X78350000Y-64750000D03*
X76650000Y-64750000D03*
%TD*%
D54*
%TO.C,U13*%
X127637500Y-132300000D03*
X127637500Y-132950000D03*
X127637500Y-133600000D03*
X127637500Y-134250000D03*
X127637500Y-134900000D03*
X127637500Y-135550000D03*
X127637500Y-136200000D03*
X133362500Y-136200000D03*
X133362500Y-135550000D03*
X133362500Y-134900000D03*
X133362500Y-134250000D03*
X133362500Y-133600000D03*
X133362500Y-132950000D03*
X133362500Y-132300000D03*
%TD*%
D13*
%TO.C,C30*%
X125750000Y-56400000D03*
X125750000Y-58100000D03*
%TD*%
D14*
%TO.C,JP7*%
X114025000Y-95100000D03*
D15*
X116565000Y-95100000D03*
%TD*%
D23*
%TO.C,C23*%
X101750000Y-72850000D03*
X101750000Y-71150000D03*
%TD*%
D49*
%TO.C,J5*%
X131000000Y-145000000D03*
D50*
X136000000Y-145000000D03*
X141000000Y-145000000D03*
X146000000Y-145000000D03*
X151000000Y-145000000D03*
%TD*%
D22*
%TO.C,C96*%
X95850000Y-129750000D03*
X94150000Y-129750000D03*
%TD*%
D23*
%TO.C,C42*%
X82750000Y-131100000D03*
X82750000Y-129400000D03*
%TD*%
D48*
%TO.C,R26*%
X188750000Y-59650000D03*
X191750000Y-59650000D03*
%TD*%
D55*
%TO.C,F1*%
X166130000Y-56000000D03*
X181370000Y-56000000D03*
%TD*%
D11*
%TO.C,R18*%
X93650000Y-67250000D03*
X95350000Y-67250000D03*
%TD*%
%TO.C,R56*%
X125650000Y-109250000D03*
X127350000Y-109250000D03*
%TD*%
D47*
%TO.C,D39*%
X54000000Y-127500000D03*
X54000000Y-125500000D03*
%TD*%
D13*
%TO.C,R90*%
X71050000Y-135050000D03*
X71050000Y-136750000D03*
%TD*%
D11*
%TO.C,C67*%
X142100000Y-110600000D03*
X143800000Y-110600000D03*
%TD*%
D56*
%TO.C,D13*%
X134750000Y-90500000D03*
X130250000Y-90500000D03*
%TD*%
D11*
%TO.C,C25*%
X136650000Y-53750000D03*
X138350000Y-53750000D03*
%TD*%
%TO.C,C108*%
X142100000Y-115100000D03*
X143800000Y-115100000D03*
%TD*%
D23*
%TO.C,C63*%
X145200000Y-112700000D03*
X145200000Y-111000000D03*
%TD*%
D13*
%TO.C,TH2*%
X96000000Y-136145000D03*
X96000000Y-137845000D03*
%TD*%
D57*
%TO.C,TP32*%
X77000000Y-79250000D03*
%TD*%
D23*
%TO.C,C14*%
X89950000Y-60550001D03*
X89950000Y-58850001D03*
%TD*%
D33*
%TO.C,D36*%
X93950000Y-134245000D03*
X96050000Y-134245000D03*
%TD*%
D11*
%TO.C,R67*%
X120650000Y-123250000D03*
X122350000Y-123250000D03*
%TD*%
D23*
%TO.C,R76*%
X149250000Y-136350000D03*
X149250000Y-134650000D03*
%TD*%
D40*
%TO.C,D27*%
X172100000Y-126500000D03*
X178900000Y-126500000D03*
%TD*%
D23*
%TO.C,C73*%
X123750000Y-124850000D03*
X123750000Y-123150000D03*
%TD*%
D22*
%TO.C,C40*%
X83600000Y-126750000D03*
X81900000Y-126750000D03*
%TD*%
D13*
%TO.C,C97*%
X92500000Y-128150000D03*
X92500000Y-129850000D03*
%TD*%
D58*
%TO.C,D10*%
X83700000Y-132750000D03*
X81800000Y-132750000D03*
X82750000Y-134750000D03*
%TD*%
D22*
%TO.C,C88*%
X146350000Y-134750000D03*
X144650000Y-134750000D03*
%TD*%
D11*
%TO.C,R60*%
X147650000Y-103500000D03*
X149350000Y-103500000D03*
%TD*%
%TO.C,R5*%
X137850000Y-74700000D03*
X139550000Y-74700000D03*
%TD*%
%TO.C,R6*%
X169400000Y-63000000D03*
X171100000Y-63000000D03*
%TD*%
D56*
%TO.C,D14*%
X134750000Y-100500000D03*
X130250000Y-100500000D03*
%TD*%
D17*
%TO.C,TP29*%
X75750000Y-130500000D03*
%TD*%
D43*
%TO.C,R61*%
X190000000Y-102100000D03*
X190000000Y-107900000D03*
%TD*%
D11*
%TO.C,C38*%
X81900000Y-115000000D03*
X83600000Y-115000000D03*
%TD*%
D57*
%TO.C,TP31*%
X79000000Y-79250000D03*
%TD*%
D49*
%TO.C,J1*%
X156750000Y-55195000D03*
D50*
X151750000Y-55195000D03*
%TD*%
D17*
%TO.C,TP3*%
X108750000Y-81500000D03*
%TD*%
D33*
%TO.C,D11*%
X81700000Y-136750000D03*
X83800000Y-136750000D03*
%TD*%
D13*
%TO.C,FB1*%
X95750000Y-126400000D03*
X95750000Y-128100000D03*
%TD*%
%TO.C,C50*%
X127200000Y-93250000D03*
X127200000Y-94950000D03*
%TD*%
D59*
%TO.C,U6*%
X84655000Y-117525000D03*
X83385000Y-117525000D03*
X82115000Y-117525000D03*
X80845000Y-117525000D03*
X80845000Y-122475000D03*
X82115000Y-122475000D03*
X83385000Y-122475000D03*
X84655000Y-122475000D03*
%TD*%
D60*
%TO.C,U15*%
X66975000Y-124055000D03*
X66975000Y-125325000D03*
X66975000Y-126595000D03*
X66975000Y-127865000D03*
X66975000Y-129135000D03*
X66975000Y-130405000D03*
X66975000Y-131675000D03*
X66975000Y-132945000D03*
X72125000Y-132945000D03*
X72125000Y-131675000D03*
X72125000Y-130405000D03*
X72125000Y-129135000D03*
X72125000Y-127865000D03*
X72125000Y-126595000D03*
X72125000Y-125325000D03*
X72125000Y-124055000D03*
%TD*%
D48*
%TO.C,R27*%
X188750000Y-62250000D03*
X191750000Y-62250000D03*
%TD*%
D14*
%TO.C,JP15*%
X84000000Y-70775000D03*
D15*
X84000000Y-68235000D03*
%TD*%
D61*
%TO.C,D4*%
X129000000Y-64500000D03*
X133500000Y-64500000D03*
%TD*%
D62*
%TO.C,U2*%
X82900000Y-59950000D03*
X85200000Y-59950000D03*
X87500000Y-59950000D03*
D63*
X85200000Y-53650000D03*
%TD*%
D11*
%TO.C,R10*%
X136650000Y-56750000D03*
X138350000Y-56750000D03*
%TD*%
D23*
%TO.C,C93*%
X97500000Y-126600000D03*
X97500000Y-124900000D03*
%TD*%
D17*
%TO.C,TP12*%
X108750000Y-89000000D03*
%TD*%
D22*
%TO.C,R83*%
X122350000Y-124750000D03*
X120650000Y-124750000D03*
%TD*%
D49*
%TO.C,J4*%
X171000000Y-145000000D03*
D50*
X176000000Y-145000000D03*
X181000000Y-145000000D03*
%TD*%
D11*
%TO.C,R1*%
X73900000Y-94750000D03*
X75600000Y-94750000D03*
%TD*%
D34*
%TO.C,C56*%
X138050000Y-103400000D03*
X138050000Y-106400000D03*
%TD*%
D11*
%TO.C,R58*%
X125650000Y-121250000D03*
X127350000Y-121250000D03*
%TD*%
%TO.C,R16*%
X93650000Y-71250000D03*
X95350000Y-71250000D03*
%TD*%
D13*
%TO.C,C91*%
X126500000Y-137900000D03*
X126500000Y-139600000D03*
%TD*%
%TO.C,C83*%
X99000000Y-104400000D03*
X99000000Y-106100000D03*
%TD*%
D23*
%TO.C,C62*%
X146700000Y-124700000D03*
X146700000Y-123000000D03*
%TD*%
%TO.C,R102*%
X77000000Y-77350000D03*
X77000000Y-75650000D03*
%TD*%
D22*
%TO.C,C86*%
X125450000Y-132250000D03*
X123750000Y-132250000D03*
%TD*%
D13*
%TO.C,C51*%
X127200000Y-103250000D03*
X127200000Y-104950000D03*
%TD*%
D53*
%TO.C,TP4*%
X108750000Y-76750000D03*
%TD*%
D17*
%TO.C,TP9*%
X108750000Y-87000000D03*
%TD*%
D23*
%TO.C,C60*%
X146700000Y-112700000D03*
X146700000Y-111000000D03*
%TD*%
D22*
%TO.C,C76*%
X127350000Y-119750000D03*
X125650000Y-119750000D03*
%TD*%
D20*
%TO.C,C44*%
X121700000Y-93894888D03*
D21*
X121700000Y-96394888D03*
%TD*%
D13*
%TO.C,C104*%
X72300000Y-63650000D03*
X72300000Y-65350000D03*
%TD*%
D25*
%TO.C,Q5*%
X184590000Y-85335000D03*
X185860000Y-85335000D03*
X187140000Y-85335000D03*
X188410000Y-85335000D03*
D26*
X186500000Y-82065000D03*
%TD*%
D37*
%TO.C,D22*%
X179000000Y-91100000D03*
X179000000Y-97900000D03*
%TD*%
D14*
%TO.C,JP3*%
X116500000Y-75400000D03*
D15*
X113960000Y-75400000D03*
%TD*%
D13*
%TO.C,C21*%
X136750000Y-58400000D03*
X136750000Y-60100000D03*
%TD*%
%TO.C,C82*%
X100750000Y-104400000D03*
X100750000Y-106100000D03*
%TD*%
D11*
%TO.C,R59*%
X147650000Y-100000000D03*
X149350000Y-100000000D03*
%TD*%
D64*
%TO.C,U5*%
X104220000Y-74200000D03*
D65*
X106500000Y-67900000D03*
D64*
X108780000Y-74200000D03*
%TD*%
D22*
%TO.C,C84*%
X93600000Y-104500000D03*
X91900000Y-104500000D03*
%TD*%
D11*
%TO.C,R75*%
X144650000Y-136250000D03*
X146350000Y-136250000D03*
%TD*%
D47*
%TO.C,D40*%
X61000000Y-127500000D03*
X61000000Y-125500000D03*
%TD*%
D27*
%TO.C,H3*%
X52800000Y-145000000D03*
X53500000Y-143500000D03*
X53500000Y-146500000D03*
X55000000Y-142800000D03*
D28*
X55000000Y-145000000D03*
D27*
X55000000Y-147200000D03*
X56500000Y-143500000D03*
X56500000Y-146500000D03*
X57200000Y-145000000D03*
%TD*%
D11*
%TO.C,R14*%
X124150000Y-53250000D03*
X125850000Y-53250000D03*
%TD*%
D47*
%TO.C,D43*%
X61000000Y-133500000D03*
X61000000Y-131500000D03*
%TD*%
D17*
%TO.C,TP5*%
X91200000Y-53000000D03*
%TD*%
D11*
%TO.C,R69*%
X120650000Y-111000000D03*
X122350000Y-111000000D03*
%TD*%
D14*
%TO.C,JP9*%
X116575000Y-117600000D03*
D15*
X114035000Y-117600000D03*
%TD*%
D11*
%TO.C,C66*%
X142100000Y-113100000D03*
X143800000Y-113100000D03*
%TD*%
D13*
%TO.C,R88*%
X116750000Y-134567500D03*
X116750000Y-136267500D03*
%TD*%
D31*
%TO.C,TP20*%
X96750000Y-110750000D03*
%TD*%
D22*
%TO.C,C36*%
X62085000Y-92330000D03*
X60385000Y-92330000D03*
%TD*%
D30*
%TO.C,D5*%
X90000000Y-73250000D03*
X92000000Y-73250000D03*
%TD*%
D13*
%TO.C,C34*%
X93700000Y-53550000D03*
X93700000Y-55250000D03*
%TD*%
D22*
%TO.C,R79*%
X147850000Y-138000000D03*
X146150000Y-138000000D03*
%TD*%
D31*
%TO.C,TP22*%
X94750000Y-110750000D03*
%TD*%
D11*
%TO.C,C3*%
X84400000Y-109000000D03*
X86100000Y-109000000D03*
%TD*%
D25*
%TO.C,Q3*%
X170090000Y-85335000D03*
X171360000Y-85335000D03*
X172640000Y-85335000D03*
X173910000Y-85335000D03*
D26*
X172000000Y-82065000D03*
%TD*%
D23*
%TO.C,R23*%
X87000000Y-123600000D03*
X87000000Y-121900000D03*
%TD*%
D22*
%TO.C,R66*%
X122350000Y-118500000D03*
X120650000Y-118500000D03*
%TD*%
D23*
%TO.C,R95*%
X54500000Y-120250000D03*
X54500000Y-118550000D03*
%TD*%
D13*
%TO.C,C15*%
X127200000Y-77750000D03*
X127200000Y-79450000D03*
%TD*%
D11*
%TO.C,R19*%
X60385000Y-89330000D03*
X62085000Y-89330000D03*
%TD*%
D13*
%TO.C,C112*%
X119250000Y-110900000D03*
X119250000Y-112600000D03*
%TD*%
D25*
%TO.C,Q1*%
X155590000Y-85335000D03*
X156860000Y-85335000D03*
X158140000Y-85335000D03*
X159410000Y-85335000D03*
D26*
X157500000Y-82065000D03*
%TD*%
D17*
%TO.C,TP17*%
X108000000Y-127000000D03*
%TD*%
D23*
%TO.C,R84*%
X97250000Y-114850000D03*
X97250000Y-113150000D03*
%TD*%
D43*
%TO.C,R51*%
X176000000Y-102100000D03*
X176000000Y-107900000D03*
%TD*%
D11*
%TO.C,C100*%
X83150000Y-73500000D03*
X84850000Y-73500000D03*
%TD*%
D13*
%TO.C,C98*%
X108800000Y-132767500D03*
X108800000Y-134467500D03*
%TD*%
D23*
%TO.C,C64*%
X145200000Y-118700000D03*
X145200000Y-117000000D03*
%TD*%
D22*
%TO.C,R45*%
X140800000Y-115600000D03*
X139100000Y-115600000D03*
%TD*%
D56*
%TO.C,D12*%
X134750000Y-80500000D03*
X130250000Y-80500000D03*
%TD*%
D23*
%TO.C,C41*%
X80500000Y-126850000D03*
X80500000Y-125150000D03*
%TD*%
D31*
%TO.C,TP7*%
X87000000Y-112500000D03*
%TD*%
D17*
%TO.C,TP27*%
X75750000Y-128500000D03*
%TD*%
D22*
%TO.C,C78*%
X123850000Y-109500000D03*
X122150000Y-109500000D03*
%TD*%
D66*
%TO.C,U1*%
X81500000Y-98175000D03*
X82000000Y-98175000D03*
X82500000Y-98175000D03*
X83000000Y-98175000D03*
X83500000Y-98175000D03*
X84000000Y-98175000D03*
X84500000Y-98175000D03*
X85000000Y-98175000D03*
X85500000Y-98175000D03*
X86000000Y-98175000D03*
X86500000Y-98175000D03*
X87000000Y-98175000D03*
X87500000Y-98175000D03*
X88000000Y-98175000D03*
X88500000Y-98175000D03*
X89000000Y-98175000D03*
D67*
X90925000Y-96250000D03*
X90925000Y-95750000D03*
X90925000Y-95250000D03*
X90925000Y-94750000D03*
X90925000Y-94250000D03*
X90925000Y-93750000D03*
X90925000Y-93250000D03*
X90925000Y-92750000D03*
X90925000Y-92250000D03*
X90925000Y-91750000D03*
X90925000Y-91250000D03*
X90925000Y-90750000D03*
X90925000Y-90250000D03*
X90925000Y-89750000D03*
X90925000Y-89250000D03*
X90925000Y-88750000D03*
D66*
X89000000Y-86825000D03*
X88500000Y-86825000D03*
X88000000Y-86825000D03*
X87500000Y-86825000D03*
X87000000Y-86825000D03*
X86500000Y-86825000D03*
X86000000Y-86825000D03*
X85500000Y-86825000D03*
X85000000Y-86825000D03*
X84500000Y-86825000D03*
X84000000Y-86825000D03*
X83500000Y-86825000D03*
X83000000Y-86825000D03*
X82500000Y-86825000D03*
X82000000Y-86825000D03*
X81500000Y-86825000D03*
D67*
X79575000Y-88750000D03*
X79575000Y-89250000D03*
X79575000Y-89750000D03*
X79575000Y-90250000D03*
X79575000Y-90750000D03*
X79575000Y-91250000D03*
X79575000Y-91750000D03*
X79575000Y-92250000D03*
X79575000Y-92750000D03*
X79575000Y-93250000D03*
X79575000Y-93750000D03*
X79575000Y-94250000D03*
X79575000Y-94750000D03*
X79575000Y-95250000D03*
X79575000Y-95750000D03*
X79575000Y-96250000D03*
%TD*%
D47*
%TO.C,D42*%
X54000000Y-133500000D03*
X54000000Y-131500000D03*
%TD*%
D11*
%TO.C,R99*%
X79650000Y-64750000D03*
X81350000Y-64750000D03*
%TD*%
D38*
%TO.C,U9*%
X130025000Y-103595000D03*
X130025000Y-104865000D03*
X130025000Y-106135000D03*
X130025000Y-107405000D03*
X134975000Y-107405000D03*
X134975000Y-106135000D03*
X134975000Y-104865000D03*
X134975000Y-103595000D03*
%TD*%
D23*
%TO.C,R44*%
X137700000Y-111200000D03*
X137700000Y-109500000D03*
%TD*%
D14*
%TO.C,J6*%
X57075000Y-79675000D03*
D15*
X54535000Y-79675000D03*
X57075000Y-77135000D03*
X54535000Y-77135000D03*
X57075000Y-74595000D03*
X54535000Y-74595000D03*
X57075000Y-72055000D03*
X54535000Y-72055000D03*
X57075000Y-69515000D03*
X54535000Y-69515000D03*
%TD*%
D22*
%TO.C,C80*%
X123850000Y-121750000D03*
X122150000Y-121750000D03*
%TD*%
D27*
%TO.C,H1*%
X52800000Y-55000000D03*
X53500000Y-53500000D03*
X53500000Y-56500000D03*
X55000000Y-52800000D03*
D28*
X55000000Y-55000000D03*
D27*
X55000000Y-57200000D03*
X56500000Y-53500000D03*
X56500000Y-56500000D03*
X57200000Y-55000000D03*
%TD*%
D23*
%TO.C,C61*%
X146700000Y-118700000D03*
X146700000Y-117000000D03*
%TD*%
D11*
%TO.C,R34*%
X147650000Y-85750000D03*
X149350000Y-85750000D03*
%TD*%
D23*
%TO.C,C29*%
X112750000Y-72850000D03*
X112750000Y-71150000D03*
%TD*%
D22*
%TO.C,C85*%
X96600000Y-104500000D03*
X94900000Y-104500000D03*
%TD*%
D24*
%TO.C,D41*%
X58500000Y-129500000D03*
X56500000Y-129500000D03*
%TD*%
D14*
%TO.C,JP2*%
X100100000Y-58775000D03*
D15*
X100100000Y-56235000D03*
%TD*%
D11*
%TO.C,R7*%
X133100000Y-71700000D03*
X134800000Y-71700000D03*
%TD*%
D24*
%TO.C,D1*%
X174750000Y-63000000D03*
X172750000Y-63000000D03*
%TD*%
D11*
%TO.C,C10*%
X35900000Y-82000000D03*
X37600000Y-82000000D03*
%TD*%
D31*
%TO.C,TP19*%
X92750000Y-102250000D03*
%TD*%
D68*
%TO.C,L2*%
X117250000Y-63500000D03*
X117250000Y-55500000D03*
%TD*%
D22*
%TO.C,C75*%
X127350000Y-113500000D03*
X125650000Y-113500000D03*
%TD*%
D69*
%TO.C,RV1*%
X110000000Y-145000000D03*
X115000000Y-145000000D03*
X120000000Y-145000000D03*
%TD*%
D59*
%TO.C,U16*%
X80905000Y-67775000D03*
X79635000Y-67775000D03*
X78365000Y-67775000D03*
X77095000Y-67775000D03*
X77095000Y-72725000D03*
X78365000Y-72725000D03*
X79635000Y-72725000D03*
X80905000Y-72725000D03*
%TD*%
D11*
%TO.C,R70*%
X94900000Y-106000000D03*
X96600000Y-106000000D03*
%TD*%
%TO.C,R35*%
X147650000Y-89500000D03*
X149350000Y-89500000D03*
%TD*%
D35*
%TO.C,C103*%
X169800000Y-72117677D03*
D36*
X169800000Y-67117677D03*
%TD*%
D59*
%TO.C,U14*%
X96905000Y-117525000D03*
X95635000Y-117525000D03*
X94365000Y-117525000D03*
X93095000Y-117525000D03*
X93095000Y-122475000D03*
X94365000Y-122475000D03*
X95635000Y-122475000D03*
X96905000Y-122475000D03*
%TD*%
D11*
%TO.C,R33*%
X148100000Y-123100000D03*
X149800000Y-123100000D03*
%TD*%
D22*
%TO.C,R47*%
X140800000Y-121600000D03*
X139100000Y-121600000D03*
%TD*%
D23*
%TO.C,R101*%
X79000000Y-77350000D03*
X79000000Y-75650000D03*
%TD*%
D16*
%TO.C,U12*%
X134975000Y-125405000D03*
X134975000Y-124135000D03*
X134975000Y-122865000D03*
X134975000Y-121595000D03*
X130025000Y-121595000D03*
X130025000Y-122865000D03*
X130025000Y-124135000D03*
X130025000Y-125405000D03*
%TD*%
D11*
%TO.C,C71*%
X142100000Y-122600000D03*
X143800000Y-122600000D03*
%TD*%
D22*
%TO.C,R72*%
X132850000Y-137750000D03*
X131150000Y-137750000D03*
%TD*%
D23*
%TO.C,R46*%
X137700000Y-117200000D03*
X137700000Y-115500000D03*
%TD*%
D13*
%TO.C,C47*%
X125700000Y-93250000D03*
X125700000Y-94950000D03*
%TD*%
D37*
%TO.C,D18*%
X164500000Y-90850000D03*
X164500000Y-97650000D03*
%TD*%
D17*
%TO.C,TP16*%
X108000000Y-120750000D03*
%TD*%
D16*
%TO.C,U4*%
X133725000Y-59405000D03*
X133725000Y-58135000D03*
X133725000Y-56865000D03*
X133725000Y-55595000D03*
X128775000Y-55595000D03*
X128775000Y-56865000D03*
X128775000Y-58135000D03*
X128775000Y-59405000D03*
D70*
X131250000Y-57400000D03*
%TD*%
D14*
%TO.C,JP1*%
X94000000Y-78725000D03*
D15*
X94000000Y-81265000D03*
%TD*%
D14*
%TO.C,JP5*%
X114025000Y-105300000D03*
D15*
X116565000Y-105300000D03*
%TD*%
D38*
%TO.C,U7*%
X130025000Y-83595000D03*
X130025000Y-84865000D03*
X130025000Y-86135000D03*
X130025000Y-87405000D03*
X134975000Y-87405000D03*
X134975000Y-86135000D03*
X134975000Y-84865000D03*
X134975000Y-83595000D03*
%TD*%
D71*
%TO.C,D32*%
X137500000Y-135450000D03*
X137500000Y-137550000D03*
%TD*%
D23*
%TO.C,R94*%
X57500000Y-120250000D03*
X57500000Y-118550000D03*
%TD*%
%TO.C,R81*%
X92750000Y-114850000D03*
X92750000Y-113150000D03*
%TD*%
D13*
%TO.C,C113*%
X119250000Y-116900000D03*
X119250000Y-118600000D03*
%TD*%
D11*
%TO.C,C9*%
X35900000Y-79000000D03*
X37600000Y-79000000D03*
%TD*%
D14*
%TO.C,JP14*%
X69550000Y-120525000D03*
D15*
X69550000Y-117985000D03*
%TD*%
D23*
%TO.C,R91*%
X59000000Y-120250000D03*
X59000000Y-118550000D03*
%TD*%
D17*
%TO.C,TP26*%
X75750000Y-124500000D03*
%TD*%
D43*
%TO.C,R52*%
X176000000Y-111350000D03*
X176000000Y-117150000D03*
%TD*%
D22*
%TO.C,R43*%
X140800000Y-109600000D03*
X139100000Y-109600000D03*
%TD*%
D31*
%TO.C,TP21*%
X92750000Y-110750000D03*
%TD*%
D17*
%TO.C,TP15*%
X108000000Y-114500000D03*
%TD*%
D13*
%TO.C,C81*%
X102500000Y-104400000D03*
X102500000Y-106100000D03*
%TD*%
D49*
%TO.C,J7*%
X93250000Y-144805000D03*
D50*
X98250000Y-144805000D03*
%TD*%
D11*
%TO.C,R64*%
X109650000Y-127000000D03*
X111350000Y-127000000D03*
%TD*%
D31*
%TO.C,TP30*%
X81000000Y-79185000D03*
%TD*%
D25*
%TO.C,Q2*%
X155590000Y-97170000D03*
X156860000Y-97170000D03*
X158140000Y-97170000D03*
X159410000Y-97170000D03*
D26*
X157500000Y-93900000D03*
%TD*%
D13*
%TO.C,C48*%
X125700000Y-103250000D03*
X125700000Y-104950000D03*
%TD*%
D11*
%TO.C,R78*%
X149150000Y-138000000D03*
X150850000Y-138000000D03*
%TD*%
D72*
%TO.C,D2*%
X143000000Y-61400000D03*
X143000000Y-54600000D03*
%TD*%
D13*
%TO.C,C106*%
X69100000Y-68650000D03*
X69100000Y-70350000D03*
%TD*%
D11*
%TO.C,R62*%
X109650000Y-114500000D03*
X111350000Y-114500000D03*
%TD*%
D13*
%TO.C,R98*%
X35500000Y-94900000D03*
X35500000Y-96600000D03*
%TD*%
D23*
%TO.C,C101*%
X113250000Y-136267500D03*
X113250000Y-134567500D03*
%TD*%
D11*
%TO.C,R31*%
X148100000Y-117100000D03*
X149800000Y-117100000D03*
%TD*%
D13*
%TO.C,C33*%
X95200000Y-53550000D03*
X95200000Y-55250000D03*
%TD*%
D11*
%TO.C,R71*%
X91900000Y-106000000D03*
X93600000Y-106000000D03*
%TD*%
D29*
%TO.C,D37*%
X113250000Y-132417500D03*
X116750000Y-132417500D03*
%TD*%
D14*
%TO.C,JP8*%
X116575000Y-111600000D03*
D15*
X114035000Y-111600000D03*
%TD*%
D23*
%TO.C,C99*%
X72300000Y-121600000D03*
X72300000Y-119900000D03*
%TD*%
%TO.C,C26*%
X100250000Y-72850000D03*
X100250000Y-71150000D03*
%TD*%
D17*
%TO.C,TP28*%
X75750000Y-126500000D03*
%TD*%
D11*
%TO.C,C6*%
X35900000Y-83500000D03*
X37600000Y-83500000D03*
%TD*%
D13*
%TO.C,C18*%
X77700000Y-54950000D03*
X77700000Y-56650000D03*
%TD*%
D11*
%TO.C,C92*%
X99400000Y-123250000D03*
X101100000Y-123250000D03*
%TD*%
D36*
%TO.C,FID1*%
X55000000Y-61250000D03*
%TD*%
D23*
%TO.C,R96*%
X62000000Y-120250000D03*
X62000000Y-118550000D03*
%TD*%
%TO.C,C65*%
X145200000Y-124700000D03*
X145200000Y-123000000D03*
%TD*%
D73*
%TO.C,Q7*%
X69050000Y-136850000D03*
X69050000Y-134950000D03*
X67050000Y-135900000D03*
%TD*%
D48*
%TO.C,R87*%
X93500000Y-131845000D03*
X96500000Y-131845000D03*
%TD*%
D11*
%TO.C,R57*%
X125650000Y-115250000D03*
X127350000Y-115250000D03*
%TD*%
D31*
%TO.C,TP14*%
X108750000Y-109500000D03*
%TD*%
D20*
%TO.C,C11*%
X95200000Y-60905113D03*
D21*
X95200000Y-58405113D03*
%TD*%
D13*
%TO.C,C22*%
X125750000Y-74400000D03*
X125750000Y-76100000D03*
%TD*%
%TO.C,C105*%
X65100000Y-68650000D03*
X65100000Y-70350000D03*
%TD*%
D23*
%TO.C,R2*%
X67250000Y-105100000D03*
X67250000Y-103400000D03*
%TD*%
D36*
%TO.C,FID3*%
X60250000Y-145250000D03*
%TD*%
D13*
%TO.C,C114*%
X119250000Y-123150000D03*
X119250000Y-124850000D03*
%TD*%
D40*
%TO.C,D28*%
X167100000Y-134750000D03*
X173900000Y-134750000D03*
%TD*%
D17*
%TO.C,TP1*%
X80200000Y-53300000D03*
%TD*%
D23*
%TO.C,C72*%
X123750000Y-118600000D03*
X123750000Y-116900000D03*
%TD*%
D14*
%TO.C,JP11*%
X127875000Y-129500000D03*
D15*
X125335000Y-129500000D03*
%TD*%
D74*
%TO.C,TH1*%
X142250000Y-138000000D03*
X142250000Y-135000000D03*
%TD*%
D20*
%TO.C,C55*%
X142450000Y-93250000D03*
D21*
X142450000Y-96250000D03*
%TD*%
D13*
%TO.C,C1*%
X65750000Y-103400000D03*
X65750000Y-105100000D03*
%TD*%
M02*
