%TF.GenerationSoftware,KiCad,Pcbnew,8.0.3*%
%TF.CreationDate,2024-07-07T23:54:37+03:00*%
%TF.ProjectId,STM32_Motor_Kit_v0.1,53544d33-325f-44d6-9f74-6f725f4b6974,rev?*%
%TF.SameCoordinates,Original*%
%TF.FileFunction,Legend,Bot*%
%TF.FilePolarity,Positive*%
%FSLAX46Y46*%
G04 Gerber Fmt 4.6, Leading zero omitted, Abs format (unit mm)*
G04 Created by KiCad (PCBNEW 8.0.3) date 2024-07-07 23:54:37*
%MOMM*%
%LPD*%
G01*
G04 APERTURE LIST*
%ADD10R,1.700000X1.700000*%
%ADD11O,1.700000X1.700000*%
%ADD12R,1.600000X1.600000*%
%ADD13C,1.600000*%
%ADD14C,0.800000*%
%ADD15C,5.600000*%
%ADD16R,2.000000X2.000000*%
%ADD17C,2.000000*%
%ADD18O,1.600000X1.600000*%
%ADD19C,0.900000*%
%ADD20R,2.600000X2.600000*%
%ADD21C,2.600000*%
%ADD22O,2.500000X4.000000*%
%ADD23O,3.000000X4.000000*%
G04 APERTURE END LIST*
%LPC*%
D10*
%TO.C,JP13*%
X100250000Y-120525000D03*
D11*
X100250000Y-117985000D03*
%TD*%
D12*
%TO.C,C57*%
X142450000Y-103250000D03*
D13*
X142450000Y-106250000D03*
%TD*%
D10*
%TO.C,JP4*%
X84025000Y-111945000D03*
D11*
X81485000Y-111945000D03*
%TD*%
D12*
%TO.C,C43*%
X121700000Y-83694888D03*
D13*
X121700000Y-86194888D03*
%TD*%
D10*
%TO.C,J2*%
X54460000Y-83860000D03*
D11*
X57000000Y-83860000D03*
X54460000Y-86400000D03*
X57000000Y-86400000D03*
X54460000Y-88940000D03*
X57000000Y-88940000D03*
X54460000Y-91480000D03*
X57000000Y-91480000D03*
%TD*%
D14*
%TO.C,H2*%
X192800000Y-55000000D03*
X193500000Y-53500000D03*
X193500000Y-56500000D03*
X195000000Y-52800000D03*
D15*
X195000000Y-55000000D03*
D14*
X195000000Y-57200000D03*
X196500000Y-53500000D03*
X196500000Y-56500000D03*
X197200000Y-55000000D03*
%TD*%
D10*
%TO.C,JP10*%
X116575000Y-124000000D03*
D11*
X114035000Y-124000000D03*
%TD*%
D16*
%TO.C,C19*%
X144250000Y-67382323D03*
D17*
X144250000Y-72382323D03*
%TD*%
D10*
%TO.C,JP6*%
X114025000Y-84900000D03*
D11*
X116565000Y-84900000D03*
%TD*%
D12*
%TO.C,C45*%
X121700000Y-104094888D03*
D13*
X121700000Y-106594888D03*
%TD*%
D12*
%TO.C,SW1*%
X62300000Y-96750000D03*
D18*
X54680000Y-96750000D03*
%TD*%
D16*
%TO.C,C58*%
X180750000Y-72117677D03*
D17*
X180750000Y-67117677D03*
%TD*%
D12*
%TO.C,C53*%
X142450000Y-83250000D03*
D13*
X142450000Y-86250000D03*
%TD*%
D10*
%TO.C,JP12*%
X133075000Y-129500000D03*
D11*
X135615000Y-129500000D03*
%TD*%
D19*
%TO.C,J8*%
X68900000Y-56500000D03*
X64500000Y-56500000D03*
%TD*%
D16*
%TO.C,C59*%
X191750000Y-72117677D03*
D17*
X191750000Y-67117677D03*
%TD*%
D14*
%TO.C,H4*%
X192800000Y-145000000D03*
X193500000Y-143500000D03*
X193500000Y-146500000D03*
X195000000Y-142800000D03*
D15*
X195000000Y-145000000D03*
D14*
X195000000Y-147200000D03*
X196500000Y-143500000D03*
X196500000Y-146500000D03*
X197200000Y-145000000D03*
%TD*%
D12*
%TO.C,C31*%
X106400000Y-54597349D03*
D13*
X106400000Y-59597349D03*
%TD*%
D20*
%TO.C,J3*%
X81750000Y-144805000D03*
D21*
X86750000Y-144805000D03*
%TD*%
D10*
%TO.C,JP7*%
X114025000Y-95100000D03*
D11*
X116565000Y-95100000D03*
%TD*%
D20*
%TO.C,J5*%
X131000000Y-145000000D03*
D21*
X136000000Y-145000000D03*
X141000000Y-145000000D03*
X146000000Y-145000000D03*
X151000000Y-145000000D03*
%TD*%
D22*
%TO.C,F1*%
X166130000Y-56000000D03*
X181370000Y-56000000D03*
%TD*%
D20*
%TO.C,J1*%
X156750000Y-55195000D03*
D21*
X151750000Y-55195000D03*
%TD*%
D10*
%TO.C,JP15*%
X84000000Y-70775000D03*
D11*
X84000000Y-68235000D03*
%TD*%
D20*
%TO.C,J4*%
X171000000Y-145000000D03*
D21*
X176000000Y-145000000D03*
X181000000Y-145000000D03*
%TD*%
D12*
%TO.C,C44*%
X121700000Y-93894888D03*
D13*
X121700000Y-96394888D03*
%TD*%
D10*
%TO.C,JP3*%
X116500000Y-75400000D03*
D11*
X113960000Y-75400000D03*
%TD*%
D14*
%TO.C,H3*%
X52800000Y-145000000D03*
X53500000Y-143500000D03*
X53500000Y-146500000D03*
X55000000Y-142800000D03*
D15*
X55000000Y-145000000D03*
D14*
X55000000Y-147200000D03*
X56500000Y-143500000D03*
X56500000Y-146500000D03*
X57200000Y-145000000D03*
%TD*%
D10*
%TO.C,JP9*%
X116575000Y-117600000D03*
D11*
X114035000Y-117600000D03*
%TD*%
D10*
%TO.C,J6*%
X57075000Y-79675000D03*
D11*
X54535000Y-79675000D03*
X57075000Y-77135000D03*
X54535000Y-77135000D03*
X57075000Y-74595000D03*
X54535000Y-74595000D03*
X57075000Y-72055000D03*
X54535000Y-72055000D03*
X57075000Y-69515000D03*
X54535000Y-69515000D03*
%TD*%
D14*
%TO.C,H1*%
X52800000Y-55000000D03*
X53500000Y-53500000D03*
X53500000Y-56500000D03*
X55000000Y-52800000D03*
D15*
X55000000Y-55000000D03*
D14*
X55000000Y-57200000D03*
X56500000Y-53500000D03*
X56500000Y-56500000D03*
X57200000Y-55000000D03*
%TD*%
D10*
%TO.C,JP2*%
X100100000Y-58775000D03*
D11*
X100100000Y-56235000D03*
%TD*%
D23*
%TO.C,RV1*%
X110000000Y-145000000D03*
X115000000Y-145000000D03*
X120000000Y-145000000D03*
%TD*%
D16*
%TO.C,C103*%
X169800000Y-72117677D03*
D17*
X169800000Y-67117677D03*
%TD*%
D10*
%TO.C,JP1*%
X94000000Y-78725000D03*
D11*
X94000000Y-81265000D03*
%TD*%
D10*
%TO.C,JP5*%
X114025000Y-105300000D03*
D11*
X116565000Y-105300000D03*
%TD*%
D10*
%TO.C,JP14*%
X69550000Y-120525000D03*
D11*
X69550000Y-117985000D03*
%TD*%
D20*
%TO.C,J7*%
X93250000Y-144805000D03*
D21*
X98250000Y-144805000D03*
%TD*%
D10*
%TO.C,JP8*%
X116575000Y-111600000D03*
D11*
X114035000Y-111600000D03*
%TD*%
D12*
%TO.C,C11*%
X95200000Y-60905113D03*
D13*
X95200000Y-58405113D03*
%TD*%
D10*
%TO.C,JP11*%
X127875000Y-129500000D03*
D11*
X125335000Y-129500000D03*
%TD*%
D12*
%TO.C,C55*%
X142450000Y-93250000D03*
D13*
X142450000Y-96250000D03*
%TD*%
%LPD*%
M02*
