%TF.GenerationSoftware,KiCad,Pcbnew,8.0.3*%
%TF.CreationDate,2024-07-07T23:54:37+03:00*%
%TF.ProjectId,STM32_Motor_Kit_v0.1,53544d33-325f-44d6-9f74-6f725f4b6974,rev?*%
%TF.SameCoordinates,Original*%
%TF.FileFunction,Copper,L3,Inr*%
%TF.FilePolarity,Positive*%
%FSLAX46Y46*%
G04 Gerber Fmt 4.6, Leading zero omitted, Abs format (unit mm)*
G04 Created by KiCad (PCBNEW 8.0.3) date 2024-07-07 23:54:37*
%MOMM*%
%LPD*%
G01*
G04 APERTURE LIST*
%TA.AperFunction,ComponentPad*%
%ADD10R,1.700000X1.700000*%
%TD*%
%TA.AperFunction,ComponentPad*%
%ADD11O,1.700000X1.700000*%
%TD*%
%TA.AperFunction,ComponentPad*%
%ADD12R,1.600000X1.600000*%
%TD*%
%TA.AperFunction,ComponentPad*%
%ADD13C,1.600000*%
%TD*%
%TA.AperFunction,ComponentPad*%
%ADD14C,0.800000*%
%TD*%
%TA.AperFunction,ComponentPad*%
%ADD15C,5.600000*%
%TD*%
%TA.AperFunction,ComponentPad*%
%ADD16R,2.000000X2.000000*%
%TD*%
%TA.AperFunction,ComponentPad*%
%ADD17C,2.000000*%
%TD*%
%TA.AperFunction,ComponentPad*%
%ADD18O,1.600000X1.600000*%
%TD*%
%TA.AperFunction,ComponentPad*%
%ADD19R,2.600000X2.600000*%
%TD*%
%TA.AperFunction,ComponentPad*%
%ADD20C,2.600000*%
%TD*%
%TA.AperFunction,ComponentPad*%
%ADD21O,2.500000X4.000000*%
%TD*%
%TA.AperFunction,ComponentPad*%
%ADD22O,3.000000X4.000000*%
%TD*%
%TA.AperFunction,ViaPad*%
%ADD23C,0.800000*%
%TD*%
%TA.AperFunction,ViaPad*%
%ADD24C,0.500000*%
%TD*%
G04 APERTURE END LIST*
D10*
%TO.N,Net-(JP13-A)*%
%TO.C,JP13*%
X100250000Y-120525000D03*
D11*
%TO.N,+5V*%
X100250000Y-117985000D03*
%TD*%
D12*
%TO.N,Net-(U9-VB)*%
%TO.C,C57*%
X142450000Y-103250000D03*
D13*
%TO.N,/Motor_Control/W_Phase_COM*%
X142450000Y-106250000D03*
%TD*%
D10*
%TO.N,+5V*%
%TO.C,JP4*%
X84025000Y-111945000D03*
D11*
%TO.N,Net-(JP4-B)*%
X81485000Y-111945000D03*
%TD*%
D12*
%TO.N,Net-(JP6-B)*%
%TO.C,C43*%
X121700000Y-83694888D03*
D13*
%TO.N,GND*%
X121700000Y-86194888D03*
%TD*%
D10*
%TO.N,GND*%
%TO.C,J2*%
X54460000Y-83860000D03*
D11*
%TO.N,Net-(J2-Pin_2)*%
X57000000Y-83860000D03*
%TO.N,GND*%
X54460000Y-86400000D03*
%TO.N,/MCU/RST*%
X57000000Y-86400000D03*
%TO.N,Net-(J2-Pin_5)*%
X54460000Y-88940000D03*
%TO.N,/MCU/SWDIO*%
X57000000Y-88940000D03*
%TO.N,Net-(J2-Pin_7)*%
X54460000Y-91480000D03*
%TO.N,/MCU/SWCLK*%
X57000000Y-91480000D03*
%TD*%
D14*
%TO.N,unconnected-(H2-Pad1)*%
%TO.C,H2*%
X192800000Y-55000000D03*
X193500000Y-53500000D03*
X193500000Y-56500000D03*
X195000000Y-52800000D03*
D15*
X195000000Y-55000000D03*
D14*
X195000000Y-57200000D03*
X196500000Y-53500000D03*
X196500000Y-56500000D03*
X197200000Y-55000000D03*
%TD*%
D10*
%TO.N,Net-(JP10-A)*%
%TO.C,JP10*%
X116575000Y-124000000D03*
D11*
%TO.N,+3.3V*%
X114035000Y-124000000D03*
%TD*%
D16*
%TO.N,+24V*%
%TO.C,C19*%
X144250000Y-67382323D03*
D17*
%TO.N,GND*%
X144250000Y-72382323D03*
%TD*%
D10*
%TO.N,+15V*%
%TO.C,JP6*%
X114025000Y-84900000D03*
D11*
%TO.N,Net-(JP6-B)*%
X116565000Y-84900000D03*
%TD*%
D12*
%TO.N,Net-(JP5-B)*%
%TO.C,C45*%
X121700000Y-104094888D03*
D13*
%TO.N,GND*%
X121700000Y-106594888D03*
%TD*%
D12*
%TO.N,/MCU/BOOT*%
%TO.C,SW1*%
X62300000Y-96750000D03*
D18*
%TO.N,+3.3V_MCU*%
X54680000Y-96750000D03*
%TD*%
D16*
%TO.N,Vbus*%
%TO.C,C58*%
X180750000Y-72117677D03*
D17*
%TO.N,GND*%
X180750000Y-67117677D03*
%TD*%
D12*
%TO.N,Net-(U7-VB)*%
%TO.C,C53*%
X142450000Y-83250000D03*
D13*
%TO.N,/Motor_Control/U_Phase_COM*%
X142450000Y-86250000D03*
%TD*%
D10*
%TO.N,Net-(JP12-A)*%
%TO.C,JP12*%
X133075000Y-129500000D03*
D11*
%TO.N,+5V*%
X135615000Y-129500000D03*
%TD*%
D16*
%TO.N,Vbus*%
%TO.C,C59*%
X191750000Y-72117677D03*
D17*
%TO.N,GND*%
X191750000Y-67117677D03*
%TD*%
D14*
%TO.N,unconnected-(H4-Pad1)*%
%TO.C,H4*%
X192800000Y-145000000D03*
X193500000Y-143500000D03*
X193500000Y-146500000D03*
X195000000Y-142800000D03*
D15*
X195000000Y-145000000D03*
D14*
X195000000Y-147200000D03*
X196500000Y-143500000D03*
X196500000Y-146500000D03*
X197200000Y-145000000D03*
%TD*%
D12*
%TO.N,+5V*%
%TO.C,C31*%
X106400000Y-54597349D03*
D13*
%TO.N,GND*%
X106400000Y-59597349D03*
%TD*%
D19*
%TO.N,/CanBus_Communication/CAN_L*%
%TO.C,J3*%
X81750000Y-144805000D03*
D20*
%TO.N,/CanBus_Communication/CAN_H*%
X86750000Y-144805000D03*
%TD*%
D10*
%TO.N,+15V*%
%TO.C,JP7*%
X114025000Y-95100000D03*
D11*
%TO.N,Net-(JP7-B)*%
X116565000Y-95100000D03*
%TD*%
D19*
%TO.N,GND(SHIELD)*%
%TO.C,J5*%
X131000000Y-145000000D03*
D20*
%TO.N,GND*%
X136000000Y-145000000D03*
%TO.N,Net-(J5-Pin_3)*%
X141000000Y-145000000D03*
%TO.N,Net-(J5-Pin_4)*%
X146000000Y-145000000D03*
%TO.N,Net-(J5-Pin_5)*%
X151000000Y-145000000D03*
%TD*%
D21*
%TO.N,Net-(J1-Pin_1)*%
%TO.C,F1*%
X166130000Y-56000000D03*
%TO.N,Vbus*%
X181370000Y-56000000D03*
%TD*%
D19*
%TO.N,Net-(J1-Pin_1)*%
%TO.C,J1*%
X156750000Y-55195000D03*
D20*
%TO.N,GND*%
X151750000Y-55195000D03*
%TD*%
D10*
%TO.N,Net-(JP15-A)*%
%TO.C,JP15*%
X84000000Y-70775000D03*
D11*
%TO.N,+3.3V*%
X84000000Y-68235000D03*
%TD*%
D19*
%TO.N,/Motor_Control/U_Phase_COM*%
%TO.C,J4*%
X171000000Y-145000000D03*
D20*
%TO.N,/Motor_Control/V_Phase_COM*%
X176000000Y-145000000D03*
%TO.N,/Motor_Control/W_Phase_COM*%
X181000000Y-145000000D03*
%TD*%
D12*
%TO.N,Net-(JP7-B)*%
%TO.C,C44*%
X121700000Y-93894888D03*
D13*
%TO.N,GND*%
X121700000Y-96394888D03*
%TD*%
D10*
%TO.N,Net-(JP3-A)*%
%TO.C,JP3*%
X116500000Y-75400000D03*
D11*
%TO.N,+3.3V*%
X113960000Y-75400000D03*
%TD*%
D14*
%TO.N,unconnected-(H3-Pad1)*%
%TO.C,H3*%
X52800000Y-145000000D03*
X53500000Y-143500000D03*
X53500000Y-146500000D03*
X55000000Y-142800000D03*
D15*
X55000000Y-145000000D03*
D14*
X55000000Y-147200000D03*
X56500000Y-143500000D03*
X56500000Y-146500000D03*
X57200000Y-145000000D03*
%TD*%
D10*
%TO.N,Net-(JP9-A)*%
%TO.C,JP9*%
X116575000Y-117600000D03*
D11*
%TO.N,+3.3V*%
X114035000Y-117600000D03*
%TD*%
D10*
%TO.N,unconnected-(J6-Pin_1-Pad1)*%
%TO.C,J6*%
X57075000Y-79675000D03*
D11*
%TO.N,unconnected-(J6-Pin_2-Pad2)*%
X54535000Y-79675000D03*
%TO.N,unconnected-(J6-Pin_3-Pad3)*%
X57075000Y-77135000D03*
%TO.N,unconnected-(J6-Pin_4-Pad4)*%
X54535000Y-77135000D03*
%TO.N,unconnected-(J6-Pin_5-Pad5)*%
X57075000Y-74595000D03*
%TO.N,unconnected-(J6-Pin_6-Pad6)*%
X54535000Y-74595000D03*
%TO.N,unconnected-(J6-Pin_7-Pad7)*%
X57075000Y-72055000D03*
%TO.N,unconnected-(J6-Pin_8-Pad8)*%
X54535000Y-72055000D03*
%TO.N,unconnected-(J6-Pin_9-Pad9)*%
X57075000Y-69515000D03*
%TO.N,unconnected-(J6-Pin_10-Pad10)*%
X54535000Y-69515000D03*
%TD*%
D14*
%TO.N,unconnected-(H1-Pad1)*%
%TO.C,H1*%
X52800000Y-55000000D03*
X53500000Y-53500000D03*
X53500000Y-56500000D03*
X55000000Y-52800000D03*
D15*
X55000000Y-55000000D03*
D14*
X55000000Y-57200000D03*
X56500000Y-53500000D03*
X56500000Y-56500000D03*
X57200000Y-55000000D03*
%TD*%
D10*
%TO.N,Net-(JP2-A)*%
%TO.C,JP2*%
X100100000Y-58775000D03*
D11*
%TO.N,+5V*%
X100100000Y-56235000D03*
%TD*%
D22*
%TO.N,+3.3V*%
%TO.C,RV1*%
X110000000Y-145000000D03*
%TO.N,Net-(R89-Pad1)*%
X115000000Y-145000000D03*
%TO.N,Net-(R88-Pad2)*%
X120000000Y-145000000D03*
%TD*%
D16*
%TO.N,Vbus*%
%TO.C,C103*%
X169800000Y-72117677D03*
D17*
%TO.N,GND*%
X169800000Y-67117677D03*
%TD*%
D10*
%TO.N,+3.3V*%
%TO.C,JP1*%
X94000000Y-78725000D03*
D11*
%TO.N,+3.3V_MCU*%
X94000000Y-81265000D03*
%TD*%
D10*
%TO.N,+15V*%
%TO.C,JP5*%
X114025000Y-105300000D03*
D11*
%TO.N,Net-(JP5-B)*%
X116565000Y-105300000D03*
%TD*%
D10*
%TO.N,Net-(JP14-A)*%
%TO.C,JP14*%
X69550000Y-120525000D03*
D11*
%TO.N,+5V*%
X69550000Y-117985000D03*
%TD*%
D19*
%TO.N,/RS485_Communication/RS485_0_P*%
%TO.C,J7*%
X93250000Y-144805000D03*
D20*
%TO.N,/RS485_Communication/RS485_0_N*%
X98250000Y-144805000D03*
%TD*%
D10*
%TO.N,Net-(JP8-A)*%
%TO.C,JP8*%
X116575000Y-111600000D03*
D11*
%TO.N,+3.3V*%
X114035000Y-111600000D03*
%TD*%
D12*
%TO.N,Net-(JP2-A)*%
%TO.C,C11*%
X95200000Y-60905113D03*
D13*
%TO.N,GND*%
X95200000Y-58405113D03*
%TD*%
D10*
%TO.N,Net-(JP11-A)*%
%TO.C,JP11*%
X127875000Y-129500000D03*
D11*
%TO.N,+3.3V*%
X125335000Y-129500000D03*
%TD*%
D12*
%TO.N,Net-(U8-VB)*%
%TO.C,C55*%
X142450000Y-93250000D03*
D13*
%TO.N,/Motor_Control/V_Phase_COM*%
X142450000Y-96250000D03*
%TD*%
D23*
%TO.N,+3.3V*%
X140800000Y-108600000D03*
X140800000Y-120600000D03*
X140800000Y-114600000D03*
%TO.N,GND*%
X120250000Y-90250000D03*
D24*
X65550000Y-132900000D03*
D23*
X91000000Y-126750000D03*
X123000000Y-53250000D03*
X122500000Y-90250000D03*
X121000000Y-109500000D03*
X122500000Y-100500000D03*
X124800000Y-123100000D03*
D24*
X69050000Y-134150000D03*
X83385000Y-116000000D03*
D23*
X124800000Y-110900000D03*
X67100000Y-61850000D03*
X124750000Y-100500000D03*
X121000000Y-115500000D03*
X99000000Y-128250000D03*
X136500000Y-115500000D03*
X136500000Y-121500000D03*
X120250000Y-100500000D03*
X121000000Y-121750000D03*
D24*
X82750000Y-135750000D03*
D23*
X124800000Y-116900000D03*
X91000000Y-128250000D03*
X124750000Y-90250000D03*
D24*
X86000000Y-116000000D03*
D23*
X82750000Y-128250000D03*
X136500000Y-109500000D03*
X99000000Y-126750000D03*
%TO.N,+5V*%
X142750000Y-133500000D03*
X141500000Y-133500000D03*
X145000000Y-138000000D03*
X140250000Y-133500000D03*
D24*
X88000000Y-118750000D03*
D23*
X152000000Y-138000000D03*
%TO.N,+15V*%
X110500000Y-78000000D03*
X113000000Y-79000000D03*
X111750000Y-78000000D03*
X114250000Y-79000000D03*
X110500000Y-79000000D03*
X114250000Y-78000000D03*
X111750000Y-79000000D03*
X113000000Y-78000000D03*
%TO.N,/Motor_Control/U_Phase_COM*%
X156500000Y-87750000D03*
X155250000Y-87750000D03*
%TO.N,/Motor_Control/V_Phase_COM*%
X171250000Y-88000000D03*
X170250000Y-88000000D03*
%TO.N,/Motor_Control/W_Phase_COM*%
X191750000Y-88500000D03*
X184500000Y-87750000D03*
X185500000Y-87750000D03*
X190750000Y-88500000D03*
%TO.N,Vbus*%
X156500000Y-77750000D03*
X184000000Y-59000000D03*
X178500000Y-59000000D03*
X178500000Y-57000000D03*
X184000000Y-55000000D03*
X178500000Y-53000000D03*
X176500000Y-57000000D03*
X186000000Y-57000000D03*
X176500000Y-59000000D03*
X155500000Y-77750000D03*
X176500000Y-53000000D03*
X178500000Y-55000000D03*
X186000000Y-55000000D03*
X184000000Y-53000000D03*
X176500000Y-55000000D03*
X186000000Y-59000000D03*
X184000000Y-57000000D03*
X186000000Y-53000000D03*
%TO.N,/Motor_Control/V_Shunt_High*%
X168500000Y-104300000D03*
X150800000Y-117100000D03*
%TO.N,/Motor_Control/W_Shunt_High*%
X183000000Y-104400000D03*
X150800000Y-123100000D03*
D24*
%TO.N,Net-(JP14-A)*%
X70300000Y-128900000D03*
X72300000Y-123150000D03*
D23*
%TO.N,Net-(D15-Pad2)*%
X150750000Y-83750000D03*
X160250000Y-85250000D03*
%TO.N,Net-(D16-Pad2)*%
X160500000Y-97250000D03*
X153250000Y-96750000D03*
%TO.N,Net-(D19-Pad2)*%
X150750000Y-91250000D03*
X175000000Y-85500000D03*
%TO.N,Net-(D20-Pad2)*%
X150500000Y-97000000D03*
X175000000Y-97250000D03*
%TO.N,Net-(D23-Pad2)*%
X189500000Y-85500000D03*
X152000000Y-94750000D03*
%TO.N,Net-(D24-Pad2)*%
X189500000Y-97250000D03*
X150750000Y-101500000D03*
D24*
%TO.N,Net-(U15-QA)*%
X60050000Y-123400000D03*
X63300000Y-123400000D03*
%TO.N,Net-(U15-QB)*%
X64800000Y-124150000D03*
X55300000Y-127650000D03*
%TO.N,Net-(U15-QC)*%
X61000000Y-128600000D03*
X64800000Y-125400000D03*
%TO.N,Net-(U15-QD)*%
X64800000Y-126650000D03*
X59700000Y-129500000D03*
%TO.N,Net-(U15-QE)*%
X55300000Y-133400000D03*
X64800000Y-128150000D03*
D23*
%TO.N,/Motor_Control/UVW_Phase_Total*%
X150800000Y-124600000D03*
X168500000Y-105500000D03*
X183000000Y-105400000D03*
X150800000Y-118600000D03*
%TD*%
%TA.AperFunction,Conductor*%
%TO.N,/Motor_Control/U_Phase_COM*%
G36*
X159502091Y-84519685D02*
G01*
X159547846Y-84572489D01*
X159557790Y-84641647D01*
X159528765Y-84705203D01*
X159527203Y-84706971D01*
X159517466Y-84717785D01*
X159422821Y-84881715D01*
X159422818Y-84881722D01*
X159364327Y-85061740D01*
X159364326Y-85061744D01*
X159344540Y-85250000D01*
X159364326Y-85438256D01*
X159364327Y-85438259D01*
X159422818Y-85618277D01*
X159422821Y-85618284D01*
X159517467Y-85782216D01*
X159644129Y-85922888D01*
X159797265Y-86034148D01*
X159797270Y-86034151D01*
X159970192Y-86111142D01*
X159970197Y-86111144D01*
X160155354Y-86150500D01*
X160155355Y-86150500D01*
X160344644Y-86150500D01*
X160344646Y-86150500D01*
X160529803Y-86111144D01*
X160702730Y-86034151D01*
X160855871Y-85922888D01*
X160982533Y-85782216D01*
X161077179Y-85618284D01*
X161135674Y-85438256D01*
X161155460Y-85250000D01*
X161135674Y-85061744D01*
X161077179Y-84881716D01*
X160982533Y-84717784D01*
X160972797Y-84706971D01*
X160942568Y-84643980D01*
X160951194Y-84574644D01*
X160995935Y-84520979D01*
X161062588Y-84500022D01*
X161064948Y-84500000D01*
X166993907Y-84500000D01*
X167006061Y-84500597D01*
X167182941Y-84518018D01*
X167206769Y-84522757D01*
X167371001Y-84572576D01*
X167393453Y-84581877D01*
X167544798Y-84662772D01*
X167565008Y-84676276D01*
X167687684Y-84776953D01*
X167697666Y-84785145D01*
X167714854Y-84802333D01*
X167823722Y-84934989D01*
X167837227Y-84955201D01*
X167918121Y-85106543D01*
X167927424Y-85129001D01*
X167977240Y-85293224D01*
X167981982Y-85317065D01*
X167999403Y-85493938D01*
X168000000Y-85506092D01*
X168000000Y-103487010D01*
X167980315Y-103554049D01*
X167948887Y-103587327D01*
X167894128Y-103627112D01*
X167894123Y-103627116D01*
X167767466Y-103767785D01*
X167672821Y-103931715D01*
X167672818Y-103931722D01*
X167614327Y-104111740D01*
X167614326Y-104111744D01*
X167594540Y-104300000D01*
X167614326Y-104488256D01*
X167614327Y-104488259D01*
X167672818Y-104668277D01*
X167672821Y-104668284D01*
X167770716Y-104837844D01*
X167768150Y-104839325D01*
X167787250Y-104893098D01*
X167771327Y-104961129D01*
X167770680Y-104962135D01*
X167770716Y-104962156D01*
X167672821Y-105131715D01*
X167672818Y-105131722D01*
X167614327Y-105311740D01*
X167614326Y-105311744D01*
X167594540Y-105500000D01*
X167614326Y-105688256D01*
X167614327Y-105688259D01*
X167672818Y-105868277D01*
X167672821Y-105868284D01*
X167767467Y-106032216D01*
X167894129Y-106172888D01*
X167948885Y-106212670D01*
X167991551Y-106267999D01*
X168000000Y-106312988D01*
X168000000Y-143500000D01*
X170993907Y-143500000D01*
X171006061Y-143500597D01*
X171182941Y-143518018D01*
X171206769Y-143522757D01*
X171371001Y-143572576D01*
X171393453Y-143581877D01*
X171544798Y-143662772D01*
X171565010Y-143676277D01*
X171697666Y-143785145D01*
X171714854Y-143802333D01*
X171823722Y-143934989D01*
X171837227Y-143955201D01*
X171918121Y-144106543D01*
X171927424Y-144129001D01*
X171977240Y-144293224D01*
X171981982Y-144317065D01*
X171999403Y-144493938D01*
X172000000Y-144506092D01*
X172000000Y-147493907D01*
X171999403Y-147506061D01*
X171981982Y-147682934D01*
X171977240Y-147706775D01*
X171927424Y-147870998D01*
X171918121Y-147893456D01*
X171837227Y-148044798D01*
X171823722Y-148065010D01*
X171714854Y-148197666D01*
X171697666Y-148214854D01*
X171565010Y-148323722D01*
X171544798Y-148337227D01*
X171393456Y-148418121D01*
X171370998Y-148427424D01*
X171206775Y-148477240D01*
X171182934Y-148481982D01*
X171006061Y-148499403D01*
X170993907Y-148500000D01*
X155506093Y-148500000D01*
X155493939Y-148499403D01*
X155317065Y-148481982D01*
X155293224Y-148477240D01*
X155129001Y-148427424D01*
X155106543Y-148418121D01*
X154955201Y-148337227D01*
X154934989Y-148323722D01*
X154802333Y-148214854D01*
X154785145Y-148197666D01*
X154676277Y-148065010D01*
X154662772Y-148044798D01*
X154581878Y-147893456D01*
X154572575Y-147870998D01*
X154522757Y-147706769D01*
X154518018Y-147682941D01*
X154500597Y-147506061D01*
X154500000Y-147493907D01*
X154500000Y-97250000D01*
X159594540Y-97250000D01*
X159614326Y-97438256D01*
X159614327Y-97438259D01*
X159672818Y-97618277D01*
X159672821Y-97618284D01*
X159767467Y-97782216D01*
X159894129Y-97922888D01*
X160047265Y-98034148D01*
X160047270Y-98034151D01*
X160220192Y-98111142D01*
X160220197Y-98111144D01*
X160405354Y-98150500D01*
X160405355Y-98150500D01*
X160594644Y-98150500D01*
X160594646Y-98150500D01*
X160779803Y-98111144D01*
X160952730Y-98034151D01*
X161105871Y-97922888D01*
X161232533Y-97782216D01*
X161327179Y-97618284D01*
X161385674Y-97438256D01*
X161405460Y-97250000D01*
X161385674Y-97061744D01*
X161327179Y-96881716D01*
X161232533Y-96717784D01*
X161105871Y-96577112D01*
X161105870Y-96577111D01*
X160952734Y-96465851D01*
X160952729Y-96465848D01*
X160779807Y-96388857D01*
X160779802Y-96388855D01*
X160634001Y-96357865D01*
X160594646Y-96349500D01*
X160405354Y-96349500D01*
X160372897Y-96356398D01*
X160220197Y-96388855D01*
X160220192Y-96388857D01*
X160047270Y-96465848D01*
X160047265Y-96465851D01*
X159894129Y-96577111D01*
X159767466Y-96717785D01*
X159672821Y-96881715D01*
X159672818Y-96881722D01*
X159614327Y-97061740D01*
X159614326Y-97061744D01*
X159594540Y-97250000D01*
X154500000Y-97250000D01*
X154500000Y-85506092D01*
X154500597Y-85493938D01*
X154506081Y-85438259D01*
X154518018Y-85317056D01*
X154522757Y-85293232D01*
X154572577Y-85128994D01*
X154581875Y-85106549D01*
X154662775Y-84955195D01*
X154676272Y-84934995D01*
X154785149Y-84802328D01*
X154802328Y-84785149D01*
X154934995Y-84676272D01*
X154955195Y-84662775D01*
X155106549Y-84581875D01*
X155128994Y-84572577D01*
X155293232Y-84522757D01*
X155317056Y-84518018D01*
X155493939Y-84500597D01*
X155506093Y-84500000D01*
X159435052Y-84500000D01*
X159502091Y-84519685D01*
G37*
%TD.AperFunction*%
%TD*%
%TA.AperFunction,Conductor*%
%TO.N,/Motor_Control/V_Phase_COM*%
G36*
X174529767Y-84519685D02*
G01*
X174575522Y-84572489D01*
X174585466Y-84641647D01*
X174556441Y-84705203D01*
X174535613Y-84724318D01*
X174394129Y-84827111D01*
X174267466Y-84967785D01*
X174172821Y-85131715D01*
X174172818Y-85131722D01*
X174120341Y-85293232D01*
X174114326Y-85311744D01*
X174094540Y-85500000D01*
X174114326Y-85688256D01*
X174114327Y-85688259D01*
X174172818Y-85868277D01*
X174172821Y-85868284D01*
X174267467Y-86032216D01*
X174394129Y-86172888D01*
X174547265Y-86284148D01*
X174547270Y-86284151D01*
X174720192Y-86361142D01*
X174720197Y-86361144D01*
X174905354Y-86400500D01*
X174905355Y-86400500D01*
X175094644Y-86400500D01*
X175094646Y-86400500D01*
X175279803Y-86361144D01*
X175452730Y-86284151D01*
X175605871Y-86172888D01*
X175732533Y-86032216D01*
X175827179Y-85868284D01*
X175885674Y-85688256D01*
X175905460Y-85500000D01*
X175885674Y-85311744D01*
X175827179Y-85131716D01*
X175732533Y-84967784D01*
X175605871Y-84827112D01*
X175571765Y-84802333D01*
X175464387Y-84724318D01*
X175421721Y-84668988D01*
X175415742Y-84599375D01*
X175448348Y-84537580D01*
X175509186Y-84503223D01*
X175537272Y-84500000D01*
X181493907Y-84500000D01*
X181506061Y-84500597D01*
X181682941Y-84518018D01*
X181706769Y-84522757D01*
X181871001Y-84572576D01*
X181893453Y-84581877D01*
X182044798Y-84662772D01*
X182065010Y-84676277D01*
X182197666Y-84785145D01*
X182214854Y-84802333D01*
X182323722Y-84934989D01*
X182337227Y-84955201D01*
X182418121Y-85106543D01*
X182427424Y-85129001D01*
X182477240Y-85293224D01*
X182481982Y-85317065D01*
X182499403Y-85493938D01*
X182500000Y-85506092D01*
X182500000Y-103587010D01*
X182480315Y-103654049D01*
X182448887Y-103687327D01*
X182394128Y-103727112D01*
X182394123Y-103727116D01*
X182267466Y-103867785D01*
X182172821Y-104031715D01*
X182172818Y-104031722D01*
X182114327Y-104211740D01*
X182114326Y-104211744D01*
X182094540Y-104400000D01*
X182114326Y-104588256D01*
X182114327Y-104588259D01*
X182172818Y-104768277D01*
X182172820Y-104768281D01*
X182172821Y-104768284D01*
X182209732Y-104832216D01*
X182213072Y-104838001D01*
X182229543Y-104905901D01*
X182213072Y-104961999D01*
X182172820Y-105031718D01*
X182172818Y-105031722D01*
X182114327Y-105211740D01*
X182114326Y-105211744D01*
X182094540Y-105400000D01*
X182114326Y-105588256D01*
X182114327Y-105588259D01*
X182172818Y-105768277D01*
X182172821Y-105768284D01*
X182267467Y-105932216D01*
X182394129Y-106072888D01*
X182448885Y-106112670D01*
X182491551Y-106167999D01*
X182500000Y-106212988D01*
X182500000Y-139376237D01*
X182499473Y-139387661D01*
X182484080Y-139554024D01*
X182479887Y-139576485D01*
X182435806Y-139731658D01*
X182427564Y-139752969D01*
X182355759Y-139897420D01*
X182343747Y-139916855D01*
X182246654Y-140045685D01*
X182231280Y-140062588D01*
X182112197Y-140171417D01*
X182093981Y-140185212D01*
X181952074Y-140273373D01*
X181942092Y-140278953D01*
X178052780Y-142223609D01*
X178052771Y-142223614D01*
X177500000Y-142500000D01*
X177500000Y-143118034D01*
X177500000Y-143118039D01*
X177500000Y-147493907D01*
X177499403Y-147506061D01*
X177481982Y-147682934D01*
X177477240Y-147706775D01*
X177427424Y-147870998D01*
X177418121Y-147893456D01*
X177337227Y-148044798D01*
X177323722Y-148065010D01*
X177214854Y-148197666D01*
X177197666Y-148214854D01*
X177065010Y-148323722D01*
X177044798Y-148337227D01*
X176893456Y-148418121D01*
X176870998Y-148427424D01*
X176706775Y-148477240D01*
X176682934Y-148481982D01*
X176506061Y-148499403D01*
X176493907Y-148500000D01*
X174506093Y-148500000D01*
X174493939Y-148499403D01*
X174317065Y-148481982D01*
X174293224Y-148477240D01*
X174129001Y-148427424D01*
X174106543Y-148418121D01*
X173955201Y-148337227D01*
X173934989Y-148323722D01*
X173802333Y-148214854D01*
X173785145Y-148197666D01*
X173676277Y-148065010D01*
X173662772Y-148044798D01*
X173581878Y-147893456D01*
X173572575Y-147870998D01*
X173522757Y-147706769D01*
X173518018Y-147682941D01*
X173500597Y-147506061D01*
X173500000Y-147493907D01*
X173500000Y-143088405D01*
X173500000Y-143088403D01*
X173500000Y-142500000D01*
X172985645Y-142214247D01*
X172985631Y-142214239D01*
X169520122Y-140288955D01*
X169508955Y-140281949D01*
X169351565Y-140171132D01*
X169331766Y-140153774D01*
X169205813Y-140017096D01*
X169190127Y-139995949D01*
X169095873Y-139835764D01*
X169085005Y-139811781D01*
X169026697Y-139635305D01*
X169021138Y-139609569D01*
X169000701Y-139418162D01*
X169000000Y-139404997D01*
X169000000Y-106312988D01*
X169019685Y-106245949D01*
X169051113Y-106212671D01*
X169105871Y-106172888D01*
X169232533Y-106032216D01*
X169327179Y-105868284D01*
X169385674Y-105688256D01*
X169405460Y-105500000D01*
X169385674Y-105311744D01*
X169327179Y-105131716D01*
X169232533Y-104967784D01*
X169229284Y-104962156D01*
X169231929Y-104960628D01*
X169212779Y-104907421D01*
X169228417Y-104839323D01*
X169229344Y-104837879D01*
X169229284Y-104837844D01*
X169269448Y-104768277D01*
X169327179Y-104668284D01*
X169385674Y-104488256D01*
X169405460Y-104300000D01*
X169385674Y-104111744D01*
X169327179Y-103931716D01*
X169232533Y-103767784D01*
X169160089Y-103687327D01*
X169105876Y-103627116D01*
X169105871Y-103627112D01*
X169051113Y-103587327D01*
X169008448Y-103531997D01*
X169000000Y-103487010D01*
X169000000Y-97250000D01*
X174094540Y-97250000D01*
X174114326Y-97438256D01*
X174114327Y-97438259D01*
X174172818Y-97618277D01*
X174172821Y-97618284D01*
X174267467Y-97782216D01*
X174394129Y-97922888D01*
X174547265Y-98034148D01*
X174547270Y-98034151D01*
X174720192Y-98111142D01*
X174720197Y-98111144D01*
X174905354Y-98150500D01*
X174905355Y-98150500D01*
X175094644Y-98150500D01*
X175094646Y-98150500D01*
X175279803Y-98111144D01*
X175452730Y-98034151D01*
X175605871Y-97922888D01*
X175732533Y-97782216D01*
X175827179Y-97618284D01*
X175885674Y-97438256D01*
X175905460Y-97250000D01*
X175885674Y-97061744D01*
X175827179Y-96881716D01*
X175732533Y-96717784D01*
X175605871Y-96577112D01*
X175605870Y-96577111D01*
X175452734Y-96465851D01*
X175452729Y-96465848D01*
X175279807Y-96388857D01*
X175279802Y-96388855D01*
X175134001Y-96357865D01*
X175094646Y-96349500D01*
X174905354Y-96349500D01*
X174872897Y-96356398D01*
X174720197Y-96388855D01*
X174720192Y-96388857D01*
X174547270Y-96465848D01*
X174547265Y-96465851D01*
X174394129Y-96577111D01*
X174267466Y-96717785D01*
X174172821Y-96881715D01*
X174172818Y-96881722D01*
X174114327Y-97061740D01*
X174114326Y-97061744D01*
X174094540Y-97250000D01*
X169000000Y-97250000D01*
X169000000Y-85506092D01*
X169000597Y-85493938D01*
X169018018Y-85317056D01*
X169022757Y-85293232D01*
X169072577Y-85128994D01*
X169081875Y-85106549D01*
X169162775Y-84955195D01*
X169176272Y-84934995D01*
X169285149Y-84802328D01*
X169302328Y-84785149D01*
X169434995Y-84676272D01*
X169455195Y-84662775D01*
X169606549Y-84581875D01*
X169628994Y-84572577D01*
X169793232Y-84522757D01*
X169817056Y-84518018D01*
X169993939Y-84500597D01*
X170006093Y-84500000D01*
X174462728Y-84500000D01*
X174529767Y-84519685D01*
G37*
%TD.AperFunction*%
%TD*%
%TA.AperFunction,Conductor*%
%TO.N,/Motor_Control/W_Phase_COM*%
G36*
X189029767Y-84519685D02*
G01*
X189075522Y-84572489D01*
X189085466Y-84641647D01*
X189056441Y-84705203D01*
X189035613Y-84724318D01*
X188894129Y-84827111D01*
X188767466Y-84967785D01*
X188672821Y-85131715D01*
X188672818Y-85131722D01*
X188620341Y-85293232D01*
X188614326Y-85311744D01*
X188594540Y-85500000D01*
X188614326Y-85688256D01*
X188614327Y-85688259D01*
X188672818Y-85868277D01*
X188672821Y-85868284D01*
X188767467Y-86032216D01*
X188894129Y-86172888D01*
X189047265Y-86284148D01*
X189047270Y-86284151D01*
X189220192Y-86361142D01*
X189220197Y-86361144D01*
X189405354Y-86400500D01*
X189405355Y-86400500D01*
X189594644Y-86400500D01*
X189594646Y-86400500D01*
X189779803Y-86361144D01*
X189952730Y-86284151D01*
X190105871Y-86172888D01*
X190232533Y-86032216D01*
X190327179Y-85868284D01*
X190385674Y-85688256D01*
X190405460Y-85500000D01*
X190385674Y-85311744D01*
X190327179Y-85131716D01*
X190232533Y-84967784D01*
X190105871Y-84827112D01*
X190071765Y-84802333D01*
X189964387Y-84724318D01*
X189921721Y-84668988D01*
X189915742Y-84599375D01*
X189948348Y-84537580D01*
X190009186Y-84503223D01*
X190037272Y-84500000D01*
X195993907Y-84500000D01*
X196006061Y-84500597D01*
X196182941Y-84518018D01*
X196206769Y-84522757D01*
X196371001Y-84572576D01*
X196393453Y-84581877D01*
X196544798Y-84662772D01*
X196565010Y-84676277D01*
X196697666Y-84785145D01*
X196714854Y-84802333D01*
X196823722Y-84934989D01*
X196837227Y-84955201D01*
X196918121Y-85106543D01*
X196927424Y-85129001D01*
X196977240Y-85293224D01*
X196981982Y-85317065D01*
X196999403Y-85493938D01*
X197000000Y-85506092D01*
X197000000Y-142132168D01*
X196980315Y-142199207D01*
X196927511Y-142244962D01*
X196858353Y-142254906D01*
X196812072Y-142238419D01*
X196635480Y-142132168D01*
X196548253Y-142079685D01*
X196548247Y-142079682D01*
X196548244Y-142079680D01*
X196223447Y-141929414D01*
X196223441Y-141929411D01*
X196223435Y-141929409D01*
X196053854Y-141872270D01*
X195884273Y-141815131D01*
X195534744Y-141738194D01*
X195178949Y-141699500D01*
X195178948Y-141699500D01*
X194821052Y-141699500D01*
X194821050Y-141699500D01*
X194465255Y-141738194D01*
X194115726Y-141815131D01*
X193859970Y-141901306D01*
X193776565Y-141929409D01*
X193776563Y-141929410D01*
X193776552Y-141929414D01*
X193451755Y-142079680D01*
X193451751Y-142079682D01*
X193253100Y-142199207D01*
X193145081Y-142264200D01*
X193056768Y-142331333D01*
X192860172Y-142480781D01*
X192860163Y-142480789D01*
X192600331Y-142726914D01*
X192368641Y-142999680D01*
X192368634Y-142999690D01*
X192167790Y-143295913D01*
X192167784Y-143295922D01*
X192000151Y-143612111D01*
X192000142Y-143612129D01*
X191867674Y-143944600D01*
X191867672Y-143944607D01*
X191771932Y-144289434D01*
X191771926Y-144289460D01*
X191714029Y-144642614D01*
X191714028Y-144642631D01*
X191694652Y-144999997D01*
X191694652Y-145000002D01*
X191714028Y-145357368D01*
X191714029Y-145357385D01*
X191771926Y-145710539D01*
X191771932Y-145710565D01*
X191867672Y-146055392D01*
X191867674Y-146055399D01*
X192000142Y-146387870D01*
X192000151Y-146387888D01*
X192167784Y-146704077D01*
X192167790Y-146704086D01*
X192368634Y-147000309D01*
X192368641Y-147000319D01*
X192369377Y-147001185D01*
X192600332Y-147273086D01*
X192860163Y-147519211D01*
X193145081Y-147735800D01*
X193451747Y-147920315D01*
X193451749Y-147920316D01*
X193451751Y-147920317D01*
X193451755Y-147920319D01*
X193546800Y-147964291D01*
X193776565Y-148070591D01*
X194106107Y-148181627D01*
X194115726Y-148184868D01*
X194433880Y-148254899D01*
X194495121Y-148288535D01*
X194528455Y-148349940D01*
X194523299Y-148419619D01*
X194481290Y-148475450D01*
X194415766Y-148499705D01*
X194407224Y-148500000D01*
X180006093Y-148500000D01*
X179993939Y-148499403D01*
X179817065Y-148481982D01*
X179793224Y-148477240D01*
X179629001Y-148427424D01*
X179606543Y-148418121D01*
X179455201Y-148337227D01*
X179434989Y-148323722D01*
X179302333Y-148214854D01*
X179285145Y-148197666D01*
X179176277Y-148065010D01*
X179162772Y-148044798D01*
X179096236Y-147920317D01*
X179081877Y-147893453D01*
X179072575Y-147870998D01*
X179022757Y-147706769D01*
X179018018Y-147682941D01*
X179000597Y-147506061D01*
X179000000Y-147493907D01*
X179000000Y-144506092D01*
X179000597Y-144493938D01*
X179018018Y-144317056D01*
X179022757Y-144293232D01*
X179072577Y-144128994D01*
X179081875Y-144106549D01*
X179162775Y-143955195D01*
X179176272Y-143934995D01*
X179285149Y-143802328D01*
X179302328Y-143785149D01*
X179434995Y-143676272D01*
X179455195Y-143662775D01*
X179606549Y-143581875D01*
X179628994Y-143572577D01*
X179793232Y-143522757D01*
X179817056Y-143518018D01*
X179993939Y-143500597D01*
X180006093Y-143500000D01*
X182499997Y-143500000D01*
X182500000Y-143500000D01*
X183500000Y-143500000D01*
X183500000Y-106212988D01*
X183519685Y-106145949D01*
X183551113Y-106112671D01*
X183605871Y-106072888D01*
X183732533Y-105932216D01*
X183827179Y-105768284D01*
X183885674Y-105588256D01*
X183905460Y-105400000D01*
X183885674Y-105211744D01*
X183827179Y-105031716D01*
X183786927Y-104961999D01*
X183770454Y-104894101D01*
X183786927Y-104838001D01*
X183827179Y-104768284D01*
X183885674Y-104588256D01*
X183905460Y-104400000D01*
X183885674Y-104211744D01*
X183827179Y-104031716D01*
X183732533Y-103867784D01*
X183682922Y-103812686D01*
X183605876Y-103727116D01*
X183605871Y-103727112D01*
X183551113Y-103687327D01*
X183508448Y-103631997D01*
X183500000Y-103587010D01*
X183500000Y-97250000D01*
X188594540Y-97250000D01*
X188614326Y-97438256D01*
X188614327Y-97438259D01*
X188672818Y-97618277D01*
X188672821Y-97618284D01*
X188767467Y-97782216D01*
X188894129Y-97922888D01*
X189047265Y-98034148D01*
X189047270Y-98034151D01*
X189220192Y-98111142D01*
X189220197Y-98111144D01*
X189405354Y-98150500D01*
X189405355Y-98150500D01*
X189594644Y-98150500D01*
X189594646Y-98150500D01*
X189779803Y-98111144D01*
X189952730Y-98034151D01*
X190105871Y-97922888D01*
X190232533Y-97782216D01*
X190327179Y-97618284D01*
X190385674Y-97438256D01*
X190405460Y-97250000D01*
X190385674Y-97061744D01*
X190327179Y-96881716D01*
X190232533Y-96717784D01*
X190105871Y-96577112D01*
X190105870Y-96577111D01*
X189952734Y-96465851D01*
X189952729Y-96465848D01*
X189779807Y-96388857D01*
X189779802Y-96388855D01*
X189634001Y-96357865D01*
X189594646Y-96349500D01*
X189405354Y-96349500D01*
X189372897Y-96356398D01*
X189220197Y-96388855D01*
X189220192Y-96388857D01*
X189047270Y-96465848D01*
X189047265Y-96465851D01*
X188894129Y-96577111D01*
X188767466Y-96717785D01*
X188672821Y-96881715D01*
X188672818Y-96881722D01*
X188614327Y-97061740D01*
X188614326Y-97061744D01*
X188594540Y-97250000D01*
X183500000Y-97250000D01*
X183500000Y-85506092D01*
X183500597Y-85493938D01*
X183518018Y-85317056D01*
X183522757Y-85293232D01*
X183572577Y-85128994D01*
X183581875Y-85106549D01*
X183662775Y-84955195D01*
X183676272Y-84934995D01*
X183785149Y-84802328D01*
X183802328Y-84785149D01*
X183934995Y-84676272D01*
X183955195Y-84662775D01*
X184106549Y-84581875D01*
X184128994Y-84572577D01*
X184293232Y-84522757D01*
X184317056Y-84518018D01*
X184493939Y-84500597D01*
X184506093Y-84500000D01*
X188962728Y-84500000D01*
X189029767Y-84519685D01*
G37*
%TD.AperFunction*%
%TD*%
M02*
