%TF.GenerationSoftware,KiCad,Pcbnew,8.0.4*%
%TF.CreationDate,2024-09-01T16:51:36+03:00*%
%TF.ProjectId,STM32_Motor_Kit_v0.1,53544d33-325f-44d6-9f74-6f725f4b6974,rev?*%
%TF.SameCoordinates,Original*%
%TF.FileFunction,Paste,Top*%
%TF.FilePolarity,Positive*%
%FSLAX46Y46*%
G04 Gerber Fmt 4.6, Leading zero omitted, Abs format (unit mm)*
G04 Created by KiCad (PCBNEW 8.0.4) date 2024-09-01 16:51:36*
%MOMM*%
%LPD*%
G01*
G04 APERTURE LIST*
G04 Aperture macros list*
%AMRoundRect*
0 Rectangle with rounded corners*
0 $1 Rounding radius*
0 $2 $3 $4 $5 $6 $7 $8 $9 X,Y pos of 4 corners*
0 Add a 4 corners polygon primitive as box body*
4,1,4,$2,$3,$4,$5,$6,$7,$8,$9,$2,$3,0*
0 Add four circle primitives for the rounded corners*
1,1,$1+$1,$2,$3*
1,1,$1+$1,$4,$5*
1,1,$1+$1,$6,$7*
1,1,$1+$1,$8,$9*
0 Add four rect primitives between the rounded corners*
20,1,$1+$1,$2,$3,$4,$5,0*
20,1,$1+$1,$4,$5,$6,$7,0*
20,1,$1+$1,$6,$7,$8,$9,0*
20,1,$1+$1,$8,$9,$2,$3,0*%
G04 Aperture macros list end*
%ADD10RoundRect,0.180000X-0.270000X-0.320000X0.270000X-0.320000X0.270000X0.320000X-0.270000X0.320000X0*%
%ADD11RoundRect,0.325000X0.325000X0.325000X-0.325000X0.325000X-0.325000X-0.325000X0.325000X-0.325000X0*%
%ADD12RoundRect,0.180000X-0.320000X0.270000X-0.320000X-0.270000X0.320000X-0.270000X0.320000X0.270000X0*%
%ADD13RoundRect,0.150000X0.825000X0.150000X-0.825000X0.150000X-0.825000X-0.150000X0.825000X-0.150000X0*%
%ADD14RoundRect,0.180000X0.270000X0.320000X-0.270000X0.320000X-0.270000X-0.320000X0.270000X-0.320000X0*%
%ADD15RoundRect,0.162500X-0.162500X0.487500X-0.162500X-0.487500X0.162500X-0.487500X0.162500X0.487500X0*%
%ADD16RoundRect,0.200000X0.200000X0.300000X-0.200000X0.300000X-0.200000X-0.300000X0.200000X-0.300000X0*%
%ADD17RoundRect,0.180000X0.320000X-0.270000X0.320000X0.270000X-0.320000X0.270000X-0.320000X-0.270000X0*%
%ADD18RoundRect,0.325000X0.337500X0.325000X-0.337500X0.325000X-0.337500X-0.325000X0.337500X-0.325000X0*%
%ADD19R,0.900000X0.600000*%
%ADD20R,0.600000X0.900000*%
%ADD21RoundRect,0.150000X-0.150000X-0.425000X0.150000X-0.425000X0.150000X0.425000X-0.150000X0.425000X0*%
%ADD22RoundRect,0.325000X-0.325000X-0.325000X0.325000X-0.325000X0.325000X0.325000X-0.325000X0.325000X0*%
%ADD23RoundRect,0.325000X-0.337500X-0.325000X0.337500X-0.325000X0.337500X0.325000X-0.337500X0.325000X0*%
%ADD24RoundRect,0.350000X-1.150000X-0.350000X1.150000X-0.350000X1.150000X0.350000X-1.150000X0.350000X0*%
%ADD25RoundRect,0.200000X-0.300000X-0.200000X0.300000X-0.200000X0.300000X0.200000X-0.300000X0.200000X0*%
%ADD26RoundRect,0.240000X-0.610000X0.360000X-0.610000X-0.360000X0.610000X-0.360000X0.610000X0.360000X0*%
%ADD27RoundRect,0.750000X-1.250000X-0.750000X1.250000X-0.750000X1.250000X0.750000X-1.250000X0.750000X0*%
%ADD28RoundRect,0.150000X-0.825000X-0.150000X0.825000X-0.150000X0.825000X0.150000X-0.825000X0.150000X0*%
%ADD29RoundRect,0.240000X-0.360000X-0.610000X0.360000X-0.610000X0.360000X0.610000X-0.360000X0.610000X0*%
%ADD30RoundRect,0.750000X0.750000X-1.250000X0.750000X1.250000X-0.750000X1.250000X-0.750000X-1.250000X0*%
%ADD31RoundRect,0.375000X0.625000X0.375000X-0.625000X0.375000X-0.625000X-0.375000X0.625000X-0.375000X0*%
%ADD32RoundRect,0.325000X0.325000X-0.325000X0.325000X0.325000X-0.325000X0.325000X-0.325000X-0.325000X0*%
%ADD33RoundRect,0.400000X-1.300000X0.600000X-1.300000X-0.600000X1.300000X-0.600000X1.300000X0.600000X0*%
%ADD34RoundRect,0.125000X0.125000X1.125000X-0.125000X1.125000X-0.125000X-1.125000X0.125000X-1.125000X0*%
%ADD35RoundRect,0.500000X0.500000X0.750000X-0.500000X0.750000X-0.500000X-0.750000X0.500000X-0.750000X0*%
%ADD36RoundRect,0.325000X0.325000X-0.337500X0.325000X0.337500X-0.325000X0.337500X-0.325000X-0.337500X0*%
%ADD37RoundRect,0.750000X0.750000X1.750000X-0.750000X1.750000X-0.750000X-1.750000X0.750000X-1.750000X0*%
%ADD38RoundRect,0.100000X-0.637500X-0.100000X0.637500X-0.100000X0.637500X0.100000X-0.637500X0.100000X0*%
%ADD39RoundRect,0.500000X0.550000X0.500000X-0.550000X0.500000X-0.550000X-0.500000X0.550000X-0.500000X0*%
%ADD40RoundRect,0.200000X-0.200000X0.250000X-0.200000X-0.250000X0.200000X-0.250000X0.200000X0.250000X0*%
%ADD41RoundRect,0.150000X-0.150000X0.825000X-0.150000X-0.825000X0.150000X-0.825000X0.150000X0.825000X0*%
%ADD42RoundRect,0.150000X-0.725000X-0.150000X0.725000X-0.150000X0.725000X0.150000X-0.725000X0.150000X0*%
%ADD43RoundRect,0.500000X-0.550000X-0.500000X0.550000X-0.500000X0.550000X0.500000X-0.550000X0.500000X0*%
%ADD44RoundRect,0.375000X0.375000X-0.625000X0.375000X0.625000X-0.375000X0.625000X-0.375000X-0.625000X0*%
%ADD45RoundRect,0.500000X1.400000X-0.500000X1.400000X0.500000X-1.400000X0.500000X-1.400000X-0.500000X0*%
%ADD46R,2.750000X3.050000*%
%ADD47RoundRect,0.350000X0.350000X-0.900000X0.350000X0.900000X-0.350000X0.900000X-0.350000X-0.900000X0*%
%ADD48RoundRect,0.075000X0.075000X-0.700000X0.075000X0.700000X-0.075000X0.700000X-0.075000X-0.700000X0*%
%ADD49RoundRect,0.075000X0.700000X-0.075000X0.700000X0.075000X-0.700000X0.075000X-0.700000X-0.075000X0*%
%ADD50RoundRect,0.750000X1.750000X-0.750000X1.750000X0.750000X-1.750000X0.750000X-1.750000X-0.750000X0*%
%ADD51RoundRect,0.200000X0.800000X1.700000X-0.800000X1.700000X-0.800000X-1.700000X0.800000X-1.700000X0*%
%ADD52RoundRect,0.200000X-0.200000X0.300000X-0.200000X-0.300000X0.200000X-0.300000X0.200000X0.300000X0*%
%ADD53RoundRect,0.750000X1.250000X0.750000X-1.250000X0.750000X-1.250000X-0.750000X1.250000X-0.750000X0*%
%ADD54RoundRect,0.200000X0.250000X0.200000X-0.250000X0.200000X-0.250000X-0.200000X0.250000X-0.200000X0*%
%ADD55RoundRect,0.240000X0.610000X-0.360000X0.610000X0.360000X-0.610000X0.360000X-0.610000X-0.360000X0*%
G04 APERTURE END LIST*
D10*
%TO.C,R50*%
X85150000Y45000000D03*
X86850000Y45000000D03*
%TD*%
D11*
%TO.C,D9*%
X750000Y54250000D03*
X-2750000Y54250000D03*
%TD*%
D12*
%TO.C,R24*%
X21750000Y12100000D03*
X21750000Y10400000D03*
%TD*%
D13*
%TO.C,U3*%
X72475000Y64095000D03*
X72475000Y65365000D03*
X72475000Y66635000D03*
X72475000Y67905000D03*
X67525000Y67905000D03*
X67525000Y66635000D03*
X67525000Y65365000D03*
X67525000Y64095000D03*
%TD*%
D14*
%TO.C,R106*%
X-1650000Y59000000D03*
X-3350000Y59000000D03*
%TD*%
D15*
%TO.C,U17*%
X5550000Y78350000D03*
X4600000Y78350000D03*
X3650000Y78350000D03*
X3650000Y75650000D03*
X4600000Y75650000D03*
X5550000Y75650000D03*
%TD*%
D10*
%TO.C,R63*%
X47150000Y21000000D03*
X48850000Y21000000D03*
%TD*%
D12*
%TO.C,C95*%
X35000000Y13350000D03*
X35000000Y11650000D03*
%TD*%
D16*
%TO.C,L3*%
X5200000Y71100000D03*
X5200000Y72900000D03*
X4000000Y72900000D03*
X4000000Y71100000D03*
%TD*%
D14*
%TO.C,C2*%
X20350000Y37750000D03*
X18650000Y37750000D03*
%TD*%
D17*
%TO.C,R80*%
X31000000Y26650000D03*
X31000000Y28350000D03*
%TD*%
D18*
%TO.C,D38*%
X-4000000Y15000000D03*
X-6000000Y15000000D03*
%TD*%
D14*
%TO.C,C17*%
X69300000Y69800000D03*
X67600000Y69800000D03*
%TD*%
%TO.C,C111*%
X64850000Y30750000D03*
X63150000Y30750000D03*
%TD*%
D19*
%TO.C,Q6*%
X122850000Y46500000D03*
X124000000Y46500000D03*
X125150000Y46500000D03*
X122850000Y47350000D03*
X124000000Y47350000D03*
X125150000Y47350000D03*
X122850000Y48200000D03*
X124000000Y48200000D03*
X125150000Y48200000D03*
D20*
X122120000Y50050000D03*
X123400000Y50050000D03*
X124600000Y50050000D03*
X125880000Y50050000D03*
D21*
X122090000Y44330000D03*
X123360000Y44330000D03*
X124640000Y44330000D03*
X125910000Y44330000D03*
%TD*%
D10*
%TO.C,R32*%
X85600000Y16900000D03*
X87300000Y16900000D03*
%TD*%
D12*
%TO.C,C28*%
X61750000Y84100000D03*
X61750000Y82400000D03*
%TD*%
D10*
%TO.C,C89*%
X88150000Y6750000D03*
X89850000Y6750000D03*
%TD*%
%TO.C,R9*%
X63150000Y66000000D03*
X64850000Y66000000D03*
%TD*%
D17*
%TO.C,C102*%
X3250000Y24900000D03*
X3250000Y26600000D03*
%TD*%
D22*
%TO.C,D3*%
X11950000Y82950000D03*
X15450000Y82950000D03*
%TD*%
D14*
%TO.C,R12*%
X63350000Y80750000D03*
X61650000Y80750000D03*
%TD*%
D10*
%TO.C,C69*%
X79600000Y24900000D03*
X81300000Y24900000D03*
%TD*%
%TO.C,C87*%
X73000000Y9250000D03*
X74700000Y9250000D03*
%TD*%
D23*
%TO.C,D8*%
X27500000Y74250000D03*
X29500000Y74250000D03*
%TD*%
D10*
%TO.C,C107*%
X79600000Y32400000D03*
X81300000Y32400000D03*
%TD*%
D17*
%TO.C,R53*%
X75200000Y27300000D03*
X75200000Y29000000D03*
%TD*%
D14*
%TO.C,C35*%
X-1400000Y47750000D03*
X-3100000Y47750000D03*
%TD*%
D17*
%TO.C,C27*%
X48750000Y68650000D03*
X48750000Y70350000D03*
%TD*%
D14*
%TO.C,R68*%
X60350000Y29000000D03*
X58650000Y29000000D03*
%TD*%
D24*
%TO.C,SW3*%
X-8000000Y28000000D03*
X0Y28000000D03*
X-8000000Y23500000D03*
X0Y23500000D03*
%TD*%
D17*
%TO.C,R82*%
X32500000Y26650000D03*
X32500000Y28350000D03*
%TD*%
D25*
%TO.C,D15*%
X84950000Y57750000D03*
X87050000Y57750000D03*
%TD*%
D10*
%TO.C,R42*%
X76600000Y18400000D03*
X78300000Y18400000D03*
%TD*%
D17*
%TO.C,R55*%
X75200000Y15300000D03*
X75200000Y17000000D03*
%TD*%
D10*
%TO.C,R38*%
X76600000Y30400000D03*
X78300000Y30400000D03*
%TD*%
%TO.C,R15*%
X31150000Y68250000D03*
X32850000Y68250000D03*
%TD*%
D12*
%TO.C,R103*%
X4750000Y26600000D03*
X4750000Y24900000D03*
%TD*%
D10*
%TO.C,C68*%
X79600000Y22400000D03*
X81300000Y22400000D03*
%TD*%
D14*
%TO.C,R13*%
X63350000Y85750000D03*
X61650000Y85750000D03*
%TD*%
D17*
%TO.C,C12*%
X28950000Y80949999D03*
X28950000Y82649999D03*
%TD*%
D19*
%TO.C,Q4*%
X108350000Y46500000D03*
X109500000Y46500000D03*
X110650000Y46500000D03*
X108350000Y47350000D03*
X109500000Y47350000D03*
X110650000Y47350000D03*
X108350000Y48200000D03*
X109500000Y48200000D03*
X110650000Y48200000D03*
D20*
X107620000Y50050000D03*
X108900000Y50050000D03*
X110100000Y50050000D03*
X111380000Y50050000D03*
D21*
X107590000Y44330000D03*
X108860000Y44330000D03*
X110140000Y44330000D03*
X111410000Y44330000D03*
%TD*%
D26*
%TO.C,C90*%
X77250000Y6500000D03*
X77250000Y3500000D03*
%TD*%
D12*
%TO.C,C49*%
X64700000Y58250000D03*
X64700000Y56550000D03*
%TD*%
D26*
%TO.C,C16*%
X17700000Y86200000D03*
X17700000Y83200000D03*
%TD*%
D27*
%TO.C,D26*%
X131000000Y50400000D03*
X131000000Y43600000D03*
%TD*%
D17*
%TO.C,R93*%
X-2000000Y17750000D03*
X-2000000Y19450000D03*
%TD*%
D27*
%TO.C,D25*%
X131000000Y62400000D03*
X131000000Y55600000D03*
%TD*%
D28*
%TO.C,U8*%
X67525000Y47905000D03*
X67525000Y46635000D03*
X67525000Y45365000D03*
X67525000Y44095000D03*
X72475000Y44095000D03*
X72475000Y45365000D03*
X72475000Y46635000D03*
X72475000Y47905000D03*
%TD*%
D26*
%TO.C,C54*%
X75550000Y48100000D03*
X75550000Y45100000D03*
%TD*%
D29*
%TO.C,C74*%
X-3500000Y-3500000D03*
X-500000Y-3500000D03*
%TD*%
D14*
%TO.C,C8*%
X34100000Y51500000D03*
X32400000Y51500000D03*
%TD*%
D27*
%TO.C,D17*%
X102000000Y62400000D03*
X102000000Y55600000D03*
%TD*%
D18*
%TO.C,D44*%
X-4000000Y2000000D03*
X-6000000Y2000000D03*
%TD*%
D17*
%TO.C,R48*%
X75200000Y18300000D03*
X75200000Y20000000D03*
%TD*%
D12*
%TO.C,C46*%
X63200000Y58250000D03*
X63200000Y56550000D03*
%TD*%
D10*
%TO.C,R29*%
X85600000Y30400000D03*
X87300000Y30400000D03*
%TD*%
%TO.C,R28*%
X85600000Y28900000D03*
X87300000Y28900000D03*
%TD*%
%TO.C,R30*%
X85600000Y22900000D03*
X87300000Y22900000D03*
%TD*%
D12*
%TO.C,C4*%
X14250000Y44600000D03*
X14250000Y42900000D03*
%TD*%
%TO.C,C39*%
X22500000Y16350000D03*
X22500000Y14650000D03*
%TD*%
%TO.C,C37*%
X13500000Y26350000D03*
X13500000Y24650000D03*
%TD*%
D24*
%TO.C,SW2*%
X-8000000Y36000000D03*
X0Y36000000D03*
X-8000000Y31500000D03*
X0Y31500000D03*
%TD*%
D12*
%TO.C,FB2*%
X31750000Y15100000D03*
X31750000Y13400000D03*
%TD*%
D23*
%TO.C,D7*%
X27500000Y72250000D03*
X29500000Y72250000D03*
%TD*%
D30*
%TO.C,D29*%
X115850000Y5750000D03*
X122650000Y5750000D03*
%TD*%
D17*
%TO.C,R8*%
X12200000Y84850000D03*
X12200000Y86550000D03*
%TD*%
D31*
%TO.C,Y1*%
X23150000Y35000000D03*
X19350000Y35000000D03*
X19350000Y32500000D03*
X23150000Y32500000D03*
%TD*%
D14*
%TO.C,R111*%
X-1650000Y65000000D03*
X-3350000Y65000000D03*
%TD*%
D12*
%TO.C,R25*%
X18750000Y12100000D03*
X18750000Y10400000D03*
%TD*%
%TO.C,R22*%
X24500000Y22850000D03*
X24500000Y21150000D03*
%TD*%
D14*
%TO.C,R11*%
X75850000Y85250000D03*
X74150000Y85250000D03*
%TD*%
D32*
%TO.C,D33*%
X7800000Y75250000D03*
X7800000Y78750000D03*
%TD*%
D12*
%TO.C,C110*%
X63200000Y64350000D03*
X63200000Y62650000D03*
%TD*%
D10*
%TO.C,C70*%
X79600000Y16400000D03*
X81300000Y16400000D03*
%TD*%
D14*
%TO.C,R110*%
X-1650000Y68000000D03*
X-3350000Y68000000D03*
%TD*%
%TO.C,C79*%
X60350000Y26000000D03*
X58650000Y26000000D03*
%TD*%
D25*
%TO.C,D16*%
X84950000Y53750000D03*
X87050000Y53750000D03*
%TD*%
D33*
%TO.C,R36*%
X98500000Y39400000D03*
X98500000Y33600000D03*
%TD*%
D10*
%TO.C,R20*%
X-3100000Y50750000D03*
X-1400000Y50750000D03*
%TD*%
%TO.C,R17*%
X31150000Y72250000D03*
X32850000Y72250000D03*
%TD*%
D13*
%TO.C,U10*%
X72475000Y28095000D03*
X72475000Y29365000D03*
X72475000Y30635000D03*
X72475000Y31905000D03*
X67525000Y31905000D03*
X67525000Y30635000D03*
X67525000Y29365000D03*
X67525000Y28095000D03*
%TD*%
D17*
%TO.C,R54*%
X75200000Y21300000D03*
X75200000Y23000000D03*
%TD*%
D34*
%TO.C,J8*%
X5800000Y82400000D03*
X5000000Y82400000D03*
X4200000Y82400000D03*
X3400000Y82400000D03*
X2600000Y82400000D03*
D35*
X8600000Y82400000D03*
X8600000Y87900000D03*
X-200000Y82400000D03*
X-200000Y87900000D03*
%TD*%
D10*
%TO.C,R40*%
X76600000Y24400000D03*
X78300000Y24400000D03*
%TD*%
D36*
%TO.C,D45*%
X8500000Y64000000D03*
X8500000Y66000000D03*
%TD*%
D25*
%TO.C,D19*%
X84950000Y50250000D03*
X87050000Y50250000D03*
%TD*%
D14*
%TO.C,C13*%
X77050000Y63800000D03*
X75350000Y63800000D03*
%TD*%
D17*
%TO.C,C94*%
X30000000Y14900000D03*
X30000000Y16600000D03*
%TD*%
%TO.C,R89*%
X27500000Y37650000D03*
X27500000Y39350000D03*
%TD*%
D14*
%TO.C,R112*%
X-1650000Y66500000D03*
X-3350000Y66500000D03*
%TD*%
D10*
%TO.C,R49*%
X85150000Y48500000D03*
X86850000Y48500000D03*
%TD*%
%TO.C,C24*%
X67900000Y79000000D03*
X69600000Y79000000D03*
%TD*%
D25*
%TO.C,D24*%
X84950000Y39750000D03*
X87050000Y39750000D03*
%TD*%
D12*
%TO.C,C32*%
X34200000Y87950000D03*
X34200000Y86250000D03*
%TD*%
D14*
%TO.C,C77*%
X64850000Y15750000D03*
X63150000Y15750000D03*
%TD*%
%TO.C,R85*%
X-1650000Y75500000D03*
X-3350000Y75500000D03*
%TD*%
D29*
%TO.C,R3*%
X78900000Y63200000D03*
X81900000Y63200000D03*
%TD*%
D12*
%TO.C,R21*%
X15500000Y26350000D03*
X15500000Y24650000D03*
%TD*%
D10*
%TO.C,R41*%
X76600000Y16900000D03*
X78300000Y16900000D03*
%TD*%
D14*
%TO.C,R77*%
X89850000Y5250000D03*
X88150000Y5250000D03*
%TD*%
D12*
%TO.C,C20*%
X13700000Y86550000D03*
X13700000Y84850000D03*
%TD*%
D17*
%TO.C,R92*%
X-6500000Y17750000D03*
X-6500000Y19450000D03*
%TD*%
%TO.C,R97*%
X-9500000Y17750000D03*
X-9500000Y19450000D03*
%TD*%
D10*
%TO.C,R65*%
X58650000Y24500000D03*
X60350000Y24500000D03*
%TD*%
%TO.C,R4*%
X75350000Y65300000D03*
X77050000Y65300000D03*
%TD*%
D27*
%TO.C,D21*%
X116500000Y62400000D03*
X116500000Y55600000D03*
%TD*%
D25*
%TO.C,D20*%
X84950000Y46750000D03*
X87050000Y46750000D03*
%TD*%
D13*
%TO.C,U11*%
X72475000Y22095000D03*
X72475000Y23365000D03*
X72475000Y24635000D03*
X72475000Y25905000D03*
X67525000Y25905000D03*
X67525000Y24635000D03*
X67525000Y23365000D03*
X67525000Y22095000D03*
%TD*%
D26*
%TO.C,C52*%
X75700000Y58100000D03*
X75700000Y55100000D03*
%TD*%
D10*
%TO.C,R39*%
X76600000Y22900000D03*
X78300000Y22900000D03*
%TD*%
D14*
%TO.C,R107*%
X-1650000Y60500000D03*
X-3350000Y60500000D03*
%TD*%
D12*
%TO.C,TH3*%
X31500000Y5355000D03*
X31500000Y3655000D03*
%TD*%
D14*
%TO.C,C7*%
X34100000Y53000000D03*
X32400000Y53000000D03*
%TD*%
D37*
%TO.C,L1*%
X98700000Y71750000D03*
X90700000Y71750000D03*
%TD*%
D10*
%TO.C,R37*%
X76600000Y28900000D03*
X78300000Y28900000D03*
%TD*%
%TO.C,C5*%
X27400000Y40750000D03*
X29100000Y40750000D03*
%TD*%
D14*
%TO.C,R73*%
X67350000Y3750000D03*
X65650000Y3750000D03*
%TD*%
D23*
%TO.C,D6*%
X27500000Y70250000D03*
X29500000Y70250000D03*
%TD*%
D25*
%TO.C,D23*%
X84950000Y43250000D03*
X87050000Y43250000D03*
%TD*%
D17*
%TO.C,R74*%
X85250000Y5150000D03*
X85250000Y6850000D03*
%TD*%
D10*
%TO.C,C109*%
X79600000Y20400000D03*
X81300000Y20400000D03*
%TD*%
D14*
%TO.C,R100*%
X15850000Y76750000D03*
X14150000Y76750000D03*
%TD*%
D38*
%TO.C,U13*%
X65137500Y9200000D03*
X65137500Y8550000D03*
X65137500Y7900000D03*
X65137500Y7250000D03*
X65137500Y6600000D03*
X65137500Y5950000D03*
X65137500Y5300000D03*
X70862500Y5300000D03*
X70862500Y5950000D03*
X70862500Y6600000D03*
X70862500Y7250000D03*
X70862500Y7900000D03*
X70862500Y8550000D03*
X70862500Y9200000D03*
%TD*%
D12*
%TO.C,C30*%
X63250000Y84100000D03*
X63250000Y82400000D03*
%TD*%
D17*
%TO.C,C23*%
X39250000Y68650000D03*
X39250000Y70350000D03*
%TD*%
D14*
%TO.C,R104*%
X-1650000Y72500000D03*
X-3350000Y72500000D03*
%TD*%
%TO.C,C96*%
X33350000Y11750000D03*
X31650000Y11750000D03*
%TD*%
D17*
%TO.C,C42*%
X20250000Y10400000D03*
X20250000Y12100000D03*
%TD*%
D14*
%TO.C,R115*%
X-1650000Y62000000D03*
X-3350000Y62000000D03*
%TD*%
D29*
%TO.C,R26*%
X126250000Y81350000D03*
X129250000Y81350000D03*
%TD*%
D10*
%TO.C,R18*%
X31150000Y74250000D03*
X32850000Y74250000D03*
%TD*%
%TO.C,R56*%
X63150000Y32250000D03*
X64850000Y32250000D03*
%TD*%
D36*
%TO.C,D39*%
X-8500000Y10500000D03*
X-8500000Y12500000D03*
%TD*%
D12*
%TO.C,R90*%
X8550000Y2950000D03*
X8550000Y1250000D03*
%TD*%
D10*
%TO.C,C67*%
X79600000Y30900000D03*
X81300000Y30900000D03*
%TD*%
D39*
%TO.C,D13*%
X72250000Y51000000D03*
X67750000Y51000000D03*
%TD*%
D10*
%TO.C,C25*%
X74150000Y86750000D03*
X75850000Y86750000D03*
%TD*%
%TO.C,C108*%
X79600000Y26400000D03*
X81300000Y26400000D03*
%TD*%
D17*
%TO.C,C63*%
X82700000Y28800000D03*
X82700000Y30500000D03*
%TD*%
D12*
%TO.C,TH2*%
X33500000Y5355000D03*
X33500000Y3655000D03*
%TD*%
D17*
%TO.C,C14*%
X27450000Y80949999D03*
X27450000Y82649999D03*
%TD*%
D14*
%TO.C,R105*%
X-1650000Y74000000D03*
X-3350000Y74000000D03*
%TD*%
D25*
%TO.C,D36*%
X31450000Y7255000D03*
X33550000Y7255000D03*
%TD*%
D10*
%TO.C,R67*%
X58650000Y18500000D03*
X60350000Y18500000D03*
%TD*%
D17*
%TO.C,R76*%
X86750000Y5150000D03*
X86750000Y6850000D03*
%TD*%
D30*
%TO.C,D27*%
X110100000Y12750000D03*
X116900000Y12750000D03*
%TD*%
D14*
%TO.C,C73*%
X64850000Y18750000D03*
X63150000Y18750000D03*
%TD*%
%TO.C,C40*%
X21100000Y14750000D03*
X19400000Y14750000D03*
%TD*%
D12*
%TO.C,C97*%
X30000000Y13350000D03*
X30000000Y11650000D03*
%TD*%
D40*
%TO.C,D10*%
X21200000Y8750000D03*
X19300000Y8750000D03*
X20250000Y6750000D03*
%TD*%
D14*
%TO.C,C88*%
X83850000Y6750000D03*
X82150000Y6750000D03*
%TD*%
D10*
%TO.C,R60*%
X85150000Y38000000D03*
X86850000Y38000000D03*
%TD*%
%TO.C,R5*%
X75350000Y66800000D03*
X77050000Y66800000D03*
%TD*%
%TO.C,R6*%
X106650000Y78500000D03*
X108350000Y78500000D03*
%TD*%
D39*
%TO.C,D14*%
X72250000Y41000000D03*
X67750000Y41000000D03*
%TD*%
D26*
%TO.C,C115*%
X132750000Y82250000D03*
X132750000Y79250000D03*
%TD*%
D33*
%TO.C,R61*%
X127500000Y39400000D03*
X127500000Y33600000D03*
%TD*%
D10*
%TO.C,C38*%
X19400000Y26500000D03*
X21100000Y26500000D03*
%TD*%
D25*
%TO.C,D11*%
X19200000Y4750000D03*
X21300000Y4750000D03*
%TD*%
D12*
%TO.C,FB1*%
X33250000Y15100000D03*
X33250000Y13400000D03*
%TD*%
%TO.C,C50*%
X64700000Y48250000D03*
X64700000Y46550000D03*
%TD*%
D41*
%TO.C,U6*%
X22155000Y23975000D03*
X20885000Y23975000D03*
X19615000Y23975000D03*
X18345000Y23975000D03*
X18345000Y19025000D03*
X19615000Y19025000D03*
X20885000Y19025000D03*
X22155000Y19025000D03*
%TD*%
D42*
%TO.C,U15*%
X4475000Y13945000D03*
X4475000Y12675000D03*
X4475000Y11405000D03*
X4475000Y10135000D03*
X4475000Y8865000D03*
X4475000Y7595000D03*
X4475000Y6325000D03*
X4475000Y5055000D03*
X9625000Y5055000D03*
X9625000Y6325000D03*
X9625000Y7595000D03*
X9625000Y8865000D03*
X9625000Y10135000D03*
X9625000Y11405000D03*
X9625000Y12675000D03*
X9625000Y13945000D03*
%TD*%
D29*
%TO.C,R27*%
X126250000Y78750000D03*
X129250000Y78750000D03*
%TD*%
D43*
%TO.C,D4*%
X66500000Y76000000D03*
X71000000Y76000000D03*
%TD*%
D44*
%TO.C,U2*%
X20400000Y81550000D03*
X22700000Y81550000D03*
X25000000Y81550000D03*
D45*
X22700000Y87850000D03*
%TD*%
D10*
%TO.C,R10*%
X74150000Y83750000D03*
X75850000Y83750000D03*
%TD*%
D17*
%TO.C,C93*%
X35000000Y14900000D03*
X35000000Y16600000D03*
%TD*%
D14*
%TO.C,R83*%
X60350000Y17000000D03*
X58650000Y17000000D03*
%TD*%
D10*
%TO.C,R1*%
X8400000Y44000000D03*
X10100000Y44000000D03*
%TD*%
D26*
%TO.C,C56*%
X75550000Y38100000D03*
X75550000Y35100000D03*
%TD*%
D10*
%TO.C,R58*%
X63150000Y20250000D03*
X64850000Y20250000D03*
%TD*%
%TO.C,R16*%
X31150000Y70250000D03*
X32850000Y70250000D03*
%TD*%
D12*
%TO.C,C91*%
X64000000Y3600000D03*
X64000000Y1900000D03*
%TD*%
D10*
%TO.C,C83*%
X32400000Y44250000D03*
X34100000Y44250000D03*
%TD*%
D17*
%TO.C,C62*%
X84200000Y16800000D03*
X84200000Y18500000D03*
%TD*%
%TO.C,R102*%
X14500000Y64150000D03*
X14500000Y65850000D03*
%TD*%
D14*
%TO.C,C86*%
X62850000Y9250000D03*
X61150000Y9250000D03*
%TD*%
D12*
%TO.C,C51*%
X64700000Y38250000D03*
X64700000Y36550000D03*
%TD*%
D17*
%TO.C,C60*%
X84200000Y28800000D03*
X84200000Y30500000D03*
%TD*%
D14*
%TO.C,C76*%
X64850000Y21750000D03*
X63150000Y21750000D03*
%TD*%
D12*
%TO.C,C104*%
X9800000Y77850000D03*
X9800000Y76150000D03*
%TD*%
D19*
%TO.C,Q5*%
X122850000Y58335000D03*
X124000000Y58335000D03*
X125150000Y58335000D03*
X122850000Y59185000D03*
X124000000Y59185000D03*
X125150000Y59185000D03*
X122850000Y60035000D03*
X124000000Y60035000D03*
X125150000Y60035000D03*
D20*
X122120000Y61885000D03*
X123400000Y61885000D03*
X124600000Y61885000D03*
X125880000Y61885000D03*
D21*
X122090000Y56165000D03*
X123360000Y56165000D03*
X124640000Y56165000D03*
X125910000Y56165000D03*
%TD*%
D27*
%TO.C,D22*%
X116500000Y50400000D03*
X116500000Y43600000D03*
%TD*%
D12*
%TO.C,C21*%
X74250000Y82100000D03*
X74250000Y80400000D03*
%TD*%
D10*
%TO.C,C82*%
X32400000Y46000000D03*
X34100000Y46000000D03*
%TD*%
%TO.C,R59*%
X85150000Y41500000D03*
X86850000Y41500000D03*
%TD*%
D46*
%TO.C,U5*%
X42475000Y71925000D03*
X45525000Y71925000D03*
X42475000Y75275000D03*
X45525000Y75275000D03*
D47*
X41720000Y67300000D03*
X46280000Y67300000D03*
%TD*%
D14*
%TO.C,C84*%
X10100000Y47000000D03*
X8400000Y47000000D03*
%TD*%
D10*
%TO.C,R75*%
X82150000Y5250000D03*
X83850000Y5250000D03*
%TD*%
D36*
%TO.C,D40*%
X-1500000Y10500000D03*
X-1500000Y12500000D03*
%TD*%
D10*
%TO.C,R14*%
X61650000Y87250000D03*
X63350000Y87250000D03*
%TD*%
D36*
%TO.C,D43*%
X-1500000Y4500000D03*
X-1500000Y6500000D03*
%TD*%
D10*
%TO.C,R69*%
X58650000Y30500000D03*
X60350000Y30500000D03*
%TD*%
D14*
%TO.C,R108*%
X-1650000Y57500000D03*
X-3350000Y57500000D03*
%TD*%
D10*
%TO.C,C66*%
X79600000Y28400000D03*
X81300000Y28400000D03*
%TD*%
D12*
%TO.C,R88*%
X54250000Y6932500D03*
X54250000Y5232500D03*
%TD*%
D14*
%TO.C,R114*%
X-1650000Y71000000D03*
X-3350000Y71000000D03*
%TD*%
%TO.C,C36*%
X-1400000Y52250000D03*
X-3100000Y52250000D03*
%TD*%
%TO.C,R113*%
X-1650000Y78500000D03*
X-3350000Y78500000D03*
%TD*%
D23*
%TO.C,D5*%
X27500000Y68250000D03*
X29500000Y68250000D03*
%TD*%
D12*
%TO.C,C34*%
X31200000Y87950000D03*
X31200000Y86250000D03*
%TD*%
D14*
%TO.C,R79*%
X85350000Y3500000D03*
X83650000Y3500000D03*
%TD*%
D10*
%TO.C,C3*%
X22050000Y37750000D03*
X23750000Y37750000D03*
%TD*%
D19*
%TO.C,Q3*%
X108350000Y58335000D03*
X109500000Y58335000D03*
X110650000Y58335000D03*
X108350000Y59185000D03*
X109500000Y59185000D03*
X110650000Y59185000D03*
X108350000Y60035000D03*
X109500000Y60035000D03*
X110650000Y60035000D03*
D20*
X107620000Y61885000D03*
X108900000Y61885000D03*
X110100000Y61885000D03*
X111380000Y61885000D03*
D21*
X107590000Y56165000D03*
X108860000Y56165000D03*
X110140000Y56165000D03*
X111410000Y56165000D03*
%TD*%
D17*
%TO.C,R23*%
X24500000Y17900000D03*
X24500000Y19600000D03*
%TD*%
D14*
%TO.C,R66*%
X60350000Y23000000D03*
X58650000Y23000000D03*
%TD*%
D17*
%TO.C,R95*%
X-8000000Y17750000D03*
X-8000000Y19450000D03*
%TD*%
D12*
%TO.C,C15*%
X64700000Y64350000D03*
X64700000Y62650000D03*
%TD*%
D10*
%TO.C,R19*%
X-3100000Y49250000D03*
X-1400000Y49250000D03*
%TD*%
D12*
%TO.C,C112*%
X57250000Y30600000D03*
X57250000Y28900000D03*
%TD*%
D19*
%TO.C,Q1*%
X93850000Y58335000D03*
X95000000Y58335000D03*
X96150000Y58335000D03*
X93850000Y59185000D03*
X95000000Y59185000D03*
X96150000Y59185000D03*
X93850000Y60035000D03*
X95000000Y60035000D03*
X96150000Y60035000D03*
D20*
X93120000Y61885000D03*
X94400000Y61885000D03*
X95600000Y61885000D03*
X96880000Y61885000D03*
D21*
X93090000Y56165000D03*
X94360000Y56165000D03*
X95640000Y56165000D03*
X96910000Y56165000D03*
%TD*%
D17*
%TO.C,R84*%
X29500000Y26650000D03*
X29500000Y28350000D03*
%TD*%
D33*
%TO.C,R51*%
X113500000Y39400000D03*
X113500000Y33600000D03*
%TD*%
D10*
%TO.C,C100*%
X20650000Y68000000D03*
X22350000Y68000000D03*
%TD*%
D12*
%TO.C,C98*%
X26000000Y39350000D03*
X26000000Y37650000D03*
%TD*%
D17*
%TO.C,C64*%
X82700000Y22800000D03*
X82700000Y24500000D03*
%TD*%
D14*
%TO.C,R45*%
X78300000Y25900000D03*
X76600000Y25900000D03*
%TD*%
D39*
%TO.C,D12*%
X72250000Y61000000D03*
X67750000Y61000000D03*
%TD*%
D17*
%TO.C,C41*%
X18000000Y14650000D03*
X18000000Y16350000D03*
%TD*%
D14*
%TO.C,C78*%
X60350000Y32000000D03*
X58650000Y32000000D03*
%TD*%
D48*
%TO.C,U1*%
X19000000Y43325000D03*
X19500000Y43325000D03*
X20000000Y43325000D03*
X20500000Y43325000D03*
X21000000Y43325000D03*
X21500000Y43325000D03*
X22000000Y43325000D03*
X22500000Y43325000D03*
X23000000Y43325000D03*
X23500000Y43325000D03*
X24000000Y43325000D03*
X24500000Y43325000D03*
X25000000Y43325000D03*
X25500000Y43325000D03*
X26000000Y43325000D03*
X26500000Y43325000D03*
D49*
X28425000Y45250000D03*
X28425000Y45750000D03*
X28425000Y46250000D03*
X28425000Y46750000D03*
X28425000Y47250000D03*
X28425000Y47750000D03*
X28425000Y48250000D03*
X28425000Y48750000D03*
X28425000Y49250000D03*
X28425000Y49750000D03*
X28425000Y50250000D03*
X28425000Y50750000D03*
X28425000Y51250000D03*
X28425000Y51750000D03*
X28425000Y52250000D03*
X28425000Y52750000D03*
D48*
X26500000Y54675000D03*
X26000000Y54675000D03*
X25500000Y54675000D03*
X25000000Y54675000D03*
X24500000Y54675000D03*
X24000000Y54675000D03*
X23500000Y54675000D03*
X23000000Y54675000D03*
X22500000Y54675000D03*
X22000000Y54675000D03*
X21500000Y54675000D03*
X21000000Y54675000D03*
X20500000Y54675000D03*
X20000000Y54675000D03*
X19500000Y54675000D03*
X19000000Y54675000D03*
D49*
X17075000Y52750000D03*
X17075000Y52250000D03*
X17075000Y51750000D03*
X17075000Y51250000D03*
X17075000Y50750000D03*
X17075000Y50250000D03*
X17075000Y49750000D03*
X17075000Y49250000D03*
X17075000Y48750000D03*
X17075000Y48250000D03*
X17075000Y47750000D03*
X17075000Y47250000D03*
X17075000Y46750000D03*
X17075000Y46250000D03*
X17075000Y45750000D03*
X17075000Y45250000D03*
%TD*%
D36*
%TO.C,D42*%
X-8500000Y4500000D03*
X-8500000Y6500000D03*
%TD*%
D10*
%TO.C,R99*%
X17150000Y76750000D03*
X18850000Y76750000D03*
%TD*%
D28*
%TO.C,U9*%
X67525000Y37905000D03*
X67525000Y36635000D03*
X67525000Y35365000D03*
X67525000Y34095000D03*
X72475000Y34095000D03*
X72475000Y35365000D03*
X72475000Y36635000D03*
X72475000Y37905000D03*
%TD*%
D17*
%TO.C,R44*%
X75200000Y30300000D03*
X75200000Y32000000D03*
%TD*%
D14*
%TO.C,C80*%
X60350000Y20000000D03*
X58650000Y20000000D03*
%TD*%
D12*
%TO.C,R117*%
X35500000Y28350000D03*
X35500000Y26650000D03*
%TD*%
D17*
%TO.C,C61*%
X84200000Y22800000D03*
X84200000Y24500000D03*
%TD*%
D10*
%TO.C,R34*%
X85150000Y55750000D03*
X86850000Y55750000D03*
%TD*%
D17*
%TO.C,C29*%
X50250000Y68650000D03*
X50250000Y70350000D03*
%TD*%
D14*
%TO.C,C85*%
X10100000Y45500000D03*
X8400000Y45500000D03*
%TD*%
%TO.C,R116*%
X-1650000Y63500000D03*
X-3350000Y63500000D03*
%TD*%
D18*
%TO.C,D41*%
X-4000000Y8500000D03*
X-6000000Y8500000D03*
%TD*%
D10*
%TO.C,R7*%
X70600000Y69800000D03*
X72300000Y69800000D03*
%TD*%
D18*
%TO.C,D1*%
X112250000Y78500000D03*
X110250000Y78500000D03*
%TD*%
D14*
%TO.C,C10*%
X34100000Y54500000D03*
X32400000Y54500000D03*
%TD*%
D50*
%TO.C,L2*%
X54750000Y78000000D03*
X54750000Y86000000D03*
%TD*%
D14*
%TO.C,C75*%
X64850000Y28000000D03*
X63150000Y28000000D03*
%TD*%
D41*
%TO.C,U16*%
X18405000Y73725000D03*
X17135000Y73725000D03*
X15865000Y73725000D03*
X14595000Y73725000D03*
X14595000Y68775000D03*
X15865000Y68775000D03*
X17135000Y68775000D03*
X18405000Y68775000D03*
%TD*%
D14*
%TO.C,R70*%
X62850000Y7750000D03*
X61150000Y7750000D03*
%TD*%
D10*
%TO.C,R35*%
X85150000Y52000000D03*
X86850000Y52000000D03*
%TD*%
D41*
%TO.C,U14*%
X34405000Y23975000D03*
X33135000Y23975000D03*
X31865000Y23975000D03*
X30595000Y23975000D03*
X30595000Y19025000D03*
X31865000Y19025000D03*
X33135000Y19025000D03*
X34405000Y19025000D03*
%TD*%
D10*
%TO.C,R33*%
X85600000Y18400000D03*
X87300000Y18400000D03*
%TD*%
D14*
%TO.C,R47*%
X78300000Y19900000D03*
X76600000Y19900000D03*
%TD*%
D17*
%TO.C,R101*%
X16500000Y64150000D03*
X16500000Y65850000D03*
%TD*%
D13*
%TO.C,U12*%
X72475000Y16095000D03*
X72475000Y17365000D03*
X72475000Y18635000D03*
X72475000Y19905000D03*
X67525000Y19905000D03*
X67525000Y18635000D03*
X67525000Y17365000D03*
X67525000Y16095000D03*
%TD*%
D10*
%TO.C,C71*%
X79600000Y18900000D03*
X81300000Y18900000D03*
%TD*%
D14*
%TO.C,R72*%
X70350000Y3750000D03*
X68650000Y3750000D03*
%TD*%
D17*
%TO.C,R46*%
X75200000Y24300000D03*
X75200000Y26000000D03*
%TD*%
D12*
%TO.C,C47*%
X63200000Y48250000D03*
X63200000Y46550000D03*
%TD*%
D27*
%TO.C,D18*%
X102000000Y50650000D03*
X102000000Y43850000D03*
%TD*%
D14*
%TO.C,R86*%
X-1650000Y77000000D03*
X-3350000Y77000000D03*
%TD*%
D13*
%TO.C,U4*%
X71225000Y81095000D03*
X71225000Y82365000D03*
X71225000Y83635000D03*
X71225000Y84905000D03*
X66275000Y84905000D03*
X66275000Y83635000D03*
X66275000Y82365000D03*
X66275000Y81095000D03*
D51*
X68750000Y83100000D03*
%TD*%
D28*
%TO.C,U7*%
X67525000Y57905000D03*
X67525000Y56635000D03*
X67525000Y55365000D03*
X67525000Y54095000D03*
X72475000Y54095000D03*
X72475000Y55365000D03*
X72475000Y56635000D03*
X72475000Y57905000D03*
%TD*%
D52*
%TO.C,D32*%
X75000000Y6050000D03*
X75000000Y3950000D03*
%TD*%
D17*
%TO.C,R94*%
X-5000000Y17750000D03*
X-5000000Y19450000D03*
%TD*%
%TO.C,R81*%
X34000000Y26650000D03*
X34000000Y28350000D03*
%TD*%
D12*
%TO.C,C113*%
X57250000Y24600000D03*
X57250000Y22900000D03*
%TD*%
D14*
%TO.C,C9*%
X18100000Y56750000D03*
X16400000Y56750000D03*
%TD*%
D17*
%TO.C,R91*%
X-3500000Y17750000D03*
X-3500000Y19450000D03*
%TD*%
D33*
%TO.C,R52*%
X113500000Y30150000D03*
X113500000Y24350000D03*
%TD*%
D14*
%TO.C,R43*%
X78300000Y31900000D03*
X76600000Y31900000D03*
%TD*%
D10*
%TO.C,C81*%
X32400000Y47750000D03*
X34100000Y47750000D03*
%TD*%
%TO.C,R64*%
X47150000Y15000000D03*
X48850000Y15000000D03*
%TD*%
D19*
%TO.C,Q2*%
X93850000Y46500000D03*
X95000000Y46500000D03*
X96150000Y46500000D03*
X93850000Y47350000D03*
X95000000Y47350000D03*
X96150000Y47350000D03*
X93850000Y48200000D03*
X95000000Y48200000D03*
X96150000Y48200000D03*
D20*
X93120000Y50050000D03*
X94400000Y50050000D03*
X95600000Y50050000D03*
X96880000Y50050000D03*
D21*
X93090000Y44330000D03*
X94360000Y44330000D03*
X95640000Y44330000D03*
X96910000Y44330000D03*
%TD*%
D12*
%TO.C,C48*%
X63200000Y38250000D03*
X63200000Y36550000D03*
%TD*%
D10*
%TO.C,R78*%
X86650000Y3500000D03*
X88350000Y3500000D03*
%TD*%
D53*
%TO.C,D2*%
X80500000Y79100000D03*
X80500000Y85900000D03*
%TD*%
D12*
%TO.C,C106*%
X6600000Y72850000D03*
X6600000Y71150000D03*
%TD*%
D10*
%TO.C,R62*%
X47150000Y27000000D03*
X48850000Y27000000D03*
%TD*%
D17*
%TO.C,R98*%
X10250000Y64150000D03*
X10250000Y65850000D03*
%TD*%
%TO.C,C101*%
X50750000Y5232500D03*
X50750000Y6932500D03*
%TD*%
D10*
%TO.C,R31*%
X85600000Y24400000D03*
X87300000Y24400000D03*
%TD*%
D12*
%TO.C,C33*%
X32700000Y87950000D03*
X32700000Y86250000D03*
%TD*%
D14*
%TO.C,R71*%
X62850000Y6250000D03*
X61150000Y6250000D03*
%TD*%
D22*
%TO.C,D37*%
X50750000Y9082500D03*
X54250000Y9082500D03*
%TD*%
D17*
%TO.C,C99*%
X10000000Y16400000D03*
X10000000Y18100000D03*
%TD*%
%TO.C,C26*%
X37750000Y68650000D03*
X37750000Y70350000D03*
%TD*%
D10*
%TO.C,C6*%
X16400000Y40750000D03*
X18100000Y40750000D03*
%TD*%
D12*
%TO.C,C18*%
X15200000Y86550000D03*
X15200000Y84850000D03*
%TD*%
D10*
%TO.C,C92*%
X36900000Y18250000D03*
X38600000Y18250000D03*
%TD*%
D17*
%TO.C,R96*%
X-500000Y17750000D03*
X-500000Y19450000D03*
%TD*%
D14*
%TO.C,R109*%
X-1650000Y69500000D03*
X-3350000Y69500000D03*
%TD*%
D17*
%TO.C,C65*%
X82700000Y16800000D03*
X82700000Y18500000D03*
%TD*%
D54*
%TO.C,Q7*%
X6550000Y1150000D03*
X6550000Y3050000D03*
X4550000Y2100000D03*
%TD*%
D29*
%TO.C,R87*%
X31000000Y9655000D03*
X34000000Y9655000D03*
%TD*%
D10*
%TO.C,R57*%
X63150000Y26250000D03*
X64850000Y26250000D03*
%TD*%
%TO.C,C22*%
X32400000Y49500000D03*
X34100000Y49500000D03*
%TD*%
D12*
%TO.C,C105*%
X2600000Y72850000D03*
X2600000Y71150000D03*
%TD*%
%TO.C,R2*%
X4750000Y34600000D03*
X4750000Y32900000D03*
%TD*%
%TO.C,C114*%
X57250000Y18600000D03*
X57250000Y16900000D03*
%TD*%
D30*
%TO.C,D28*%
X103850000Y5750000D03*
X110650000Y5750000D03*
%TD*%
D14*
%TO.C,C72*%
X64850000Y24750000D03*
X63150000Y24750000D03*
%TD*%
D55*
%TO.C,TH1*%
X79750000Y3500000D03*
X79750000Y6500000D03*
%TD*%
D17*
%TO.C,C1*%
X3250000Y32900000D03*
X3250000Y34600000D03*
%TD*%
M02*
