%TF.GenerationSoftware,KiCad,Pcbnew,8.0.4*%
%TF.CreationDate,2024-09-01T17:29:22+03:00*%
%TF.ProjectId,STM32_Motor_Kit_v0.1,53544d33-325f-44d6-9f74-6f725f4b6974,rev?*%
%TF.SameCoordinates,Original*%
%TF.FileFunction,Legend,Bot*%
%TF.FilePolarity,Positive*%
%FSLAX45Y45*%
G04 Gerber Fmt 4.5, Leading zero omitted, Abs format (unit mm)*
G04 Created by KiCad (PCBNEW 8.0.4) date 2024-09-01 17:29:22*
%MOMM*%
%LPD*%
G01*
G04 APERTURE LIST*
G04 Aperture macros list*
%AMRoundRect*
0 Rectangle with rounded corners*
0 $1 Rounding radius*
0 $2 $3 $4 $5 $6 $7 $8 $9 X,Y pos of 4 corners*
0 Add a 4 corners polygon primitive as box body*
4,1,4,$2,$3,$4,$5,$6,$7,$8,$9,$2,$3,0*
0 Add four circle primitives for the rounded corners*
1,1,$1+$1,$2,$3*
1,1,$1+$1,$4,$5*
1,1,$1+$1,$6,$7*
1,1,$1+$1,$8,$9*
0 Add four rect primitives between the rounded corners*
20,1,$1+$1,$2,$3,$4,$5,0*
20,1,$1+$1,$4,$5,$6,$7,0*
20,1,$1+$1,$6,$7,$8,$9,0*
20,1,$1+$1,$8,$9,$2,$3,0*%
%AMFreePoly0*
4,1,25,-0.800000,0.400000,-0.780423,0.523607,-0.723607,0.635114,-0.635114,0.723607,-0.523607,0.780423,-0.400000,0.800000,0.400000,0.800000,0.523607,0.780423,0.635114,0.723607,0.723607,0.635114,0.780423,0.523607,0.800000,0.400000,0.800000,-0.400000,0.780423,-0.523607,0.723607,-0.635114,0.635114,-0.723607,0.523607,-0.780423,0.400000,-0.800000,-0.400000,-0.800000,-0.523607,-0.780423,
-0.635114,-0.723607,-0.723607,-0.635114,-0.780423,-0.523607,-0.800000,-0.400000,-0.800000,0.400000,-0.800000,0.400000,$1*%
G04 Aperture macros list end*
%ADD10R,1.700000X1.700000*%
%ADD11O,1.700000X1.700000*%
%ADD12R,1.600000X1.600000*%
%ADD13C,1.600000*%
%ADD14RoundRect,0.400000X0.400000X0.400000X-0.400000X0.400000X-0.400000X-0.400000X0.400000X-0.400000X0*%
%ADD15C,0.800000*%
%ADD16C,5.600000*%
%ADD17R,2.000000X2.000000*%
%ADD18C,2.000000*%
%ADD19O,1.600000X1.600000*%
%ADD20C,0.900000*%
%ADD21R,2.600000X2.600000*%
%ADD22C,2.600000*%
%ADD23O,2.500000X4.000000*%
%ADD24FreePoly0,180.000000*%
%ADD25O,3.000000X4.000000*%
G04 APERTURE END LIST*
%LPC*%
D10*
%TO.C,JP13*%
X10025000Y-12052500D03*
D11*
X10025000Y-11798500D03*
%TD*%
D12*
%TO.C,C57*%
X14245000Y-10325000D03*
D13*
X14245000Y-10625000D03*
%TD*%
D10*
%TO.C,JP4*%
X8402500Y-11225000D03*
D11*
X8148500Y-11225000D03*
%TD*%
D12*
%TO.C,C43*%
X12170000Y-8369489D03*
D13*
X12170000Y-8619489D03*
%TD*%
D14*
%TO.C,J2*%
X5573500Y-9555000D03*
X5319500Y-9555000D03*
X5573500Y-9301000D03*
X5319500Y-9301000D03*
X5573500Y-9047000D03*
X5319500Y-9047000D03*
X5573500Y-8793000D03*
X5319500Y-8793000D03*
%TD*%
D15*
%TO.C,H2*%
X19280000Y-5500000D03*
X19350000Y-5350000D03*
X19350000Y-5650000D03*
X19500000Y-5280000D03*
D16*
X19500000Y-5500000D03*
D15*
X19500000Y-5720000D03*
X19650000Y-5350000D03*
X19650000Y-5650000D03*
X19720000Y-5500000D03*
%TD*%
D10*
%TO.C,JP10*%
X11702500Y-12350000D03*
D11*
X11448500Y-12350000D03*
%TD*%
D17*
%TO.C,C19*%
X14425000Y-6738232D03*
D18*
X14425000Y-7238232D03*
%TD*%
D10*
%TO.C,JP6*%
X11702500Y-8450000D03*
D11*
X11448500Y-8450000D03*
%TD*%
D12*
%TO.C,C45*%
X12170000Y-10409489D03*
D13*
X12170000Y-10659489D03*
%TD*%
D12*
%TO.C,SW1*%
X6225000Y-10075000D03*
D19*
X5463000Y-10075000D03*
%TD*%
D17*
%TO.C,C58*%
X18075000Y-7211768D03*
D18*
X18075000Y-6711768D03*
%TD*%
D12*
%TO.C,C53*%
X14245000Y-8325000D03*
D13*
X14245000Y-8625000D03*
%TD*%
D10*
%TO.C,JP12*%
X13307500Y-12950000D03*
D11*
X13561500Y-12950000D03*
%TD*%
D20*
%TO.C,J8*%
X6890000Y-5650000D03*
X6450000Y-5650000D03*
%TD*%
D17*
%TO.C,C59*%
X19175000Y-7211768D03*
D18*
X19175000Y-6711768D03*
%TD*%
D15*
%TO.C,H4*%
X19280000Y-14500000D03*
X19350000Y-14350000D03*
X19350000Y-14650000D03*
X19500000Y-14280000D03*
D16*
X19500000Y-14500000D03*
D15*
X19500000Y-14720000D03*
X19650000Y-14350000D03*
X19650000Y-14650000D03*
X19720000Y-14500000D03*
%TD*%
D12*
%TO.C,C31*%
X10640000Y-5459735D03*
D13*
X10640000Y-5959735D03*
%TD*%
D21*
%TO.C,J3*%
X8175000Y-14480500D03*
D22*
X8675000Y-14480500D03*
%TD*%
D10*
%TO.C,JP7*%
X11705000Y-9500000D03*
D11*
X11451000Y-9500000D03*
%TD*%
D21*
%TO.C,J5*%
X13100000Y-14500000D03*
D22*
X13600000Y-14500000D03*
X14100000Y-14500000D03*
X14600000Y-14500000D03*
X15100000Y-14500000D03*
%TD*%
D23*
%TO.C,F1*%
X16613000Y-5600000D03*
X18137000Y-5600000D03*
%TD*%
D21*
%TO.C,J1*%
X15675000Y-5519500D03*
D22*
X15175000Y-5519500D03*
%TD*%
D10*
%TO.C,JP15*%
X8400000Y-7077500D03*
D11*
X8400000Y-6823500D03*
%TD*%
D21*
%TO.C,J4*%
X17100000Y-14500000D03*
D22*
X17600000Y-14500000D03*
X18100000Y-14500000D03*
%TD*%
D12*
%TO.C,C44*%
X12170000Y-9389489D03*
D13*
X12170000Y-9639489D03*
%TD*%
D10*
%TO.C,JP3*%
X11702500Y-7540000D03*
D11*
X11448500Y-7540000D03*
%TD*%
D15*
%TO.C,H3*%
X5280000Y-14500000D03*
X5350000Y-14350000D03*
X5350000Y-14650000D03*
X5500000Y-14280000D03*
D16*
X5500000Y-14500000D03*
D15*
X5500000Y-14720000D03*
X5650000Y-14350000D03*
X5650000Y-14650000D03*
X5720000Y-14500000D03*
%TD*%
D10*
%TO.C,JP9*%
X11702500Y-11750000D03*
D11*
X11448500Y-11750000D03*
%TD*%
D24*
%TO.C,J6*%
X5575000Y-8233000D03*
D14*
X5321000Y-8233000D03*
X5575000Y-7979000D03*
X5321000Y-7979000D03*
X5575000Y-7725000D03*
X5321000Y-7725000D03*
X5575000Y-7471000D03*
X5321000Y-7471000D03*
X5575000Y-7217000D03*
X5321000Y-7217000D03*
X5575000Y-6963000D03*
X5321000Y-6963000D03*
X5575000Y-6709000D03*
X5321000Y-6709000D03*
X5575000Y-6455000D03*
X5321000Y-6455000D03*
X5575000Y-6201000D03*
X5321000Y-6201000D03*
%TD*%
D15*
%TO.C,H1*%
X5280000Y-5500000D03*
X5350000Y-5350000D03*
X5350000Y-5650000D03*
X5500000Y-5280000D03*
D16*
X5500000Y-5500000D03*
D15*
X5500000Y-5720000D03*
X5650000Y-5350000D03*
X5650000Y-5650000D03*
X5720000Y-5500000D03*
%TD*%
D10*
%TO.C,JP2*%
X10010000Y-5877500D03*
D11*
X10010000Y-5623500D03*
%TD*%
D25*
%TO.C,RV1*%
X11000000Y-14500000D03*
X11500000Y-14500000D03*
X12000000Y-14500000D03*
%TD*%
D17*
%TO.C,C103*%
X16980000Y-7211768D03*
D18*
X16980000Y-6711768D03*
%TD*%
D10*
%TO.C,JP1*%
X9702500Y-8400000D03*
D11*
X9448500Y-8400000D03*
%TD*%
D10*
%TO.C,JP5*%
X11702500Y-10550000D03*
D11*
X11448500Y-10550000D03*
%TD*%
D10*
%TO.C,JP14*%
X6950000Y-12400000D03*
D11*
X6950000Y-12146000D03*
%TD*%
D21*
%TO.C,J7*%
X9325000Y-14480500D03*
D22*
X9825000Y-14480500D03*
%TD*%
D10*
%TO.C,JP8*%
X11702500Y-11150000D03*
D11*
X11448500Y-11150000D03*
%TD*%
D12*
%TO.C,C11*%
X9520000Y-6090511D03*
D13*
X9520000Y-5840511D03*
%TD*%
D10*
%TO.C,JP11*%
X12522500Y-12950000D03*
D11*
X12776500Y-12950000D03*
%TD*%
D12*
%TO.C,C55*%
X14245000Y-9325000D03*
D13*
X14245000Y-9625000D03*
%TD*%
%LPD*%
M02*
