%TF.GenerationSoftware,KiCad,Pcbnew,8.0.4*%
%TF.CreationDate,2024-09-01T17:29:21+03:00*%
%TF.ProjectId,STM32_Motor_Kit_v0.1,53544d33-325f-44d6-9f74-6f725f4b6974,rev?*%
%TF.SameCoordinates,Original*%
%TF.FileFunction,Paste,Top*%
%TF.FilePolarity,Positive*%
%FSLAX45Y45*%
G04 Gerber Fmt 4.5, Leading zero omitted, Abs format (unit mm)*
G04 Created by KiCad (PCBNEW 8.0.4) date 2024-09-01 17:29:21*
%MOMM*%
%LPD*%
G01*
G04 APERTURE LIST*
G04 Aperture macros list*
%AMRoundRect*
0 Rectangle with rounded corners*
0 $1 Rounding radius*
0 $2 $3 $4 $5 $6 $7 $8 $9 X,Y pos of 4 corners*
0 Add a 4 corners polygon primitive as box body*
4,1,4,$2,$3,$4,$5,$6,$7,$8,$9,$2,$3,0*
0 Add four circle primitives for the rounded corners*
1,1,$1+$1,$2,$3*
1,1,$1+$1,$4,$5*
1,1,$1+$1,$6,$7*
1,1,$1+$1,$8,$9*
0 Add four rect primitives between the rounded corners*
20,1,$1+$1,$2,$3,$4,$5,0*
20,1,$1+$1,$4,$5,$6,$7,0*
20,1,$1+$1,$6,$7,$8,$9,0*
20,1,$1+$1,$8,$9,$2,$3,0*%
G04 Aperture macros list end*
%ADD10RoundRect,0.180000X-0.270000X-0.320000X0.270000X-0.320000X0.270000X0.320000X-0.270000X0.320000X0*%
%ADD11RoundRect,0.325000X0.325000X0.325000X-0.325000X0.325000X-0.325000X-0.325000X0.325000X-0.325000X0*%
%ADD12RoundRect,0.180000X-0.320000X0.270000X-0.320000X-0.270000X0.320000X-0.270000X0.320000X0.270000X0*%
%ADD13RoundRect,0.150000X0.825000X0.150000X-0.825000X0.150000X-0.825000X-0.150000X0.825000X-0.150000X0*%
%ADD14RoundRect,0.180000X0.270000X0.320000X-0.270000X0.320000X-0.270000X-0.320000X0.270000X-0.320000X0*%
%ADD15RoundRect,0.162500X-0.162500X0.487500X-0.162500X-0.487500X0.162500X-0.487500X0.162500X0.487500X0*%
%ADD16RoundRect,0.200000X0.200000X0.300000X-0.200000X0.300000X-0.200000X-0.300000X0.200000X-0.300000X0*%
%ADD17RoundRect,0.180000X0.320000X-0.270000X0.320000X0.270000X-0.320000X0.270000X-0.320000X-0.270000X0*%
%ADD18RoundRect,0.325000X0.337500X0.325000X-0.337500X0.325000X-0.337500X-0.325000X0.337500X-0.325000X0*%
%ADD19R,0.900000X0.600000*%
%ADD20R,0.600000X0.900000*%
%ADD21RoundRect,0.150000X-0.150000X-0.425000X0.150000X-0.425000X0.150000X0.425000X-0.150000X0.425000X0*%
%ADD22RoundRect,0.325000X-0.325000X-0.325000X0.325000X-0.325000X0.325000X0.325000X-0.325000X0.325000X0*%
%ADD23RoundRect,0.325000X-0.337500X-0.325000X0.337500X-0.325000X0.337500X0.325000X-0.337500X0.325000X0*%
%ADD24RoundRect,0.350000X-1.150000X-0.350000X1.150000X-0.350000X1.150000X0.350000X-1.150000X0.350000X0*%
%ADD25RoundRect,0.200000X-0.300000X-0.200000X0.300000X-0.200000X0.300000X0.200000X-0.300000X0.200000X0*%
%ADD26RoundRect,0.240000X-0.610000X0.360000X-0.610000X-0.360000X0.610000X-0.360000X0.610000X0.360000X0*%
%ADD27RoundRect,0.750000X-1.250000X-0.750000X1.250000X-0.750000X1.250000X0.750000X-1.250000X0.750000X0*%
%ADD28RoundRect,0.150000X-0.825000X-0.150000X0.825000X-0.150000X0.825000X0.150000X-0.825000X0.150000X0*%
%ADD29RoundRect,0.240000X-0.360000X-0.610000X0.360000X-0.610000X0.360000X0.610000X-0.360000X0.610000X0*%
%ADD30RoundRect,0.750000X0.750000X-1.250000X0.750000X1.250000X-0.750000X1.250000X-0.750000X-1.250000X0*%
%ADD31RoundRect,0.375000X0.625000X0.375000X-0.625000X0.375000X-0.625000X-0.375000X0.625000X-0.375000X0*%
%ADD32RoundRect,0.325000X0.325000X-0.325000X0.325000X0.325000X-0.325000X0.325000X-0.325000X-0.325000X0*%
%ADD33RoundRect,0.400000X-1.300000X0.600000X-1.300000X-0.600000X1.300000X-0.600000X1.300000X0.600000X0*%
%ADD34RoundRect,0.125000X0.125000X1.125000X-0.125000X1.125000X-0.125000X-1.125000X0.125000X-1.125000X0*%
%ADD35RoundRect,0.500000X0.500000X0.750000X-0.500000X0.750000X-0.500000X-0.750000X0.500000X-0.750000X0*%
%ADD36RoundRect,0.325000X0.325000X-0.337500X0.325000X0.337500X-0.325000X0.337500X-0.325000X-0.337500X0*%
%ADD37RoundRect,0.750000X0.750000X1.750000X-0.750000X1.750000X-0.750000X-1.750000X0.750000X-1.750000X0*%
%ADD38RoundRect,0.100000X-0.637500X-0.100000X0.637500X-0.100000X0.637500X0.100000X-0.637500X0.100000X0*%
%ADD39RoundRect,0.500000X0.550000X0.500000X-0.550000X0.500000X-0.550000X-0.500000X0.550000X-0.500000X0*%
%ADD40RoundRect,0.200000X-0.200000X0.250000X-0.200000X-0.250000X0.200000X-0.250000X0.200000X0.250000X0*%
%ADD41RoundRect,0.150000X-0.150000X0.825000X-0.150000X-0.825000X0.150000X-0.825000X0.150000X0.825000X0*%
%ADD42RoundRect,0.150000X-0.725000X-0.150000X0.725000X-0.150000X0.725000X0.150000X-0.725000X0.150000X0*%
%ADD43RoundRect,0.500000X-0.550000X-0.500000X0.550000X-0.500000X0.550000X0.500000X-0.550000X0.500000X0*%
%ADD44RoundRect,0.375000X0.375000X-0.625000X0.375000X0.625000X-0.375000X0.625000X-0.375000X-0.625000X0*%
%ADD45RoundRect,0.500000X1.400000X-0.500000X1.400000X0.500000X-1.400000X0.500000X-1.400000X-0.500000X0*%
%ADD46R,2.750000X3.050000*%
%ADD47RoundRect,0.350000X0.350000X-0.900000X0.350000X0.900000X-0.350000X0.900000X-0.350000X-0.900000X0*%
%ADD48RoundRect,0.075000X0.075000X-0.700000X0.075000X0.700000X-0.075000X0.700000X-0.075000X-0.700000X0*%
%ADD49RoundRect,0.075000X0.700000X-0.075000X0.700000X0.075000X-0.700000X0.075000X-0.700000X-0.075000X0*%
%ADD50RoundRect,0.750000X1.750000X-0.750000X1.750000X0.750000X-1.750000X0.750000X-1.750000X-0.750000X0*%
%ADD51RoundRect,0.200000X0.800000X1.700000X-0.800000X1.700000X-0.800000X-1.700000X0.800000X-1.700000X0*%
%ADD52RoundRect,0.200000X-0.200000X0.300000X-0.200000X-0.300000X0.200000X-0.300000X0.200000X0.300000X0*%
%ADD53RoundRect,0.750000X1.250000X0.750000X-1.250000X0.750000X-1.250000X-0.750000X1.250000X-0.750000X0*%
%ADD54RoundRect,0.200000X0.250000X0.200000X-0.250000X0.200000X-0.250000X-0.200000X0.250000X-0.200000X0*%
%ADD55RoundRect,0.240000X0.610000X-0.360000X0.610000X0.360000X-0.610000X0.360000X-0.610000X-0.360000X0*%
G04 APERTURE END LIST*
D10*
%TO.C,R50*%
X14765000Y-9650000D03*
X14935000Y-9650000D03*
%TD*%
D11*
%TO.C,D9*%
X6325000Y-8725000D03*
X5975000Y-8725000D03*
%TD*%
D12*
%TO.C,R24*%
X8425000Y-12940000D03*
X8425000Y-13110000D03*
%TD*%
D13*
%TO.C,U3*%
X13497500Y-7740500D03*
X13497500Y-7613500D03*
X13497500Y-7486500D03*
X13497500Y-7359500D03*
X13002500Y-7359500D03*
X13002500Y-7486500D03*
X13002500Y-7613500D03*
X13002500Y-7740500D03*
%TD*%
D14*
%TO.C,R106*%
X6085000Y-8250000D03*
X5915000Y-8250000D03*
%TD*%
D15*
%TO.C,U17*%
X6805000Y-6315000D03*
X6710000Y-6315000D03*
X6615000Y-6315000D03*
X6615000Y-6585000D03*
X6710000Y-6585000D03*
X6805000Y-6585000D03*
%TD*%
D10*
%TO.C,R63*%
X10965000Y-12050000D03*
X11135000Y-12050000D03*
%TD*%
D12*
%TO.C,C95*%
X9750000Y-12815000D03*
X9750000Y-12985000D03*
%TD*%
D16*
%TO.C,L3*%
X6770000Y-7040000D03*
X6770000Y-6860000D03*
X6650000Y-6860000D03*
X6650000Y-7040000D03*
%TD*%
D14*
%TO.C,C2*%
X8285000Y-10375000D03*
X8115000Y-10375000D03*
%TD*%
D17*
%TO.C,R80*%
X9350000Y-11485000D03*
X9350000Y-11315000D03*
%TD*%
D18*
%TO.C,D38*%
X5850000Y-12650000D03*
X5650000Y-12650000D03*
%TD*%
D14*
%TO.C,C17*%
X13180000Y-7170000D03*
X13010000Y-7170000D03*
%TD*%
%TO.C,C111*%
X12735000Y-11075000D03*
X12565000Y-11075000D03*
%TD*%
D19*
%TO.C,Q6*%
X18535000Y-9500000D03*
X18650000Y-9500000D03*
X18765000Y-9500000D03*
X18535000Y-9415000D03*
X18650000Y-9415000D03*
X18765000Y-9415000D03*
X18535000Y-9330000D03*
X18650000Y-9330000D03*
X18765000Y-9330000D03*
D20*
X18462000Y-9145000D03*
X18590000Y-9145000D03*
X18710000Y-9145000D03*
X18838000Y-9145000D03*
D21*
X18459000Y-9717000D03*
X18586000Y-9717000D03*
X18714000Y-9717000D03*
X18841000Y-9717000D03*
%TD*%
D10*
%TO.C,R32*%
X14810000Y-12460000D03*
X14980000Y-12460000D03*
%TD*%
D12*
%TO.C,C28*%
X12425000Y-5740000D03*
X12425000Y-5910000D03*
%TD*%
D10*
%TO.C,C89*%
X15065000Y-13475000D03*
X15235000Y-13475000D03*
%TD*%
%TO.C,R9*%
X12565000Y-7550000D03*
X12735000Y-7550000D03*
%TD*%
D17*
%TO.C,C102*%
X6575000Y-11660000D03*
X6575000Y-11490000D03*
%TD*%
D22*
%TO.C,D3*%
X7445000Y-5855000D03*
X7795000Y-5855000D03*
%TD*%
D14*
%TO.C,R12*%
X12585000Y-6075000D03*
X12415000Y-6075000D03*
%TD*%
D10*
%TO.C,C69*%
X14210000Y-11660000D03*
X14380000Y-11660000D03*
%TD*%
%TO.C,C87*%
X13550000Y-13225000D03*
X13720000Y-13225000D03*
%TD*%
D23*
%TO.C,D8*%
X9000000Y-6725000D03*
X9200000Y-6725000D03*
%TD*%
D10*
%TO.C,C107*%
X14210000Y-10910000D03*
X14380000Y-10910000D03*
%TD*%
D17*
%TO.C,R53*%
X13770000Y-11420000D03*
X13770000Y-11250000D03*
%TD*%
D14*
%TO.C,C35*%
X6110000Y-9375000D03*
X5940000Y-9375000D03*
%TD*%
D17*
%TO.C,C27*%
X11125000Y-7285000D03*
X11125000Y-7115000D03*
%TD*%
D14*
%TO.C,R68*%
X12285000Y-11250000D03*
X12115000Y-11250000D03*
%TD*%
D24*
%TO.C,SW3*%
X5450000Y-11350000D03*
X6250000Y-11350000D03*
X5450000Y-11800000D03*
X6250000Y-11800000D03*
%TD*%
D17*
%TO.C,R82*%
X9500000Y-11485000D03*
X9500000Y-11315000D03*
%TD*%
D25*
%TO.C,D15*%
X14745000Y-8375000D03*
X14955000Y-8375000D03*
%TD*%
D10*
%TO.C,R42*%
X13910000Y-12310000D03*
X14080000Y-12310000D03*
%TD*%
D17*
%TO.C,R55*%
X13770000Y-12620000D03*
X13770000Y-12450000D03*
%TD*%
D10*
%TO.C,R38*%
X13910000Y-11110000D03*
X14080000Y-11110000D03*
%TD*%
%TO.C,R15*%
X9365000Y-7325000D03*
X9535000Y-7325000D03*
%TD*%
D12*
%TO.C,R103*%
X6725000Y-11490000D03*
X6725000Y-11660000D03*
%TD*%
D10*
%TO.C,C68*%
X14210000Y-11910000D03*
X14380000Y-11910000D03*
%TD*%
D14*
%TO.C,R13*%
X12585000Y-5575000D03*
X12415000Y-5575000D03*
%TD*%
D17*
%TO.C,C12*%
X9145000Y-6055000D03*
X9145000Y-5885000D03*
%TD*%
D19*
%TO.C,Q4*%
X17085000Y-9500000D03*
X17200000Y-9500000D03*
X17315000Y-9500000D03*
X17085000Y-9415000D03*
X17200000Y-9415000D03*
X17315000Y-9415000D03*
X17085000Y-9330000D03*
X17200000Y-9330000D03*
X17315000Y-9330000D03*
D20*
X17012000Y-9145000D03*
X17140000Y-9145000D03*
X17260000Y-9145000D03*
X17388000Y-9145000D03*
D21*
X17009000Y-9717000D03*
X17136000Y-9717000D03*
X17264000Y-9717000D03*
X17391000Y-9717000D03*
%TD*%
D26*
%TO.C,C90*%
X13975000Y-13500000D03*
X13975000Y-13800000D03*
%TD*%
D12*
%TO.C,C49*%
X12720000Y-8325000D03*
X12720000Y-8495000D03*
%TD*%
D26*
%TO.C,C16*%
X8020000Y-5530000D03*
X8020000Y-5830000D03*
%TD*%
D27*
%TO.C,D26*%
X19350000Y-9110000D03*
X19350000Y-9790000D03*
%TD*%
D17*
%TO.C,R93*%
X6050000Y-12375000D03*
X6050000Y-12205000D03*
%TD*%
D27*
%TO.C,D25*%
X19350000Y-7910000D03*
X19350000Y-8590000D03*
%TD*%
D28*
%TO.C,U8*%
X13002500Y-9359500D03*
X13002500Y-9486500D03*
X13002500Y-9613500D03*
X13002500Y-9740500D03*
X13497500Y-9740500D03*
X13497500Y-9613500D03*
X13497500Y-9486500D03*
X13497500Y-9359500D03*
%TD*%
D26*
%TO.C,C54*%
X13805000Y-9340000D03*
X13805000Y-9640000D03*
%TD*%
D29*
%TO.C,C74*%
X5900000Y-14500000D03*
X6200000Y-14500000D03*
%TD*%
D14*
%TO.C,C8*%
X9660000Y-9000000D03*
X9490000Y-9000000D03*
%TD*%
D27*
%TO.C,D17*%
X16450000Y-7910000D03*
X16450000Y-8590000D03*
%TD*%
D18*
%TO.C,D44*%
X5850000Y-13950000D03*
X5650000Y-13950000D03*
%TD*%
D17*
%TO.C,R48*%
X13770000Y-12320000D03*
X13770000Y-12150000D03*
%TD*%
D12*
%TO.C,C46*%
X12570000Y-8325000D03*
X12570000Y-8495000D03*
%TD*%
D10*
%TO.C,R29*%
X14810000Y-11110000D03*
X14980000Y-11110000D03*
%TD*%
%TO.C,R28*%
X14810000Y-11260000D03*
X14980000Y-11260000D03*
%TD*%
%TO.C,R30*%
X14810000Y-11860000D03*
X14980000Y-11860000D03*
%TD*%
D12*
%TO.C,C4*%
X7675000Y-9690000D03*
X7675000Y-9860000D03*
%TD*%
%TO.C,C39*%
X8500000Y-12515000D03*
X8500000Y-12685000D03*
%TD*%
%TO.C,C37*%
X7600000Y-11515000D03*
X7600000Y-11685000D03*
%TD*%
D24*
%TO.C,SW2*%
X5450000Y-10550000D03*
X6250000Y-10550000D03*
X5450000Y-11000000D03*
X6250000Y-11000000D03*
%TD*%
D12*
%TO.C,FB2*%
X9425000Y-12640000D03*
X9425000Y-12810000D03*
%TD*%
D23*
%TO.C,D7*%
X9000000Y-6925000D03*
X9200000Y-6925000D03*
%TD*%
D30*
%TO.C,D29*%
X17835000Y-13575000D03*
X18515000Y-13575000D03*
%TD*%
D17*
%TO.C,R8*%
X7470000Y-5665000D03*
X7470000Y-5495000D03*
%TD*%
D31*
%TO.C,Y1*%
X8565000Y-10650000D03*
X8185000Y-10650000D03*
X8185000Y-10900000D03*
X8565000Y-10900000D03*
%TD*%
D14*
%TO.C,R111*%
X6085000Y-7650000D03*
X5915000Y-7650000D03*
%TD*%
D12*
%TO.C,R25*%
X8125000Y-12940000D03*
X8125000Y-13110000D03*
%TD*%
%TO.C,R22*%
X8700000Y-11865000D03*
X8700000Y-12035000D03*
%TD*%
D14*
%TO.C,R11*%
X13835000Y-5625000D03*
X13665000Y-5625000D03*
%TD*%
D32*
%TO.C,D33*%
X7030000Y-6625000D03*
X7030000Y-6275000D03*
%TD*%
D12*
%TO.C,C110*%
X12570000Y-7715000D03*
X12570000Y-7885000D03*
%TD*%
D10*
%TO.C,C70*%
X14210000Y-12510000D03*
X14380000Y-12510000D03*
%TD*%
D14*
%TO.C,R110*%
X6085000Y-7350000D03*
X5915000Y-7350000D03*
%TD*%
%TO.C,C79*%
X12285000Y-11550000D03*
X12115000Y-11550000D03*
%TD*%
D25*
%TO.C,D16*%
X14745000Y-8775000D03*
X14955000Y-8775000D03*
%TD*%
D33*
%TO.C,R36*%
X16100000Y-10210000D03*
X16100000Y-10790000D03*
%TD*%
D10*
%TO.C,R20*%
X5940000Y-9075000D03*
X6110000Y-9075000D03*
%TD*%
%TO.C,R17*%
X9365000Y-6925000D03*
X9535000Y-6925000D03*
%TD*%
D13*
%TO.C,U10*%
X13497500Y-11340500D03*
X13497500Y-11213500D03*
X13497500Y-11086500D03*
X13497500Y-10959500D03*
X13002500Y-10959500D03*
X13002500Y-11086500D03*
X13002500Y-11213500D03*
X13002500Y-11340500D03*
%TD*%
D17*
%TO.C,R54*%
X13770000Y-12020000D03*
X13770000Y-11850000D03*
%TD*%
D34*
%TO.C,J8*%
X6830000Y-5910000D03*
X6750000Y-5910000D03*
X6670000Y-5910000D03*
X6590000Y-5910000D03*
X6510000Y-5910000D03*
D35*
X7110000Y-5910000D03*
X7110000Y-5360000D03*
X6230000Y-5910000D03*
X6230000Y-5360000D03*
%TD*%
D10*
%TO.C,R40*%
X13910000Y-11710000D03*
X14080000Y-11710000D03*
%TD*%
D36*
%TO.C,D45*%
X7100000Y-7750000D03*
X7100000Y-7550000D03*
%TD*%
D25*
%TO.C,D19*%
X14745000Y-9125000D03*
X14955000Y-9125000D03*
%TD*%
D14*
%TO.C,C13*%
X13955000Y-7770000D03*
X13785000Y-7770000D03*
%TD*%
D17*
%TO.C,C94*%
X9250000Y-12660000D03*
X9250000Y-12490000D03*
%TD*%
%TO.C,R89*%
X9000000Y-10385000D03*
X9000000Y-10215000D03*
%TD*%
D14*
%TO.C,R112*%
X6085000Y-7500000D03*
X5915000Y-7500000D03*
%TD*%
D10*
%TO.C,R49*%
X14765000Y-9300000D03*
X14935000Y-9300000D03*
%TD*%
%TO.C,C24*%
X13040000Y-6250000D03*
X13210000Y-6250000D03*
%TD*%
D25*
%TO.C,D24*%
X14745000Y-10175000D03*
X14955000Y-10175000D03*
%TD*%
D12*
%TO.C,C32*%
X9670000Y-5355000D03*
X9670000Y-5525000D03*
%TD*%
D14*
%TO.C,C77*%
X12735000Y-12575000D03*
X12565000Y-12575000D03*
%TD*%
%TO.C,R85*%
X6085000Y-6600000D03*
X5915000Y-6600000D03*
%TD*%
D29*
%TO.C,R3*%
X14140000Y-7830000D03*
X14440000Y-7830000D03*
%TD*%
D12*
%TO.C,R21*%
X7800000Y-11515000D03*
X7800000Y-11685000D03*
%TD*%
D10*
%TO.C,R41*%
X13910000Y-12460000D03*
X14080000Y-12460000D03*
%TD*%
D14*
%TO.C,R77*%
X15235000Y-13625000D03*
X15065000Y-13625000D03*
%TD*%
D12*
%TO.C,C20*%
X7620000Y-5495000D03*
X7620000Y-5665000D03*
%TD*%
D17*
%TO.C,R92*%
X5600000Y-12375000D03*
X5600000Y-12205000D03*
%TD*%
%TO.C,R97*%
X5300000Y-12375000D03*
X5300000Y-12205000D03*
%TD*%
D10*
%TO.C,R65*%
X12115000Y-11700000D03*
X12285000Y-11700000D03*
%TD*%
%TO.C,R4*%
X13785000Y-7620000D03*
X13955000Y-7620000D03*
%TD*%
D27*
%TO.C,D21*%
X17900000Y-7910000D03*
X17900000Y-8590000D03*
%TD*%
D25*
%TO.C,D20*%
X14745000Y-9475000D03*
X14955000Y-9475000D03*
%TD*%
D13*
%TO.C,U11*%
X13497500Y-11940500D03*
X13497500Y-11813500D03*
X13497500Y-11686500D03*
X13497500Y-11559500D03*
X13002500Y-11559500D03*
X13002500Y-11686500D03*
X13002500Y-11813500D03*
X13002500Y-11940500D03*
%TD*%
D26*
%TO.C,C52*%
X13820000Y-8340000D03*
X13820000Y-8640000D03*
%TD*%
D10*
%TO.C,R39*%
X13910000Y-11860000D03*
X14080000Y-11860000D03*
%TD*%
D14*
%TO.C,R107*%
X6085000Y-8100000D03*
X5915000Y-8100000D03*
%TD*%
D12*
%TO.C,TH3*%
X9400000Y-13614500D03*
X9400000Y-13784500D03*
%TD*%
D14*
%TO.C,C7*%
X9660000Y-8850000D03*
X9490000Y-8850000D03*
%TD*%
D37*
%TO.C,L1*%
X16120000Y-6975000D03*
X15320000Y-6975000D03*
%TD*%
D10*
%TO.C,R37*%
X13910000Y-11260000D03*
X14080000Y-11260000D03*
%TD*%
%TO.C,C5*%
X8990000Y-10075000D03*
X9160000Y-10075000D03*
%TD*%
D14*
%TO.C,R73*%
X12985000Y-13775000D03*
X12815000Y-13775000D03*
%TD*%
D23*
%TO.C,D6*%
X9000000Y-7125000D03*
X9200000Y-7125000D03*
%TD*%
D25*
%TO.C,D23*%
X14745000Y-9825000D03*
X14955000Y-9825000D03*
%TD*%
D17*
%TO.C,R74*%
X14775000Y-13635000D03*
X14775000Y-13465000D03*
%TD*%
D10*
%TO.C,C109*%
X14210000Y-12110000D03*
X14380000Y-12110000D03*
%TD*%
D14*
%TO.C,R100*%
X7835000Y-6475000D03*
X7665000Y-6475000D03*
%TD*%
D38*
%TO.C,U13*%
X12763750Y-13230000D03*
X12763750Y-13295000D03*
X12763750Y-13360000D03*
X12763750Y-13425000D03*
X12763750Y-13490000D03*
X12763750Y-13555000D03*
X12763750Y-13620000D03*
X13336250Y-13620000D03*
X13336250Y-13555000D03*
X13336250Y-13490000D03*
X13336250Y-13425000D03*
X13336250Y-13360000D03*
X13336250Y-13295000D03*
X13336250Y-13230000D03*
%TD*%
D12*
%TO.C,C30*%
X12575000Y-5740000D03*
X12575000Y-5910000D03*
%TD*%
D17*
%TO.C,C23*%
X10175000Y-7285000D03*
X10175000Y-7115000D03*
%TD*%
D14*
%TO.C,R104*%
X6085000Y-6900000D03*
X5915000Y-6900000D03*
%TD*%
%TO.C,C96*%
X9585000Y-12975000D03*
X9415000Y-12975000D03*
%TD*%
D17*
%TO.C,C42*%
X8275000Y-13110000D03*
X8275000Y-12940000D03*
%TD*%
D14*
%TO.C,R115*%
X6085000Y-7950000D03*
X5915000Y-7950000D03*
%TD*%
D29*
%TO.C,R26*%
X18875000Y-6015000D03*
X19175000Y-6015000D03*
%TD*%
D10*
%TO.C,R18*%
X9365000Y-6725000D03*
X9535000Y-6725000D03*
%TD*%
%TO.C,R56*%
X12565000Y-10925000D03*
X12735000Y-10925000D03*
%TD*%
D36*
%TO.C,D39*%
X5400000Y-13100000D03*
X5400000Y-12900000D03*
%TD*%
D12*
%TO.C,R90*%
X7105000Y-13855000D03*
X7105000Y-14025000D03*
%TD*%
D10*
%TO.C,C67*%
X14210000Y-11060000D03*
X14380000Y-11060000D03*
%TD*%
D39*
%TO.C,D13*%
X13475000Y-9050000D03*
X13025000Y-9050000D03*
%TD*%
D10*
%TO.C,C25*%
X13665000Y-5475000D03*
X13835000Y-5475000D03*
%TD*%
%TO.C,C108*%
X14210000Y-11510000D03*
X14380000Y-11510000D03*
%TD*%
D17*
%TO.C,C63*%
X14520000Y-11270000D03*
X14520000Y-11100000D03*
%TD*%
D12*
%TO.C,TH2*%
X9600000Y-13614500D03*
X9600000Y-13784500D03*
%TD*%
D17*
%TO.C,C14*%
X8995000Y-6055000D03*
X8995000Y-5885000D03*
%TD*%
D14*
%TO.C,R105*%
X6085000Y-6750000D03*
X5915000Y-6750000D03*
%TD*%
D25*
%TO.C,D36*%
X9395000Y-13424500D03*
X9605000Y-13424500D03*
%TD*%
D10*
%TO.C,R67*%
X12115000Y-12300000D03*
X12285000Y-12300000D03*
%TD*%
D17*
%TO.C,R76*%
X14925000Y-13635000D03*
X14925000Y-13465000D03*
%TD*%
D30*
%TO.C,D27*%
X17260000Y-12875000D03*
X17940000Y-12875000D03*
%TD*%
D14*
%TO.C,C73*%
X12735000Y-12275000D03*
X12565000Y-12275000D03*
%TD*%
%TO.C,C40*%
X8360000Y-12675000D03*
X8190000Y-12675000D03*
%TD*%
D12*
%TO.C,C97*%
X9250000Y-12815000D03*
X9250000Y-12985000D03*
%TD*%
D40*
%TO.C,D10*%
X8370000Y-13275000D03*
X8180000Y-13275000D03*
X8275000Y-13475000D03*
%TD*%
D14*
%TO.C,C88*%
X14635000Y-13475000D03*
X14465000Y-13475000D03*
%TD*%
D10*
%TO.C,R60*%
X14765000Y-10350000D03*
X14935000Y-10350000D03*
%TD*%
%TO.C,R5*%
X13785000Y-7470000D03*
X13955000Y-7470000D03*
%TD*%
%TO.C,R6*%
X16915000Y-6300000D03*
X17085000Y-6300000D03*
%TD*%
D39*
%TO.C,D14*%
X13475000Y-10050000D03*
X13025000Y-10050000D03*
%TD*%
D26*
%TO.C,C115*%
X19525000Y-5925000D03*
X19525000Y-6225000D03*
%TD*%
D33*
%TO.C,R61*%
X19000000Y-10210000D03*
X19000000Y-10790000D03*
%TD*%
D10*
%TO.C,C38*%
X8190000Y-11500000D03*
X8360000Y-11500000D03*
%TD*%
D25*
%TO.C,D11*%
X8170000Y-13675000D03*
X8380000Y-13675000D03*
%TD*%
D12*
%TO.C,FB1*%
X9575000Y-12640000D03*
X9575000Y-12810000D03*
%TD*%
%TO.C,C50*%
X12720000Y-9325000D03*
X12720000Y-9495000D03*
%TD*%
D41*
%TO.C,U6*%
X8465500Y-11752500D03*
X8338500Y-11752500D03*
X8211500Y-11752500D03*
X8084500Y-11752500D03*
X8084500Y-12247500D03*
X8211500Y-12247500D03*
X8338500Y-12247500D03*
X8465500Y-12247500D03*
%TD*%
D42*
%TO.C,U15*%
X6697500Y-12755500D03*
X6697500Y-12882500D03*
X6697500Y-13009500D03*
X6697500Y-13136500D03*
X6697500Y-13263500D03*
X6697500Y-13390500D03*
X6697500Y-13517500D03*
X6697500Y-13644500D03*
X7212500Y-13644500D03*
X7212500Y-13517500D03*
X7212500Y-13390500D03*
X7212500Y-13263500D03*
X7212500Y-13136500D03*
X7212500Y-13009500D03*
X7212500Y-12882500D03*
X7212500Y-12755500D03*
%TD*%
D29*
%TO.C,R27*%
X18875000Y-6275000D03*
X19175000Y-6275000D03*
%TD*%
D43*
%TO.C,D4*%
X12900000Y-6550000D03*
X13350000Y-6550000D03*
%TD*%
D44*
%TO.C,U2*%
X8290000Y-5995000D03*
X8520000Y-5995000D03*
X8750000Y-5995000D03*
D45*
X8520000Y-5365000D03*
%TD*%
D10*
%TO.C,R10*%
X13665000Y-5775000D03*
X13835000Y-5775000D03*
%TD*%
D17*
%TO.C,C93*%
X9750000Y-12660000D03*
X9750000Y-12490000D03*
%TD*%
D14*
%TO.C,R83*%
X12285000Y-12450000D03*
X12115000Y-12450000D03*
%TD*%
D10*
%TO.C,R1*%
X7090000Y-9750000D03*
X7260000Y-9750000D03*
%TD*%
D26*
%TO.C,C56*%
X13805000Y-10340000D03*
X13805000Y-10640000D03*
%TD*%
D10*
%TO.C,R58*%
X12565000Y-12125000D03*
X12735000Y-12125000D03*
%TD*%
%TO.C,R16*%
X9365000Y-7125000D03*
X9535000Y-7125000D03*
%TD*%
D12*
%TO.C,C91*%
X12650000Y-13790000D03*
X12650000Y-13960000D03*
%TD*%
D10*
%TO.C,C83*%
X9490000Y-9725000D03*
X9660000Y-9725000D03*
%TD*%
D17*
%TO.C,C62*%
X14670000Y-12470000D03*
X14670000Y-12300000D03*
%TD*%
%TO.C,R102*%
X7700000Y-7735000D03*
X7700000Y-7565000D03*
%TD*%
D14*
%TO.C,C86*%
X12535000Y-13225000D03*
X12365000Y-13225000D03*
%TD*%
D12*
%TO.C,C51*%
X12720000Y-10325000D03*
X12720000Y-10495000D03*
%TD*%
D17*
%TO.C,C60*%
X14670000Y-11270000D03*
X14670000Y-11100000D03*
%TD*%
D14*
%TO.C,C76*%
X12735000Y-11975000D03*
X12565000Y-11975000D03*
%TD*%
D12*
%TO.C,C104*%
X7230000Y-6365000D03*
X7230000Y-6535000D03*
%TD*%
D19*
%TO.C,Q5*%
X18535000Y-8316500D03*
X18650000Y-8316500D03*
X18765000Y-8316500D03*
X18535000Y-8231500D03*
X18650000Y-8231500D03*
X18765000Y-8231500D03*
X18535000Y-8146500D03*
X18650000Y-8146500D03*
X18765000Y-8146500D03*
D20*
X18462000Y-7961500D03*
X18590000Y-7961500D03*
X18710000Y-7961500D03*
X18838000Y-7961500D03*
D21*
X18459000Y-8533500D03*
X18586000Y-8533500D03*
X18714000Y-8533500D03*
X18841000Y-8533500D03*
%TD*%
D27*
%TO.C,D22*%
X17900000Y-9110000D03*
X17900000Y-9790000D03*
%TD*%
D12*
%TO.C,C21*%
X13675000Y-5940000D03*
X13675000Y-6110000D03*
%TD*%
D10*
%TO.C,C82*%
X9490000Y-9550000D03*
X9660000Y-9550000D03*
%TD*%
%TO.C,R59*%
X14765000Y-10000000D03*
X14935000Y-10000000D03*
%TD*%
D46*
%TO.C,U5*%
X10497500Y-6957500D03*
X10802500Y-6957500D03*
X10497500Y-6622500D03*
X10802500Y-6622500D03*
D47*
X10422000Y-7420000D03*
X10878000Y-7420000D03*
%TD*%
D14*
%TO.C,C84*%
X7260000Y-9450000D03*
X7090000Y-9450000D03*
%TD*%
D10*
%TO.C,R75*%
X14465000Y-13625000D03*
X14635000Y-13625000D03*
%TD*%
D36*
%TO.C,D40*%
X6100000Y-13100000D03*
X6100000Y-12900000D03*
%TD*%
D10*
%TO.C,R14*%
X12415000Y-5425000D03*
X12585000Y-5425000D03*
%TD*%
D36*
%TO.C,D43*%
X6100000Y-13700000D03*
X6100000Y-13500000D03*
%TD*%
D10*
%TO.C,R69*%
X12115000Y-11100000D03*
X12285000Y-11100000D03*
%TD*%
D14*
%TO.C,R108*%
X6085000Y-8400000D03*
X5915000Y-8400000D03*
%TD*%
D10*
%TO.C,C66*%
X14210000Y-11310000D03*
X14380000Y-11310000D03*
%TD*%
D12*
%TO.C,R88*%
X11675000Y-13456750D03*
X11675000Y-13626750D03*
%TD*%
D14*
%TO.C,R114*%
X6085000Y-7050000D03*
X5915000Y-7050000D03*
%TD*%
%TO.C,C36*%
X6110000Y-8925000D03*
X5940000Y-8925000D03*
%TD*%
%TO.C,R113*%
X6085000Y-6300000D03*
X5915000Y-6300000D03*
%TD*%
D23*
%TO.C,D5*%
X9000000Y-7325000D03*
X9200000Y-7325000D03*
%TD*%
D12*
%TO.C,C34*%
X9370000Y-5355000D03*
X9370000Y-5525000D03*
%TD*%
D14*
%TO.C,R79*%
X14785000Y-13800000D03*
X14615000Y-13800000D03*
%TD*%
D10*
%TO.C,C3*%
X8455000Y-10375000D03*
X8625000Y-10375000D03*
%TD*%
D19*
%TO.C,Q3*%
X17085000Y-8316500D03*
X17200000Y-8316500D03*
X17315000Y-8316500D03*
X17085000Y-8231500D03*
X17200000Y-8231500D03*
X17315000Y-8231500D03*
X17085000Y-8146500D03*
X17200000Y-8146500D03*
X17315000Y-8146500D03*
D20*
X17012000Y-7961500D03*
X17140000Y-7961500D03*
X17260000Y-7961500D03*
X17388000Y-7961500D03*
D21*
X17009000Y-8533500D03*
X17136000Y-8533500D03*
X17264000Y-8533500D03*
X17391000Y-8533500D03*
%TD*%
D17*
%TO.C,R23*%
X8700000Y-12360000D03*
X8700000Y-12190000D03*
%TD*%
D14*
%TO.C,R66*%
X12285000Y-11850000D03*
X12115000Y-11850000D03*
%TD*%
D17*
%TO.C,R95*%
X5450000Y-12375000D03*
X5450000Y-12205000D03*
%TD*%
D12*
%TO.C,C15*%
X12720000Y-7715000D03*
X12720000Y-7885000D03*
%TD*%
D10*
%TO.C,R19*%
X5940000Y-9225000D03*
X6110000Y-9225000D03*
%TD*%
D12*
%TO.C,C112*%
X11975000Y-11090000D03*
X11975000Y-11260000D03*
%TD*%
D19*
%TO.C,Q1*%
X15635000Y-8316500D03*
X15750000Y-8316500D03*
X15865000Y-8316500D03*
X15635000Y-8231500D03*
X15750000Y-8231500D03*
X15865000Y-8231500D03*
X15635000Y-8146500D03*
X15750000Y-8146500D03*
X15865000Y-8146500D03*
D20*
X15562000Y-7961500D03*
X15690000Y-7961500D03*
X15810000Y-7961500D03*
X15938000Y-7961500D03*
D21*
X15559000Y-8533500D03*
X15686000Y-8533500D03*
X15814000Y-8533500D03*
X15941000Y-8533500D03*
%TD*%
D17*
%TO.C,R84*%
X9200000Y-11485000D03*
X9200000Y-11315000D03*
%TD*%
D33*
%TO.C,R51*%
X17600000Y-10210000D03*
X17600000Y-10790000D03*
%TD*%
D10*
%TO.C,C100*%
X8315000Y-7350000D03*
X8485000Y-7350000D03*
%TD*%
D12*
%TO.C,C98*%
X8850000Y-10215000D03*
X8850000Y-10385000D03*
%TD*%
D17*
%TO.C,C64*%
X14520000Y-11870000D03*
X14520000Y-11700000D03*
%TD*%
D14*
%TO.C,R45*%
X14080000Y-11560000D03*
X13910000Y-11560000D03*
%TD*%
D39*
%TO.C,D12*%
X13475000Y-8050000D03*
X13025000Y-8050000D03*
%TD*%
D17*
%TO.C,C41*%
X8050000Y-12685000D03*
X8050000Y-12515000D03*
%TD*%
D14*
%TO.C,C78*%
X12285000Y-10950000D03*
X12115000Y-10950000D03*
%TD*%
D48*
%TO.C,U1*%
X8150000Y-9817500D03*
X8200000Y-9817500D03*
X8250000Y-9817500D03*
X8300000Y-9817500D03*
X8350000Y-9817500D03*
X8400000Y-9817500D03*
X8450000Y-9817500D03*
X8500000Y-9817500D03*
X8550000Y-9817500D03*
X8600000Y-9817500D03*
X8650000Y-9817500D03*
X8700000Y-9817500D03*
X8750000Y-9817500D03*
X8800000Y-9817500D03*
X8850000Y-9817500D03*
X8900000Y-9817500D03*
D49*
X9092500Y-9625000D03*
X9092500Y-9575000D03*
X9092500Y-9525000D03*
X9092500Y-9475000D03*
X9092500Y-9425000D03*
X9092500Y-9375000D03*
X9092500Y-9325000D03*
X9092500Y-9275000D03*
X9092500Y-9225000D03*
X9092500Y-9175000D03*
X9092500Y-9125000D03*
X9092500Y-9075000D03*
X9092500Y-9025000D03*
X9092500Y-8975000D03*
X9092500Y-8925000D03*
X9092500Y-8875000D03*
D48*
X8900000Y-8682500D03*
X8850000Y-8682500D03*
X8800000Y-8682500D03*
X8750000Y-8682500D03*
X8700000Y-8682500D03*
X8650000Y-8682500D03*
X8600000Y-8682500D03*
X8550000Y-8682500D03*
X8500000Y-8682500D03*
X8450000Y-8682500D03*
X8400000Y-8682500D03*
X8350000Y-8682500D03*
X8300000Y-8682500D03*
X8250000Y-8682500D03*
X8200000Y-8682500D03*
X8150000Y-8682500D03*
D49*
X7957500Y-8875000D03*
X7957500Y-8925000D03*
X7957500Y-8975000D03*
X7957500Y-9025000D03*
X7957500Y-9075000D03*
X7957500Y-9125000D03*
X7957500Y-9175000D03*
X7957500Y-9225000D03*
X7957500Y-9275000D03*
X7957500Y-9325000D03*
X7957500Y-9375000D03*
X7957500Y-9425000D03*
X7957500Y-9475000D03*
X7957500Y-9525000D03*
X7957500Y-9575000D03*
X7957500Y-9625000D03*
%TD*%
D36*
%TO.C,D42*%
X5400000Y-13700000D03*
X5400000Y-13500000D03*
%TD*%
D10*
%TO.C,R99*%
X7965000Y-6475000D03*
X8135000Y-6475000D03*
%TD*%
D28*
%TO.C,U9*%
X13002500Y-10359500D03*
X13002500Y-10486500D03*
X13002500Y-10613500D03*
X13002500Y-10740500D03*
X13497500Y-10740500D03*
X13497500Y-10613500D03*
X13497500Y-10486500D03*
X13497500Y-10359500D03*
%TD*%
D17*
%TO.C,R44*%
X13770000Y-11120000D03*
X13770000Y-10950000D03*
%TD*%
D14*
%TO.C,C80*%
X12285000Y-12150000D03*
X12115000Y-12150000D03*
%TD*%
D12*
%TO.C,R117*%
X9800000Y-11315000D03*
X9800000Y-11485000D03*
%TD*%
D17*
%TO.C,C61*%
X14670000Y-11870000D03*
X14670000Y-11700000D03*
%TD*%
D10*
%TO.C,R34*%
X14765000Y-8575000D03*
X14935000Y-8575000D03*
%TD*%
D17*
%TO.C,C29*%
X11275000Y-7285000D03*
X11275000Y-7115000D03*
%TD*%
D14*
%TO.C,C85*%
X7260000Y-9600000D03*
X7090000Y-9600000D03*
%TD*%
%TO.C,R116*%
X6085000Y-7800000D03*
X5915000Y-7800000D03*
%TD*%
D18*
%TO.C,D41*%
X5850000Y-13300000D03*
X5650000Y-13300000D03*
%TD*%
D10*
%TO.C,R7*%
X13310000Y-7170000D03*
X13480000Y-7170000D03*
%TD*%
D18*
%TO.C,D1*%
X17475000Y-6300000D03*
X17275000Y-6300000D03*
%TD*%
D14*
%TO.C,C10*%
X9660000Y-8700000D03*
X9490000Y-8700000D03*
%TD*%
D50*
%TO.C,L2*%
X11725000Y-6350000D03*
X11725000Y-5550000D03*
%TD*%
D14*
%TO.C,C75*%
X12735000Y-11350000D03*
X12565000Y-11350000D03*
%TD*%
D41*
%TO.C,U16*%
X8090500Y-6777500D03*
X7963500Y-6777500D03*
X7836500Y-6777500D03*
X7709500Y-6777500D03*
X7709500Y-7272500D03*
X7836500Y-7272500D03*
X7963500Y-7272500D03*
X8090500Y-7272500D03*
%TD*%
D14*
%TO.C,R70*%
X12535000Y-13375000D03*
X12365000Y-13375000D03*
%TD*%
D10*
%TO.C,R35*%
X14765000Y-8950000D03*
X14935000Y-8950000D03*
%TD*%
D41*
%TO.C,U14*%
X9690500Y-11752500D03*
X9563500Y-11752500D03*
X9436500Y-11752500D03*
X9309500Y-11752500D03*
X9309500Y-12247500D03*
X9436500Y-12247500D03*
X9563500Y-12247500D03*
X9690500Y-12247500D03*
%TD*%
D10*
%TO.C,R33*%
X14810000Y-12310000D03*
X14980000Y-12310000D03*
%TD*%
D14*
%TO.C,R47*%
X14080000Y-12160000D03*
X13910000Y-12160000D03*
%TD*%
D17*
%TO.C,R101*%
X7900000Y-7735000D03*
X7900000Y-7565000D03*
%TD*%
D13*
%TO.C,U12*%
X13497500Y-12540500D03*
X13497500Y-12413500D03*
X13497500Y-12286500D03*
X13497500Y-12159500D03*
X13002500Y-12159500D03*
X13002500Y-12286500D03*
X13002500Y-12413500D03*
X13002500Y-12540500D03*
%TD*%
D10*
%TO.C,C71*%
X14210000Y-12260000D03*
X14380000Y-12260000D03*
%TD*%
D14*
%TO.C,R72*%
X13285000Y-13775000D03*
X13115000Y-13775000D03*
%TD*%
D17*
%TO.C,R46*%
X13770000Y-11720000D03*
X13770000Y-11550000D03*
%TD*%
D12*
%TO.C,C47*%
X12570000Y-9325000D03*
X12570000Y-9495000D03*
%TD*%
D27*
%TO.C,D18*%
X16450000Y-9085000D03*
X16450000Y-9765000D03*
%TD*%
D14*
%TO.C,R86*%
X6085000Y-6450000D03*
X5915000Y-6450000D03*
%TD*%
D13*
%TO.C,U4*%
X13372500Y-6040500D03*
X13372500Y-5913500D03*
X13372500Y-5786500D03*
X13372500Y-5659500D03*
X12877500Y-5659500D03*
X12877500Y-5786500D03*
X12877500Y-5913500D03*
X12877500Y-6040500D03*
D51*
X13125000Y-5840000D03*
%TD*%
D28*
%TO.C,U7*%
X13002500Y-8359500D03*
X13002500Y-8486500D03*
X13002500Y-8613500D03*
X13002500Y-8740500D03*
X13497500Y-8740500D03*
X13497500Y-8613500D03*
X13497500Y-8486500D03*
X13497500Y-8359500D03*
%TD*%
D52*
%TO.C,D32*%
X13750000Y-13545000D03*
X13750000Y-13755000D03*
%TD*%
D17*
%TO.C,R94*%
X5750000Y-12375000D03*
X5750000Y-12205000D03*
%TD*%
%TO.C,R81*%
X9650000Y-11485000D03*
X9650000Y-11315000D03*
%TD*%
D12*
%TO.C,C113*%
X11975000Y-11690000D03*
X11975000Y-11860000D03*
%TD*%
D14*
%TO.C,C9*%
X8060000Y-8475000D03*
X7890000Y-8475000D03*
%TD*%
D17*
%TO.C,R91*%
X5900000Y-12375000D03*
X5900000Y-12205000D03*
%TD*%
D33*
%TO.C,R52*%
X17600000Y-11135000D03*
X17600000Y-11715000D03*
%TD*%
D14*
%TO.C,R43*%
X14080000Y-10960000D03*
X13910000Y-10960000D03*
%TD*%
D10*
%TO.C,C81*%
X9490000Y-9375000D03*
X9660000Y-9375000D03*
%TD*%
%TO.C,R64*%
X10965000Y-12650000D03*
X11135000Y-12650000D03*
%TD*%
D19*
%TO.C,Q2*%
X15635000Y-9500000D03*
X15750000Y-9500000D03*
X15865000Y-9500000D03*
X15635000Y-9415000D03*
X15750000Y-9415000D03*
X15865000Y-9415000D03*
X15635000Y-9330000D03*
X15750000Y-9330000D03*
X15865000Y-9330000D03*
D20*
X15562000Y-9145000D03*
X15690000Y-9145000D03*
X15810000Y-9145000D03*
X15938000Y-9145000D03*
D21*
X15559000Y-9717000D03*
X15686000Y-9717000D03*
X15814000Y-9717000D03*
X15941000Y-9717000D03*
%TD*%
D12*
%TO.C,C48*%
X12570000Y-10325000D03*
X12570000Y-10495000D03*
%TD*%
D10*
%TO.C,R78*%
X14915000Y-13800000D03*
X15085000Y-13800000D03*
%TD*%
D53*
%TO.C,D2*%
X14300000Y-6240000D03*
X14300000Y-5560000D03*
%TD*%
D12*
%TO.C,C106*%
X6910000Y-6865000D03*
X6910000Y-7035000D03*
%TD*%
D10*
%TO.C,R62*%
X10965000Y-11450000D03*
X11135000Y-11450000D03*
%TD*%
D17*
%TO.C,R98*%
X7275000Y-7735000D03*
X7275000Y-7565000D03*
%TD*%
%TO.C,C101*%
X11325000Y-13626750D03*
X11325000Y-13456750D03*
%TD*%
D10*
%TO.C,R31*%
X14810000Y-11710000D03*
X14980000Y-11710000D03*
%TD*%
D12*
%TO.C,C33*%
X9520000Y-5355000D03*
X9520000Y-5525000D03*
%TD*%
D14*
%TO.C,R71*%
X12535000Y-13525000D03*
X12365000Y-13525000D03*
%TD*%
D22*
%TO.C,D37*%
X11325000Y-13241750D03*
X11675000Y-13241750D03*
%TD*%
D17*
%TO.C,C99*%
X7250000Y-12510000D03*
X7250000Y-12340000D03*
%TD*%
%TO.C,C26*%
X10025000Y-7285000D03*
X10025000Y-7115000D03*
%TD*%
D10*
%TO.C,C6*%
X7890000Y-10075000D03*
X8060000Y-10075000D03*
%TD*%
D12*
%TO.C,C18*%
X7770000Y-5495000D03*
X7770000Y-5665000D03*
%TD*%
D10*
%TO.C,C92*%
X9940000Y-12325000D03*
X10110000Y-12325000D03*
%TD*%
D17*
%TO.C,R96*%
X6200000Y-12375000D03*
X6200000Y-12205000D03*
%TD*%
D14*
%TO.C,R109*%
X6085000Y-7200000D03*
X5915000Y-7200000D03*
%TD*%
D17*
%TO.C,C65*%
X14520000Y-12470000D03*
X14520000Y-12300000D03*
%TD*%
D54*
%TO.C,Q7*%
X6905000Y-14035000D03*
X6905000Y-13845000D03*
X6705000Y-13940000D03*
%TD*%
D29*
%TO.C,R87*%
X9350000Y-13184500D03*
X9650000Y-13184500D03*
%TD*%
D10*
%TO.C,R57*%
X12565000Y-11525000D03*
X12735000Y-11525000D03*
%TD*%
%TO.C,C22*%
X9490000Y-9200000D03*
X9660000Y-9200000D03*
%TD*%
D12*
%TO.C,C105*%
X6510000Y-6865000D03*
X6510000Y-7035000D03*
%TD*%
%TO.C,R2*%
X6725000Y-10690000D03*
X6725000Y-10860000D03*
%TD*%
%TO.C,C114*%
X11975000Y-12290000D03*
X11975000Y-12460000D03*
%TD*%
D30*
%TO.C,D28*%
X16635000Y-13575000D03*
X17315000Y-13575000D03*
%TD*%
D14*
%TO.C,C72*%
X12735000Y-11675000D03*
X12565000Y-11675000D03*
%TD*%
D55*
%TO.C,TH1*%
X14225000Y-13800000D03*
X14225000Y-13500000D03*
%TD*%
D17*
%TO.C,C1*%
X6575000Y-10860000D03*
X6575000Y-10690000D03*
%TD*%
M02*
