M48
; DRILL file {KiCad 8.0.4} date 2024-09-01T17:29:25+0300
; FORMAT={-:-/ absolute / metric / decimal}
; #@! TF.CreationDate,2024-09-01T17:29:25+03:00
; #@! TF.GenerationSoftware,Kicad,Pcbnew,8.0.4
; #@! TF.FileFunction,MixedPlating,1,4
FMAT,2
METRIC
; #@! TA.AperFunction,Plated,PTH,ViaDrill
T1C0.400
; #@! TA.AperFunction,Plated,PTH,ComponentDrill
T2C0.400
; #@! TA.AperFunction,Plated,PTH,ComponentDrill
T3C0.800
; #@! TA.AperFunction,Plated,PTH,ComponentDrill
T4C1.000
; #@! TA.AperFunction,Plated,PTH,ComponentDrill
T5C1.300
; #@! TA.AperFunction,Plated,PTH,ComponentDrill
T6C1.500
; #@! TA.AperFunction,Plated,PTH,ComponentDrill
T7C3.200
; #@! TA.AperFunction,NonPlated,NPTH,ComponentDrill
T8C0.900
%
G90
G05
T1
X50.75Y-84.75
X50.75Y-105.75
X50.75Y-125.0
X52.5Y-60.5
X53.5Y-59.75
X54.0Y-97.75
X54.0Y-103.75
X54.0Y-108.0
X54.0Y-116.0
X55.0Y-59.75
X55.3Y-131.15
X55.3Y-136.9
X56.0Y-99.25
X56.0Y-102.0
X56.0Y-103.75
X56.5Y-59.75
X57.0Y-63.25
X57.25Y-108.0
X57.25Y-110.0
X57.25Y-116.0
X57.25Y-118.0
X57.95Y-87.0
X58.5Y-89.25
X58.5Y-93.75
X59.7Y-133.0
X60.0Y-110.0
X60.0Y-118.0
X60.05Y-126.9
X61.0Y-132.1
X61.5Y-98.25
X61.75Y-56.5
X62.0Y-63.0
X62.0Y-64.5
X62.0Y-66.0
X62.0Y-67.5
X62.0Y-69.0
X62.0Y-70.5
X62.0Y-72.0
X62.0Y-73.5
X62.0Y-75.0
X62.0Y-76.5
X62.0Y-78.0
X62.0Y-79.5
X62.0Y-81.0
X62.0Y-82.5
X62.0Y-84.0
X62.25Y-103.75
X63.199Y-85.242
X63.25Y-89.25
X63.25Y-96.75
X63.25Y-98.25
X63.3Y-126.9
X63.5Y-61.75
X63.75Y-143.5
X63.75Y-145.0
X63.75Y-146.5
X64.5Y-53.75
X64.5Y-101.25
X64.75Y-63.25
X64.75Y-65.25
X64.75Y-86.5
X64.8Y-127.65
X64.8Y-128.9
X64.8Y-130.15
X64.8Y-131.65
X65.0Y-140.0
X65.376Y-98.172
X65.55Y-136.4
X65.75Y-67.5
X65.75Y-96.75
X65.75Y-109.75
X65.75Y-117.75
X66.0Y-104.0
X66.75Y-53.75
X66.75Y-92.75
X67.0Y-143.5
X67.0Y-146.5
X67.1Y-61.85
X67.25Y-105.75
X67.25Y-109.75
X67.25Y-117.75
X68.5Y-71.75
X68.5Y-91.75
X68.75Y-67.5
X68.75Y-90.5
X68.75Y-96.75
X68.75Y-129.0
X68.75Y-130.5
X69.0Y-53.75
X69.05Y-137.65
X69.75Y-94.5
X69.75Y-96.0
X69.75Y-97.5
X70.0Y-90.0
X70.0Y-143.5
X70.0Y-146.5
X70.3Y-132.4
X70.5Y-69.75
X70.5Y-71.75
X70.5Y-73.5
X70.5Y-105.5
X70.5Y-109.5
X70.75Y-99.0
X71.0Y-79.0
X71.0Y-116.25
X71.0Y-118.5
X71.25Y-89.75
X71.5Y-67.5
X72.0Y-56.5
X72.0Y-100.25
X72.3Y-126.65
X72.5Y-69.75
X72.5Y-71.75
X72.5Y-73.5
X72.5Y-120.5
X72.5Y-122.5
X72.75Y-99.0
X73.0Y-143.5
X73.0Y-146.5
X73.25Y-101.5
X73.5Y-50.75
X73.75Y-94.5
X73.75Y-96.0
X74.0Y-123.0
X74.0Y-127.0
X74.0Y-140.0
X74.5Y-60.75
X74.75Y-52.75
X75.0Y-66.0
X75.0Y-68.0
X75.0Y-70.0
X75.0Y-72.0
X75.0Y-74.0
X75.0Y-79.0
X75.0Y-80.75
X75.0Y-102.5
X75.0Y-104.25
X75.114Y-111.005
X75.131Y-105.442
X75.25Y-62.0
X75.5Y-53.75
X76.0Y-60.75
X76.0Y-117.75
X76.0Y-140.0
X76.0Y-143.5
X76.0Y-146.5
X76.25Y-52.75
X76.5Y-85.0
X76.75Y-59.5
X76.75Y-62.0
X76.75Y-96.0
X76.75Y-102.5
X77.0Y-53.75
X77.0Y-66.0
X77.25Y-119.0
X77.5Y-60.75
X77.75Y-52.75
X77.75Y-70.25
X77.75Y-101.75
X77.75Y-104.25
X77.75Y-149.25
X77.95Y-98.6
X78.25Y-62.0
X78.5Y-53.75
X78.5Y-106.0
X78.5Y-108.5
X78.5Y-111.0
X79.0Y-60.75
X79.0Y-70.25
X79.0Y-85.75
X79.25Y-52.75
X79.5Y-97.25
X79.5Y-98.5
X79.5Y-116.5
X79.5Y-121.75
X79.538Y-123.967
X79.634Y-128.28
X79.75Y-59.5
X79.75Y-62.0
X80.0Y-103.75
X80.0Y-134.0
X80.0Y-136.0
X80.0Y-138.0
X80.0Y-140.0
X80.5Y-60.75
X80.75Y-99.5
X81.25Y-59.5
X81.25Y-62.0
X81.25Y-89.95
X81.5Y-84.75
X81.5Y-92.0
X82.115Y-116.0
X82.25Y-52.75
X82.25Y-91.0
X82.5Y-54.25
X82.5Y-79.25
X82.5Y-102.5
X82.75Y-62.0
X82.75Y-128.25
X82.75Y-135.75
X83.0Y-55.75
X83.0Y-57.5
X83.121Y-94.222
X83.25Y-78.25
X83.385Y-116.0
X84.0Y-91.0
X84.0Y-92.75
X84.25Y-96.5
X84.5Y-90.0
X84.75Y-78.5
X85.0Y-88.75
X85.0Y-140.0
X85.25Y-55.75
X85.25Y-57.5
X85.375Y-77.375
X85.7Y-102.0
X86.0Y-73.5
X86.375Y-88.625
X86.5Y-66.0
X86.5Y-68.25
X86.5Y-70.25
X86.5Y-72.25
X87.0Y-112.0
X87.0Y-117.75
X87.0Y-125.0
X87.0Y-128.0
X87.0Y-131.0
X87.0Y-134.0
X87.0Y-137.0
X87.0Y-140.0
X87.125Y-77.875
X87.5Y-55.75
X87.5Y-57.5
X87.5Y-76.75
X87.5Y-93.25
X87.5Y-100.5
X87.5Y-103.75
X87.5Y-116.25
X87.75Y-88.75
X88.0Y-54.25
X88.0Y-66.0
X88.0Y-74.5
X88.25Y-52.75
X88.25Y-92.25
X88.5Y-95.0
X88.75Y-67.25
X88.75Y-69.25
X88.75Y-71.25
X88.75Y-73.25
X88.75Y-121.75
X89.0Y-77.0
X89.0Y-91.0
X89.0Y-106.75
X89.0Y-109.5
X89.0Y-112.0
X89.0Y-125.0
X89.0Y-128.0
X89.0Y-131.0
X89.0Y-134.0
X89.0Y-137.0
X89.0Y-140.0
X89.5Y-116.25
X89.5Y-118.25
X89.75Y-55.5
X89.75Y-58.0
X89.75Y-99.75
X89.9Y-98.25
X90.0Y-105.5
X90.5Y-56.75
X91.0Y-83.0
X91.0Y-84.5
X91.0Y-86.0
X91.0Y-87.5
X91.0Y-122.0
X91.0Y-125.0
X91.0Y-128.0
X91.0Y-131.0
X91.0Y-134.0
X91.0Y-137.0
X91.25Y-55.5
X91.25Y-58.0
X91.5Y-77.0
X91.5Y-79.25
X91.5Y-81.5
X91.5Y-104.5
X91.5Y-109.5
X91.55Y-98.8
X92.0Y-56.75
X92.0Y-107.5
X92.5Y-83.0
X92.5Y-84.5
X92.5Y-86.0
X92.5Y-87.5
X92.75Y-55.5
X92.75Y-58.0
X92.886Y-95.93
X93.0Y-90.25
X93.5Y-56.75
X94.0Y-77.0
X94.0Y-79.25
X94.0Y-81.5
X94.0Y-86.0
X94.0Y-87.5
X94.0Y-107.5
X94.5Y-66.0
X94.5Y-74.5
X94.75Y-98.75
X95.0Y-56.75
X95.25Y-109.0
X95.75Y-99.75
X96.5Y-56.75
X96.5Y-67.25
X96.5Y-77.0
X96.5Y-79.25
X96.5Y-80.75
X96.5Y-82.25
X96.5Y-85.25
X96.5Y-104.0
X96.5Y-107.0
X96.75Y-102.5
X97.0Y-58.0
X97.0Y-61.25
X97.25Y-66.0
X97.25Y-68.25
X97.5Y-105.5
X97.65Y-112.25
X97.7Y-116.05
X97.75Y-87.0
X97.75Y-90.0
X97.75Y-95.5
X97.802Y-91.883
X98.0Y-71.25
X98.0Y-74.5
X98.0Y-102.5
X98.25Y-64.25
X98.25Y-80.75
X98.25Y-82.25
X98.25Y-85.25
X98.388Y-107.012
X98.5Y-61.25
X98.5Y-101.0
X99.0Y-52.75
X99.0Y-54.25
X99.0Y-125.0
X99.0Y-128.0
X99.0Y-131.0
X99.0Y-134.0
X99.0Y-137.0
X99.25Y-98.25
X99.898Y-91.87
X100.0Y-61.25
X100.25Y-75.25
X100.25Y-76.75
X100.25Y-94.25
X100.5Y-52.75
X100.5Y-54.25
X100.75Y-87.75
X100.75Y-89.0
X100.907Y-111.009
X101.0Y-125.0
X101.0Y-128.0
X101.0Y-131.0
X101.0Y-134.0
X101.0Y-137.0
X101.25Y-65.5
X101.25Y-67.0
X101.25Y-68.5
X101.25Y-70.0
X101.5Y-75.25
X101.5Y-76.75
X101.5Y-95.5
X102.0Y-52.75
X102.0Y-54.25
X102.0Y-55.75
X102.0Y-79.75
X102.0Y-84.0
X102.0Y-89.5
X102.5Y-96.5
X102.5Y-112.75
X102.5Y-149.25
X102.75Y-65.5
X102.75Y-67.0
X102.75Y-68.5
X102.75Y-70.0
X102.75Y-75.25
X102.75Y-76.75
X103.25Y-92.75
X103.25Y-97.5
X103.5Y-52.75
X103.5Y-54.25
X103.5Y-55.75
X103.5Y-64.25
X103.75Y-109.0
X104.0Y-93.75
X104.097Y-98.71
X104.25Y-134.5
X104.25Y-136.75
X104.25Y-139.25
X104.25Y-142.0
X104.25Y-144.75
X104.25Y-147.5
X104.391Y-114.522
X105.0Y-52.75
X105.0Y-54.25
X105.0Y-55.75
X105.0Y-63.0
X105.0Y-64.25
X105.25Y-110.5
X105.75Y-79.75
X105.75Y-130.5
X106.0Y-84.0
X106.0Y-90.0
X106.5Y-63.0
X106.5Y-64.25
X106.5Y-102.0
X106.5Y-105.0
X106.75Y-52.75
X106.75Y-112.0
X107.0Y-134.5
X107.0Y-136.75
X107.0Y-139.25
X107.0Y-142.0
X107.0Y-144.75
X107.0Y-147.5
X108.0Y-63.0
X108.0Y-64.25
X108.5Y-112.0
X108.5Y-117.5
X108.5Y-123.5
X109.5Y-63.0
X109.5Y-64.25
X109.5Y-84.0
X109.5Y-91.5
X109.5Y-94.5
X109.5Y-102.0
X109.5Y-105.0
X109.75Y-131.25
X109.75Y-134.5
X109.75Y-136.75
X109.75Y-139.25
X110.0Y-112.0
X110.0Y-117.5
X110.0Y-123.5
X110.25Y-68.0
X110.25Y-69.5
X110.25Y-71.0
X110.5Y-78.0
X110.5Y-79.0
X110.75Y-86.75
X110.75Y-89.25
X111.0Y-97.0
X111.0Y-99.5
X111.0Y-107.0
X111.0Y-109.5
X111.75Y-78.0
X111.75Y-79.0
X112.0Y-134.5
X112.5Y-110.75
X112.5Y-112.25
X112.5Y-116.75
X112.5Y-118.25
X112.5Y-122.75
X112.5Y-124.25
X112.75Y-82.75
X112.75Y-84.5
X112.75Y-93.0
X112.75Y-95.0
X112.75Y-103.25
X112.75Y-105.5
X113.0Y-78.0
X113.0Y-79.0
X114.25Y-78.0
X114.25Y-79.0
X114.5Y-82.75
X114.5Y-93.0
X114.5Y-103.25
X116.75Y-131.25
X118.0Y-134.5
X118.5Y-136.75
X118.5Y-139.25
X118.5Y-142.0
X120.0Y-109.5
X120.0Y-115.5
X120.0Y-121.5
X120.25Y-70.75
X120.25Y-72.5
X120.25Y-74.25
X120.25Y-80.25
X120.25Y-90.25
X120.25Y-100.5
X120.25Y-126.583
X121.25Y-139.25
X121.25Y-142.0
X122.25Y-70.75
X122.25Y-72.5
X122.25Y-74.25
X122.5Y-90.25
X122.5Y-100.5
X123.25Y-50.75
X123.25Y-78.25
X123.25Y-80.25
X123.5Y-76.75
X123.5Y-86.25
X123.5Y-96.5
X123.5Y-106.5
X123.5Y-136.75
X124.25Y-53.0
X124.5Y-70.75
X124.5Y-72.5
X124.5Y-74.25
X124.5Y-85.0
X124.5Y-95.0
X124.5Y-105.0
X124.5Y-110.75
X124.5Y-114.25
X124.5Y-116.75
X124.5Y-120.25
X124.5Y-122.75
X124.5Y-126.25
X124.75Y-90.25
X124.75Y-100.5
X125.6Y-107.6
X125.75Y-80.25
X126.25Y-52.5
X126.5Y-136.75
X126.5Y-149.25
X126.75Y-70.75
X126.75Y-72.5
X126.75Y-74.25
X127.25Y-80.25
X127.25Y-90.25
X127.25Y-100.5
X127.5Y-53.25
X127.5Y-54.75
X128.5Y-107.55
X128.5Y-113.405
X128.5Y-119.405
X128.5Y-125.405
X128.75Y-52.5
X128.75Y-54.0
X128.75Y-71.75
X130.0Y-53.25
X130.0Y-54.75
X130.5Y-134.25
X130.5Y-135.75
X131.25Y-52.5
X131.25Y-54.0
X131.25Y-55.5
X131.25Y-57.0
X131.25Y-58.4
X131.25Y-59.75
X132.0Y-74.25
X132.0Y-76.25
X132.0Y-78.25
X132.0Y-109.5
X132.0Y-113.25
X132.0Y-115.75
X132.0Y-119.5
X132.0Y-121.5
X132.0Y-125.5
X132.5Y-53.25
X132.5Y-54.75
X132.5Y-85.5
X132.5Y-87.25
X132.5Y-95.5
X132.5Y-97.25
X132.5Y-105.5
X132.5Y-107.25
X133.75Y-52.5
X133.75Y-54.0
X134.0Y-137.75
X135.0Y-53.25
X135.25Y-65.25
X135.25Y-66.75
X135.25Y-135.25
X135.25Y-136.75
X135.25Y-138.25
X135.25Y-139.75
X135.25Y-141.25
X136.5Y-109.5
X136.5Y-115.5
X136.5Y-121.5
X136.75Y-62.25
X136.75Y-63.75
X136.75Y-65.25
X136.75Y-66.75
X136.75Y-71.5
X136.75Y-73.5
X136.75Y-76.25
X136.75Y-77.75
X137.0Y-139.75
X137.0Y-141.25
X138.0Y-90.0
X138.0Y-100.0
X138.25Y-80.5
X138.25Y-131.25
X139.25Y-68.0
X139.25Y-126.5
X139.25Y-128.25
X139.25Y-129.75
X139.75Y-53.5
X139.75Y-55.0
X139.75Y-83.25
X139.75Y-90.0
X139.75Y-93.25
X139.75Y-100.0
X139.75Y-103.25
X140.0Y-69.25
X140.0Y-114.0
X140.0Y-120.0
X140.25Y-133.5
X140.5Y-80.5
X140.75Y-68.0
X140.75Y-73.75
X140.75Y-76.75
X141.0Y-83.25
X141.0Y-93.25
X141.0Y-103.25
X141.0Y-126.5
X141.0Y-128.25
X141.0Y-129.75
X141.25Y-53.5
X141.3Y-109.1
X141.3Y-115.1
X141.3Y-121.1
X141.5Y-69.25
X141.5Y-90.0
X141.5Y-100.0
X141.5Y-133.5
X142.25Y-66.5
X142.25Y-68.0
X142.75Y-53.5
X142.75Y-80.5
X142.75Y-133.5
X143.0Y-69.25
X143.0Y-126.5
X143.0Y-128.25
X143.0Y-129.75
X143.25Y-90.0
X143.25Y-100.0
X144.25Y-53.5
X144.5Y-69.25
X144.75Y-139.75
X144.75Y-141.5
X145.0Y-126.5
X145.0Y-128.25
X145.0Y-129.75
X145.0Y-138.0
X145.25Y-109.25
X145.25Y-114.75
X145.25Y-120.75
X145.75Y-53.5
X145.75Y-55.0
X145.75Y-56.5
X146.0Y-98.25
X146.25Y-77.25
X146.25Y-79.5
X146.25Y-90.0
X146.5Y-139.75
X146.5Y-141.5
X147.0Y-50.75
X147.0Y-107.5
X147.0Y-133.25
X147.25Y-109.25
X147.25Y-114.75
X147.25Y-120.75
X147.25Y-126.5
X147.25Y-128.25
X147.25Y-129.75
X148.0Y-53.5
X148.0Y-55.0
X148.0Y-56.5
X148.0Y-58.0
X148.0Y-59.5
X148.0Y-61.0
X148.0Y-62.5
X148.25Y-77.25
X148.25Y-79.5
X149.25Y-109.25
X149.25Y-114.75
X149.25Y-120.75
X149.25Y-126.5
X149.25Y-128.25
X149.25Y-129.75
X149.5Y-53.5
X149.5Y-55.0
X149.5Y-56.5
X149.5Y-58.0
X149.5Y-59.5
X149.5Y-61.0
X149.5Y-62.5
X150.0Y-104.75
X150.0Y-107.5
X150.25Y-77.25
X150.25Y-79.5
X150.25Y-139.75
X150.25Y-141.5
X150.5Y-97.0
X150.75Y-83.75
X150.75Y-91.25
X150.75Y-101.5
X150.75Y-128.25
X150.75Y-129.75
X150.75Y-131.25
X150.8Y-117.1
X150.8Y-118.6
X150.8Y-123.1
X150.8Y-124.6
X151.0Y-58.0
X151.0Y-59.5
X151.0Y-61.0
X151.0Y-62.5
X152.0Y-94.75
X152.0Y-113.0
X152.0Y-114.5
X152.0Y-116.0
X152.0Y-119.5
X152.0Y-120.75
X152.0Y-122.0
X152.0Y-126.0
X152.0Y-128.25
X152.0Y-129.75
X152.0Y-131.25
X152.0Y-138.0
X152.0Y-139.75
X152.0Y-141.5
X152.25Y-77.25
X152.25Y-79.5
X152.25Y-101.5
X152.25Y-104.25
X152.5Y-58.0
X152.5Y-59.5
X152.5Y-61.0
X152.5Y-62.5
X153.25Y-97.25
X153.25Y-113.0
X153.25Y-114.5
X153.25Y-116.0
X153.25Y-119.5
X153.25Y-120.75
X153.25Y-122.0
X153.25Y-126.0
X153.25Y-128.25
X153.25Y-129.75
X153.25Y-131.25
X153.25Y-134.75
X153.25Y-136.25
X154.25Y-62.5
X155.5Y-78.5
X155.5Y-88.0
X155.5Y-89.5
X155.5Y-149.25
X155.75Y-62.0
X155.75Y-63.5
X157.0Y-78.5
X157.0Y-88.0
X157.0Y-89.5
X157.5Y-62.0
X157.5Y-63.5
X158.5Y-78.5
X158.5Y-88.0
X158.5Y-89.5
X159.0Y-135.5
X159.0Y-137.5
X159.0Y-139.5
X159.0Y-141.5
X159.0Y-143.5
X159.0Y-145.5
X159.0Y-147.5
X159.25Y-62.0
X159.25Y-63.5
X160.0Y-74.0
X160.0Y-75.5
X160.0Y-77.0
X160.0Y-78.5
X160.0Y-88.0
X160.0Y-89.5
X160.0Y-91.0
X160.25Y-85.25
X160.5Y-50.75
X160.5Y-97.25
X161.0Y-62.0
X161.0Y-63.5
X161.0Y-135.5
X161.0Y-137.5
X161.0Y-139.5
X161.0Y-141.5
X161.0Y-143.5
X161.0Y-145.5
X161.0Y-147.5
X161.5Y-74.0
X161.5Y-75.5
X161.5Y-77.0
X161.5Y-78.5
X161.5Y-80.0
X161.5Y-81.5
X161.5Y-88.0
X161.5Y-89.5
X161.5Y-91.0
X162.75Y-62.0
X162.75Y-63.5
X163.0Y-71.0
X163.0Y-72.5
X163.0Y-74.0
X163.0Y-75.5
X163.0Y-77.0
X163.0Y-81.5
X163.0Y-88.0
X163.0Y-135.5
X163.0Y-137.5
X163.0Y-139.5
X163.0Y-141.5
X163.0Y-143.5
X163.0Y-145.5
X163.0Y-147.5
X164.5Y-62.0
X164.5Y-63.5
X164.5Y-65.0
X164.5Y-66.5
X164.5Y-68.0
X164.5Y-69.5
X164.5Y-71.0
X164.5Y-72.5
X164.5Y-74.0
X164.5Y-75.5
X164.5Y-77.0
X164.5Y-81.5
X164.5Y-88.0
X165.0Y-139.5
X165.0Y-141.5
X165.0Y-143.5
X165.0Y-145.5
X165.0Y-147.5
X166.0Y-62.0
X166.0Y-63.5
X166.0Y-65.0
X166.0Y-66.5
X166.0Y-68.0
X166.0Y-69.5
X166.0Y-71.0
X166.0Y-72.5
X166.0Y-74.0
X166.0Y-75.5
X166.0Y-77.0
X166.0Y-81.5
X166.0Y-88.0
X167.0Y-139.5
X167.0Y-141.5
X167.0Y-143.5
X167.0Y-145.5
X167.0Y-147.5
X167.5Y-65.0
X167.5Y-66.5
X167.5Y-68.0
X167.5Y-69.5
X167.5Y-71.0
X167.5Y-72.5
X167.5Y-74.0
X167.5Y-75.5
X167.5Y-77.0
X167.5Y-78.5
X167.5Y-80.0
X167.5Y-81.5
X167.5Y-88.0
X167.5Y-89.5
X167.5Y-91.0
X168.5Y-104.3
X168.5Y-105.5
X169.0Y-65.0
X169.0Y-69.5
X169.0Y-74.0
X169.0Y-75.5
X169.0Y-77.0
X169.0Y-78.5
X169.0Y-80.0
X169.0Y-81.5
X169.5Y-88.0
X169.5Y-89.5
X169.5Y-91.0
X170.5Y-65.0
X170.5Y-69.5
X170.5Y-74.0
X170.5Y-75.5
X170.5Y-77.0
X170.5Y-78.5
X171.0Y-88.0
X171.0Y-89.5
X172.0Y-65.0
X172.0Y-66.5
X172.0Y-68.0
X172.0Y-69.5
X172.0Y-71.0
X172.0Y-72.5
X172.0Y-74.0
X172.0Y-75.5
X172.0Y-77.0
X172.0Y-78.5
X172.25Y-138.5
X172.25Y-140.0
X172.5Y-88.0
X172.5Y-89.5
X173.5Y-71.0
X173.5Y-72.5
X173.5Y-74.0
X173.5Y-75.5
X173.5Y-77.0
X173.5Y-78.5
X173.75Y-138.5
X173.75Y-140.0
X173.75Y-141.5
X174.0Y-88.0
X174.0Y-89.5
X175.0Y-71.0
X175.0Y-72.5
X175.0Y-74.0
X175.0Y-75.5
X175.0Y-77.0
X175.0Y-78.5
X175.0Y-80.0
X175.0Y-81.5
X175.0Y-85.5
X175.0Y-97.25
X175.25Y-138.5
X175.25Y-140.0
X175.25Y-141.5
X175.5Y-88.0
X175.5Y-89.5
X175.5Y-91.0
X175.5Y-92.5
X175.75Y-135.0
X175.75Y-136.5
X176.25Y-53.0
X176.25Y-55.0
X176.25Y-57.0
X176.25Y-59.0
X176.5Y-71.0
X176.5Y-72.5
X176.5Y-74.0
X176.5Y-75.5
X176.5Y-77.0
X176.5Y-78.5
X176.5Y-80.0
X176.5Y-81.5
X176.75Y-138.5
X176.75Y-140.0
X176.75Y-141.5
X177.0Y-88.0
X177.0Y-89.5
X178.0Y-71.0
X178.0Y-72.5
X178.0Y-74.0
X178.0Y-75.5
X178.0Y-77.0
X178.0Y-81.5
X178.25Y-53.0
X178.25Y-55.0
X178.25Y-57.0
X178.25Y-59.0
X178.25Y-138.5
X178.25Y-140.0
X178.25Y-141.5
X178.5Y-88.0
X179.5Y-74.0
X179.5Y-75.5
X179.5Y-77.0
X179.5Y-81.5
X179.75Y-138.5
X179.75Y-140.0
X180.0Y-88.0
X180.25Y-53.0
X180.25Y-59.0
X181.0Y-74.0
X181.0Y-75.5
X181.0Y-77.0
X181.0Y-81.5
X181.5Y-88.0
X181.5Y-89.5
X181.5Y-91.0
X181.5Y-92.5
X182.25Y-53.0
X182.25Y-59.0
X182.5Y-71.0
X182.5Y-72.5
X182.5Y-74.0
X182.5Y-75.5
X182.5Y-77.0
X182.5Y-78.5
X182.5Y-80.0
X182.5Y-81.5
X183.0Y-104.4
X183.0Y-105.4
X184.0Y-71.0
X184.0Y-72.5
X184.0Y-74.0
X184.0Y-75.5
X184.0Y-77.0
X184.0Y-78.5
X184.0Y-80.0
X184.0Y-81.5
X184.25Y-53.0
X184.25Y-55.0
X184.25Y-57.0
X184.25Y-59.0
X184.5Y-88.0
X184.5Y-89.5
X185.0Y-139.5
X185.0Y-141.5
X185.0Y-143.5
X185.0Y-145.5
X185.0Y-147.5
X185.5Y-71.0
X185.5Y-72.5
X185.5Y-74.0
X185.5Y-75.5
X185.5Y-77.0
X185.5Y-78.5
X186.0Y-88.0
X186.0Y-89.5
X186.0Y-149.25
X186.25Y-53.0
X186.25Y-55.0
X186.25Y-57.0
X186.25Y-59.0
X187.0Y-71.0
X187.0Y-72.5
X187.0Y-74.0
X187.0Y-75.5
X187.0Y-77.0
X187.0Y-78.5
X187.0Y-139.5
X187.0Y-141.5
X187.0Y-143.5
X187.0Y-145.5
X187.0Y-147.5
X187.25Y-50.75
X187.5Y-88.0
X187.5Y-89.5
X188.5Y-71.0
X188.5Y-72.5
X188.5Y-74.0
X188.5Y-75.5
X188.5Y-77.0
X188.5Y-78.5
X189.0Y-88.0
X189.0Y-89.5
X189.0Y-91.0
X189.0Y-92.5
X189.0Y-94.0
X189.0Y-135.5
X189.0Y-137.5
X189.0Y-139.5
X189.0Y-141.5
X189.0Y-143.5
X189.0Y-145.5
X189.0Y-147.5
X189.5Y-85.5
X189.5Y-97.25
X190.0Y-71.0
X190.0Y-72.5
X190.0Y-74.0
X190.0Y-75.5
X190.0Y-77.0
X190.0Y-78.5
X190.0Y-80.0
X190.0Y-81.5
X190.5Y-88.0
X190.5Y-89.5
X190.5Y-91.0
X190.5Y-92.5
X190.5Y-94.0
X191.0Y-135.5
X191.0Y-137.5
X191.0Y-139.5
X191.5Y-65.0
X191.5Y-69.5
X191.5Y-74.0
X191.5Y-75.5
X191.5Y-77.0
X191.5Y-77.0
X191.5Y-77.0
X191.5Y-78.5
X191.5Y-80.0
X191.5Y-81.5
X192.0Y-88.0
X192.0Y-89.5
X193.0Y-63.5
X193.0Y-65.0
X193.0Y-69.5
X193.0Y-74.0
X193.0Y-75.5
X193.0Y-77.0
X193.0Y-81.5
X193.0Y-135.5
X193.0Y-137.5
X193.0Y-139.5
X193.5Y-88.0
X194.5Y-63.5
X194.5Y-65.0
X194.5Y-66.5
X194.5Y-68.0
X194.5Y-69.5
X194.5Y-71.0
X194.5Y-72.5
X194.5Y-74.0
X194.5Y-75.5
X194.5Y-77.0
X194.5Y-81.5
X195.0Y-88.0
X195.0Y-89.5
X195.0Y-135.5
X195.0Y-139.5
X196.0Y-63.5
X196.0Y-65.0
X196.0Y-66.5
X196.0Y-68.0
X196.0Y-69.5
X196.0Y-71.0
X196.0Y-72.5
X196.0Y-74.0
X196.0Y-75.5
X196.0Y-77.0
X196.0Y-81.5
X196.0Y-116.75
X196.0Y-118.25
X196.0Y-119.75
X196.0Y-121.25
X196.0Y-122.75
X196.5Y-88.0
X196.5Y-89.5
X196.5Y-91.0
X196.5Y-92.5
X196.5Y-94.0
X199.0Y-62.5
X199.0Y-75.75
X199.0Y-88.5
X199.0Y-101.5
X199.0Y-117.75
X199.0Y-134.0
T2
X52.8Y-55.0
X52.8Y-145.0
X53.5Y-53.5
X53.5Y-56.5
X53.5Y-143.5
X53.5Y-146.5
X55.0Y-52.8
X55.0Y-57.2
X55.0Y-142.8
X55.0Y-147.2
X56.5Y-53.5
X56.5Y-56.5
X56.5Y-143.5
X56.5Y-146.5
X57.2Y-55.0
X57.2Y-145.0
X192.8Y-55.0
X192.8Y-145.0
X193.5Y-53.5
X193.5Y-56.5
X193.5Y-143.5
X193.5Y-146.5
X195.0Y-52.8
X195.0Y-57.2
X195.0Y-142.8
X195.0Y-147.2
X196.5Y-53.5
X196.5Y-56.5
X196.5Y-143.5
X196.5Y-146.5
X197.2Y-55.0
X197.2Y-145.0
T3
X54.63Y-100.75
X62.25Y-100.75
X95.2Y-58.405
X95.2Y-60.905
X106.4Y-54.597
X106.4Y-59.597
X121.7Y-83.695
X121.7Y-86.195
X121.7Y-93.895
X121.7Y-96.395
X121.7Y-104.095
X121.7Y-106.595
X142.45Y-83.25
X142.45Y-86.25
X142.45Y-93.25
X142.45Y-96.25
X142.45Y-103.25
X142.45Y-106.25
T4
X53.195Y-87.93
X53.195Y-90.47
X53.195Y-93.01
X53.195Y-95.55
X53.21Y-62.01
X53.21Y-64.55
X53.21Y-67.09
X53.21Y-69.63
X53.21Y-72.17
X53.21Y-74.71
X53.21Y-77.25
X53.21Y-79.79
X53.21Y-82.33
X55.735Y-87.93
X55.735Y-90.47
X55.735Y-93.01
X55.735Y-95.55
X55.75Y-62.01
X55.75Y-64.55
X55.75Y-67.09
X55.75Y-69.63
X55.75Y-72.17
X55.75Y-74.71
X55.75Y-77.25
X55.75Y-79.79
X55.75Y-82.33
X69.5Y-121.46
X69.5Y-124.0
X81.485Y-112.25
X84.0Y-68.235
X84.0Y-70.775
X84.025Y-112.25
X94.485Y-84.0
X97.025Y-84.0
X100.1Y-56.235
X100.1Y-58.775
X100.25Y-117.985
X100.25Y-120.525
X114.485Y-75.4
X114.485Y-84.5
X114.485Y-105.5
X114.485Y-111.5
X114.485Y-117.5
X114.485Y-123.5
X114.51Y-95.0
X117.025Y-75.4
X117.025Y-84.5
X117.025Y-105.5
X117.025Y-111.5
X117.025Y-117.5
X117.025Y-123.5
X117.05Y-95.0
X125.225Y-129.5
X127.765Y-129.5
X133.075Y-129.5
X135.615Y-129.5
X144.25Y-67.382
X144.25Y-72.382
X169.8Y-67.118
X169.8Y-72.118
X180.75Y-67.118
X180.75Y-72.118
X191.75Y-67.118
X191.75Y-72.118
T5
X81.75Y-144.805
X86.75Y-144.805
X93.25Y-144.805
X98.25Y-144.805
X131.0Y-145.0
X136.0Y-145.0
X141.0Y-145.0
X146.0Y-145.0
X151.0Y-145.0
X151.75Y-55.195
X156.75Y-55.195
X171.0Y-145.0
X176.0Y-145.0
X181.0Y-145.0
T6
X110.0Y-145.0
X115.0Y-145.0
X120.0Y-145.0
X166.13Y-56.0
X181.37Y-56.0
T7
X55.0Y-55.0
X55.0Y-145.0
X195.0Y-55.0
X195.0Y-145.0
T8
X64.5Y-56.5
X68.9Y-56.5
M30
